G04*
G04 #@! TF.GenerationSoftware,Altium Limited,Altium Designer,24.2.2 (26)*
G04*
G04 Layer_Color=8421504*
%FSLAX44Y44*%
%MOMM*%
G71*
G04*
G04 #@! TF.SameCoordinates,DD90BFA2-8126-46E7-AA9B-D1BD1CD96E7C*
G04*
G04*
G04 #@! TF.FilePolarity,Positive*
G04*
G01*
G75*
%ADD15R,0.8500X0.8500*%
%ADD16O,2.0500X0.6000*%
%ADD17O,0.6000X2.0500*%
%ADD18R,0.6000X2.1000*%
%ADD19R,1.4000X1.1500*%
%ADD20R,0.8500X0.8500*%
%ADD21C,0.7620*%
D15*
X857250Y1043810D02*
D03*
Y1059310D02*
D03*
X1045210Y1047880D02*
D03*
Y1032380D02*
D03*
X1071880Y829180D02*
D03*
Y844680D02*
D03*
X979170Y1035180D02*
D03*
Y1019680D02*
D03*
X920750Y1043810D02*
D03*
Y1059310D02*
D03*
X979170Y1064390D02*
D03*
Y1048890D02*
D03*
X932180Y1018670D02*
D03*
Y1003170D02*
D03*
X1047750Y997080D02*
D03*
Y981580D02*
D03*
X1066800Y981450D02*
D03*
Y996950D02*
D03*
D16*
X892010Y962970D02*
D03*
Y954970D02*
D03*
Y946970D02*
D03*
Y938970D02*
D03*
Y930970D02*
D03*
Y922970D02*
D03*
Y914970D02*
D03*
Y906970D02*
D03*
Y898970D02*
D03*
Y890970D02*
D03*
Y882970D02*
D03*
Y874970D02*
D03*
Y866970D02*
D03*
Y858970D02*
D03*
Y850970D02*
D03*
Y842970D02*
D03*
X1046010D02*
D03*
Y850970D02*
D03*
Y858970D02*
D03*
Y866970D02*
D03*
Y874970D02*
D03*
Y882970D02*
D03*
Y890970D02*
D03*
Y898970D02*
D03*
Y906970D02*
D03*
Y914970D02*
D03*
Y922970D02*
D03*
Y930970D02*
D03*
Y938970D02*
D03*
Y946970D02*
D03*
Y954970D02*
D03*
Y962970D02*
D03*
D17*
X909010Y825970D02*
D03*
X917010D02*
D03*
X925010D02*
D03*
X933010D02*
D03*
X941010D02*
D03*
X949010D02*
D03*
X957010D02*
D03*
X965010D02*
D03*
X973010D02*
D03*
X981010D02*
D03*
X989010D02*
D03*
X997010D02*
D03*
X1005010D02*
D03*
X1013010D02*
D03*
X1021010D02*
D03*
X1029010D02*
D03*
Y979970D02*
D03*
X1021010D02*
D03*
X1013010D02*
D03*
X1005010D02*
D03*
X997010D02*
D03*
X989010D02*
D03*
X981010D02*
D03*
X973010D02*
D03*
X965010D02*
D03*
X957010D02*
D03*
X949010D02*
D03*
X941010D02*
D03*
X933010D02*
D03*
X925010D02*
D03*
X917010D02*
D03*
X909010D02*
D03*
D18*
X1022960Y1049360D02*
D03*
X1003960D02*
D03*
X1013460Y1028360D02*
D03*
D19*
X879270Y1043560D02*
D03*
X901270D02*
D03*
Y1059560D02*
D03*
X879270D02*
D03*
D20*
X1016130Y1070610D02*
D03*
X1000630D02*
D03*
X859660Y840740D02*
D03*
X875160D02*
D03*
X1083440Y939800D02*
D03*
X1067940D02*
D03*
X966340Y778510D02*
D03*
X981840D02*
D03*
X1009780Y1002030D02*
D03*
X994280D02*
D03*
D21*
X1097280Y1065530D02*
D03*
X1061720D02*
D03*
M02*
