G04*
G04 #@! TF.GenerationSoftware,Altium Limited,Altium Designer,24.2.2 (26)*
G04*
G04 Layer_Color=65535*
%FSLAX44Y44*%
%MOMM*%
G71*
G04*
G04 #@! TF.SameCoordinates,DD90BFA2-8126-46E7-AA9B-D1BD1CD96E7C*
G04*
G04*
G04 #@! TF.FilePolarity,Positive*
G04*
G01*
G75*
%ADD10C,0.2500*%
%ADD11C,0.6000*%
%ADD12C,0.1524*%
%ADD13C,0.2000*%
%ADD14C,0.2540*%
D10*
X774680Y983860D02*
G03*
X774680Y983860I-1250J0D01*
G01*
X1117580Y711590D02*
G03*
X1117580Y711590I-1250J0D01*
G01*
X893260Y971470D02*
G03*
X893260Y971470I-1250J0D01*
G01*
X1032710Y1049360D02*
G03*
X1032710Y1049360I-1250J0D01*
G01*
X881770Y1032560D02*
G03*
X881770Y1032560I-1250J0D01*
G01*
D11*
X919510Y955470D02*
G03*
X919510Y955470I-3000J0D01*
G01*
D12*
X864250Y1039560D02*
Y1063560D01*
X850250Y1039560D02*
Y1063560D01*
X996380Y1077610D02*
X1020380D01*
X996380Y1063610D02*
X1020380D01*
X1038210Y1028130D02*
Y1052130D01*
X1052210Y1028130D02*
Y1052130D01*
X855410Y833740D02*
X879410D01*
X855410Y847740D02*
X879410D01*
X1063690Y946800D02*
X1087690D01*
X1063690Y932800D02*
X1087690D01*
X1078880Y824930D02*
Y848930D01*
X1064880Y824930D02*
Y848930D01*
X972170Y1015430D02*
Y1039430D01*
X986170Y1015430D02*
Y1039430D01*
X962090Y771510D02*
X986090D01*
X962090Y785510D02*
X986090D01*
X990030Y1009030D02*
X1014030D01*
X990030Y995030D02*
X1014030D01*
X927750Y1039560D02*
Y1063560D01*
X913750Y1039560D02*
Y1063560D01*
X972170Y1044640D02*
Y1068640D01*
X986170Y1044640D02*
Y1068640D01*
X925180Y998920D02*
Y1022920D01*
X939180Y998920D02*
Y1022920D01*
X1040750Y977330D02*
Y1001330D01*
X1054750Y977330D02*
Y1001330D01*
X1073800Y977200D02*
Y1001200D01*
X1059800Y977200D02*
Y1001200D01*
D13*
X782780Y977860D02*
X787130D01*
X759730D02*
X764080D01*
X759730Y718860D02*
Y977860D01*
X782780Y718860D02*
X787130D01*
X759730D02*
X764080D01*
X787130D02*
Y977860D01*
X1102630Y717590D02*
Y976590D01*
X1125680D02*
X1130030D01*
X1102630D02*
X1106980D01*
X1130030Y717590D02*
Y976590D01*
X1125680Y717590D02*
X1130030D01*
X1102630D02*
X1106980D01*
X814070Y735380D02*
X966470D01*
Y678180D02*
Y735380D01*
X814070Y678180D02*
Y735380D01*
Y678180D02*
X966470D01*
X906510Y840470D02*
Y965470D01*
X1031510Y840470D02*
Y965470D01*
X906510D02*
X1031510D01*
X906510Y840470D02*
X1031510D01*
X1028960Y1029860D02*
Y1034860D01*
X1020460Y1029860D02*
X1028960D01*
X997960D02*
Y1034860D01*
Y1029860D02*
X1006460D01*
X913270Y1039560D02*
Y1063560D01*
X867270Y1039560D02*
Y1063560D01*
D14*
X859533Y1078480D02*
X856993Y1081019D01*
X851915D01*
X849376Y1078480D01*
Y1068323D01*
X851915Y1065784D01*
X856993D01*
X859533Y1068323D01*
X864611D02*
X867150Y1065784D01*
X872229D01*
X874768Y1068323D01*
Y1078480D01*
X872229Y1081019D01*
X867150D01*
X864611Y1078480D01*
Y1075941D01*
X867150Y1073401D01*
X874768D01*
X767839Y1002787D02*
X762760D01*
X765300D01*
Y990091D01*
X762760Y987552D01*
X760221D01*
X757682Y990091D01*
X772917Y987552D02*
X777995D01*
X775456D01*
Y1002787D01*
X772917Y1000248D01*
X1110739Y995167D02*
X1105660D01*
X1108199D01*
Y982471D01*
X1105660Y979932D01*
X1103121D01*
X1100582Y982471D01*
X1125974Y979932D02*
X1115817D01*
X1125974Y990089D01*
Y992628D01*
X1123435Y995167D01*
X1118356D01*
X1115817Y992628D01*
X812800Y737870D02*
Y753105D01*
X820417D01*
X822957Y750566D01*
Y745488D01*
X820417Y742948D01*
X812800D01*
X828035Y737870D02*
X833113D01*
X830574D01*
Y753105D01*
X828035Y750566D01*
X876808Y1011677D02*
Y998981D01*
X879347Y996442D01*
X884426D01*
X886965Y998981D01*
Y1011677D01*
X892043Y996442D02*
X897121D01*
X894582D01*
Y1011677D01*
X892043Y1009138D01*
X992632Y1081273D02*
Y1068577D01*
X995171Y1066038D01*
X1000249D01*
X1002789Y1068577D01*
Y1081273D01*
X1018024Y1066038D02*
X1007867D01*
X1018024Y1076195D01*
Y1078734D01*
X1015485Y1081273D01*
X1010406D01*
X1007867Y1078734D01*
X866394Y1083813D02*
Y1081274D01*
X871472Y1076196D01*
X876551Y1081274D01*
Y1083813D01*
X871472Y1076196D02*
Y1068578D01*
X881629D02*
X886707D01*
X884168D01*
Y1083813D01*
X881629Y1081274D01*
X1005583Y1092450D02*
X1003044Y1094989D01*
X997965D01*
X995426Y1092450D01*
Y1082293D01*
X997965Y1079754D01*
X1003044D01*
X1005583Y1082293D01*
X1010661Y1079754D02*
X1015739D01*
X1013200D01*
Y1094989D01*
X1010661Y1092450D01*
X1047493Y1067050D02*
X1044954Y1069589D01*
X1039875D01*
X1037336Y1067050D01*
Y1056893D01*
X1039875Y1054354D01*
X1044954D01*
X1047493Y1056893D01*
X1062728Y1054354D02*
X1052571D01*
X1062728Y1064511D01*
Y1067050D01*
X1060189Y1069589D01*
X1055110D01*
X1052571Y1067050D01*
X864613Y862580D02*
X862074Y865119D01*
X856995D01*
X854456Y862580D01*
Y852423D01*
X856995Y849884D01*
X862074D01*
X864613Y852423D01*
X869691Y862580D02*
X872230Y865119D01*
X877309D01*
X879848Y862580D01*
Y860041D01*
X877309Y857502D01*
X874769D01*
X877309D01*
X879848Y854962D01*
Y852423D01*
X877309Y849884D01*
X872230D01*
X869691Y852423D01*
X1072893Y961640D02*
X1070353Y964179D01*
X1065275D01*
X1062736Y961640D01*
Y951483D01*
X1065275Y948944D01*
X1070353D01*
X1072893Y951483D01*
X1085589Y948944D02*
Y964179D01*
X1077971Y956562D01*
X1088128D01*
X1074163Y863850D02*
X1071624Y866389D01*
X1066545D01*
X1064006Y863850D01*
Y853693D01*
X1066545Y851154D01*
X1071624D01*
X1074163Y853693D01*
X1089398Y866389D02*
X1079241D01*
Y858772D01*
X1084319Y861311D01*
X1086859D01*
X1089398Y858772D01*
Y853693D01*
X1086859Y851154D01*
X1081780D01*
X1079241Y853693D01*
X1099309Y1087878D02*
X1096769Y1090417D01*
X1091691D01*
X1089152Y1087878D01*
Y1077721D01*
X1091691Y1075182D01*
X1096769D01*
X1099309Y1077721D01*
X1104387Y1075182D02*
Y1090417D01*
X1112005D01*
X1114544Y1087878D01*
Y1082800D01*
X1112005Y1080260D01*
X1104387D01*
X1119622Y1075182D02*
X1124700D01*
X1122161D01*
Y1090417D01*
X1119622Y1087878D01*
X971296Y1041654D02*
Y1056889D01*
X978913D01*
X981453Y1054350D01*
Y1049271D01*
X978913Y1046732D01*
X971296D01*
X976374D02*
X981453Y1041654D01*
X986531D02*
X991609D01*
X989070D01*
Y1056889D01*
X986531Y1054350D01*
X971293Y800350D02*
X968754Y802889D01*
X963675D01*
X961136Y800350D01*
Y790193D01*
X963675Y787654D01*
X968754D01*
X971293Y790193D01*
X986528Y802889D02*
X981449Y800350D01*
X976371Y795272D01*
Y790193D01*
X978910Y787654D01*
X983989D01*
X986528Y790193D01*
Y792732D01*
X983989Y795272D01*
X976371D01*
X999233Y1023870D02*
X996693Y1026409D01*
X991615D01*
X989076Y1023870D01*
Y1013713D01*
X991615Y1011174D01*
X996693D01*
X999233Y1013713D01*
X1004311Y1026409D02*
X1014468D01*
Y1023870D01*
X1004311Y1013713D01*
Y1011174D01*
X1063749Y1087878D02*
X1061209Y1090417D01*
X1056131D01*
X1053592Y1087878D01*
Y1077721D01*
X1056131Y1075182D01*
X1061209D01*
X1063749Y1077721D01*
X1068827Y1075182D02*
Y1090417D01*
X1076445D01*
X1078984Y1087878D01*
Y1082800D01*
X1076445Y1080260D01*
X1068827D01*
X1094219Y1075182D02*
X1084062D01*
X1094219Y1085339D01*
Y1087878D01*
X1091680Y1090417D01*
X1086601D01*
X1084062Y1087878D01*
X923033Y1078480D02*
X920493Y1081019D01*
X915415D01*
X912876Y1078480D01*
Y1068323D01*
X915415Y1065784D01*
X920493D01*
X923033Y1068323D01*
X928111Y1078480D02*
X930650Y1081019D01*
X935729D01*
X938268Y1078480D01*
Y1075941D01*
X935729Y1073401D01*
X938268Y1070862D01*
Y1068323D01*
X935729Y1065784D01*
X930650D01*
X928111Y1068323D01*
Y1070862D01*
X930650Y1073401D01*
X928111Y1075941D01*
Y1078480D01*
X930650Y1073401D02*
X935729D01*
X971296Y1086099D02*
Y1070864D01*
X978913D01*
X981453Y1073403D01*
Y1083560D01*
X978913Y1086099D01*
X971296D01*
X986531Y1070864D02*
X991609D01*
X989070D01*
Y1086099D01*
X986531Y1083560D01*
X934463Y1037840D02*
X931924Y1040379D01*
X926845D01*
X924306Y1037840D01*
Y1027683D01*
X926845Y1025144D01*
X931924D01*
X934463Y1027683D01*
X939541Y1025144D02*
X944619D01*
X942080D01*
Y1040379D01*
X939541Y1037840D01*
X952237D02*
X954776Y1040379D01*
X959855D01*
X962394Y1037840D01*
Y1027683D01*
X959855Y1025144D01*
X954776D01*
X952237Y1027683D01*
Y1037840D01*
X1039876Y1003554D02*
Y1018789D01*
X1047494D01*
X1050033Y1016250D01*
Y1011171D01*
X1047494Y1008632D01*
X1039876D01*
X1044954D02*
X1050033Y1003554D01*
X1065268D02*
X1055111D01*
X1065268Y1013711D01*
Y1016250D01*
X1062729Y1018789D01*
X1057650D01*
X1055111Y1016250D01*
X1058926Y1018789D02*
Y1003554D01*
X1066544D01*
X1069083Y1006093D01*
Y1016250D01*
X1066544Y1018789D01*
X1058926D01*
X1084318Y1003554D02*
X1074161D01*
X1084318Y1013711D01*
Y1016250D01*
X1081779Y1018789D01*
X1076700D01*
X1074161Y1016250D01*
M02*
