G04*
G04 #@! TF.GenerationSoftware,Altium Limited,Altium Designer,24.2.2 (26)*
G04*
G04 Layer_Physical_Order=1*
G04 Layer_Color=255*
%FSLAX44Y44*%
%MOMM*%
G71*
G04*
G04 #@! TF.SameCoordinates,DD90BFA2-8126-46E7-AA9B-D1BD1CD96E7C*
G04*
G04*
G04 #@! TF.FilePolarity,Positive*
G04*
G01*
G75*
%ADD15R,0.8500X0.8500*%
%ADD16O,2.0500X0.6000*%
%ADD17O,0.6000X2.0500*%
%ADD18R,0.6000X2.1000*%
%ADD19R,1.4000X1.1500*%
%ADD20R,0.8500X0.8500*%
%ADD21C,0.7620*%
%ADD29C,1.1200*%
%ADD30R,1.1200X1.1200*%
%ADD35C,0.4064*%
%ADD36C,1.2700*%
%ADD37C,0.3810*%
%ADD38C,0.7620*%
%ADD39C,0.8890*%
%ADD40C,0.5080*%
%ADD41R,1.6510X1.6510*%
%ADD42C,1.8000*%
%ADD43R,1.8000X1.8000*%
%ADD44C,1.5240*%
%ADD45C,1.2700*%
G36*
X1149350Y1075690D02*
Y662940D01*
X737505D01*
X736614Y663845D01*
X742950Y1083310D01*
X1141730D01*
X1149350Y1075690D01*
D02*
G37*
%LPC*%
G36*
X1022920Y1077400D02*
X1017400D01*
Y1071880D01*
X1022920D01*
Y1077400D01*
D02*
G37*
G36*
X1014860D02*
X1009340D01*
Y1071880D01*
X1014860D01*
Y1077400D01*
D02*
G37*
G36*
X1022920Y1069340D02*
X1017400D01*
Y1063820D01*
X1022920D01*
Y1069340D01*
D02*
G37*
G36*
X1014860D02*
X1009340D01*
Y1063820D01*
X1014860D01*
Y1069340D01*
D02*
G37*
G36*
X888810Y1067850D02*
X880540D01*
Y1060830D01*
X888810D01*
Y1067850D01*
D02*
G37*
G36*
X878000D02*
X869730D01*
Y1060830D01*
X878000D01*
Y1067850D01*
D02*
G37*
G36*
X864040Y1066100D02*
X858520D01*
Y1060580D01*
X864040D01*
Y1066100D01*
D02*
G37*
G36*
X855980D02*
X850460D01*
Y1060580D01*
X855980D01*
Y1066100D01*
D02*
G37*
G36*
X864040Y1058040D02*
X858520D01*
Y1052520D01*
X864040D01*
Y1058040D01*
D02*
G37*
G36*
X855980D02*
X850460D01*
Y1052520D01*
X855980D01*
Y1058040D01*
D02*
G37*
G36*
X1021690Y1062400D02*
X1017420D01*
Y1050630D01*
X1021690D01*
Y1062400D01*
D02*
G37*
G36*
X910810Y1067850D02*
X891730D01*
Y1051270D01*
Y1043692D01*
X890598Y1043117D01*
X888810Y1044422D01*
Y1051270D01*
Y1058290D01*
X869730D01*
Y1051270D01*
Y1048342D01*
X864040D01*
Y1050600D01*
X850460D01*
Y1037020D01*
X864040D01*
Y1039278D01*
X869730D01*
Y1035270D01*
X880968D01*
X886296Y1029942D01*
X887808Y1028931D01*
X889592Y1028576D01*
X939681D01*
X943978Y1024280D01*
Y993311D01*
X942708Y992531D01*
X942280Y992616D01*
Y979970D01*
Y967324D01*
X943172Y967501D01*
X943956Y968026D01*
X945010Y968722D01*
X946064Y968026D01*
X946848Y967501D01*
X949010Y967072D01*
X951172Y967501D01*
X953004Y968726D01*
X953016D01*
X954848Y967501D01*
X957010Y967072D01*
X959172Y967501D01*
X961004Y968726D01*
X961016D01*
X962848Y967501D01*
X965010Y967072D01*
X967172Y967501D01*
X967956Y968026D01*
X969010Y968722D01*
X970064Y968026D01*
X970848Y967501D01*
X973010Y967072D01*
X975172Y967501D01*
X977004Y968726D01*
X977016D01*
X978848Y967501D01*
X981010Y967072D01*
X983172Y967501D01*
X985004Y968726D01*
X985016D01*
X986848Y967501D01*
X989010Y967072D01*
X990161Y967300D01*
X991448Y966275D01*
X991450Y966136D01*
X990712Y965710D01*
X988820Y963818D01*
X987482Y961502D01*
X986790Y958918D01*
Y956242D01*
X987482Y953658D01*
X988820Y951342D01*
X990712Y949450D01*
X993028Y948112D01*
X995612Y947420D01*
X998288D01*
X1000191Y947930D01*
X1012355Y935765D01*
X1012355Y935765D01*
X1013826Y934783D01*
X1015560Y934438D01*
X1015560Y934438D01*
X1033067D01*
X1033666Y933318D01*
X1033541Y933132D01*
X1033364Y932240D01*
X1046010D01*
Y929700D01*
X1033364D01*
X1033541Y928808D01*
X1034766Y926976D01*
Y926964D01*
X1033541Y925132D01*
X1033111Y922970D01*
X1033541Y920808D01*
X1034766Y918976D01*
Y918964D01*
X1033541Y917132D01*
X1033111Y914970D01*
X1033541Y912808D01*
X1034766Y910976D01*
Y910964D01*
X1033541Y909132D01*
X1033111Y906970D01*
X1033541Y904808D01*
X1034766Y902976D01*
Y902964D01*
X1033541Y901132D01*
X1033111Y898970D01*
X1033541Y896808D01*
X1034766Y894976D01*
Y894964D01*
X1033541Y893132D01*
X1033111Y890970D01*
X1033541Y888808D01*
X1034766Y886976D01*
Y886964D01*
X1033541Y885132D01*
X1033111Y882970D01*
X1033541Y880808D01*
X1034766Y878976D01*
Y878964D01*
X1033541Y877132D01*
X1033111Y874970D01*
X1033541Y872808D01*
X1034766Y870976D01*
Y870964D01*
X1033541Y869132D01*
X1033111Y866970D01*
X1033237Y866337D01*
X1032067Y865712D01*
X1031128Y866650D01*
X1028812Y867988D01*
X1026228Y868680D01*
X1023552D01*
X1020968Y867988D01*
X1018652Y866650D01*
X1016760Y864758D01*
X1015422Y862442D01*
X1014730Y859858D01*
Y857182D01*
X1015422Y854598D01*
X1016760Y852282D01*
X1018652Y850390D01*
X1020968Y849052D01*
X1023552Y848360D01*
X1026228D01*
X1028812Y849052D01*
X1031128Y850390D01*
X1031881Y851142D01*
X1032250Y851091D01*
X1033177Y850642D01*
X1033541Y848808D01*
X1034766Y846976D01*
Y846964D01*
X1033541Y845132D01*
X1033111Y842970D01*
X1029010Y838868D01*
X1026848Y838439D01*
X1025016Y837214D01*
X1025004D01*
X1023172Y838439D01*
X1021010Y838868D01*
X1018848Y838439D01*
X1017016Y837214D01*
X1017004D01*
X1015172Y838439D01*
X1013010Y838868D01*
X1010848Y838439D01*
X1009016Y837214D01*
X1009004D01*
X1007172Y838439D01*
X1005010Y838868D01*
X1002848Y838439D01*
X1001016Y837214D01*
X1001004D01*
X999172Y838439D01*
X997010Y838868D01*
X994848Y838439D01*
X993016Y837214D01*
X993004D01*
X991172Y838439D01*
X989010Y838868D01*
X986848Y838439D01*
X985016Y837214D01*
X985004D01*
X983172Y838439D01*
X981010Y838868D01*
X978848Y838439D01*
X977974Y837854D01*
X976642Y838038D01*
X976486Y838271D01*
X975660Y839509D01*
X975660Y839509D01*
X971299Y843870D01*
X969828Y844852D01*
X968094Y845197D01*
X950642D01*
X949450Y846389D01*
X949960Y848292D01*
Y850968D01*
X949268Y853552D01*
X947930Y855868D01*
X946038Y857760D01*
X943722Y859098D01*
X941138Y859790D01*
X938462D01*
X935878Y859098D01*
X933562Y857760D01*
X931670Y855868D01*
X931459Y855502D01*
X904953D01*
X904354Y856622D01*
X904479Y856808D01*
X904656Y857700D01*
X892010D01*
Y860240D01*
X904656D01*
X904479Y861132D01*
X903254Y862964D01*
Y862976D01*
X904479Y864808D01*
X904909Y866970D01*
X904479Y869132D01*
X903254Y870964D01*
Y870976D01*
X904479Y872808D01*
X904909Y874970D01*
X904479Y877132D01*
X903254Y878964D01*
Y878976D01*
X904479Y880808D01*
X904909Y882970D01*
X904479Y885132D01*
X903254Y886964D01*
Y886976D01*
X904479Y888808D01*
X904909Y890970D01*
X904479Y893132D01*
X903254Y894964D01*
Y894976D01*
X904479Y896808D01*
X904909Y898970D01*
X904479Y901132D01*
X903254Y902964D01*
Y902976D01*
X904479Y904808D01*
X904909Y906970D01*
X904479Y909132D01*
X903254Y910964D01*
Y910976D01*
X904479Y912808D01*
X904909Y914970D01*
X904479Y917132D01*
X903254Y918964D01*
Y918976D01*
X904479Y920808D01*
X904909Y922970D01*
X904479Y925132D01*
X903254Y926964D01*
Y926976D01*
X904479Y928808D01*
X904909Y930970D01*
X904479Y933132D01*
X903254Y934964D01*
Y934976D01*
X904479Y936808D01*
X904909Y938970D01*
X904479Y941132D01*
X903254Y942964D01*
Y942976D01*
X904479Y944808D01*
X904909Y946970D01*
X904479Y949132D01*
X903254Y950964D01*
Y950976D01*
X904479Y952808D01*
X904909Y954970D01*
X904479Y957132D01*
X903254Y958964D01*
Y958976D01*
X904479Y960808D01*
X904909Y962970D01*
X904479Y965132D01*
X903254Y966964D01*
X901422Y968189D01*
X899260Y968618D01*
X897888D01*
X897402Y969792D01*
X900430Y972820D01*
X903362D01*
Y972720D01*
X903791Y970558D01*
X905016Y968726D01*
X906848Y967501D01*
X909010Y967072D01*
X911172Y967501D01*
X913004Y968726D01*
X913016D01*
X914848Y967501D01*
X917010Y967072D01*
X919172Y967501D01*
X921004Y968726D01*
X921016D01*
X922848Y967501D01*
X925010Y967072D01*
X927172Y967501D01*
X927358Y967626D01*
X928478Y967027D01*
Y961898D01*
X926721Y960884D01*
X925066Y959229D01*
X923896Y957201D01*
X923290Y954940D01*
Y952600D01*
X923896Y950339D01*
X925066Y948311D01*
X926721Y946656D01*
X928749Y945486D01*
X931010Y944880D01*
X933350D01*
X935611Y945486D01*
X937639Y946656D01*
X939294Y948311D01*
X940464Y950339D01*
X941070Y952600D01*
Y954940D01*
X940464Y957201D01*
X939294Y959229D01*
X937639Y960884D01*
X937542Y960939D01*
Y967027D01*
X938662Y967626D01*
X938848Y967501D01*
X939740Y967324D01*
Y979970D01*
Y992616D01*
X938848Y992439D01*
X938662Y992314D01*
X937542Y992913D01*
Y996380D01*
X938970D01*
Y1009960D01*
X925390D01*
Y1001832D01*
X924217Y1001346D01*
X918966Y1006596D01*
X917454Y1007607D01*
X915670Y1007962D01*
X806360D01*
X804576Y1007607D01*
X803064Y1006596D01*
X782071Y985604D01*
X781061Y984091D01*
X780706Y982308D01*
Y980688D01*
X780447D01*
X778663Y980333D01*
X777150Y979323D01*
X774977Y977150D01*
X765290D01*
Y960870D01*
X765394D01*
X766029Y959770D01*
X765845Y959452D01*
X765290Y957382D01*
Y955238D01*
X765845Y953168D01*
X766916Y951312D01*
X768268Y949960D01*
X766916Y948608D01*
X765845Y946752D01*
X765290Y944682D01*
Y942538D01*
X765845Y940468D01*
X766916Y938612D01*
X768268Y937260D01*
X766916Y935908D01*
X765845Y934052D01*
X765290Y931982D01*
Y929838D01*
X765845Y927768D01*
X766916Y925912D01*
X768268Y924560D01*
X766916Y923208D01*
X765845Y921352D01*
X765290Y919282D01*
Y917138D01*
X765845Y915068D01*
X766916Y913212D01*
X768268Y911860D01*
X766916Y910508D01*
X765845Y908652D01*
X765290Y906582D01*
Y904438D01*
X765845Y902368D01*
X766916Y900512D01*
X768268Y899160D01*
X766916Y897808D01*
X765845Y895952D01*
X765290Y893882D01*
Y891738D01*
X765845Y889668D01*
X766916Y887812D01*
X768268Y886460D01*
X766916Y885108D01*
X765845Y883252D01*
X765290Y881182D01*
Y879038D01*
X765845Y876968D01*
X766916Y875112D01*
X768268Y873760D01*
X766916Y872408D01*
X765845Y870552D01*
X765290Y868482D01*
Y866338D01*
X765845Y864268D01*
X766916Y862412D01*
X768268Y861060D01*
X766916Y859708D01*
X765845Y857852D01*
X765290Y855782D01*
Y853638D01*
X765845Y851568D01*
X766916Y849712D01*
X768268Y848360D01*
X766916Y847008D01*
X765845Y845152D01*
X765290Y843082D01*
Y840938D01*
X765845Y838868D01*
X766916Y837012D01*
X768268Y835660D01*
X766916Y834308D01*
X765845Y832452D01*
X765290Y830382D01*
Y828238D01*
X765845Y826168D01*
X766916Y824312D01*
X768268Y822960D01*
X766916Y821608D01*
X765845Y819752D01*
X765290Y817682D01*
Y815538D01*
X765845Y813468D01*
X766916Y811612D01*
X768268Y810260D01*
X766916Y808908D01*
X765845Y807052D01*
X765290Y804982D01*
Y802838D01*
X765845Y800768D01*
X766916Y798912D01*
X768268Y797560D01*
X766916Y796208D01*
X765845Y794352D01*
X765290Y792282D01*
Y790138D01*
X765845Y788068D01*
X766916Y786212D01*
X768268Y784860D01*
X766916Y783508D01*
X765845Y781652D01*
X765290Y779582D01*
Y777438D01*
X765845Y775368D01*
X766916Y773512D01*
X768268Y772160D01*
X766916Y770808D01*
X765845Y768952D01*
X765290Y766882D01*
Y764738D01*
X765845Y762668D01*
X766916Y760812D01*
X768268Y759460D01*
X766916Y758108D01*
X765845Y756252D01*
X765290Y754182D01*
Y752038D01*
X765845Y749968D01*
X766916Y748112D01*
X768268Y746760D01*
X766916Y745408D01*
X765845Y743552D01*
X765343Y741680D01*
X773430D01*
X781517D01*
X781015Y743552D01*
X779944Y745408D01*
X778592Y746760D01*
X779944Y748112D01*
X780138Y748448D01*
X796609D01*
X798393Y748803D01*
X799763Y749718D01*
X933450D01*
X935234Y750073D01*
X936746Y751084D01*
X958377Y772714D01*
X959550Y772228D01*
Y771720D01*
X965070D01*
Y778510D01*
X967610D01*
Y771720D01*
X973130D01*
Y778759D01*
X974342Y779293D01*
X975050Y778725D01*
Y771720D01*
X988630D01*
Y781118D01*
X989803Y781604D01*
X1033024Y738384D01*
X1034536Y737373D01*
X1036320Y737018D01*
X1085864D01*
X1093643Y729240D01*
X1094725Y728516D01*
X1100098Y723144D01*
X1101610Y722133D01*
X1103394Y721778D01*
X1108190D01*
Y718300D01*
X1124470D01*
Y734580D01*
X1124367D01*
X1123732Y735680D01*
X1123915Y735998D01*
X1124470Y738068D01*
Y740212D01*
X1123915Y742282D01*
X1122844Y744138D01*
X1121492Y745490D01*
X1122844Y746842D01*
X1123915Y748698D01*
X1124470Y750768D01*
Y752912D01*
X1123915Y754982D01*
X1122844Y756838D01*
X1121492Y758190D01*
X1122844Y759542D01*
X1123915Y761398D01*
X1124470Y763468D01*
Y765612D01*
X1123915Y767682D01*
X1122844Y769538D01*
X1121492Y770890D01*
X1122844Y772242D01*
X1123915Y774098D01*
X1124470Y776168D01*
Y778312D01*
X1123915Y780382D01*
X1122844Y782238D01*
X1121492Y783590D01*
X1122844Y784942D01*
X1123915Y786798D01*
X1124470Y788868D01*
Y791012D01*
X1123915Y793082D01*
X1122844Y794938D01*
X1121492Y796290D01*
X1122844Y797642D01*
X1123915Y799498D01*
X1124470Y801568D01*
Y803712D01*
X1123915Y805782D01*
X1122844Y807638D01*
X1121492Y808990D01*
X1122844Y810342D01*
X1123915Y812198D01*
X1124470Y814268D01*
Y816412D01*
X1123915Y818482D01*
X1122844Y820338D01*
X1121492Y821690D01*
X1122844Y823042D01*
X1123915Y824898D01*
X1124417Y826770D01*
X1116330D01*
X1108243D01*
X1108745Y824898D01*
X1109816Y823042D01*
X1111168Y821690D01*
X1109816Y820338D01*
X1109622Y820002D01*
X1101057D01*
X1099780Y820256D01*
X1067207D01*
X1066342Y821120D01*
X1066869Y822390D01*
X1070610D01*
Y829180D01*
X1073150D01*
Y822390D01*
X1078670D01*
Y824518D01*
X1083893D01*
X1084692Y823720D01*
X1087008Y822382D01*
X1089592Y821690D01*
X1089660D01*
Y831850D01*
X1090930D01*
Y833120D01*
X1101090D01*
Y833188D01*
X1100656Y834808D01*
X1101630Y836078D01*
X1109622D01*
X1109816Y835742D01*
X1111168Y834390D01*
X1109816Y833038D01*
X1108745Y831182D01*
X1108243Y829310D01*
X1116330D01*
X1124417D01*
X1123915Y831182D01*
X1122844Y833038D01*
X1121492Y834390D01*
X1122844Y835742D01*
X1123915Y837598D01*
X1124470Y839668D01*
Y841812D01*
X1123915Y843882D01*
X1122844Y845738D01*
X1121492Y847090D01*
X1122844Y848442D01*
X1123915Y850298D01*
X1124470Y852368D01*
Y854512D01*
X1123915Y856582D01*
X1122844Y858438D01*
X1121492Y859790D01*
X1122844Y861142D01*
X1123915Y862998D01*
X1124470Y865068D01*
Y867212D01*
X1123915Y869282D01*
X1122844Y871138D01*
X1121492Y872490D01*
X1122844Y873842D01*
X1123915Y875698D01*
X1124470Y877768D01*
Y879912D01*
X1123915Y881982D01*
X1122844Y883838D01*
X1121492Y885190D01*
X1122844Y886542D01*
X1123915Y888398D01*
X1124470Y890468D01*
Y892612D01*
X1123915Y894682D01*
X1122844Y896538D01*
X1121492Y897890D01*
X1122844Y899242D01*
X1123915Y901098D01*
X1124470Y903168D01*
Y905312D01*
X1123915Y907382D01*
X1122844Y909238D01*
X1121492Y910590D01*
X1122844Y911942D01*
X1123915Y913798D01*
X1124470Y915868D01*
Y918012D01*
X1123915Y920082D01*
X1122844Y921938D01*
X1121492Y923290D01*
X1122844Y924642D01*
X1123915Y926498D01*
X1124470Y928568D01*
Y930712D01*
X1123915Y932782D01*
X1122844Y934638D01*
X1121492Y935990D01*
X1122844Y937342D01*
X1123915Y939198D01*
X1124417Y941070D01*
X1116330D01*
X1108243D01*
X1108745Y939198D01*
X1109816Y937342D01*
X1111168Y935990D01*
X1109816Y934638D01*
X1109622Y934302D01*
X1095726D01*
X1093942Y933947D01*
X1092430Y932936D01*
X1087125Y927632D01*
X1079477D01*
X1078951Y928902D01*
X1082170Y932121D01*
Y939800D01*
Y946590D01*
X1076650D01*
Y939585D01*
X1075941Y939017D01*
X1074730Y939551D01*
Y946590D01*
X1061150D01*
Y943502D01*
X1058953D01*
X1058354Y944622D01*
X1058479Y944808D01*
X1058908Y946970D01*
X1058479Y949132D01*
X1057254Y950964D01*
Y950976D01*
X1058479Y952808D01*
X1058908Y954970D01*
X1058479Y957132D01*
X1057254Y958964D01*
Y958976D01*
X1058479Y960808D01*
X1058908Y962970D01*
X1058479Y965132D01*
X1057254Y966964D01*
X1055422Y968189D01*
X1053260Y968618D01*
X1038760D01*
X1036598Y968189D01*
X1034766Y966964D01*
X1033541Y965132D01*
X1033111Y962970D01*
X1033541Y960808D01*
X1034766Y958976D01*
Y958964D01*
X1033541Y957132D01*
X1033111Y954970D01*
X1033541Y952808D01*
X1034766Y950976D01*
Y950964D01*
X1033541Y949132D01*
X1033111Y946970D01*
X1033541Y944808D01*
X1033666Y944622D01*
X1033067Y943502D01*
X1017437D01*
X1006600Y954339D01*
X1007110Y956242D01*
Y958918D01*
X1006418Y961502D01*
X1005080Y963818D01*
X1003188Y965710D01*
X1002507Y966103D01*
X1002511Y966316D01*
X1003740Y967268D01*
Y979970D01*
Y992616D01*
X1002848Y992439D01*
X1002662Y992314D01*
X1001542Y992913D01*
Y998290D01*
X1001197Y1000024D01*
X1001070Y1000215D01*
Y1008820D01*
X987490D01*
Y995240D01*
X992478D01*
Y992913D01*
X991358Y992314D01*
X991172Y992439D01*
X989010Y992868D01*
X986848Y992439D01*
X985016Y991214D01*
X985004D01*
X983172Y992439D01*
X981010Y992868D01*
X978848Y992439D01*
X977016Y991214D01*
X977004D01*
X975172Y992439D01*
X973010Y992868D01*
X970848Y992439D01*
X970064Y991914D01*
X969010Y991218D01*
X967956Y991914D01*
X967172Y992439D01*
X965010Y992868D01*
X962942Y992457D01*
X962652Y992475D01*
X961672Y992999D01*
Y1048320D01*
X961317Y1050104D01*
X960306Y1051616D01*
X949066Y1062856D01*
X947554Y1063867D01*
X945770Y1064222D01*
X927540D01*
Y1066100D01*
X913960D01*
Y1064222D01*
X910810D01*
Y1067850D01*
D02*
G37*
G36*
X985960Y1026470D02*
X980440D01*
Y1020950D01*
X985960D01*
Y1026470D01*
D02*
G37*
G36*
X977900D02*
X972380D01*
Y1020950D01*
X977900D01*
Y1026470D01*
D02*
G37*
G36*
X938970Y1025460D02*
X933450D01*
Y1019940D01*
X938970D01*
Y1025460D01*
D02*
G37*
G36*
X930910D02*
X925390D01*
Y1019940D01*
X930910D01*
Y1025460D01*
D02*
G37*
G36*
X985960Y1018410D02*
X980440D01*
Y1012890D01*
X985960D01*
Y1018410D01*
D02*
G37*
G36*
X977900D02*
X972380D01*
Y1012890D01*
X977900D01*
Y1018410D01*
D02*
G37*
G36*
X938970Y1017400D02*
X933450D01*
Y1011880D01*
X938970D01*
Y1017400D01*
D02*
G37*
G36*
X930910D02*
X925390D01*
Y1011880D01*
X930910D01*
Y1017400D01*
D02*
G37*
G36*
X1016570Y1008820D02*
X1011050D01*
Y1003300D01*
X1016570D01*
Y1008820D01*
D02*
G37*
G36*
X1008510D02*
X1002990D01*
Y1003300D01*
X1008510D01*
Y1008820D01*
D02*
G37*
G36*
X1016570Y1000760D02*
X1011050D01*
Y995240D01*
X1016570D01*
Y1000760D01*
D02*
G37*
G36*
X1008510D02*
X1002990D01*
Y995240D01*
X1008510D01*
Y1000760D01*
D02*
G37*
G36*
X1029010Y992868D02*
X1026848Y992439D01*
X1025016Y991214D01*
X1025004D01*
X1023172Y992439D01*
X1021010Y992868D01*
X1018848Y992439D01*
X1018064Y991914D01*
X1017010Y991218D01*
X1015956Y991914D01*
X1015172Y992439D01*
X1013010Y992868D01*
X1010848Y992439D01*
X1009016Y991214D01*
X1009004D01*
X1007172Y992439D01*
X1006280Y992616D01*
Y979970D01*
Y967324D01*
X1007172Y967501D01*
X1009004Y968726D01*
X1009016D01*
X1010848Y967501D01*
X1013010Y967072D01*
X1015172Y967501D01*
X1015956Y968026D01*
X1017010Y968722D01*
X1018064Y968026D01*
X1018848Y967501D01*
X1021010Y967072D01*
X1023172Y967501D01*
X1025004Y968726D01*
X1025016D01*
X1026848Y967501D01*
X1029010Y967072D01*
X1031172Y967501D01*
X1033004Y968726D01*
X1034229Y970558D01*
X1034659Y972720D01*
Y976918D01*
X1040960D01*
Y974790D01*
X1054540D01*
Y988370D01*
X1040960D01*
Y986242D01*
X1034659D01*
Y987220D01*
X1034229Y989382D01*
X1033004Y991214D01*
X1031172Y992439D01*
X1029010Y992868D01*
D02*
G37*
G36*
X1054540Y1003870D02*
X1040960D01*
Y990290D01*
X1054540D01*
Y992418D01*
X1060010D01*
Y990160D01*
X1073590D01*
Y1003740D01*
X1060010D01*
Y1001742D01*
X1054540D01*
Y1003870D01*
D02*
G37*
G36*
X1073590Y988240D02*
X1068070D01*
Y982720D01*
X1073590D01*
Y988240D01*
D02*
G37*
G36*
X1065530D02*
X1060010D01*
Y982720D01*
X1065530D01*
Y988240D01*
D02*
G37*
G36*
X1073590Y980180D02*
X1068070D01*
Y974660D01*
X1073590D01*
Y980180D01*
D02*
G37*
G36*
X1065530D02*
X1060010D01*
Y974660D01*
X1065530D01*
Y980180D01*
D02*
G37*
G36*
X1088458Y974090D02*
X1088390D01*
Y965200D01*
X1097280D01*
Y965268D01*
X1096588Y967852D01*
X1095250Y970168D01*
X1093358Y972060D01*
X1091042Y973398D01*
X1088458Y974090D01*
D02*
G37*
G36*
X1085850D02*
X1085782D01*
X1083198Y973398D01*
X1080882Y972060D01*
X1078990Y970168D01*
X1077652Y967852D01*
X1076960Y965268D01*
Y965200D01*
X1085850D01*
Y974090D01*
D02*
G37*
G36*
X1097280Y962660D02*
X1088390D01*
Y953770D01*
X1088458D01*
X1091042Y954462D01*
X1093358Y955800D01*
X1095250Y957692D01*
X1096588Y960008D01*
X1097280Y962592D01*
Y962660D01*
D02*
G37*
G36*
X1085850D02*
X1076960D01*
Y962592D01*
X1077652Y960008D01*
X1078990Y957692D01*
X1080882Y955800D01*
X1083198Y954462D01*
X1085782Y953770D01*
X1085850D01*
Y962660D01*
D02*
G37*
G36*
X1000630Y1077655D02*
X998807Y1077415D01*
X998770Y1077400D01*
X993840D01*
Y1075142D01*
X985390D01*
X983656Y1074797D01*
X982185Y1073815D01*
X982185Y1073815D01*
X979551Y1071180D01*
X972380D01*
Y1057600D01*
X985960D01*
X986653Y1056640D01*
X985960Y1055680D01*
X985396Y1055680D01*
X972380D01*
Y1042100D01*
X972380D01*
Y1041970D01*
X972380D01*
Y1028390D01*
X985960D01*
Y1033579D01*
X986166Y1033722D01*
X987892Y1033399D01*
X988562Y1032396D01*
X989666Y1031292D01*
X989330Y1030038D01*
Y1027362D01*
X990022Y1024778D01*
X991360Y1022462D01*
X993252Y1020570D01*
X995568Y1019232D01*
X998152Y1018540D01*
X1000828D01*
X1003412Y1019232D01*
X1005728Y1020570D01*
X1006650Y1021492D01*
X1007920Y1020965D01*
Y1015320D01*
X1019000D01*
Y1017193D01*
X1025832D01*
X1028153Y1017499D01*
X1030316Y1018395D01*
X1032173Y1019820D01*
X1035767Y1023413D01*
X1041496D01*
X1047630Y1017280D01*
X1049487Y1015855D01*
X1051649Y1014959D01*
X1053970Y1014653D01*
X1088313D01*
Y986790D01*
X1088619Y984469D01*
X1089515Y982307D01*
X1090940Y980450D01*
X1109990Y961400D01*
X1110063Y960284D01*
X1109816Y960038D01*
X1108745Y958182D01*
X1108190Y956112D01*
Y953968D01*
X1108745Y951898D01*
X1109816Y950042D01*
X1111168Y948690D01*
X1109816Y947338D01*
X1108745Y945482D01*
X1108243Y943610D01*
X1116330D01*
X1124417D01*
X1123915Y945482D01*
X1122844Y947338D01*
X1121492Y948690D01*
X1122844Y950042D01*
X1123915Y951898D01*
X1124470Y953968D01*
Y956112D01*
X1123915Y958182D01*
X1122844Y960038D01*
X1122597Y960284D01*
X1122670Y961400D01*
X1124095Y963257D01*
X1124991Y965419D01*
X1125297Y967740D01*
X1124991Y970061D01*
X1124095Y972223D01*
X1122670Y974080D01*
X1106247Y990504D01*
Y1023620D01*
Y1054827D01*
X1106526Y1054882D01*
X1107366Y1055444D01*
X1107928Y1056284D01*
X1108125Y1057275D01*
Y1073785D01*
X1107928Y1074776D01*
X1107366Y1075616D01*
X1106526Y1076178D01*
X1105535Y1076375D01*
X1089025D01*
X1088034Y1076178D01*
X1087194Y1075616D01*
X1086632Y1074776D01*
X1086435Y1073785D01*
Y1057275D01*
X1086632Y1056284D01*
X1087194Y1055444D01*
X1088034Y1054882D01*
X1088313Y1054827D01*
Y1032587D01*
X1057684D01*
X1052000Y1038271D01*
Y1039170D01*
X1051108D01*
X1050489Y1039845D01*
X1050949Y1041090D01*
X1052000D01*
Y1046610D01*
X1045210D01*
Y1049150D01*
X1052665D01*
X1058200Y1054685D01*
X1069975D01*
X1070966Y1054882D01*
X1071806Y1055444D01*
X1072368Y1056284D01*
X1072565Y1057275D01*
Y1073785D01*
X1072368Y1074776D01*
X1071806Y1075616D01*
X1070966Y1076178D01*
X1069975Y1076375D01*
X1053465D01*
X1052474Y1076178D01*
X1051634Y1075616D01*
X1051072Y1074776D01*
X1050875Y1073785D01*
Y1062010D01*
X1043535Y1054670D01*
X1038420D01*
Y1054539D01*
X1028500D01*
Y1062400D01*
X1024230D01*
Y1049360D01*
X1022960D01*
Y1048090D01*
X1017420D01*
Y1041400D01*
X1009500D01*
Y1047273D01*
X1009786Y1048712D01*
X1009500Y1050151D01*
Y1062400D01*
X1008081D01*
X1007336Y1063670D01*
X1007420Y1063820D01*
X1007420D01*
Y1066080D01*
X1007435Y1066117D01*
X1007675Y1067940D01*
Y1070610D01*
X1007435Y1072433D01*
X1007420Y1072470D01*
Y1077400D01*
X1002490D01*
X1002453Y1077415D01*
X1000630Y1077655D01*
D02*
G37*
G36*
X1090230Y946590D02*
X1084710D01*
Y941070D01*
X1090230D01*
Y946590D01*
D02*
G37*
G36*
Y938530D02*
X1084710D01*
Y933010D01*
X1090230D01*
Y938530D01*
D02*
G37*
G36*
X956378Y927100D02*
X956310D01*
Y918210D01*
X965200D01*
Y918278D01*
X964508Y920862D01*
X963170Y923178D01*
X961278Y925070D01*
X958962Y926408D01*
X956378Y927100D01*
D02*
G37*
G36*
X953770D02*
X953702D01*
X951118Y926408D01*
X948802Y925070D01*
X946910Y923178D01*
X945572Y920862D01*
X944880Y918278D01*
Y918210D01*
X953770D01*
Y927100D01*
D02*
G37*
G36*
X989398Y915670D02*
X989330D01*
Y906780D01*
X998220D01*
Y906848D01*
X997528Y909432D01*
X996190Y911748D01*
X994298Y913640D01*
X991982Y914978D01*
X989398Y915670D01*
D02*
G37*
G36*
X986790D02*
X986722D01*
X984138Y914978D01*
X981822Y913640D01*
X979930Y911748D01*
X978592Y909432D01*
X977900Y906848D01*
Y906780D01*
X986790D01*
Y915670D01*
D02*
G37*
G36*
X965200D02*
X956310D01*
Y906780D01*
X956378D01*
X958962Y907472D01*
X961278Y908810D01*
X963170Y910702D01*
X964508Y913018D01*
X965200Y915602D01*
Y915670D01*
D02*
G37*
G36*
X953770D02*
X944880D01*
Y915602D01*
X945572Y913018D01*
X946910Y910702D01*
X948802Y908810D01*
X951118Y907472D01*
X953702Y906780D01*
X953770D01*
Y915670D01*
D02*
G37*
G36*
X998220Y904240D02*
X989330D01*
Y895350D01*
X989398D01*
X991982Y896042D01*
X994298Y897380D01*
X996190Y899272D01*
X997528Y901588D01*
X998220Y904172D01*
Y904240D01*
D02*
G37*
G36*
X986790D02*
X977900D01*
Y904172D01*
X978592Y901588D01*
X979930Y899272D01*
X981822Y897380D01*
X984138Y896042D01*
X986722Y895350D01*
X986790D01*
Y904240D01*
D02*
G37*
G36*
X1101090Y830580D02*
X1092200D01*
Y821690D01*
X1092268D01*
X1094852Y822382D01*
X1097168Y823720D01*
X1099060Y825612D01*
X1100398Y827928D01*
X1101090Y830512D01*
Y830580D01*
D02*
G37*
G36*
X781517Y739140D02*
X773430D01*
X765343D01*
X765845Y737268D01*
X766916Y735412D01*
X768268Y734060D01*
X766916Y732708D01*
X765845Y730852D01*
X765290Y728782D01*
Y726638D01*
X765845Y724568D01*
X766916Y722712D01*
X768432Y721196D01*
X770288Y720125D01*
X772358Y719570D01*
X774502D01*
X776572Y720125D01*
X778428Y721196D01*
X779944Y722712D01*
X781015Y724568D01*
X781570Y726638D01*
Y728782D01*
X781015Y730852D01*
X779944Y732708D01*
X778592Y734060D01*
X779944Y735412D01*
X781015Y737268D01*
X781517Y739140D01*
D02*
G37*
G36*
X965310Y721470D02*
X955040D01*
Y711200D01*
X965310D01*
Y721470D01*
D02*
G37*
G36*
X952500D02*
X942230D01*
Y711200D01*
X952500D01*
Y721470D01*
D02*
G37*
G36*
X965310Y708660D02*
X955040D01*
Y698390D01*
X965310D01*
Y708660D01*
D02*
G37*
G36*
X952500D02*
X942230D01*
Y698390D01*
X952500D01*
Y708660D01*
D02*
G37*
G36*
X929889Y721470D02*
X926851D01*
X923916Y720684D01*
X921284Y719164D01*
X919136Y717016D01*
X917617Y714384D01*
X916830Y711449D01*
Y708411D01*
X917617Y705476D01*
X919136Y702844D01*
X921284Y700696D01*
X923916Y699176D01*
X926851Y698390D01*
X929889D01*
X932824Y699176D01*
X935456Y700696D01*
X937604Y702844D01*
X939124Y705476D01*
X939910Y708411D01*
Y711449D01*
X939124Y714384D01*
X937604Y717016D01*
X935456Y719164D01*
X932824Y720684D01*
X929889Y721470D01*
D02*
G37*
G36*
X904489D02*
X901451D01*
X898516Y720684D01*
X895884Y719164D01*
X893736Y717016D01*
X892216Y714384D01*
X891430Y711449D01*
Y708411D01*
X892216Y705476D01*
X893736Y702844D01*
X895884Y700696D01*
X898516Y699176D01*
X901451Y698390D01*
X904489D01*
X907424Y699176D01*
X910056Y700696D01*
X912204Y702844D01*
X913724Y705476D01*
X914510Y708411D01*
Y711449D01*
X913724Y714384D01*
X912204Y717016D01*
X910056Y719164D01*
X907424Y720684D01*
X904489Y721470D01*
D02*
G37*
G36*
X879089D02*
X876051D01*
X873116Y720684D01*
X870484Y719164D01*
X868336Y717016D01*
X866816Y714384D01*
X866030Y711449D01*
Y708411D01*
X866816Y705476D01*
X868336Y702844D01*
X870484Y700696D01*
X873116Y699176D01*
X876051Y698390D01*
X879089D01*
X882024Y699176D01*
X884656Y700696D01*
X886804Y702844D01*
X888324Y705476D01*
X889110Y708411D01*
Y711449D01*
X888324Y714384D01*
X886804Y717016D01*
X884656Y719164D01*
X882024Y720684D01*
X879089Y721470D01*
D02*
G37*
G36*
X853689D02*
X850651D01*
X847716Y720684D01*
X845084Y719164D01*
X842936Y717016D01*
X841416Y714384D01*
X840630Y711449D01*
Y708411D01*
X841416Y705476D01*
X842936Y702844D01*
X845084Y700696D01*
X847716Y699176D01*
X850651Y698390D01*
X853689D01*
X856624Y699176D01*
X859256Y700696D01*
X861404Y702844D01*
X862924Y705476D01*
X863710Y708411D01*
Y711449D01*
X862924Y714384D01*
X861404Y717016D01*
X859256Y719164D01*
X856624Y720684D01*
X853689Y721470D01*
D02*
G37*
G36*
X828289D02*
X825251D01*
X822316Y720684D01*
X819684Y719164D01*
X817536Y717016D01*
X816016Y714384D01*
X815230Y711449D01*
Y708411D01*
X816016Y705476D01*
X817536Y702844D01*
X819684Y700696D01*
X822316Y699176D01*
X825251Y698390D01*
X828289D01*
X831224Y699176D01*
X833856Y700696D01*
X836004Y702844D01*
X837523Y705476D01*
X838310Y708411D01*
Y711449D01*
X837523Y714384D01*
X836004Y717016D01*
X833856Y719164D01*
X831224Y720684D01*
X828289Y721470D01*
D02*
G37*
%LPD*%
G36*
X952348Y1046389D02*
Y1030890D01*
X951078Y1030364D01*
X944908Y1036534D01*
X943396Y1037545D01*
X941612Y1037899D01*
X927540D01*
Y1042540D01*
X920750D01*
X913960D01*
Y1037899D01*
X910810D01*
Y1042290D01*
X901270D01*
Y1044830D01*
X910810D01*
Y1051270D01*
Y1054898D01*
X913960D01*
Y1052520D01*
X927540D01*
Y1054898D01*
X943839D01*
X952348Y1046389D01*
D02*
G37*
G36*
X1090784Y843183D02*
X1090298Y842010D01*
X1089592D01*
X1087008Y841318D01*
X1084692Y839980D01*
X1082800Y838088D01*
X1081462Y835772D01*
X1080945Y833842D01*
X1078670D01*
Y835970D01*
X1071849D01*
X1071281Y836678D01*
X1071814Y837890D01*
X1078670D01*
Y851470D01*
X1071682D01*
X1062114Y861038D01*
X1062640Y862308D01*
X1071659D01*
X1090784Y843183D01*
D02*
G37*
G36*
X1100098Y786644D02*
X1101610Y785633D01*
X1103394Y785278D01*
X1109622D01*
X1109816Y784942D01*
X1111168Y783590D01*
X1109816Y782238D01*
X1108889Y780632D01*
X1047141D01*
X1033572Y794201D01*
X1033633Y794563D01*
X1034130Y795438D01*
X1091303D01*
X1100098Y786644D01*
D02*
G37*
G36*
X1110317Y770038D02*
X1109816Y769538D01*
X1108889Y767932D01*
X1096094D01*
X1094817Y768186D01*
X1049427D01*
X1047477Y770135D01*
X1047963Y771308D01*
X1109791D01*
X1110317Y770038D01*
D02*
G37*
%LPC*%
G36*
X927540Y1050600D02*
X922020D01*
Y1045080D01*
X927540D01*
Y1050600D01*
D02*
G37*
G36*
X919480D02*
X913960D01*
Y1045080D01*
X919480D01*
Y1050600D01*
D02*
G37*
%LPD*%
D15*
X857250Y1043810D02*
D03*
Y1059310D02*
D03*
X1045210Y1047880D02*
D03*
Y1032380D02*
D03*
X1071880Y829180D02*
D03*
Y844680D02*
D03*
X979170Y1035180D02*
D03*
Y1019680D02*
D03*
X920750Y1043810D02*
D03*
Y1059310D02*
D03*
X979170Y1064390D02*
D03*
Y1048890D02*
D03*
X932180Y1018670D02*
D03*
Y1003170D02*
D03*
X1047750Y997080D02*
D03*
Y981580D02*
D03*
X1066800Y981450D02*
D03*
Y996950D02*
D03*
D16*
X892010Y962970D02*
D03*
Y954970D02*
D03*
Y946970D02*
D03*
Y938970D02*
D03*
Y930970D02*
D03*
Y922970D02*
D03*
Y914970D02*
D03*
Y906970D02*
D03*
Y898970D02*
D03*
Y890970D02*
D03*
Y882970D02*
D03*
Y874970D02*
D03*
Y866970D02*
D03*
Y858970D02*
D03*
Y850970D02*
D03*
Y842970D02*
D03*
X1046010D02*
D03*
Y850970D02*
D03*
Y858970D02*
D03*
Y866970D02*
D03*
Y874970D02*
D03*
Y882970D02*
D03*
Y890970D02*
D03*
Y898970D02*
D03*
Y906970D02*
D03*
Y914970D02*
D03*
Y922970D02*
D03*
Y930970D02*
D03*
Y938970D02*
D03*
Y946970D02*
D03*
Y954970D02*
D03*
Y962970D02*
D03*
D17*
X909010Y825970D02*
D03*
X917010D02*
D03*
X925010D02*
D03*
X933010D02*
D03*
X941010D02*
D03*
X949010D02*
D03*
X957010D02*
D03*
X965010D02*
D03*
X973010D02*
D03*
X981010D02*
D03*
X989010D02*
D03*
X997010D02*
D03*
X1005010D02*
D03*
X1013010D02*
D03*
X1021010D02*
D03*
X1029010D02*
D03*
Y979970D02*
D03*
X1021010D02*
D03*
X1013010D02*
D03*
X1005010D02*
D03*
X997010D02*
D03*
X989010D02*
D03*
X981010D02*
D03*
X973010D02*
D03*
X965010D02*
D03*
X957010D02*
D03*
X949010D02*
D03*
X941010D02*
D03*
X933010D02*
D03*
X925010D02*
D03*
X917010D02*
D03*
X909010D02*
D03*
D18*
X1022960Y1049360D02*
D03*
X1003960D02*
D03*
X1013460Y1028360D02*
D03*
D19*
X879270Y1043560D02*
D03*
X901270D02*
D03*
Y1059560D02*
D03*
X879270D02*
D03*
D20*
X1016130Y1070610D02*
D03*
X1000630D02*
D03*
X859660Y840740D02*
D03*
X875160D02*
D03*
X1083440Y939800D02*
D03*
X1067940D02*
D03*
X966340Y778510D02*
D03*
X981840D02*
D03*
X1009780Y1002030D02*
D03*
X994280D02*
D03*
D21*
X1097280Y1065530D02*
D03*
X1061720D02*
D03*
D29*
X773430Y727710D02*
D03*
Y740410D02*
D03*
Y753110D02*
D03*
Y765810D02*
D03*
Y778510D02*
D03*
Y791210D02*
D03*
Y803910D02*
D03*
Y816610D02*
D03*
Y829310D02*
D03*
Y842010D02*
D03*
Y854710D02*
D03*
Y867410D02*
D03*
Y880110D02*
D03*
Y892810D02*
D03*
Y905510D02*
D03*
Y918210D02*
D03*
Y930910D02*
D03*
Y943610D02*
D03*
Y956310D02*
D03*
X1116330Y739140D02*
D03*
Y751840D02*
D03*
Y764540D02*
D03*
Y777240D02*
D03*
Y789940D02*
D03*
Y802640D02*
D03*
Y815340D02*
D03*
Y828040D02*
D03*
Y840740D02*
D03*
Y853440D02*
D03*
Y866140D02*
D03*
Y878840D02*
D03*
Y891540D02*
D03*
Y904240D02*
D03*
Y916940D02*
D03*
Y929640D02*
D03*
Y942340D02*
D03*
Y955040D02*
D03*
Y967740D02*
D03*
D30*
X773430Y969010D02*
D03*
X1116330Y726440D02*
D03*
D35*
X924591Y989008D02*
Y994379D01*
Y989008D02*
X924640Y988959D01*
Y980340D02*
Y988959D01*
Y980340D02*
X925010Y979970D01*
X915670Y1003300D02*
X924591Y994379D01*
X806360Y1003300D02*
X915670D01*
X785367Y982308D02*
X806360Y1003300D01*
X785367Y978407D02*
Y982308D01*
X782987Y976027D02*
X785367Y978407D01*
X780447Y976027D02*
X782987D01*
X773430Y969010D02*
X780447Y976027D01*
X916591Y989008D02*
Y993040D01*
Y989008D02*
X916640Y988959D01*
Y980340D02*
X917010Y979970D01*
X916640Y980340D02*
Y988959D01*
X912934Y996696D02*
X916591Y993040D01*
X837262Y996696D02*
X912934D01*
X796876Y956310D02*
X837262Y996696D01*
X773430Y956310D02*
X796876D01*
X846620Y979970D02*
X909010D01*
X808990Y942340D02*
X846620Y979970D01*
X774700Y942340D02*
X808990D01*
X773430Y943610D02*
X774700Y942340D01*
X839780Y962970D02*
X892010D01*
X806450Y929640D02*
X839780Y962970D01*
X774700Y929640D02*
X806450D01*
X773430Y930910D02*
X774700Y929640D01*
X891940Y955040D02*
X892010Y954970D01*
X842010Y955040D02*
X891940D01*
X803910Y916940D02*
X842010Y955040D01*
X774700Y916940D02*
X803910D01*
X773430Y918210D02*
X774700Y916940D01*
X844100Y946970D02*
X892010D01*
X801370Y904240D02*
X844100Y946970D01*
X774700Y904240D02*
X801370D01*
X773430Y905510D02*
X774700Y904240D01*
X847530Y938970D02*
X892010D01*
X800100Y891540D02*
X847530Y938970D01*
X774700Y891540D02*
X800100D01*
X773430Y892810D02*
X774700Y891540D01*
X852230Y930970D02*
X892010D01*
X800100Y878840D02*
X852230Y930970D01*
X774700Y878840D02*
X800100D01*
X773430Y880110D02*
X774700Y878840D01*
X837569Y906970D02*
X892010D01*
X798009Y867410D02*
X837569Y906970D01*
X773430Y867410D02*
X798009D01*
X840709Y898970D02*
X892010D01*
X796449Y854710D02*
X840709Y898970D01*
X773430Y854710D02*
X796449D01*
X886017Y831691D02*
Y842076D01*
X886911Y842970D01*
X892010D01*
X798830Y829310D02*
X883636D01*
X886017Y831691D01*
X786130Y842010D02*
X798830Y829310D01*
X773430Y842010D02*
X786130D01*
X793496Y821944D02*
X908116D01*
X909010Y822838D01*
Y825970D01*
X786130Y829310D02*
X793496Y821944D01*
X773430Y829310D02*
X786130D01*
X917010Y810330D02*
Y825970D01*
X848725Y808098D02*
X914778D01*
X917010Y810330D01*
X841483Y815340D02*
X848725Y808098D01*
X774700Y815340D02*
X841483D01*
X773430Y816610D02*
X774700Y815340D01*
X925010Y805630D02*
Y825970D01*
X913130Y793750D02*
X925010Y805630D01*
X834424Y793750D02*
X913130D01*
X825534Y802640D02*
X834424Y793750D01*
X774700Y802640D02*
X825534D01*
X773430Y803910D02*
X774700Y802640D01*
X932591Y801781D02*
Y825551D01*
X933010Y825970D01*
X916940Y786130D02*
X932591Y801781D01*
X796774Y786130D02*
X916940D01*
X791694Y791210D02*
X796774Y786130D01*
X773430Y791210D02*
X791694D01*
X940591Y825551D02*
X941010Y825970D01*
X940591Y793271D02*
Y825551D01*
X925195Y777875D02*
X940591Y793271D01*
X774065Y777875D02*
X925195D01*
X773430Y778510D02*
X774065Y777875D01*
X949010Y786450D02*
Y825970D01*
X929640Y767080D02*
X949010Y786450D01*
X797863Y767080D02*
X929640D01*
X773430Y765810D02*
X796593D01*
X797863Y767080D01*
X956591Y777521D02*
Y825551D01*
X957010Y825970D01*
X933450Y754380D02*
X956591Y777521D01*
X797879Y754380D02*
X933450D01*
X773430Y753110D02*
X796609D01*
X797879Y754380D01*
X1095726Y929640D02*
X1116330D01*
X1089056Y922970D02*
X1095726Y929640D01*
X1046010Y922970D02*
X1089056D01*
X1066670Y997080D02*
X1066800Y996950D01*
X1047750Y997080D02*
X1066670D01*
X1029010Y980686D02*
X1029904Y981580D01*
X1047750D01*
X1029010Y979970D02*
Y980686D01*
X948640Y980340D02*
Y1026210D01*
X941612Y1033238D02*
X948640Y1026210D01*
X889592Y1033238D02*
X941612D01*
X945770Y1059560D02*
X957010Y1048320D01*
X901270Y1059560D02*
X920750D01*
X957010Y979970D02*
Y1048320D01*
X920750Y1059560D02*
X945770D01*
X1046010Y914970D02*
X1090396D01*
X1092365Y916940D01*
X1093234Y800100D02*
X1103394Y789940D01*
X1115060Y890270D02*
X1116330Y891540D01*
X1098550Y890270D02*
X1115060D01*
X1103394Y802640D02*
X1116330D01*
X997565Y803295D02*
Y816616D01*
X1099675Y853440D02*
X1116330D01*
X1100034Y815340D02*
X1116330D01*
X981387Y796613D02*
X1036320Y741680D01*
X1111790Y881380D02*
X1114330Y878840D01*
X981387Y796613D02*
Y825593D01*
X1013429Y807751D02*
X1045210Y775970D01*
X1099497Y866140D02*
X1116330D01*
X1046010Y874970D02*
X1078145D01*
X997565Y803295D02*
X1043940Y756920D01*
X1078145Y874970D02*
X1099675Y853440D01*
X1111600Y906970D02*
X1114330Y904240D01*
X1065276Y815594D02*
X1099780D01*
X1097044Y808990D02*
X1103394Y802640D01*
X1005429Y805591D02*
X1047496Y763524D01*
X1062990Y838070D02*
X1071880Y829180D01*
X989010Y799150D02*
X1038860Y749300D01*
X1057777Y858783D02*
X1071880Y844680D01*
X1046010Y834860D02*
Y842970D01*
X1013429Y807751D02*
Y825551D01*
X1114330Y904240D02*
X1116330D01*
X1046010Y834860D02*
X1065276Y815594D01*
X1046010Y906970D02*
X1111600D01*
X1005429Y805591D02*
Y825551D01*
X989010Y799150D02*
Y825970D01*
X1097280Y881380D02*
X1111790D01*
X1046010Y866970D02*
X1073590D01*
X1099780Y815594D02*
X1100034Y815340D01*
X1114330Y878840D02*
X1116330D01*
X1073590Y866970D02*
X1099820Y840740D01*
X1092365Y916940D02*
X1116330D01*
X1021429Y812451D02*
X1033780Y800100D01*
X1046010Y898970D02*
X1089850D01*
X1045990Y808990D02*
X1097044D01*
X997429Y816752D02*
X997565Y816616D01*
X997429Y816752D02*
Y825551D01*
X997010Y825970D02*
X997429Y825551D01*
X1005010Y825970D02*
X1005429Y825551D01*
X1033780Y800100D02*
X1093234D01*
X1021429Y812451D02*
Y825551D01*
X1021010Y825970D02*
X1021429Y825551D01*
X1089850Y898970D02*
X1098550Y890270D01*
X1087690Y890970D02*
X1097280Y881380D01*
X1082667Y882970D02*
X1099497Y866140D01*
X1062990Y838070D02*
Y843948D01*
X1056396Y850542D02*
X1062990Y843948D01*
X1055057Y850542D02*
X1056396D01*
X1054999Y850600D02*
X1055057Y850542D01*
X1046380Y850600D02*
X1054999D01*
X1046010Y850970D02*
X1046380Y850600D01*
X948640Y980340D02*
X949010Y979970D01*
X1046197Y858783D02*
X1057777D01*
X981010Y825970D02*
X981387Y825593D01*
X1013010Y825970D02*
X1013429Y825551D01*
X1029010Y825970D02*
X1045990Y808990D01*
X965010Y979970D02*
X965380Y980340D01*
X1046010Y890970D02*
X1087690D01*
X1046010Y882970D02*
X1082667D01*
X1103394Y789940D02*
X1116330D01*
X1097161Y751840D02*
X1116330D01*
X1092081Y756920D02*
X1097161Y751840D01*
X1043940Y756920D02*
X1092081D01*
X1115060Y763270D02*
X1116330Y764540D01*
X1095071Y763270D02*
X1115060D01*
X1094817Y763524D02*
X1095071Y763270D01*
X1047496Y763524D02*
X1094817D01*
X1103394Y726440D02*
X1116330D01*
X1097298Y732536D02*
X1103394Y726440D01*
X1096939Y732536D02*
X1097298D01*
X1087795Y741680D02*
X1096939Y732536D01*
X1036320Y741680D02*
X1087795D01*
X1115060Y775970D02*
X1116330Y777240D01*
X1045210Y775970D02*
X1115060D01*
X884238Y1038592D02*
X889592Y1033238D01*
X884238Y1038592D02*
Y1039842D01*
X880520Y1043560D02*
X884238Y1039842D01*
X879270Y1043560D02*
X880520D01*
X1038860Y749300D02*
X1089514D01*
X1099675Y739140D01*
X1116330D01*
X1099820Y840740D02*
X1116330D01*
X1071880Y829180D02*
X1085167D01*
X1087837Y831850D01*
X1090930D01*
D36*
X1097280Y986790D02*
X1116330Y967740D01*
X1097280Y986790D02*
Y1023620D01*
X1025832Y1026160D02*
X1032052Y1032380D01*
X1045210D01*
X1017270Y1026160D02*
X1025832D01*
X1097280Y1023620D02*
Y1065530D01*
X1053970Y1023620D02*
X1097280D01*
X1045210Y1032380D02*
X1053970Y1023620D01*
D37*
X1024890Y858520D02*
X1036761D01*
X1045591Y858551D02*
X1046010Y858970D01*
X1036792Y858551D02*
X1045591D01*
X1036761Y858520D02*
X1036792Y858551D01*
X939800Y849630D02*
X948765Y840665D01*
X874900Y855980D02*
X875452D01*
X878023Y858551D01*
X891591D01*
X859660Y840740D02*
X874900Y855980D01*
X891591Y858551D02*
X892010Y858970D01*
X859095Y862330D02*
X872822D01*
X858520Y862905D02*
X859095Y862330D01*
X872822D02*
X877462Y866970D01*
X841375Y844550D02*
Y856351D01*
X846311Y861287D01*
Y867901D01*
X818014Y867114D02*
X842655Y891756D01*
X818014Y859032D02*
Y867114D01*
X816435Y857454D02*
X818014Y859032D01*
X853380Y874970D02*
X892010D01*
X846311Y867901D02*
X853380Y874970D01*
X834246Y866284D02*
X836433Y868471D01*
Y874533D02*
X844870Y882970D01*
X892010D01*
X836433Y868471D02*
Y874533D01*
X857250Y1043810D02*
X879020D01*
X879270Y1043560D01*
X993775Y1001525D02*
X997010Y998290D01*
X938460Y850970D02*
X939800Y849630D01*
X892010Y850970D02*
X938460D01*
X972455Y835324D02*
X972591Y835188D01*
Y826389D02*
Y835188D01*
Y826389D02*
X973010Y825970D01*
X972455Y835324D02*
Y836304D01*
X968094Y840665D02*
X972455Y836304D01*
X948765Y840665D02*
X968094D01*
X973010Y787340D02*
Y825970D01*
X932180Y953770D02*
X933010Y954600D01*
Y979970D01*
X1015560Y938970D02*
X1046010D01*
X996950Y957580D02*
X1015560Y938970D01*
X996950Y957580D02*
X997010Y957640D01*
Y979970D01*
X1046010Y858970D02*
X1046197Y858783D01*
X933010Y979970D02*
Y1002340D01*
X932180Y1003170D02*
X933010Y1002340D01*
X993775Y1001525D02*
X994280Y1002030D01*
X997010Y979970D02*
Y998290D01*
X877315Y842895D02*
Y846054D01*
X875160Y840740D02*
X877315Y842895D01*
X891591Y850551D02*
X892010Y850970D01*
X881812Y850551D02*
X891591D01*
X877315Y846054D02*
X881812Y850551D01*
X842655Y891756D02*
X881164D01*
X877462Y866970D02*
X892010D01*
X973010Y787340D02*
X981840Y778510D01*
X965010Y779840D02*
Y825970D01*
Y779840D02*
X966340Y778510D01*
X1046010Y930970D02*
X1074610D01*
X1083440Y939800D01*
X1046010Y938970D02*
X1067110D01*
X1067940Y939800D01*
X979170Y1064390D02*
X985390Y1070610D01*
X1000630D01*
X979170Y1035180D02*
Y1048890D01*
X881531Y891389D02*
X891591D01*
X881164Y891756D02*
X881531Y891389D01*
X891591D02*
X892010Y890970D01*
D38*
X993140Y1048712D02*
Y1060450D01*
Y1036974D02*
Y1048712D01*
X1003312D01*
X999490Y1028700D02*
Y1030624D01*
X993140Y1036974D02*
X999490Y1030624D01*
D39*
X993140Y1060450D02*
X1000630Y1067940D01*
Y1070610D01*
D40*
X977770Y1018280D02*
X979170Y1019680D01*
X1043730Y1049360D02*
X1045210Y1047880D01*
X1022960Y1049360D02*
X1043730D01*
X1045210Y1047880D02*
X1046920Y1049590D01*
Y1050730D01*
X1061720Y1065530D01*
D41*
X1097280D02*
D03*
X1061720D02*
D03*
D42*
X902970Y709930D02*
D03*
X928370D02*
D03*
X877570D02*
D03*
X852170D02*
D03*
X826770D02*
D03*
D43*
X953770D02*
D03*
D44*
X1087120Y963930D02*
D03*
X1024890Y858520D02*
D03*
X858520Y862905D02*
D03*
X841375Y844550D02*
D03*
X816435Y857454D02*
D03*
X834246Y866284D02*
D03*
X988060Y905510D02*
D03*
X955040Y916940D02*
D03*
X999490Y1028700D02*
D03*
X939800Y849630D02*
D03*
X996950Y957580D02*
D03*
X1090930Y831850D02*
D03*
D45*
X932180Y953770D02*
D03*
M02*
