G04*
G04 #@! TF.GenerationSoftware,Altium Limited,Altium Designer,24.2.2 (26)*
G04*
G04 Layer_Color=16711935*
%FSLAX44Y44*%
%MOMM*%
G71*
G04*
G04 #@! TF.SameCoordinates,DD90BFA2-8126-46E7-AA9B-D1BD1CD96E7C*
G04*
G04*
G04 #@! TF.FilePolarity,Negative*
G04*
G01*
G75*
%ADD29C,1.1200*%
%ADD30R,1.1200X1.1200*%
%ADD31C,2.0032*%
%ADD32R,2.0032X2.0032*%
%ADD33C,1.7272*%
%ADD34C,1.4732*%
D29*
X773430Y727710D02*
D03*
Y740410D02*
D03*
Y753110D02*
D03*
Y765810D02*
D03*
Y778510D02*
D03*
Y791210D02*
D03*
Y803910D02*
D03*
Y816610D02*
D03*
Y829310D02*
D03*
Y842010D02*
D03*
Y854710D02*
D03*
Y867410D02*
D03*
Y880110D02*
D03*
Y892810D02*
D03*
Y905510D02*
D03*
Y918210D02*
D03*
Y930910D02*
D03*
Y943610D02*
D03*
Y956310D02*
D03*
X1116330Y739140D02*
D03*
Y751840D02*
D03*
Y764540D02*
D03*
Y777240D02*
D03*
Y789940D02*
D03*
Y802640D02*
D03*
Y815340D02*
D03*
Y828040D02*
D03*
Y840740D02*
D03*
Y853440D02*
D03*
Y866140D02*
D03*
Y878840D02*
D03*
Y891540D02*
D03*
Y904240D02*
D03*
Y916940D02*
D03*
Y929640D02*
D03*
Y942340D02*
D03*
Y955040D02*
D03*
Y967740D02*
D03*
D30*
X773430Y969010D02*
D03*
X1116330Y726440D02*
D03*
D31*
X902970Y709930D02*
D03*
X928370D02*
D03*
X877570D02*
D03*
X852170D02*
D03*
X826770D02*
D03*
D32*
X953770D02*
D03*
D33*
X1087120Y963930D02*
D03*
X1024890Y858520D02*
D03*
X858520Y862905D02*
D03*
X841375Y844550D02*
D03*
X816435Y857454D02*
D03*
X834246Y866284D02*
D03*
X988060Y905510D02*
D03*
X955040Y916940D02*
D03*
X999490Y1028700D02*
D03*
X939800Y849630D02*
D03*
X996950Y957580D02*
D03*
X1090930Y831850D02*
D03*
D34*
X932180Y953770D02*
D03*
M02*
