G04*
G04 #@! TF.GenerationSoftware,Altium Limited,Altium Designer,24.2.2 (26)*
G04*
G04 Layer_Physical_Order=2*
G04 Layer_Color=16711680*
%FSLAX44Y44*%
%MOMM*%
G71*
G04*
G04 #@! TF.SameCoordinates,DD90BFA2-8126-46E7-AA9B-D1BD1CD96E7C*
G04*
G04*
G04 #@! TF.FilePolarity,Positive*
G04*
G01*
G75*
%ADD29C,1.1200*%
%ADD30R,1.1200X1.1200*%
%ADD37C,0.3810*%
%ADD38C,0.7620*%
%ADD42C,1.8000*%
%ADD43R,1.8000X1.8000*%
%ADD44C,1.5240*%
%ADD45C,1.2700*%
%ADD46C,1.0160*%
G36*
X1149350Y664210D02*
X1146810Y661670D01*
X737505D01*
X736614Y662575D01*
X742950Y1082040D01*
X1149350D01*
Y664210D01*
D02*
G37*
%LPC*%
G36*
X1088458Y974090D02*
X1088390D01*
Y965200D01*
X1097280D01*
Y965268D01*
X1096588Y967852D01*
X1095250Y970168D01*
X1093358Y972060D01*
X1091042Y973398D01*
X1088458Y974090D01*
D02*
G37*
G36*
X1085850D02*
X1085782D01*
X1083198Y973398D01*
X1080882Y972060D01*
X1078990Y970168D01*
X1077652Y967852D01*
X1076960Y965268D01*
Y965200D01*
X1085850D01*
Y974090D01*
D02*
G37*
G36*
X1097280Y962660D02*
X1088390D01*
Y953770D01*
X1088458D01*
X1091042Y954462D01*
X1093358Y955800D01*
X1095250Y957692D01*
X1096588Y960008D01*
X1097280Y962592D01*
Y962660D01*
D02*
G37*
G36*
X1085850D02*
X1076960D01*
Y962592D01*
X1077652Y960008D01*
X1078990Y957692D01*
X1080882Y955800D01*
X1083198Y954462D01*
X1085782Y953770D01*
X1085850D01*
Y962660D01*
D02*
G37*
G36*
X1000828Y1038860D02*
X998152D01*
X995568Y1038168D01*
X993252Y1036830D01*
X991360Y1034938D01*
X990022Y1032622D01*
X989330Y1030038D01*
Y1027362D01*
X989513Y1026678D01*
X989264Y1024785D01*
Y964263D01*
X988820Y963818D01*
X987510Y961549D01*
X970906Y944946D01*
X937216D01*
X936876Y946216D01*
X937639Y946656D01*
X939294Y948311D01*
X940464Y950339D01*
X941070Y952600D01*
Y954940D01*
X940464Y957201D01*
X939294Y959229D01*
X937639Y960884D01*
X935611Y962054D01*
X933350Y962660D01*
X931010D01*
X928749Y962054D01*
X926721Y960884D01*
X925066Y959229D01*
X923896Y957201D01*
X923586Y956045D01*
X915950Y948410D01*
X880736Y913196D01*
X839470D01*
X839470Y913196D01*
X837481Y912934D01*
X835627Y912166D01*
X834035Y910945D01*
X795761Y872670D01*
X794539Y871078D01*
X793772Y869225D01*
X793510Y867235D01*
Y729220D01*
X781452D01*
X781015Y730852D01*
X779944Y732708D01*
X778592Y734060D01*
X779944Y735412D01*
X781015Y737268D01*
X781517Y739140D01*
X773430D01*
X765343D01*
X765845Y737268D01*
X766916Y735412D01*
X768268Y734060D01*
X766916Y732708D01*
X765845Y730852D01*
X765290Y728782D01*
Y726638D01*
X765845Y724568D01*
X766916Y722712D01*
X768287Y721342D01*
X768546Y719371D01*
X769314Y717517D01*
X770535Y715925D01*
X772127Y714704D01*
X773981Y713936D01*
X775970Y713674D01*
X777296Y713849D01*
X798012D01*
X807365Y704495D01*
X807365Y704495D01*
X808957Y703274D01*
X810811Y702506D01*
X812800Y702244D01*
X812800Y702244D01*
X818136D01*
X819684Y700696D01*
X822316Y699176D01*
X825251Y698390D01*
X828289D01*
X831224Y699176D01*
X833856Y700696D01*
X836004Y702844D01*
X836350Y702890D01*
X836396Y702844D01*
X842936D01*
X845084Y700696D01*
X847716Y699176D01*
X850651Y698390D01*
X853689D01*
X856624Y699176D01*
X859256Y700696D01*
X861404Y702844D01*
X868336D01*
X870484Y700696D01*
X873116Y699176D01*
X876051Y698390D01*
X879089D01*
X882024Y699176D01*
X884656Y700696D01*
X886804Y702844D01*
X893736D01*
X895884Y700696D01*
X898516Y699176D01*
X901451Y698390D01*
X904489D01*
X907424Y699176D01*
X910056Y700696D01*
X912204Y702844D01*
X919136D01*
X921284Y700696D01*
X923916Y699176D01*
X926851Y698390D01*
X929889D01*
X932824Y699176D01*
X935456Y700696D01*
X937604Y702844D01*
X939124Y705476D01*
X939910Y708411D01*
Y711449D01*
X939124Y714384D01*
X937604Y717016D01*
X935456Y719164D01*
X932824Y720684D01*
X929889Y721470D01*
X926851D01*
X924003Y720707D01*
X859242Y785467D01*
Y852745D01*
X859858D01*
X862442Y853437D01*
X864758Y854775D01*
X866650Y856667D01*
X867988Y858983D01*
X868680Y861567D01*
Y864243D01*
X867988Y866827D01*
X866650Y869143D01*
X864758Y871035D01*
X862442Y872373D01*
X859858Y873065D01*
X857182D01*
X854598Y872373D01*
X852282Y871035D01*
X850390Y869143D01*
X849052Y866827D01*
X848360Y864243D01*
Y861567D01*
X848836Y859790D01*
X847929Y858520D01*
X842509D01*
X842023Y859693D01*
X842376Y860046D01*
X843713Y862363D01*
X844406Y864947D01*
Y867622D01*
X843713Y870206D01*
X842376Y872523D01*
X840484Y874414D01*
X838167Y875752D01*
X835583Y876444D01*
X832908D01*
X830324Y875752D01*
X828007Y874414D01*
X826116Y872523D01*
X824778Y870206D01*
X824086Y867622D01*
Y865968D01*
X822816Y865442D01*
X822674Y865584D01*
X820357Y866922D01*
X817773Y867614D01*
X815098D01*
X813925Y867300D01*
X813268Y868439D01*
X842654Y897824D01*
X880736D01*
X924205Y854355D01*
X924205Y854355D01*
X929640Y848921D01*
Y848292D01*
X930332Y845708D01*
X931670Y843392D01*
X933562Y841500D01*
X935878Y840162D01*
X938462Y839470D01*
X941138D01*
X943722Y840162D01*
X946038Y841500D01*
X947930Y843392D01*
X949268Y845708D01*
X949960Y848292D01*
Y850968D01*
X949268Y853552D01*
X947930Y855868D01*
X946614Y857184D01*
X947140Y858454D01*
X1013542D01*
X1014730Y857266D01*
Y857182D01*
X1015422Y854598D01*
X1016760Y852282D01*
X1018652Y850390D01*
X1020968Y849052D01*
X1023552Y848360D01*
X1026228D01*
X1028812Y849052D01*
X1031128Y850390D01*
X1033020Y852282D01*
X1034358Y854598D01*
X1035050Y857182D01*
Y859858D01*
X1034358Y862442D01*
X1033020Y864758D01*
X1031128Y866650D01*
X1028812Y867988D01*
X1026228Y868680D01*
X1025055D01*
X1022160Y871575D01*
X1020568Y872796D01*
X1018715Y873564D01*
X1016725Y873826D01*
X935990D01*
X934001Y873564D01*
X932147Y872796D01*
X930555Y871575D01*
X930555Y871575D01*
X929640Y870659D01*
X894789Y905510D01*
X921385Y932106D01*
X921665Y931825D01*
X923257Y930604D01*
X925111Y929836D01*
X927100Y929574D01*
X974090D01*
X976079Y929836D01*
X977933Y930604D01*
X979525Y931825D01*
X995223Y947524D01*
X995612Y947420D01*
X998288D01*
X1000872Y948112D01*
X1003188Y949450D01*
X1005080Y951342D01*
X1006418Y953658D01*
X1007110Y956242D01*
Y958918D01*
X1006418Y961502D01*
X1005080Y963818D01*
X1004636Y964263D01*
Y1019939D01*
X1005728Y1020570D01*
X1007620Y1022462D01*
X1008958Y1024778D01*
X1009650Y1027362D01*
Y1030038D01*
X1008958Y1032622D01*
X1007620Y1034938D01*
X1005728Y1036830D01*
X1003412Y1038168D01*
X1000828Y1038860D01*
D02*
G37*
G36*
X1117402Y975880D02*
X1115258D01*
X1113188Y975325D01*
X1111332Y974254D01*
X1109816Y972738D01*
X1108745Y970882D01*
X1108190Y968812D01*
Y966668D01*
X1108745Y964598D01*
X1109816Y962742D01*
X1111168Y961390D01*
X1109816Y960038D01*
X1108745Y958182D01*
X1108190Y956112D01*
Y953968D01*
X1108745Y951898D01*
X1109816Y950042D01*
X1111168Y948690D01*
X1109816Y947338D01*
X1108745Y945482D01*
X1108243Y943610D01*
X1116330D01*
X1124417D01*
X1123915Y945482D01*
X1122844Y947338D01*
X1121492Y948690D01*
X1122844Y950042D01*
X1123915Y951898D01*
X1124470Y953968D01*
Y956112D01*
X1123915Y958182D01*
X1122844Y960038D01*
X1121492Y961390D01*
X1122844Y962742D01*
X1123915Y964598D01*
X1124470Y966668D01*
Y968812D01*
X1123915Y970882D01*
X1122844Y972738D01*
X1121328Y974254D01*
X1119472Y975325D01*
X1117402Y975880D01*
D02*
G37*
G36*
X956378Y927100D02*
X956310D01*
Y918210D01*
X965200D01*
Y918278D01*
X964508Y920862D01*
X963170Y923178D01*
X961278Y925070D01*
X958962Y926408D01*
X956378Y927100D01*
D02*
G37*
G36*
X953770D02*
X953702D01*
X951118Y926408D01*
X948802Y925070D01*
X946910Y923178D01*
X945572Y920862D01*
X944880Y918278D01*
Y918210D01*
X953770D01*
Y927100D01*
D02*
G37*
G36*
X986790Y915670D02*
X986722D01*
X984138Y914978D01*
X981822Y913640D01*
X980166Y911984D01*
X969152D01*
X965466Y915670D01*
X956310D01*
Y906514D01*
X961892Y900932D01*
X963992Y899528D01*
X966470Y899036D01*
X980166D01*
X981822Y897380D01*
X984138Y896042D01*
X986722Y895350D01*
X986790D01*
Y905510D01*
Y915670D01*
D02*
G37*
G36*
X989398D02*
X989330D01*
Y906780D01*
X998220D01*
Y906848D01*
X997528Y909432D01*
X996190Y911748D01*
X994298Y913640D01*
X991982Y914978D01*
X989398Y915670D01*
D02*
G37*
G36*
X953770D02*
X944880D01*
Y915602D01*
X945572Y913018D01*
X946910Y910702D01*
X948802Y908810D01*
X951118Y907472D01*
X953702Y906780D01*
X953770D01*
Y915670D01*
D02*
G37*
G36*
X998220Y904240D02*
X989330D01*
Y895350D01*
X989398D01*
X991982Y896042D01*
X994298Y897380D01*
X996190Y899272D01*
X997528Y901588D01*
X998220Y904172D01*
Y904240D01*
D02*
G37*
G36*
X1092268Y842010D02*
X1092200D01*
Y833120D01*
X1101090D01*
Y833188D01*
X1100398Y835772D01*
X1099060Y838088D01*
X1097168Y839980D01*
X1094852Y841318D01*
X1092268Y842010D01*
D02*
G37*
G36*
X1089660D02*
X1089592D01*
X1087008Y841318D01*
X1084692Y839980D01*
X1082800Y838088D01*
X1081462Y835772D01*
X1080770Y833188D01*
Y833120D01*
X1089660D01*
Y842010D01*
D02*
G37*
G36*
X1124417Y941070D02*
X1116330D01*
X1108243D01*
X1108745Y939198D01*
X1109816Y937342D01*
X1111168Y935990D01*
X1109816Y934638D01*
X1108745Y932782D01*
X1108190Y930712D01*
Y928568D01*
X1108745Y926498D01*
X1109816Y924642D01*
X1111168Y923290D01*
X1109816Y921938D01*
X1108745Y920082D01*
X1108190Y918012D01*
Y915868D01*
X1108745Y913798D01*
X1109816Y911942D01*
X1111168Y910590D01*
X1109816Y909238D01*
X1108745Y907382D01*
X1108190Y905312D01*
Y903168D01*
X1108745Y901098D01*
X1109816Y899242D01*
X1111168Y897890D01*
X1109816Y896538D01*
X1108745Y894682D01*
X1108190Y892612D01*
Y890468D01*
X1108745Y888398D01*
X1109816Y886542D01*
X1111168Y885190D01*
X1109816Y883838D01*
X1108745Y881982D01*
X1108190Y879912D01*
Y877768D01*
X1108745Y875698D01*
X1109816Y873842D01*
X1111168Y872490D01*
X1109816Y871138D01*
X1108745Y869282D01*
X1108190Y867212D01*
Y865068D01*
X1108745Y862998D01*
X1109816Y861142D01*
X1111168Y859790D01*
X1109816Y858438D01*
X1108745Y856582D01*
X1108190Y854512D01*
Y852368D01*
X1108745Y850298D01*
X1109816Y848442D01*
X1111168Y847090D01*
X1109816Y845738D01*
X1108745Y843882D01*
X1108190Y841812D01*
Y839668D01*
X1108745Y837598D01*
X1109816Y835742D01*
X1111168Y834390D01*
X1109816Y833038D01*
X1108745Y831182D01*
X1108243Y829310D01*
X1116330D01*
X1124417D01*
X1123915Y831182D01*
X1122844Y833038D01*
X1121492Y834390D01*
X1122844Y835742D01*
X1123915Y837598D01*
X1124470Y839668D01*
Y841812D01*
X1123915Y843882D01*
X1122844Y845738D01*
X1121492Y847090D01*
X1122844Y848442D01*
X1123915Y850298D01*
X1124470Y852368D01*
Y854512D01*
X1123915Y856582D01*
X1122844Y858438D01*
X1121492Y859790D01*
X1122844Y861142D01*
X1123915Y862998D01*
X1124470Y865068D01*
Y867212D01*
X1123915Y869282D01*
X1122844Y871138D01*
X1121492Y872490D01*
X1122844Y873842D01*
X1123915Y875698D01*
X1124470Y877768D01*
Y879912D01*
X1123915Y881982D01*
X1122844Y883838D01*
X1121492Y885190D01*
X1122844Y886542D01*
X1123915Y888398D01*
X1124470Y890468D01*
Y892612D01*
X1123915Y894682D01*
X1122844Y896538D01*
X1121492Y897890D01*
X1122844Y899242D01*
X1123915Y901098D01*
X1124470Y903168D01*
Y905312D01*
X1123915Y907382D01*
X1122844Y909238D01*
X1121492Y910590D01*
X1122844Y911942D01*
X1123915Y913798D01*
X1124470Y915868D01*
Y918012D01*
X1123915Y920082D01*
X1122844Y921938D01*
X1121492Y923290D01*
X1122844Y924642D01*
X1123915Y926498D01*
X1124470Y928568D01*
Y930712D01*
X1123915Y932782D01*
X1122844Y934638D01*
X1121492Y935990D01*
X1122844Y937342D01*
X1123915Y939198D01*
X1124417Y941070D01*
D02*
G37*
G36*
X1101090Y830580D02*
X1092200D01*
Y821690D01*
X1092268D01*
X1094852Y822382D01*
X1097168Y823720D01*
X1099060Y825612D01*
X1100398Y827928D01*
X1101090Y830512D01*
Y830580D01*
D02*
G37*
G36*
X1089660D02*
X1080770D01*
Y830512D01*
X1081462Y827928D01*
X1082800Y825612D01*
X1084692Y823720D01*
X1087008Y822382D01*
X1089592Y821690D01*
X1089660D01*
Y830580D01*
D02*
G37*
G36*
X781570Y977150D02*
X765290D01*
Y960870D01*
X765394D01*
X766029Y959770D01*
X765845Y959452D01*
X765290Y957382D01*
Y955238D01*
X765845Y953168D01*
X766916Y951312D01*
X768268Y949960D01*
X766916Y948608D01*
X765845Y946752D01*
X765290Y944682D01*
Y942538D01*
X765845Y940468D01*
X766916Y938612D01*
X768268Y937260D01*
X766916Y935908D01*
X765845Y934052D01*
X765290Y931982D01*
Y929838D01*
X765845Y927768D01*
X766916Y925912D01*
X768268Y924560D01*
X766916Y923208D01*
X765845Y921352D01*
X765290Y919282D01*
Y917138D01*
X765845Y915068D01*
X766916Y913212D01*
X768268Y911860D01*
X766916Y910508D01*
X765845Y908652D01*
X765290Y906582D01*
Y904438D01*
X765845Y902368D01*
X766916Y900512D01*
X768268Y899160D01*
X766916Y897808D01*
X765845Y895952D01*
X765290Y893882D01*
Y891738D01*
X765845Y889668D01*
X766916Y887812D01*
X768268Y886460D01*
X766916Y885108D01*
X765845Y883252D01*
X765290Y881182D01*
Y879038D01*
X765845Y876968D01*
X766916Y875112D01*
X768268Y873760D01*
X766916Y872408D01*
X765845Y870552D01*
X765290Y868482D01*
Y866338D01*
X765845Y864268D01*
X766916Y862412D01*
X768268Y861060D01*
X766916Y859708D01*
X765845Y857852D01*
X765290Y855782D01*
Y853638D01*
X765845Y851568D01*
X766916Y849712D01*
X768268Y848360D01*
X766916Y847008D01*
X765845Y845152D01*
X765290Y843082D01*
Y840938D01*
X765845Y838868D01*
X766916Y837012D01*
X768268Y835660D01*
X766916Y834308D01*
X765845Y832452D01*
X765290Y830382D01*
Y828238D01*
X765845Y826168D01*
X766916Y824312D01*
X768268Y822960D01*
X766916Y821608D01*
X765845Y819752D01*
X765290Y817682D01*
Y815538D01*
X765845Y813468D01*
X766916Y811612D01*
X768268Y810260D01*
X766916Y808908D01*
X765845Y807052D01*
X765290Y804982D01*
Y802838D01*
X765845Y800768D01*
X766916Y798912D01*
X768268Y797560D01*
X766916Y796208D01*
X765845Y794352D01*
X765290Y792282D01*
Y790138D01*
X765845Y788068D01*
X766916Y786212D01*
X768268Y784860D01*
X766916Y783508D01*
X765845Y781652D01*
X765290Y779582D01*
Y777438D01*
X765845Y775368D01*
X766916Y773512D01*
X768268Y772160D01*
X766916Y770808D01*
X765845Y768952D01*
X765290Y766882D01*
Y764738D01*
X765845Y762668D01*
X766916Y760812D01*
X768268Y759460D01*
X766916Y758108D01*
X765845Y756252D01*
X765290Y754182D01*
Y752038D01*
X765845Y749968D01*
X766916Y748112D01*
X768268Y746760D01*
X766916Y745408D01*
X765845Y743552D01*
X765343Y741680D01*
X773430D01*
X781517D01*
X781015Y743552D01*
X779944Y745408D01*
X778592Y746760D01*
X779944Y748112D01*
X781015Y749968D01*
X781570Y752038D01*
Y754182D01*
X781015Y756252D01*
X779944Y758108D01*
X778592Y759460D01*
X779944Y760812D01*
X781015Y762668D01*
X781570Y764738D01*
Y766882D01*
X781015Y768952D01*
X779944Y770808D01*
X778592Y772160D01*
X779944Y773512D01*
X781015Y775368D01*
X781570Y777438D01*
Y779582D01*
X781015Y781652D01*
X779944Y783508D01*
X778592Y784860D01*
X779944Y786212D01*
X781015Y788068D01*
X781570Y790138D01*
Y792282D01*
X781015Y794352D01*
X779944Y796208D01*
X778592Y797560D01*
X779944Y798912D01*
X781015Y800768D01*
X781570Y802838D01*
Y804982D01*
X781015Y807052D01*
X779944Y808908D01*
X778592Y810260D01*
X779944Y811612D01*
X781015Y813468D01*
X781570Y815538D01*
Y817682D01*
X781015Y819752D01*
X779944Y821608D01*
X778592Y822960D01*
X779944Y824312D01*
X781015Y826168D01*
X781570Y828238D01*
Y830382D01*
X781015Y832452D01*
X779944Y834308D01*
X778592Y835660D01*
X779944Y837012D01*
X781015Y838868D01*
X781570Y840938D01*
Y843082D01*
X781015Y845152D01*
X779944Y847008D01*
X778592Y848360D01*
X779944Y849712D01*
X781015Y851568D01*
X781570Y853638D01*
Y855782D01*
X781015Y857852D01*
X779944Y859708D01*
X778592Y861060D01*
X779944Y862412D01*
X781015Y864268D01*
X781570Y866338D01*
Y868482D01*
X781015Y870552D01*
X779944Y872408D01*
X778592Y873760D01*
X779944Y875112D01*
X781015Y876968D01*
X781570Y879038D01*
Y881182D01*
X781015Y883252D01*
X779944Y885108D01*
X778592Y886460D01*
X779944Y887812D01*
X781015Y889668D01*
X781570Y891738D01*
Y893882D01*
X781015Y895952D01*
X779944Y897808D01*
X778592Y899160D01*
X779944Y900512D01*
X781015Y902368D01*
X781570Y904438D01*
Y906582D01*
X781015Y908652D01*
X779944Y910508D01*
X778592Y911860D01*
X779944Y913212D01*
X781015Y915068D01*
X781570Y917138D01*
Y919282D01*
X781015Y921352D01*
X779944Y923208D01*
X778592Y924560D01*
X779944Y925912D01*
X781015Y927768D01*
X781570Y929838D01*
Y931982D01*
X781015Y934052D01*
X779944Y935908D01*
X778592Y937260D01*
X779944Y938612D01*
X781015Y940468D01*
X781570Y942538D01*
Y944682D01*
X781015Y946752D01*
X779944Y948608D01*
X778592Y949960D01*
X779944Y951312D01*
X781015Y953168D01*
X781570Y955238D01*
Y957382D01*
X781015Y959452D01*
X780832Y959770D01*
X781467Y960870D01*
X781570D01*
Y977150D01*
D02*
G37*
G36*
X1124417Y826770D02*
X1116330D01*
X1108243D01*
X1108745Y824898D01*
X1109816Y823042D01*
X1111168Y821690D01*
X1109816Y820338D01*
X1108745Y818482D01*
X1108190Y816412D01*
Y814268D01*
X1108745Y812198D01*
X1109816Y810342D01*
X1111168Y808990D01*
X1109816Y807638D01*
X1108745Y805782D01*
X1108190Y803712D01*
Y801568D01*
X1108745Y799498D01*
X1109816Y797642D01*
X1111168Y796290D01*
X1109816Y794938D01*
X1108745Y793082D01*
X1108190Y791012D01*
Y788868D01*
X1108745Y786798D01*
X1109816Y784942D01*
X1111168Y783590D01*
X1109816Y782238D01*
X1108745Y780382D01*
X1108190Y778312D01*
Y776168D01*
X1108745Y774098D01*
X1109816Y772242D01*
X1111168Y770890D01*
X1109816Y769538D01*
X1108745Y767682D01*
X1108190Y765612D01*
Y763468D01*
X1108745Y761398D01*
X1109816Y759542D01*
X1111168Y758190D01*
X1109816Y756838D01*
X1108745Y754982D01*
X1108190Y752912D01*
Y750768D01*
X1108745Y748698D01*
X1109816Y746842D01*
X1111168Y745490D01*
X1109816Y744138D01*
X1108745Y742282D01*
X1108190Y740212D01*
Y738068D01*
X1108745Y735998D01*
X1108929Y735680D01*
X1108294Y734580D01*
X1108190D01*
Y718300D01*
X1124470D01*
Y734580D01*
X1124367D01*
X1123732Y735680D01*
X1123915Y735998D01*
X1124470Y738068D01*
Y740212D01*
X1123915Y742282D01*
X1122844Y744138D01*
X1121492Y745490D01*
X1122844Y746842D01*
X1123915Y748698D01*
X1124470Y750768D01*
Y752912D01*
X1123915Y754982D01*
X1122844Y756838D01*
X1121492Y758190D01*
X1122844Y759542D01*
X1123915Y761398D01*
X1124470Y763468D01*
Y765612D01*
X1123915Y767682D01*
X1122844Y769538D01*
X1121492Y770890D01*
X1122844Y772242D01*
X1123915Y774098D01*
X1124470Y776168D01*
Y778312D01*
X1123915Y780382D01*
X1122844Y782238D01*
X1121492Y783590D01*
X1122844Y784942D01*
X1123915Y786798D01*
X1124470Y788868D01*
Y791012D01*
X1123915Y793082D01*
X1122844Y794938D01*
X1121492Y796290D01*
X1122844Y797642D01*
X1123915Y799498D01*
X1124470Y801568D01*
Y803712D01*
X1123915Y805782D01*
X1122844Y807638D01*
X1121492Y808990D01*
X1122844Y810342D01*
X1123915Y812198D01*
X1124470Y814268D01*
Y816412D01*
X1123915Y818482D01*
X1122844Y820338D01*
X1121492Y821690D01*
X1122844Y823042D01*
X1123915Y824898D01*
X1124417Y826770D01*
D02*
G37*
G36*
X965310Y721470D02*
X955040D01*
Y711200D01*
X965310D01*
Y721470D01*
D02*
G37*
G36*
X952500D02*
X942230D01*
Y711200D01*
X952500D01*
Y721470D01*
D02*
G37*
G36*
X965310Y708660D02*
X955040D01*
Y698390D01*
X965310D01*
Y708660D01*
D02*
G37*
G36*
X952500D02*
X942230D01*
Y698390D01*
X952500D01*
Y708660D01*
D02*
G37*
%LPD*%
D29*
X773430Y727710D02*
D03*
Y740410D02*
D03*
Y753110D02*
D03*
Y765810D02*
D03*
Y778510D02*
D03*
Y791210D02*
D03*
Y803910D02*
D03*
Y816610D02*
D03*
Y829310D02*
D03*
Y842010D02*
D03*
Y854710D02*
D03*
Y867410D02*
D03*
Y880110D02*
D03*
Y892810D02*
D03*
Y905510D02*
D03*
Y918210D02*
D03*
Y930910D02*
D03*
Y943610D02*
D03*
Y956310D02*
D03*
X1116330Y739140D02*
D03*
Y751840D02*
D03*
Y764540D02*
D03*
Y777240D02*
D03*
Y789940D02*
D03*
Y802640D02*
D03*
Y815340D02*
D03*
Y828040D02*
D03*
Y840740D02*
D03*
Y853440D02*
D03*
Y866140D02*
D03*
Y878840D02*
D03*
Y891540D02*
D03*
Y904240D02*
D03*
Y916940D02*
D03*
Y929640D02*
D03*
Y942340D02*
D03*
Y955040D02*
D03*
Y967740D02*
D03*
D30*
X773430Y969010D02*
D03*
X1116330Y726440D02*
D03*
D37*
X854710Y783590D02*
Y856002D01*
X858520Y859812D01*
X854710Y783590D02*
X928370Y709930D01*
X858520Y859812D02*
Y862905D01*
X839470Y773430D02*
Y842645D01*
X841375Y844550D01*
X839470Y773430D02*
X902970Y709930D01*
X814070Y850076D02*
X814248Y850254D01*
Y855267D01*
X816435Y857454D01*
X814070Y748030D02*
Y850076D01*
X834246Y863273D02*
Y866284D01*
X829310Y758190D02*
Y858337D01*
Y758190D02*
X877570Y709930D01*
X829310Y858337D02*
X834246Y863273D01*
X814070Y748030D02*
X852170Y709930D01*
D38*
X966470Y905510D02*
X988060D01*
X955040Y916940D02*
X966470Y905510D01*
D42*
X902970Y709930D02*
D03*
X928370D02*
D03*
X877570D02*
D03*
X852170D02*
D03*
X826770D02*
D03*
D43*
X953770D02*
D03*
D44*
X1087120Y963930D02*
D03*
X1024890Y858520D02*
D03*
X858520Y862905D02*
D03*
X841375Y844550D02*
D03*
X816435Y857454D02*
D03*
X834246Y866284D02*
D03*
X988060Y905510D02*
D03*
X955040Y916940D02*
D03*
X999490Y1028700D02*
D03*
X939800Y849630D02*
D03*
X996950Y957580D02*
D03*
X1090930Y831850D02*
D03*
D45*
X932180Y953770D02*
D03*
D46*
X1024345Y858520D02*
X1024890D01*
X1016725Y866140D02*
X1024345Y858520D01*
X935990Y866140D02*
X1016725D01*
X929640Y859790D02*
X935990Y866140D01*
X929640Y859790D02*
X939800Y849630D01*
X883920Y905510D02*
X929640Y859790D01*
X974090Y937260D02*
X995680Y958850D01*
X999490Y1027325D02*
Y1028700D01*
X996950Y957580D02*
Y1024785D01*
X999490Y1027325D01*
X775970Y721360D02*
X776144Y721535D01*
X801196D01*
Y867235D01*
X839470Y905510D01*
X801196Y721535D02*
X812800Y709930D01*
X839470Y905510D02*
X883920D01*
X921385Y942975D02*
X932180Y953770D01*
X921385Y942975D02*
X927100Y937260D01*
X974090D01*
X883920Y905510D02*
X921385Y942975D01*
X812800Y709930D02*
X826770D01*
M02*
