G04*
G04 #@! TF.GenerationSoftware,Altium Limited,Altium Designer,24.3.1 (35)*
G04*
G04 Layer_Color=2752767*
%FSLAX25Y25*%
%MOIN*%
G70*
G04*
G04 #@! TF.SameCoordinates,0CBC8BA6-70FB-484C-93A1-0B89DDC4EC94*
G04*
G04*
G04 #@! TF.FilePolarity,Positive*
G04*
G01*
G75*
%ADD46C,0.00500*%
%ADD47C,0.00667*%
D46*
X445000Y406500D02*
Y410500D01*
X449000D01*
Y406500D01*
X445000D01*
Y366500D02*
Y370500D01*
X449000D01*
Y366500D01*
X445000D01*
Y336500D02*
Y340500D01*
X449000D01*
Y336500D01*
X445000D01*
Y326500D02*
Y330500D01*
X449000D01*
Y326500D01*
X445000D01*
Y316500D02*
Y320500D01*
X449000D01*
Y316500D01*
X445000D01*
Y296500D02*
Y300500D01*
X449000D01*
Y296500D01*
X445000D01*
Y286500D02*
Y290500D01*
X449000D01*
Y286500D01*
X445000D01*
Y266500D02*
Y270500D01*
X449000D01*
Y266500D01*
X445000D01*
Y246500D02*
Y250500D01*
X449000D01*
Y246500D01*
X445000D01*
Y226500D02*
Y230500D01*
X449000D01*
Y226500D01*
X445000D01*
Y236500D02*
Y240500D01*
X449000D01*
Y236500D01*
X445000D01*
Y256500D02*
Y260500D01*
X449000D01*
Y256500D01*
X445000D01*
Y276500D02*
Y280500D01*
X449000D01*
Y276500D01*
X445000D01*
Y306500D02*
Y310500D01*
X449000D01*
Y306500D01*
X445000D01*
Y346500D02*
Y350500D01*
X449000D01*
Y346500D01*
X445000D01*
Y356500D02*
Y360500D01*
X449000D01*
Y356500D01*
X445000D01*
Y376500D02*
Y380500D01*
X449000D01*
Y376500D01*
X445000D01*
Y386500D02*
Y390500D01*
X449000D01*
Y386500D01*
X445000D01*
Y396500D02*
Y400500D01*
X449000D01*
Y396500D01*
X445000D01*
Y416500D02*
Y420500D01*
X449000D01*
Y416500D01*
X445000D01*
X294500Y275500D02*
Y279500D01*
X298500D01*
Y275500D01*
X294500D01*
Y305500D02*
Y309500D01*
X298500D01*
Y305500D01*
X294500D01*
Y315500D02*
Y319500D01*
X298500D01*
Y315500D01*
X294500D01*
Y325500D02*
Y329500D01*
X298500D01*
Y325500D01*
X294500D01*
Y345500D02*
Y349500D01*
X298500D01*
Y345500D01*
X294500D01*
Y355500D02*
Y359500D01*
X298500D01*
Y355500D01*
X294500D01*
Y375500D02*
Y379500D01*
X298500D01*
Y375500D01*
X294500D01*
Y395500D02*
Y399500D01*
X298500D01*
Y395500D01*
X294500D01*
Y415500D02*
Y419500D01*
X298500D01*
Y415500D01*
X294500D01*
Y405500D02*
Y409500D01*
X298500D01*
Y405500D01*
X294500D01*
Y385500D02*
Y389500D01*
X298500D01*
Y385500D01*
X294500D01*
Y365500D02*
Y369500D01*
X298500D01*
Y365500D01*
X294500D01*
Y335500D02*
Y339500D01*
X298500D01*
Y335500D01*
X294500D01*
Y295500D02*
Y299500D01*
X298500D01*
Y295500D01*
X294500D01*
Y285500D02*
Y289500D01*
X298500D01*
Y285500D01*
X294500D01*
Y265500D02*
Y269500D01*
X298500D01*
Y265500D01*
X294500D01*
Y255500D02*
Y259500D01*
X298500D01*
Y255500D01*
X294500D01*
Y245500D02*
Y249500D01*
X298500D01*
Y245500D01*
X294500D01*
Y235500D02*
Y239500D01*
X298500D01*
Y235500D01*
X294500D01*
Y225500D02*
Y229500D01*
X298500D01*
Y225500D01*
X294500D01*
D47*
X389000Y366500D02*
G03*
X389000Y366500I-2000J0D01*
G01*
X396000Y351000D02*
G03*
X396000Y351000I-2000J0D01*
G01*
X377500Y353000D02*
G03*
X377500Y353000I-2000J0D01*
G01*
X362000Y358000D02*
G03*
X362000Y358000I-2000J0D01*
G01*
X421044Y415299D02*
G03*
X421044Y415299I-2000J0D01*
G01*
X433500Y332500D02*
G03*
X433500Y332500I-2000J0D01*
G01*
X336443Y336000D02*
G03*
X336443Y336000I-2000J0D01*
G01*
X330750Y329053D02*
G03*
X330750Y329053I-2000J0D01*
G01*
X340000Y324500D02*
G03*
X340000Y324500I-2000J0D01*
G01*
X326943Y337557D02*
G03*
X326943Y337557I-2000J0D01*
G01*
X337500Y406000D02*
G03*
X337500Y406000I-2000J0D01*
G01*
X394000Y394500D02*
G03*
X394000Y394500I-2000J0D01*
G01*
X376000Y282000D02*
G03*
X376000Y282000I-2000J0D01*
G01*
X370733Y303767D02*
G03*
X370733Y303767I-2000J0D01*
G01*
X371500Y275500D02*
G03*
X371500Y275500I-2000J0D01*
G01*
X365000Y281500D02*
G03*
X365000Y281500I-2000J0D01*
G01*
X356500Y275500D02*
G03*
X356500Y275500I-2000J0D01*
G01*
X349000Y281500D02*
G03*
X349000Y281500I-2000J0D01*
G01*
X340500Y247000D02*
G03*
X340500Y247000I-2000J0D01*
G01*
X319500Y334000D02*
G03*
X319500Y334000I-2000J0D01*
G01*
X424000Y378500D02*
G03*
X424000Y378500I-2000J0D01*
G01*
X364000Y334000D02*
G03*
X364000Y334000I-2000J0D01*
G01*
X429500Y317500D02*
G03*
X429500Y317500I-2000J0D01*
G01*
M02*
