G04*
G04 #@! TF.GenerationSoftware,Altium Limited,Altium Designer,24.3.1 (35)*
G04*
G04 Layer_Physical_Order=2*
G04 Layer_Color=16711680*
%FSLAX25Y25*%
%MOIN*%
G70*
G04*
G04 #@! TF.SameCoordinates,0CBC8BA6-70FB-484C-93A1-0B89DDC4EC94*
G04*
G04*
G04 #@! TF.FilePolarity,Positive*
G04*
G01*
G75*
%ADD35C,0.01500*%
%ADD37C,0.04000*%
%ADD42C,0.06299*%
G04:AMPARAMS|DCode=43|XSize=62.99mil|YSize=62.99mil|CornerRadius=15.75mil|HoleSize=0mil|Usage=FLASHONLY|Rotation=90.000|XOffset=0mil|YOffset=0mil|HoleType=Round|Shape=RoundedRectangle|*
%AMROUNDEDRECTD43*
21,1,0.06299,0.03150,0,0,90.0*
21,1,0.03150,0.06299,0,0,90.0*
1,1,0.03150,0.01575,0.01575*
1,1,0.03150,0.01575,-0.01575*
1,1,0.03150,-0.01575,-0.01575*
1,1,0.03150,-0.01575,0.01575*
%
%ADD43ROUNDEDRECTD43*%
%ADD44C,0.06000*%
%ADD45C,0.05000*%
G36*
X456000Y427000D02*
Y219500D01*
X287500D01*
Y427500D01*
X455500D01*
X456000Y427000D01*
D02*
G37*
%LPC*%
G36*
X420044Y419172D02*
Y416299D01*
X422917D01*
X422771Y416843D01*
X422245Y417755D01*
X421500Y418500D01*
X420588Y419027D01*
X420044Y419172D01*
D02*
G37*
G36*
X418044D02*
X417500Y419027D01*
X416588Y418500D01*
X415843Y417755D01*
X415316Y416843D01*
X415171Y416299D01*
X418044D01*
Y419172D01*
D02*
G37*
G36*
X447546Y422650D02*
X446454D01*
X445398Y422367D01*
X444452Y421820D01*
X443680Y421048D01*
X443133Y420102D01*
X442850Y419046D01*
Y417954D01*
X443133Y416898D01*
X443680Y415952D01*
X444452Y415179D01*
X445398Y414633D01*
X446454Y414350D01*
X447546D01*
X448602Y414633D01*
X449548Y415179D01*
X450320Y415952D01*
X450867Y416898D01*
X451150Y417954D01*
Y419046D01*
X450867Y420102D01*
X450320Y421048D01*
X449548Y421820D01*
X448602Y422367D01*
X447546Y422650D01*
D02*
G37*
G36*
X298075Y421672D02*
X294925D01*
X294253Y421583D01*
X293627Y421324D01*
X293089Y420911D01*
X292676Y420373D01*
X292417Y419747D01*
X292328Y419075D01*
Y415925D01*
X292417Y415253D01*
X292676Y414627D01*
X293089Y414089D01*
X293627Y413676D01*
X294253Y413417D01*
X294925Y413328D01*
X298075D01*
X298747Y413417D01*
X299373Y413676D01*
X299911Y414089D01*
X300324Y414627D01*
X300583Y415253D01*
X300672Y415925D01*
Y419075D01*
X300583Y419747D01*
X300324Y420373D01*
X299911Y420911D01*
X299373Y421324D01*
X298747Y421583D01*
X298075Y421672D01*
D02*
G37*
G36*
X422917Y414299D02*
X420044D01*
Y411426D01*
X420588Y411572D01*
X421500Y412098D01*
X422245Y412843D01*
X422771Y413755D01*
X422917Y414299D01*
D02*
G37*
G36*
X418044D02*
X415171D01*
X415316Y413755D01*
X415843Y412843D01*
X416588Y412098D01*
X417500Y411572D01*
X418044Y411426D01*
Y414299D01*
D02*
G37*
G36*
X447546Y412650D02*
X446454D01*
X445398Y412367D01*
X444452Y411821D01*
X443680Y411048D01*
X443133Y410102D01*
X442850Y409046D01*
Y407954D01*
X443133Y406898D01*
X443680Y405952D01*
X444452Y405180D01*
X445398Y404633D01*
X446454Y404350D01*
X447546D01*
X448602Y404633D01*
X449548Y405180D01*
X450320Y405952D01*
X450867Y406898D01*
X451150Y407954D01*
Y409046D01*
X450867Y410102D01*
X450320Y411048D01*
X449548Y411821D01*
X448602Y412367D01*
X447546Y412650D01*
D02*
G37*
G36*
X297046Y411650D02*
X295954D01*
X294898Y411367D01*
X293952Y410820D01*
X293179Y410048D01*
X292633Y409102D01*
X292350Y408046D01*
Y406954D01*
X292633Y405898D01*
X293179Y404952D01*
X293952Y404179D01*
X294898Y403633D01*
X295954Y403350D01*
X297046D01*
X298102Y403633D01*
X299048Y404179D01*
X299820Y404952D01*
X300367Y405898D01*
X300650Y406954D01*
Y408046D01*
X300367Y409102D01*
X299820Y410048D01*
X299048Y410820D01*
X298102Y411367D01*
X297046Y411650D01*
D02*
G37*
G36*
X448000Y402528D02*
Y399500D01*
X451028D01*
X450867Y400102D01*
X450320Y401048D01*
X449548Y401821D01*
X448602Y402367D01*
X448000Y402528D01*
D02*
G37*
G36*
X446000D02*
X445398Y402367D01*
X444452Y401821D01*
X443680Y401048D01*
X443133Y400102D01*
X442972Y399500D01*
X446000D01*
Y402528D01*
D02*
G37*
G36*
X451028Y397500D02*
X448000D01*
Y394472D01*
X448602Y394633D01*
X449548Y395180D01*
X450320Y395952D01*
X450867Y396898D01*
X451028Y397500D01*
D02*
G37*
G36*
X446000D02*
X442972D01*
X443133Y396898D01*
X443680Y395952D01*
X444452Y395180D01*
X445398Y394633D01*
X446000Y394472D01*
Y397500D01*
D02*
G37*
G36*
X297046Y401650D02*
X295954D01*
X294898Y401367D01*
X293952Y400820D01*
X293179Y400048D01*
X292633Y399102D01*
X292350Y398046D01*
Y396954D01*
X292633Y395898D01*
X293179Y394952D01*
X293952Y394180D01*
X294898Y393633D01*
X295954Y393350D01*
X297046D01*
X298102Y393633D01*
X299048Y394180D01*
X299820Y394952D01*
X300367Y395898D01*
X300650Y396954D01*
Y398046D01*
X300367Y399102D01*
X299820Y400048D01*
X299048Y400820D01*
X298102Y401367D01*
X297046Y401650D01*
D02*
G37*
G36*
X447546Y392650D02*
X446454D01*
X445398Y392367D01*
X444452Y391821D01*
X443680Y391048D01*
X443133Y390102D01*
X442850Y389046D01*
Y387954D01*
X443133Y386898D01*
X443680Y385952D01*
X444452Y385179D01*
X445398Y384633D01*
X446454Y384350D01*
X447546D01*
X448602Y384633D01*
X449548Y385179D01*
X450320Y385952D01*
X450867Y386898D01*
X451150Y387954D01*
Y389046D01*
X450867Y390102D01*
X450320Y391048D01*
X449548Y391821D01*
X448602Y392367D01*
X447546Y392650D01*
D02*
G37*
G36*
X297046Y391650D02*
X295954D01*
X294898Y391367D01*
X293952Y390821D01*
X293179Y390048D01*
X292633Y389102D01*
X292350Y388046D01*
Y386954D01*
X292633Y385898D01*
X293179Y384952D01*
X293952Y384179D01*
X294898Y383633D01*
X295954Y383350D01*
X297046D01*
X298102Y383633D01*
X299048Y384179D01*
X299820Y384952D01*
X300367Y385898D01*
X300650Y386954D01*
Y388046D01*
X300367Y389102D01*
X299820Y390048D01*
X299048Y390821D01*
X298102Y391367D01*
X297046Y391650D01*
D02*
G37*
G36*
X336027Y410000D02*
X334973D01*
X333956Y409727D01*
X333044Y409201D01*
X332299Y408456D01*
X331773Y407544D01*
X331500Y406527D01*
Y406279D01*
X328360Y403140D01*
X327880Y402513D01*
X327577Y401783D01*
X327474Y401000D01*
Y359253D01*
X308360Y340140D01*
X307879Y339513D01*
X307577Y338783D01*
X307474Y338000D01*
Y252500D01*
X307577Y251717D01*
X307879Y250987D01*
X308360Y250360D01*
X308974Y249889D01*
Y245556D01*
X301112Y237694D01*
X300650Y237885D01*
Y238046D01*
X300367Y239102D01*
X299820Y240048D01*
X299048Y240821D01*
X298102Y241367D01*
X297500Y241528D01*
Y237500D01*
X296500D01*
Y236500D01*
X292472D01*
X292633Y235898D01*
X293179Y234952D01*
X293952Y234179D01*
X294898Y233633D01*
X295954Y233350D01*
X296115D01*
X296306Y232889D01*
X295510Y232092D01*
X295029Y231466D01*
X294999Y231394D01*
X294898Y231367D01*
X293952Y230820D01*
X293179Y230048D01*
X292633Y229102D01*
X292350Y228046D01*
Y226954D01*
X292633Y225898D01*
X293179Y224952D01*
X293952Y224180D01*
X294898Y223633D01*
X295954Y223350D01*
X297046D01*
X298102Y223633D01*
X299048Y224180D01*
X299820Y224952D01*
X300367Y225898D01*
X300650Y226954D01*
Y228046D01*
X300547Y228428D01*
X300572Y228489D01*
X300589Y228613D01*
X314140Y242163D01*
X314140Y242163D01*
X314620Y242790D01*
X314923Y243520D01*
X315026Y244303D01*
X315026Y244303D01*
Y251247D01*
X324253Y260474D01*
X332974D01*
Y249500D01*
X333077Y248717D01*
X333380Y247987D01*
X333860Y247360D01*
X334500Y246721D01*
Y246473D01*
X334773Y245456D01*
X335299Y244544D01*
X336044Y243799D01*
X336956Y243273D01*
X337973Y243000D01*
X339027D01*
X340044Y243273D01*
X340956Y243799D01*
X341701Y244544D01*
X342227Y245456D01*
X342500Y246473D01*
Y247527D01*
X342227Y248544D01*
X341701Y249456D01*
X340956Y250201D01*
X340044Y250727D01*
X339027Y251000D01*
X339026D01*
Y263500D01*
X338923Y264283D01*
X338620Y265013D01*
X338140Y265640D01*
X337513Y266121D01*
X336783Y266423D01*
X336000Y266526D01*
X323000D01*
X322217Y266423D01*
X321487Y266121D01*
X320860Y265640D01*
X313988Y258767D01*
X313526Y258958D01*
Y331883D01*
X314026Y332017D01*
X314299Y331544D01*
X315044Y330799D01*
X315716Y330411D01*
Y326000D01*
X315851Y325317D01*
X316238Y324738D01*
X346716Y294261D01*
Y285500D01*
X346473D01*
X345456Y285227D01*
X344544Y284701D01*
X343799Y283956D01*
X343273Y283044D01*
X343000Y282027D01*
Y280973D01*
X343273Y279956D01*
X343799Y279044D01*
X344544Y278299D01*
X345456Y277773D01*
X346473Y277500D01*
X347527D01*
X348544Y277773D01*
X350290Y276027D01*
X350500D01*
Y274973D01*
X350773Y273956D01*
X351299Y273044D01*
X352044Y272299D01*
X352956Y271773D01*
X353973Y271500D01*
X355027D01*
X356044Y271773D01*
X356956Y272299D01*
X357701Y273044D01*
X358227Y273956D01*
X358500Y274973D01*
Y276027D01*
X365473D01*
X365500Y276000D01*
Y274973D01*
X365773Y273956D01*
X366299Y273044D01*
X367044Y272299D01*
X367956Y271773D01*
X368973Y271500D01*
X370027D01*
X371044Y271773D01*
X371956Y272299D01*
X372701Y273044D01*
X373227Y273956D01*
X373500Y274973D01*
Y276027D01*
X373227Y277044D01*
X372701Y277956D01*
X372286Y278371D01*
X372593Y278771D01*
X372649Y278738D01*
X373539Y278500D01*
X374461D01*
X375351Y278738D01*
X376149Y279199D01*
X376801Y279851D01*
X377261Y280649D01*
X377500Y281539D01*
Y282461D01*
X377261Y283351D01*
X376801Y284149D01*
X376149Y284801D01*
X375351Y285262D01*
X375284Y285279D01*
Y308303D01*
X375284Y308303D01*
X375149Y308986D01*
X374762Y309565D01*
X374762Y309565D01*
X363784Y320542D01*
Y330989D01*
X364149Y331199D01*
X364801Y331851D01*
X365262Y332649D01*
X365500Y333539D01*
Y334461D01*
X365262Y335351D01*
X364801Y336149D01*
X364149Y336801D01*
X363425Y337218D01*
X363242Y337742D01*
X363926Y338426D01*
X363987Y338380D01*
X364717Y338077D01*
X365500Y337974D01*
X425747D01*
X428110Y335611D01*
Y334629D01*
X427773Y334044D01*
X427500Y333027D01*
Y331973D01*
X427773Y330956D01*
X428299Y330044D01*
X429044Y329299D01*
X429956Y328773D01*
X430973Y328500D01*
X432027D01*
X433044Y328773D01*
X433956Y329299D01*
X434701Y330044D01*
X435227Y330956D01*
X435500Y331973D01*
Y333027D01*
X435227Y334044D01*
X434701Y334956D01*
X434162Y335495D01*
Y336864D01*
X434059Y337647D01*
X433756Y338377D01*
X433276Y339004D01*
X433276Y339004D01*
X429140Y343140D01*
X428513Y343620D01*
X427783Y343923D01*
X427000Y344026D01*
X366753D01*
X363140Y347640D01*
X352279Y358500D01*
X372096Y378317D01*
X386247D01*
X387703Y376860D01*
X387703Y376860D01*
X388330Y376379D01*
X389060Y376077D01*
X389843Y375974D01*
X418869D01*
X419544Y375299D01*
X420456Y374773D01*
X421473Y374500D01*
X422527D01*
X423544Y374773D01*
X424456Y375299D01*
X425201Y376044D01*
X425727Y376956D01*
X426000Y377973D01*
Y379027D01*
X425727Y380044D01*
X425201Y380956D01*
X424456Y381701D01*
X423544Y382227D01*
X422527Y382500D01*
X421473D01*
X420456Y382227D01*
X420087Y382014D01*
X420000Y382026D01*
X391096D01*
X390526Y382596D01*
Y388747D01*
X392279Y390500D01*
X392527D01*
X393544Y390773D01*
X394456Y391299D01*
X395201Y392044D01*
X395727Y392956D01*
X396000Y393973D01*
Y395027D01*
X395727Y396044D01*
X395201Y396956D01*
X394456Y397701D01*
X393544Y398227D01*
X392527Y398500D01*
X391473D01*
X390456Y398227D01*
X389544Y397701D01*
X388799Y396956D01*
X388273Y396044D01*
X388000Y395027D01*
Y394779D01*
X385360Y392140D01*
X384879Y391513D01*
X384577Y390783D01*
X384474Y390000D01*
Y384369D01*
X370843D01*
X370060Y384266D01*
X369330Y383964D01*
X368704Y383483D01*
X346247Y361026D01*
X333526D01*
Y399747D01*
X335779Y402000D01*
X336027D01*
X337044Y402273D01*
X337956Y402799D01*
X338701Y403544D01*
X339227Y404456D01*
X339500Y405473D01*
Y406527D01*
X339227Y407544D01*
X338701Y408456D01*
X337956Y409201D01*
X337044Y409727D01*
X336027Y410000D01*
D02*
G37*
G36*
X447546Y382650D02*
X446454D01*
X445398Y382367D01*
X444452Y381821D01*
X443680Y381048D01*
X443133Y380102D01*
X442850Y379046D01*
Y377954D01*
X443133Y376898D01*
X443680Y375952D01*
X444452Y375180D01*
X445398Y374633D01*
X446454Y374350D01*
X447546D01*
X448602Y374633D01*
X449548Y375180D01*
X450320Y375952D01*
X450867Y376898D01*
X451150Y377954D01*
Y379046D01*
X450867Y380102D01*
X450320Y381048D01*
X449548Y381821D01*
X448602Y382367D01*
X447546Y382650D01*
D02*
G37*
G36*
X297046Y381650D02*
X295954D01*
X294898Y381367D01*
X293952Y380820D01*
X293179Y380048D01*
X292633Y379102D01*
X292350Y378046D01*
Y376954D01*
X292633Y375898D01*
X293179Y374952D01*
X293952Y374180D01*
X294898Y373633D01*
X295954Y373350D01*
X297046D01*
X298102Y373633D01*
X299048Y374180D01*
X299820Y374952D01*
X300367Y375898D01*
X300650Y376954D01*
Y378046D01*
X300367Y379102D01*
X299820Y380048D01*
X299048Y380820D01*
X298102Y381367D01*
X297046Y381650D01*
D02*
G37*
G36*
X388000Y370373D02*
Y367500D01*
X390873D01*
X390727Y368044D01*
X390201Y368956D01*
X389456Y369701D01*
X388544Y370227D01*
X388000Y370373D01*
D02*
G37*
G36*
X386000D02*
X385456Y370227D01*
X384544Y369701D01*
X383799Y368956D01*
X383273Y368044D01*
X383127Y367500D01*
X386000D01*
Y370373D01*
D02*
G37*
G36*
X447546Y372650D02*
X446454D01*
X445398Y372367D01*
X444452Y371820D01*
X443680Y371048D01*
X443133Y370102D01*
X442850Y369046D01*
Y367954D01*
X443133Y366898D01*
X443680Y365952D01*
X444452Y365179D01*
X445398Y364633D01*
X446454Y364350D01*
X447546D01*
X448602Y364633D01*
X449548Y365179D01*
X450320Y365952D01*
X450867Y366898D01*
X451150Y367954D01*
Y369046D01*
X450867Y370102D01*
X450320Y371048D01*
X449548Y371820D01*
X448602Y372367D01*
X447546Y372650D01*
D02*
G37*
G36*
X297046Y371650D02*
X295954D01*
X294898Y371367D01*
X293952Y370820D01*
X293179Y370048D01*
X292633Y369102D01*
X292350Y368046D01*
Y366954D01*
X292633Y365898D01*
X293179Y364952D01*
X293952Y364179D01*
X294898Y363633D01*
X295954Y363350D01*
X297046D01*
X298102Y363633D01*
X299048Y364179D01*
X299820Y364952D01*
X300367Y365898D01*
X300650Y366954D01*
Y368046D01*
X300367Y369102D01*
X299820Y370048D01*
X299048Y370820D01*
X298102Y371367D01*
X297046Y371650D01*
D02*
G37*
G36*
X390873Y365500D02*
X388000D01*
Y362627D01*
X388544Y362773D01*
X389456Y363299D01*
X390201Y364044D01*
X390727Y364956D01*
X390873Y365500D01*
D02*
G37*
G36*
X386000D02*
X383127D01*
X383273Y364956D01*
X383799Y364044D01*
X384544Y363299D01*
X385456Y362773D01*
X386000Y362627D01*
Y365500D01*
D02*
G37*
G36*
X361000Y361873D02*
Y359000D01*
X363873D01*
X363727Y359544D01*
X363201Y360456D01*
X362456Y361201D01*
X361544Y361727D01*
X361000Y361873D01*
D02*
G37*
G36*
X359000D02*
X358456Y361727D01*
X357544Y361201D01*
X356799Y360456D01*
X356273Y359544D01*
X356127Y359000D01*
X359000D01*
Y361873D01*
D02*
G37*
G36*
X447546Y362650D02*
X446454D01*
X445398Y362367D01*
X444452Y361821D01*
X443680Y361048D01*
X443133Y360102D01*
X442850Y359046D01*
Y357954D01*
X443133Y356898D01*
X443680Y355952D01*
X444452Y355180D01*
X445398Y354633D01*
X446454Y354350D01*
X447546D01*
X448602Y354633D01*
X449548Y355180D01*
X450320Y355952D01*
X450867Y356898D01*
X451150Y357954D01*
Y359046D01*
X450867Y360102D01*
X450320Y361048D01*
X449548Y361821D01*
X448602Y362367D01*
X447546Y362650D01*
D02*
G37*
G36*
X363873Y357000D02*
X361000D01*
Y354127D01*
X361544Y354273D01*
X362456Y354799D01*
X363201Y355544D01*
X363727Y356456D01*
X363873Y357000D01*
D02*
G37*
G36*
X359000D02*
X356127D01*
X356273Y356456D01*
X356799Y355544D01*
X357544Y354799D01*
X358456Y354273D01*
X359000Y354127D01*
Y357000D01*
D02*
G37*
G36*
X376500Y356873D02*
Y354000D01*
X379373D01*
X379227Y354544D01*
X378701Y355456D01*
X377956Y356201D01*
X377044Y356727D01*
X376500Y356873D01*
D02*
G37*
G36*
X374500D02*
X373956Y356727D01*
X373044Y356201D01*
X372299Y355456D01*
X371773Y354544D01*
X371627Y354000D01*
X374500D01*
Y356873D01*
D02*
G37*
G36*
X297046Y361650D02*
X295954D01*
X294898Y361367D01*
X293952Y360821D01*
X293179Y360048D01*
X292633Y359102D01*
X292350Y358046D01*
Y356954D01*
X292633Y355898D01*
X293179Y354952D01*
X293952Y354180D01*
X294898Y353633D01*
X295954Y353350D01*
X297046D01*
X298102Y353633D01*
X299048Y354180D01*
X299820Y354952D01*
X300367Y355898D01*
X300650Y356954D01*
Y358046D01*
X300367Y359102D01*
X299820Y360048D01*
X299048Y360821D01*
X298102Y361367D01*
X297046Y361650D01*
D02*
G37*
G36*
X395000Y354873D02*
Y352000D01*
X397873D01*
X397727Y352544D01*
X397201Y353456D01*
X396456Y354201D01*
X395544Y354727D01*
X395000Y354873D01*
D02*
G37*
G36*
X393000D02*
X392456Y354727D01*
X391544Y354201D01*
X390799Y353456D01*
X390273Y352544D01*
X390127Y352000D01*
X393000D01*
Y354873D01*
D02*
G37*
G36*
X379373Y352000D02*
X376500D01*
Y349127D01*
X377044Y349273D01*
X377956Y349799D01*
X378701Y350544D01*
X379227Y351456D01*
X379373Y352000D01*
D02*
G37*
G36*
X374500D02*
X371627D01*
X371773Y351456D01*
X372299Y350544D01*
X373044Y349799D01*
X373956Y349273D01*
X374500Y349127D01*
Y352000D01*
D02*
G37*
G36*
X397873Y350000D02*
X395000D01*
Y347127D01*
X395544Y347273D01*
X396456Y347799D01*
X397201Y348544D01*
X397727Y349456D01*
X397873Y350000D01*
D02*
G37*
G36*
X393000D02*
X390127D01*
X390273Y349456D01*
X390799Y348544D01*
X391544Y347799D01*
X392456Y347273D01*
X393000Y347127D01*
Y350000D01*
D02*
G37*
G36*
X447546Y352650D02*
X446454D01*
X445398Y352367D01*
X444452Y351820D01*
X443680Y351048D01*
X443133Y350102D01*
X442850Y349046D01*
Y347954D01*
X443133Y346898D01*
X443680Y345952D01*
X444452Y345180D01*
X445398Y344633D01*
X446454Y344350D01*
X447546D01*
X448602Y344633D01*
X449548Y345180D01*
X450320Y345952D01*
X450867Y346898D01*
X451150Y347954D01*
Y349046D01*
X450867Y350102D01*
X450320Y351048D01*
X449548Y351820D01*
X448602Y352367D01*
X447546Y352650D01*
D02*
G37*
G36*
X297046Y351650D02*
X295954D01*
X294898Y351367D01*
X293952Y350820D01*
X293179Y350048D01*
X292633Y349102D01*
X292350Y348046D01*
Y346954D01*
X292633Y345898D01*
X293179Y344952D01*
X293952Y344180D01*
X294898Y343633D01*
X295954Y343350D01*
X297046D01*
X298102Y343633D01*
X299048Y344180D01*
X299820Y344952D01*
X300367Y345898D01*
X300650Y346954D01*
Y348046D01*
X300367Y349102D01*
X299820Y350048D01*
X299048Y350820D01*
X298102Y351367D01*
X297046Y351650D01*
D02*
G37*
G36*
X447546Y342650D02*
X446454D01*
X445398Y342367D01*
X444452Y341821D01*
X443680Y341048D01*
X443133Y340102D01*
X442850Y339046D01*
Y337954D01*
X443133Y336898D01*
X443680Y335952D01*
X444452Y335179D01*
X445398Y334633D01*
X446454Y334350D01*
X447546D01*
X448602Y334633D01*
X449548Y335179D01*
X450320Y335952D01*
X450867Y336898D01*
X451150Y337954D01*
Y339046D01*
X450867Y340102D01*
X450320Y341048D01*
X449548Y341821D01*
X448602Y342367D01*
X447546Y342650D01*
D02*
G37*
G36*
X297046Y341650D02*
X295954D01*
X294898Y341367D01*
X293952Y340821D01*
X293179Y340048D01*
X292633Y339102D01*
X292350Y338046D01*
Y336954D01*
X292633Y335898D01*
X293179Y334952D01*
X293952Y334179D01*
X294898Y333633D01*
X295954Y333350D01*
X297046D01*
X298102Y333633D01*
X299048Y334179D01*
X299820Y334952D01*
X300367Y335898D01*
X300650Y336954D01*
Y338046D01*
X300367Y339102D01*
X299820Y340048D01*
X299048Y340821D01*
X298102Y341367D01*
X297046Y341650D01*
D02*
G37*
G36*
X447546Y332650D02*
X446454D01*
X445398Y332367D01*
X444452Y331821D01*
X443680Y331048D01*
X443133Y330102D01*
X442850Y329046D01*
Y327954D01*
X443133Y326898D01*
X443680Y325952D01*
X444452Y325180D01*
X445398Y324633D01*
X446454Y324350D01*
X447546D01*
X448602Y324633D01*
X449548Y325180D01*
X450320Y325952D01*
X450867Y326898D01*
X451150Y327954D01*
Y329046D01*
X450867Y330102D01*
X450320Y331048D01*
X449548Y331821D01*
X448602Y332367D01*
X447546Y332650D01*
D02*
G37*
G36*
X297046Y331650D02*
X295954D01*
X294898Y331367D01*
X293952Y330820D01*
X293179Y330048D01*
X292633Y329102D01*
X292350Y328046D01*
Y326954D01*
X292633Y325898D01*
X293179Y324952D01*
X293952Y324180D01*
X294898Y323633D01*
X295954Y323350D01*
X297046D01*
X298102Y323633D01*
X299048Y324180D01*
X299820Y324952D01*
X300367Y325898D01*
X300650Y326954D01*
Y328046D01*
X300367Y329102D01*
X299820Y330048D01*
X299048Y330820D01*
X298102Y331367D01*
X297046Y331650D01*
D02*
G37*
G36*
X428500Y321373D02*
Y318500D01*
X431373D01*
X431227Y319044D01*
X430701Y319956D01*
X429956Y320701D01*
X429044Y321227D01*
X428500Y321373D01*
D02*
G37*
G36*
X426500D02*
X425956Y321227D01*
X425044Y320701D01*
X424299Y319956D01*
X423773Y319044D01*
X423627Y318500D01*
X426500D01*
Y321373D01*
D02*
G37*
G36*
X447546Y322650D02*
X446454D01*
X445398Y322367D01*
X444452Y321820D01*
X443680Y321048D01*
X443133Y320102D01*
X442850Y319046D01*
Y317954D01*
X443133Y316898D01*
X443680Y315952D01*
X444452Y315179D01*
X445398Y314633D01*
X446454Y314350D01*
X447546D01*
X448602Y314633D01*
X449548Y315179D01*
X450320Y315952D01*
X450867Y316898D01*
X451150Y317954D01*
Y319046D01*
X450867Y320102D01*
X450320Y321048D01*
X449548Y321820D01*
X448602Y322367D01*
X447546Y322650D01*
D02*
G37*
G36*
X431373Y316500D02*
X428500D01*
Y313627D01*
X429044Y313773D01*
X429956Y314299D01*
X430701Y315044D01*
X431227Y315956D01*
X431373Y316500D01*
D02*
G37*
G36*
X426500D02*
X423627D01*
X423773Y315956D01*
X424299Y315044D01*
X425044Y314299D01*
X425956Y313773D01*
X426500Y313627D01*
Y316500D01*
D02*
G37*
G36*
X297046Y321650D02*
X295954D01*
X294898Y321367D01*
X293952Y320820D01*
X293179Y320048D01*
X292633Y319102D01*
X292350Y318046D01*
Y316954D01*
X292633Y315898D01*
X293179Y314952D01*
X293952Y314179D01*
X294898Y313633D01*
X295954Y313350D01*
X297046D01*
X298102Y313633D01*
X299048Y314179D01*
X299820Y314952D01*
X300367Y315898D01*
X300650Y316954D01*
Y318046D01*
X300367Y319102D01*
X299820Y320048D01*
X299048Y320820D01*
X298102Y321367D01*
X297046Y321650D01*
D02*
G37*
G36*
X448000Y312528D02*
Y309500D01*
X451028D01*
X450867Y310102D01*
X450320Y311048D01*
X449548Y311821D01*
X448602Y312367D01*
X448000Y312528D01*
D02*
G37*
G36*
X446000D02*
X445398Y312367D01*
X444452Y311821D01*
X443680Y311048D01*
X443133Y310102D01*
X442972Y309500D01*
X446000D01*
Y312528D01*
D02*
G37*
G36*
X451028Y307500D02*
X448000D01*
Y304472D01*
X448602Y304633D01*
X449548Y305180D01*
X450320Y305952D01*
X450867Y306898D01*
X451028Y307500D01*
D02*
G37*
G36*
X446000D02*
X442972D01*
X443133Y306898D01*
X443680Y305952D01*
X444452Y305180D01*
X445398Y304633D01*
X446000Y304472D01*
Y307500D01*
D02*
G37*
G36*
X297046Y311650D02*
X295954D01*
X294898Y311367D01*
X293952Y310821D01*
X293179Y310048D01*
X292633Y309102D01*
X292350Y308046D01*
Y306954D01*
X292633Y305898D01*
X293179Y304952D01*
X293952Y304180D01*
X294898Y303633D01*
X295954Y303350D01*
X297046D01*
X298102Y303633D01*
X299048Y304180D01*
X299820Y304952D01*
X300367Y305898D01*
X300650Y306954D01*
Y308046D01*
X300367Y309102D01*
X299820Y310048D01*
X299048Y310821D01*
X298102Y311367D01*
X297046Y311650D01*
D02*
G37*
G36*
X447546Y302650D02*
X446454D01*
X445398Y302367D01*
X444452Y301820D01*
X443680Y301048D01*
X443133Y300102D01*
X442850Y299046D01*
Y297954D01*
X443133Y296898D01*
X443680Y295952D01*
X444452Y295180D01*
X445398Y294633D01*
X446454Y294350D01*
X447546D01*
X448602Y294633D01*
X449548Y295180D01*
X450320Y295952D01*
X450867Y296898D01*
X451150Y297954D01*
Y299046D01*
X450867Y300102D01*
X450320Y301048D01*
X449548Y301820D01*
X448602Y302367D01*
X447546Y302650D01*
D02*
G37*
G36*
X297046Y301650D02*
X295954D01*
X294898Y301367D01*
X293952Y300820D01*
X293179Y300048D01*
X292633Y299102D01*
X292350Y298046D01*
Y296954D01*
X292633Y295898D01*
X293179Y294952D01*
X293952Y294180D01*
X294898Y293633D01*
X295954Y293350D01*
X297046D01*
X298102Y293633D01*
X299048Y294180D01*
X299820Y294952D01*
X300367Y295898D01*
X300650Y296954D01*
Y298046D01*
X300367Y299102D01*
X299820Y300048D01*
X299048Y300820D01*
X298102Y301367D01*
X297046Y301650D01*
D02*
G37*
G36*
X447546Y292650D02*
X446454D01*
X445398Y292367D01*
X444452Y291821D01*
X443680Y291048D01*
X443133Y290102D01*
X442850Y289046D01*
Y287954D01*
X443133Y286898D01*
X443680Y285952D01*
X444452Y285179D01*
X445398Y284633D01*
X446454Y284350D01*
X447546D01*
X448602Y284633D01*
X449548Y285179D01*
X450320Y285952D01*
X450867Y286898D01*
X451150Y287954D01*
Y289046D01*
X450867Y290102D01*
X450320Y291048D01*
X449548Y291821D01*
X448602Y292367D01*
X447546Y292650D01*
D02*
G37*
G36*
X297046Y291650D02*
X295954D01*
X294898Y291367D01*
X293952Y290821D01*
X293179Y290048D01*
X292633Y289102D01*
X292350Y288046D01*
Y286954D01*
X292633Y285898D01*
X293179Y284952D01*
X293952Y284179D01*
X294898Y283633D01*
X295954Y283350D01*
X297046D01*
X298102Y283633D01*
X299048Y284179D01*
X299820Y284952D01*
X300367Y285898D01*
X300650Y286954D01*
Y288046D01*
X300367Y289102D01*
X299820Y290048D01*
X299048Y290821D01*
X298102Y291367D01*
X297046Y291650D01*
D02*
G37*
G36*
X447546Y282650D02*
X446454D01*
X445398Y282367D01*
X444452Y281821D01*
X443680Y281048D01*
X443133Y280102D01*
X442850Y279046D01*
Y277954D01*
X443133Y276898D01*
X443680Y275952D01*
X444452Y275180D01*
X445398Y274633D01*
X446454Y274350D01*
X447546D01*
X448602Y274633D01*
X449548Y275180D01*
X450320Y275952D01*
X450867Y276898D01*
X451150Y277954D01*
Y279046D01*
X450867Y280102D01*
X450320Y281048D01*
X449548Y281821D01*
X448602Y282367D01*
X447546Y282650D01*
D02*
G37*
G36*
X297046Y281650D02*
X295954D01*
X294898Y281367D01*
X293952Y280820D01*
X293179Y280048D01*
X292633Y279102D01*
X292350Y278046D01*
Y276954D01*
X292633Y275898D01*
X293179Y274952D01*
X293952Y274180D01*
X294898Y273633D01*
X295954Y273350D01*
X297046D01*
X298102Y273633D01*
X299048Y274180D01*
X299820Y274952D01*
X300367Y275898D01*
X300650Y276954D01*
Y278046D01*
X300367Y279102D01*
X299820Y280048D01*
X299048Y280820D01*
X298102Y281367D01*
X297046Y281650D01*
D02*
G37*
G36*
X447546Y272650D02*
X446454D01*
X445398Y272367D01*
X444452Y271820D01*
X443680Y271048D01*
X443133Y270102D01*
X442850Y269046D01*
Y267954D01*
X443133Y266898D01*
X443680Y265952D01*
X444452Y265179D01*
X445398Y264633D01*
X446454Y264350D01*
X447546D01*
X448602Y264633D01*
X449548Y265179D01*
X450320Y265952D01*
X450867Y266898D01*
X451150Y267954D01*
Y269046D01*
X450867Y270102D01*
X450320Y271048D01*
X449548Y271820D01*
X448602Y272367D01*
X447546Y272650D01*
D02*
G37*
G36*
X297046Y271650D02*
X295954D01*
X294898Y271367D01*
X293952Y270820D01*
X293179Y270048D01*
X292633Y269102D01*
X292350Y268046D01*
Y266954D01*
X292633Y265898D01*
X293179Y264952D01*
X293952Y264179D01*
X294898Y263633D01*
X295954Y263350D01*
X297046D01*
X298102Y263633D01*
X299048Y264179D01*
X299820Y264952D01*
X300367Y265898D01*
X300650Y266954D01*
Y268046D01*
X300367Y269102D01*
X299820Y270048D01*
X299048Y270820D01*
X298102Y271367D01*
X297046Y271650D01*
D02*
G37*
G36*
X447546Y262650D02*
X446454D01*
X445398Y262367D01*
X444452Y261821D01*
X443680Y261048D01*
X443133Y260102D01*
X442850Y259046D01*
Y257954D01*
X443133Y256898D01*
X443680Y255952D01*
X444452Y255180D01*
X445398Y254633D01*
X446454Y254350D01*
X447546D01*
X448602Y254633D01*
X449548Y255180D01*
X450320Y255952D01*
X450867Y256898D01*
X451150Y257954D01*
Y259046D01*
X450867Y260102D01*
X450320Y261048D01*
X449548Y261821D01*
X448602Y262367D01*
X447546Y262650D01*
D02*
G37*
G36*
X297046Y261650D02*
X295954D01*
X294898Y261367D01*
X293952Y260821D01*
X293179Y260048D01*
X292633Y259102D01*
X292350Y258046D01*
Y256954D01*
X292633Y255898D01*
X293179Y254952D01*
X293952Y254180D01*
X294898Y253633D01*
X295954Y253350D01*
X297046D01*
X298102Y253633D01*
X299048Y254180D01*
X299820Y254952D01*
X300367Y255898D01*
X300650Y256954D01*
Y258046D01*
X300367Y259102D01*
X299820Y260048D01*
X299048Y260821D01*
X298102Y261367D01*
X297046Y261650D01*
D02*
G37*
G36*
X447546Y252650D02*
X446454D01*
X445398Y252367D01*
X444452Y251820D01*
X443680Y251048D01*
X443133Y250102D01*
X442850Y249046D01*
Y247954D01*
X443133Y246898D01*
X443680Y245952D01*
X444452Y245180D01*
X445398Y244633D01*
X446454Y244350D01*
X447546D01*
X448602Y244633D01*
X449548Y245180D01*
X450320Y245952D01*
X450867Y246898D01*
X451150Y247954D01*
Y249046D01*
X450867Y250102D01*
X450320Y251048D01*
X449548Y251820D01*
X448602Y252367D01*
X447546Y252650D01*
D02*
G37*
G36*
X297046Y251650D02*
X295954D01*
X294898Y251367D01*
X293952Y250820D01*
X293179Y250048D01*
X292633Y249102D01*
X292350Y248046D01*
Y246954D01*
X292633Y245898D01*
X293179Y244952D01*
X293952Y244180D01*
X294898Y243633D01*
X295954Y243350D01*
X297046D01*
X298102Y243633D01*
X299048Y244180D01*
X299820Y244952D01*
X300367Y245898D01*
X300650Y246954D01*
Y248046D01*
X300367Y249102D01*
X299820Y250048D01*
X299048Y250820D01*
X298102Y251367D01*
X297046Y251650D01*
D02*
G37*
G36*
X295500Y241528D02*
X294898Y241367D01*
X293952Y240821D01*
X293179Y240048D01*
X292633Y239102D01*
X292472Y238500D01*
X295500D01*
Y241528D01*
D02*
G37*
G36*
X447546Y242650D02*
X446454D01*
X445398Y242367D01*
X444452Y241821D01*
X443680Y241048D01*
X443133Y240102D01*
X442850Y239046D01*
Y237954D01*
X443133Y236898D01*
X443680Y235952D01*
X444452Y235179D01*
X445398Y234633D01*
X446454Y234350D01*
X447546D01*
X448602Y234633D01*
X449548Y235179D01*
X450320Y235952D01*
X450867Y236898D01*
X451150Y237954D01*
Y239046D01*
X450867Y240102D01*
X450320Y241048D01*
X449548Y241821D01*
X448602Y242367D01*
X447546Y242650D01*
D02*
G37*
G36*
X448575Y232672D02*
X445425D01*
X444753Y232583D01*
X444127Y232324D01*
X443589Y231911D01*
X443176Y231373D01*
X442917Y230747D01*
X442828Y230075D01*
Y226925D01*
X442917Y226253D01*
X443176Y225627D01*
X443589Y225089D01*
X444127Y224676D01*
X444753Y224417D01*
X445425Y224328D01*
X448575D01*
X449247Y224417D01*
X449873Y224676D01*
X450411Y225089D01*
X450824Y225627D01*
X451083Y226253D01*
X451172Y226925D01*
Y230075D01*
X451083Y230747D01*
X450824Y231373D01*
X450411Y231911D01*
X449873Y232324D01*
X449247Y232583D01*
X448575Y232672D01*
D02*
G37*
%LPD*%
G36*
X356721Y345500D02*
X344747Y333526D01*
X344541D01*
X343758Y333423D01*
X343028Y333120D01*
X342402Y332640D01*
X338262Y328500D01*
X337473D01*
X336727Y328300D01*
X336227Y328634D01*
Y332411D01*
X336899Y332799D01*
X337644Y333544D01*
X338171Y334456D01*
X338443Y335473D01*
Y336527D01*
X338171Y337544D01*
X337644Y338456D01*
X336899Y339201D01*
X335987Y339727D01*
X334970Y340000D01*
X333917D01*
X332899Y339727D01*
X331987Y339201D01*
X331242Y338456D01*
X330716Y337544D01*
X330443Y336527D01*
Y335473D01*
X330716Y334456D01*
X331242Y333544D01*
X331987Y332799D01*
X332659Y332411D01*
Y331283D01*
X332159Y331149D01*
X331951Y331509D01*
X331206Y332254D01*
X330294Y332781D01*
X329277Y333053D01*
X328223D01*
X327206Y332781D01*
X326294Y332254D01*
X326246Y332206D01*
X325784Y332398D01*
Y333641D01*
X326487Y333829D01*
X327399Y334356D01*
X328144Y335101D01*
X328671Y336013D01*
X328943Y337030D01*
Y338083D01*
X328671Y339101D01*
X328144Y340013D01*
X327399Y340758D01*
X326487Y341284D01*
X325470Y341557D01*
X324417D01*
X323399Y341284D01*
X322487Y340758D01*
X321742Y340013D01*
X321216Y339101D01*
X320943Y338083D01*
Y337030D01*
X320983Y336881D01*
X320535Y336622D01*
X319956Y337201D01*
X319044Y337727D01*
X318027Y338000D01*
X316973D01*
X315956Y337727D01*
X315044Y337201D01*
X314299Y336456D01*
X314026Y335983D01*
X313526Y336117D01*
Y336747D01*
X331753Y354974D01*
X347247D01*
X356721Y345500D01*
D02*
G37*
D35*
X333250Y326836D02*
X334443Y328029D01*
X333250Y321750D02*
Y326836D01*
X334443Y328029D02*
Y336000D01*
X328500Y322071D02*
Y328803D01*
X328750Y329053D01*
X328500Y322071D02*
X363000Y287571D01*
X333250Y321750D02*
X335000Y320000D01*
X324082Y336696D02*
X324943Y337557D01*
X373500Y282500D02*
X374000Y282000D01*
X373500Y282500D02*
Y308303D01*
X362000Y319803D02*
X373500Y308303D01*
X362000Y319803D02*
Y334000D01*
X369000Y276000D02*
X369500Y275500D01*
X369000Y276000D02*
Y286000D01*
X335000Y320000D02*
X369000Y286000D01*
X363000Y281500D02*
Y287571D01*
X324000Y323036D02*
X354500Y292535D01*
Y275500D02*
Y292535D01*
X317500Y326000D02*
X348500Y295000D01*
X347000Y281500D02*
Y282718D01*
X348500Y284218D01*
Y295000D01*
X317500Y326000D02*
Y334000D01*
X324000Y323036D02*
Y334428D01*
X324082Y334510D02*
Y336696D01*
X324000Y334428D02*
X324082Y334510D01*
D37*
X365500Y341000D02*
X427000D01*
X431136Y332864D02*
X431500Y332500D01*
X427000Y341000D02*
X431136Y336864D01*
Y332864D02*
Y336864D01*
X361000Y345500D02*
X365500Y341000D01*
X344541Y330500D02*
X346000D01*
X338541Y324500D02*
X344541Y330500D01*
X338000Y324500D02*
X338541D01*
X310500Y252500D02*
Y338000D01*
X330500Y401000D02*
X335500Y406000D01*
X330500Y358000D02*
Y401000D01*
X387500Y381343D02*
Y390000D01*
X370843Y381343D02*
X387500D01*
X347500Y358000D02*
X370843Y381343D01*
X387500D02*
X389843Y379000D01*
X420000D01*
X387500Y390000D02*
X392000Y394500D01*
X330500Y358000D02*
X347500D01*
X310500Y338000D02*
X330500Y358000D01*
X297650Y229953D02*
X312000Y244303D01*
Y252500D01*
X323000Y263500D01*
X336000D01*
X368500Y304707D02*
X368542Y304665D01*
Y303958D02*
Y304665D01*
Y303958D02*
X368733Y303767D01*
X368500Y304707D02*
Y308000D01*
X346000Y330500D02*
X368500Y308000D01*
X296500Y228122D02*
X297650Y229272D01*
X296500Y227500D02*
Y228122D01*
X297650Y229272D02*
Y229953D01*
X336000Y249500D02*
Y263500D01*
Y249500D02*
X338500Y247000D01*
X349000Y357500D02*
X361000Y345500D01*
X346000Y330500D02*
X361000Y345500D01*
D42*
X447000Y408500D02*
D03*
Y368500D02*
D03*
Y338500D02*
D03*
Y328500D02*
D03*
Y318500D02*
D03*
Y298500D02*
D03*
Y288500D02*
D03*
Y268500D02*
D03*
Y248500D02*
D03*
Y238500D02*
D03*
Y258500D02*
D03*
Y278500D02*
D03*
Y308500D02*
D03*
Y348500D02*
D03*
Y358500D02*
D03*
Y378500D02*
D03*
Y388500D02*
D03*
Y398500D02*
D03*
Y418500D02*
D03*
X296500Y277500D02*
D03*
Y307500D02*
D03*
Y317500D02*
D03*
Y327500D02*
D03*
Y347500D02*
D03*
Y357500D02*
D03*
Y377500D02*
D03*
Y397500D02*
D03*
Y407500D02*
D03*
Y387500D02*
D03*
Y367500D02*
D03*
Y337500D02*
D03*
Y297500D02*
D03*
Y287500D02*
D03*
Y267500D02*
D03*
Y257500D02*
D03*
Y247500D02*
D03*
Y237500D02*
D03*
Y227500D02*
D03*
D43*
X447000Y228500D02*
D03*
X296500Y417500D02*
D03*
D44*
X387000Y366500D02*
D03*
X394000Y351000D02*
D03*
X375500Y353000D02*
D03*
X360000Y358000D02*
D03*
X419044Y415299D02*
D03*
X431500Y332500D02*
D03*
X334443Y336000D02*
D03*
X328750Y329053D02*
D03*
X338000Y324500D02*
D03*
X324943Y337557D02*
D03*
X335500Y406000D02*
D03*
X392000Y394500D02*
D03*
X369500Y275500D02*
D03*
X363000Y281500D02*
D03*
X354500Y275500D02*
D03*
X347000Y281500D02*
D03*
X338500Y247000D02*
D03*
X317500Y334000D02*
D03*
X422000Y378500D02*
D03*
X427500Y317500D02*
D03*
D45*
X374000Y282000D02*
D03*
X368733Y303767D02*
D03*
X362000Y334000D02*
D03*
M02*
