G04*
G04 #@! TF.GenerationSoftware,Altium Limited,Altium Designer,24.3.1 (35)*
G04*
G04 Layer_Color=16711935*
%FSLAX25Y25*%
%MOIN*%
G70*
G04*
G04 #@! TF.SameCoordinates,0CBC8BA6-70FB-484C-93A1-0B89DDC4EC94*
G04*
G04*
G04 #@! TF.FilePolarity,Negative*
G04*
G01*
G75*
%ADD31C,0.07099*%
G04:AMPARAMS|DCode=32|XSize=70.99mil|YSize=70.99mil|CornerRadius=19.75mil|HoleSize=0mil|Usage=FLASHONLY|Rotation=90.000|XOffset=0mil|YOffset=0mil|HoleType=Round|Shape=RoundedRectangle|*
%AMROUNDEDRECTD32*
21,1,0.07099,0.03150,0,0,90.0*
21,1,0.03150,0.07099,0,0,90.0*
1,1,0.03950,0.01575,0.01575*
1,1,0.03950,0.01575,-0.01575*
1,1,0.03950,-0.01575,-0.01575*
1,1,0.03950,-0.01575,0.01575*
%
%ADD32ROUNDEDRECTD32*%
%ADD33C,0.06800*%
%ADD34C,0.05800*%
D31*
X447000Y408500D02*
D03*
Y368500D02*
D03*
Y338500D02*
D03*
Y328500D02*
D03*
Y318500D02*
D03*
Y298500D02*
D03*
Y288500D02*
D03*
Y268500D02*
D03*
Y248500D02*
D03*
Y238500D02*
D03*
Y258500D02*
D03*
Y278500D02*
D03*
Y308500D02*
D03*
Y348500D02*
D03*
Y358500D02*
D03*
Y378500D02*
D03*
Y388500D02*
D03*
Y398500D02*
D03*
Y418500D02*
D03*
X296500Y277500D02*
D03*
Y307500D02*
D03*
Y317500D02*
D03*
Y327500D02*
D03*
Y347500D02*
D03*
Y357500D02*
D03*
Y377500D02*
D03*
Y397500D02*
D03*
Y407500D02*
D03*
Y387500D02*
D03*
Y367500D02*
D03*
Y337500D02*
D03*
Y297500D02*
D03*
Y287500D02*
D03*
Y267500D02*
D03*
Y257500D02*
D03*
Y247500D02*
D03*
Y237500D02*
D03*
Y227500D02*
D03*
D32*
X447000Y228500D02*
D03*
X296500Y417500D02*
D03*
D33*
X387000Y366500D02*
D03*
X394000Y351000D02*
D03*
X375500Y353000D02*
D03*
X360000Y358000D02*
D03*
X419044Y415299D02*
D03*
X431500Y332500D02*
D03*
X334443Y336000D02*
D03*
X328750Y329053D02*
D03*
X338000Y324500D02*
D03*
X324943Y337557D02*
D03*
X335500Y406000D02*
D03*
X392000Y394500D02*
D03*
X369500Y275500D02*
D03*
X363000Y281500D02*
D03*
X354500Y275500D02*
D03*
X347000Y281500D02*
D03*
X338500Y247000D02*
D03*
X317500Y334000D02*
D03*
X422000Y378500D02*
D03*
X427500Y317500D02*
D03*
D34*
X374000Y282000D02*
D03*
X368733Y303767D02*
D03*
X362000Y334000D02*
D03*
M02*
