M48
; DRILL file {KiCad 9.99.0-2389-g3eb66e1b3d} date 2025-08-23T13:06:58+0200
; FORMAT={-:-/ absolute / metric / decimal}
; #@! TF.CreationDate,2025-08-23T13:06:58+02:00
; #@! TF.GenerationSoftware,Kicad,Pcbnew,9.99.0-2389-g3eb66e1b3d
; #@! TF.FileFunction,Plated,1,4,PTH
FMAT,2
METRIC
; #@! TA.AperFunction,Plated,PTH,ViaDrill
T1C0.300
; #@! TA.AperFunction,Plated,PTH,ViaDrill
T2C0.400
; #@! TA.AperFunction,Plated,PTH,ComponentDrill
T3C1.000
; #@! TA.AperFunction,Plated,PTH,ComponentDrill
T4C1.350
%
G90
G05
T1
X171.831Y-86.524
X171.831Y-88.124
X171.831Y-89.724
X171.831Y-91.324
X171.831Y-92.925
X172.085Y-84.328
X172.212Y-85.711
X172.212Y-87.311
X172.212Y-88.911
X172.212Y-90.512
X172.212Y-92.112
X172.212Y-93.712
X172.657Y-101.219
X173.457Y-101.6
X174.244Y-101.219
X175.006Y-94.525
X175.057Y-101.6
X175.195Y-84.582
X175.844Y-101.219
X175.982Y-84.963
X176.657Y-101.6
X176.795Y-84.582
X177.444Y-101.219
X178.054Y-85.09
X178.244Y-101.6
X182.842Y-99.949
X183.642Y-100.33
X183.642Y-109.093
X184.442Y-99.949
X184.785Y-86.017
X185.242Y-100.33
X185.547Y-85.217
X186.042Y-99.949
X186.396Y-84.582
X186.842Y-100.33
X187.071Y-86.524
X187.221Y-93.091
X187.325Y-94.107
X187.579Y-85.711
X188.087Y-83.298
X188.809Y-84.074
X189.23Y-97.79
X189.442Y-98.891
X190.119Y-90.512
X190.119Y-92.112
X190.754Y-91.324
X190.754Y-92.925
X192.659Y-98.891
X193.661Y-87.77
X195.072Y-109.982
X195.072Y-118.618
X196.342Y-96.012
X198.247Y-89.662
X199.263Y-58.166
X199.263Y-62.357
X199.297Y-87.791
X199.471Y-94.497
X199.517Y-92.898
X199.517Y-90.498
X199.517Y-91.298
X199.517Y-92.098
X199.519Y-93.699
X200.787Y-88.773
X201.93Y-113.157
X201.93Y-114.173
X201.93Y-115.189
X201.93Y-116.205
X201.93Y-117.221
X201.93Y-118.237
X208.788Y-43.561
X208.788Y-46.101
X208.788Y-48.641
X208.788Y-51.181
X208.788Y-59.817
X208.788Y-62.357
X208.788Y-64.897
X208.788Y-67.437
X208.788Y-76.327
X208.788Y-78.867
X208.788Y-81.407
X208.788Y-83.947
X208.788Y-92.837
X208.788Y-95.377
X208.788Y-97.917
X208.788Y-100.457
X208.788Y-111.887
X208.788Y-114.427
X208.788Y-116.967
X208.788Y-125.857
X208.788Y-128.397
X208.788Y-130.937
X208.788Y-133.477
X213.868Y-104.394
X214.376Y-105.021
X214.884Y-105.664
X215.011Y-43.561
X215.011Y-46.101
X215.011Y-48.641
X215.011Y-51.181
X215.011Y-59.817
X215.011Y-62.357
X215.011Y-64.897
X215.011Y-67.437
X215.011Y-76.327
X215.011Y-78.867
X215.011Y-81.407
X215.011Y-83.947
X215.011Y-92.837
X215.011Y-95.377
X215.011Y-97.917
X215.011Y-100.457
X215.011Y-111.887
X215.011Y-114.427
X215.011Y-116.967
X215.011Y-125.857
X215.011Y-130.937
X215.011Y-133.477
X215.392Y-106.299
X215.9Y-107.061
X216.027Y-100.457
X216.027Y-102.87
X216.916Y-103.251
X221.615Y-79.109
X221.615Y-79.909
X221.615Y-80.709
X221.615Y-81.509
X221.615Y-82.309
X221.615Y-83.109
X221.615Y-83.909
X221.615Y-84.709
T2
X169.164Y-110.109
X169.164Y-111.125
X169.164Y-112.268
X169.164Y-113.538
X169.164Y-114.808
X169.164Y-115.951
X169.164Y-116.967
X169.545Y-98.552
X170.18Y-110.109
X170.18Y-111.125
X170.18Y-115.951
X170.18Y-116.967
X171.029Y-93.599
X171.196Y-110.109
X171.196Y-111.125
X171.196Y-115.951
X171.196Y-116.967
X177.673Y-75.438
X178.308Y-77.634
X179.324Y-101.219
X180.086Y-76.919
X182.05Y-66.861
X183.896Y-72.898
X183.896Y-74.676
X185.166Y-74.168
X185.801Y-80.264
X186.309Y-135.001
X188.468Y-125.349
X188.976Y-80.229
X191.135Y-79.502
X191.262Y-97.536
X192.278Y-88.019
X193.929Y-98.991
X196.723Y-131.572
X196.723Y-132.588
X197.739Y-131.572
X197.739Y-132.588
X198.628Y-119.126
X198.755Y-131.572
X198.755Y-132.588
X206.696Y-119.888
X212.217Y-42.254
X212.217Y-58.6
X212.217Y-75.1
X212.217Y-91.6
X212.217Y-108.1
X212.217Y-110.64
X212.217Y-124.6
T3
X177.292Y-52.07
X177.292Y-54.61
X177.292Y-57.15
X179.832Y-52.07
X179.832Y-54.61
X179.832Y-57.15
X180.848Y-122.301
X183.388Y-122.301
X185.928Y-122.301
X188.595Y-107.315
X188.595Y-109.855
X188.595Y-115.057
X188.595Y-117.597
X191.008Y-122.301
X191.764Y-54.864
X191.764Y-57.404
X191.764Y-62.484
X191.764Y-65.024
X191.764Y-59.944
X193.548Y-122.301
X194.304Y-65.024
X194.304Y-54.864
X194.304Y-57.404
X194.304Y-59.944
X194.304Y-62.484
X196.088Y-122.301
T4
X173.99Y-127.0
X173.99Y-130.5
M30
