%TF.GenerationSoftware,KiCad,Pcbnew,9.0.0*%
%TF.CreationDate,2025-07-29T16:04:19+02:00*%
%TF.ProjectId,ATXMEGA256_Miniboard,4154584d-4547-4413-9235-365f4d696e69,1.0*%
%TF.SameCoordinates,Original*%
%TF.FileFunction,Copper,L1,Top*%
%TF.FilePolarity,Positive*%
%FSLAX46Y46*%
G04 Gerber Fmt 4.6, Leading zero omitted, Abs format (unit mm)*
G04 Created by KiCad (PCBNEW 9.0.0) date 2025-07-29 16:04:19*
%MOMM*%
%LPD*%
G01*
G04 APERTURE LIST*
G04 Aperture macros list*
%AMRoundRect*
0 Rectangle with rounded corners*
0 $1 Rounding radius*
0 $2 $3 $4 $5 $6 $7 $8 $9 X,Y pos of 4 corners*
0 Add a 4 corners polygon primitive as box body*
4,1,4,$2,$3,$4,$5,$6,$7,$8,$9,$2,$3,0*
0 Add four circle primitives for the rounded corners*
1,1,$1+$1,$2,$3*
1,1,$1+$1,$4,$5*
1,1,$1+$1,$6,$7*
1,1,$1+$1,$8,$9*
0 Add four rect primitives between the rounded corners*
20,1,$1+$1,$2,$3,$4,$5,0*
20,1,$1+$1,$4,$5,$6,$7,0*
20,1,$1+$1,$6,$7,$8,$9,0*
20,1,$1+$1,$8,$9,$2,$3,0*%
%AMFreePoly0*
4,1,23,0.550000,-0.750000,0.000000,-0.750000,0.000000,-0.745722,-0.065263,-0.745722,-0.191342,-0.711940,-0.304381,-0.646677,-0.396677,-0.554381,-0.461940,-0.441342,-0.495722,-0.315263,-0.495722,-0.250000,-0.500000,-0.250000,-0.500000,0.250000,-0.495722,0.250000,-0.495722,0.315263,-0.461940,0.441342,-0.396677,0.554381,-0.304381,0.646677,-0.191342,0.711940,-0.065263,0.745722,0.000000,0.745722,
0.000000,0.750000,0.550000,0.750000,0.550000,-0.750000,0.550000,-0.750000,$1*%
%AMFreePoly1*
4,1,23,0.000000,0.745722,0.065263,0.745722,0.191342,0.711940,0.304381,0.646677,0.396677,0.554381,0.461940,0.441342,0.495722,0.315263,0.495722,0.250000,0.500000,0.250000,0.500000,-0.250000,0.495722,-0.250000,0.495722,-0.315263,0.461940,-0.441342,0.396677,-0.554381,0.304381,-0.646677,0.191342,-0.711940,0.065263,-0.745722,0.000000,-0.745722,0.000000,-0.750000,-0.550000,-0.750000,
-0.550000,0.750000,0.000000,0.750000,0.000000,0.745722,0.000000,0.745722,$1*%
G04 Aperture macros list end*
%TA.AperFunction,EtchedComponent*%
%ADD10C,0.000000*%
%TD*%
%TA.AperFunction,SMDPad,CuDef*%
%ADD11RoundRect,0.237500X-0.300000X-0.237500X0.300000X-0.237500X0.300000X0.237500X-0.300000X0.237500X0*%
%TD*%
%TA.AperFunction,SMDPad,CuDef*%
%ADD12FreePoly0,90.000000*%
%TD*%
%TA.AperFunction,SMDPad,CuDef*%
%ADD13R,1.500000X1.000000*%
%TD*%
%TA.AperFunction,SMDPad,CuDef*%
%ADD14FreePoly1,90.000000*%
%TD*%
%TA.AperFunction,SMDPad,CuDef*%
%ADD15R,1.000000X2.500000*%
%TD*%
%TA.AperFunction,SMDPad,CuDef*%
%ADD16R,3.000000X1.000000*%
%TD*%
%TA.AperFunction,SMDPad,CuDef*%
%ADD17RoundRect,0.250000X0.475000X-0.337500X0.475000X0.337500X-0.475000X0.337500X-0.475000X-0.337500X0*%
%TD*%
%TA.AperFunction,SMDPad,CuDef*%
%ADD18RoundRect,0.250000X-0.475000X0.337500X-0.475000X-0.337500X0.475000X-0.337500X0.475000X0.337500X0*%
%TD*%
%TA.AperFunction,SMDPad,CuDef*%
%ADD19RoundRect,0.237500X-0.237500X0.300000X-0.237500X-0.300000X0.237500X-0.300000X0.237500X0.300000X0*%
%TD*%
%TA.AperFunction,SMDPad,CuDef*%
%ADD20RoundRect,0.250000X0.337500X0.475000X-0.337500X0.475000X-0.337500X-0.475000X0.337500X-0.475000X0*%
%TD*%
%TA.AperFunction,ComponentPad*%
%ADD21R,1.700000X1.700000*%
%TD*%
%TA.AperFunction,ComponentPad*%
%ADD22O,1.700000X1.700000*%
%TD*%
%TA.AperFunction,SMDPad,CuDef*%
%ADD23R,0.900000X0.800000*%
%TD*%
%TA.AperFunction,ComponentPad*%
%ADD24RoundRect,0.250000X-0.600000X-0.600000X0.600000X-0.600000X0.600000X0.600000X-0.600000X0.600000X0*%
%TD*%
%TA.AperFunction,ComponentPad*%
%ADD25C,1.700000*%
%TD*%
%TA.AperFunction,SMDPad,CuDef*%
%ADD26RoundRect,0.250000X0.450000X-0.350000X0.450000X0.350000X-0.450000X0.350000X-0.450000X-0.350000X0*%
%TD*%
%TA.AperFunction,SMDPad,CuDef*%
%ADD27R,2.100000X1.400000*%
%TD*%
%TA.AperFunction,SMDPad,CuDef*%
%ADD28R,0.400000X1.350000*%
%TD*%
%TA.AperFunction,SMDPad,CuDef*%
%ADD29R,1.800000X1.900000*%
%TD*%
%TA.AperFunction,SMDPad,CuDef*%
%ADD30R,2.100000X1.600000*%
%TD*%
%TA.AperFunction,SMDPad,CuDef*%
%ADD31R,1.900000X1.900000*%
%TD*%
%TA.AperFunction,SMDPad,CuDef*%
%ADD32RoundRect,0.250000X0.350000X-0.275000X0.350000X0.275000X-0.350000X0.275000X-0.350000X-0.275000X0*%
%TD*%
%TA.AperFunction,SMDPad,CuDef*%
%ADD33R,1.473200X0.508000*%
%TD*%
%TA.AperFunction,SMDPad,CuDef*%
%ADD34R,0.508000X1.473200*%
%TD*%
%TA.AperFunction,SMDPad,CuDef*%
%ADD35RoundRect,0.237500X0.300000X0.237500X-0.300000X0.237500X-0.300000X-0.237500X0.300000X-0.237500X0*%
%TD*%
%TA.AperFunction,SMDPad,CuDef*%
%ADD36RoundRect,0.250000X-0.450000X0.325000X-0.450000X-0.325000X0.450000X-0.325000X0.450000X0.325000X0*%
%TD*%
%TA.AperFunction,SMDPad,CuDef*%
%ADD37RoundRect,0.250000X-0.325000X-0.450000X0.325000X-0.450000X0.325000X0.450000X-0.325000X0.450000X0*%
%TD*%
%TA.AperFunction,SMDPad,CuDef*%
%ADD38RoundRect,0.250000X0.412500X1.100000X-0.412500X1.100000X-0.412500X-1.100000X0.412500X-1.100000X0*%
%TD*%
%TA.AperFunction,SMDPad,CuDef*%
%ADD39RoundRect,0.250000X1.100000X-0.412500X1.100000X0.412500X-1.100000X0.412500X-1.100000X-0.412500X0*%
%TD*%
%TA.AperFunction,SMDPad,CuDef*%
%ADD40RoundRect,0.237500X0.237500X-0.250000X0.237500X0.250000X-0.237500X0.250000X-0.237500X-0.250000X0*%
%TD*%
%TA.AperFunction,SMDPad,CuDef*%
%ADD41RoundRect,0.250000X-0.412500X-1.100000X0.412500X-1.100000X0.412500X1.100000X-0.412500X1.100000X0*%
%TD*%
%TA.AperFunction,SMDPad,CuDef*%
%ADD42R,1.625600X0.889000*%
%TD*%
%TA.AperFunction,SMDPad,CuDef*%
%ADD43R,1.625600X3.175000*%
%TD*%
%TA.AperFunction,ComponentPad*%
%ADD44R,2.500000X2.500000*%
%TD*%
%TA.AperFunction,ComponentPad*%
%ADD45C,2.500000*%
%TD*%
%TA.AperFunction,SMDPad,CuDef*%
%ADD46RoundRect,0.237500X-0.250000X-0.237500X0.250000X-0.237500X0.250000X0.237500X-0.250000X0.237500X0*%
%TD*%
%TA.AperFunction,SMDPad,CuDef*%
%ADD47RoundRect,0.250000X-0.337500X-0.475000X0.337500X-0.475000X0.337500X0.475000X-0.337500X0.475000X0*%
%TD*%
%TA.AperFunction,SMDPad,CuDef*%
%ADD48R,1.200000X1.400000*%
%TD*%
%TA.AperFunction,ViaPad*%
%ADD49C,0.800000*%
%TD*%
%TA.AperFunction,ViaPad*%
%ADD50C,0.600000*%
%TD*%
%TA.AperFunction,Conductor*%
%ADD51C,0.508000*%
%TD*%
%TA.AperFunction,Conductor*%
%ADD52C,0.254000*%
%TD*%
%TA.AperFunction,Conductor*%
%ADD53C,0.200000*%
%TD*%
G04 APERTURE END LIST*
D10*
%TA.AperFunction,EtchedComponent*%
%TO.C,JP1*%
G36*
X198039000Y-96911999D02*
G01*
X197438998Y-96911999D01*
X197439000Y-96412000D01*
X198039000Y-96412000D01*
X198039000Y-96911999D01*
G37*
%TD.AperFunction*%
%TA.AperFunction,EtchedComponent*%
%TO.C,JP2*%
G36*
X195245000Y-96911999D02*
G01*
X194644999Y-96912001D01*
X194645000Y-96412000D01*
X195245000Y-96412000D01*
X195245000Y-96911999D01*
G37*
%TD.AperFunction*%
%TD*%
D11*
%TO.P,C13,1*%
%TO.N,GND*%
X187701500Y-135902001D03*
%TO.P,C13,2*%
%TO.N,SHIELD*%
X189426500Y-135902003D03*
%TD*%
D12*
%TO.P,JP1,1,A*%
%TO.N,/D+*%
X197739001Y-97312001D03*
D13*
%TO.P,JP1,2,C*%
%TO.N,Net-(JP1-C)*%
X197739000Y-96012000D03*
D14*
%TO.P,JP1,3,B*%
%TO.N,/PD7*%
X197738999Y-94711999D03*
%TD*%
D15*
%TO.P,Y1,1,1*%
%TO.N,Net-(U1-TOSC1)*%
X195540000Y-83625002D03*
%TO.P,Y1,2,2*%
%TO.N,Net-(U1-TOSC2)*%
X198080000Y-83625002D03*
%TD*%
D16*
%TO.P,J14,1,Pin_1*%
%TO.N,+3V3_IO*%
X209342000Y-118259649D03*
%TO.P,J14,2,Pin_2*%
%TO.N,/PE1*%
X214382000Y-118259649D03*
%TO.P,J14,3,Pin_3*%
%TO.N,/PE0*%
X209342000Y-115719649D03*
%TO.P,J14,4,Pin_4*%
%TO.N,/PE3*%
X214382000Y-115719649D03*
%TO.P,J14,5,Pin_5*%
%TO.N,/PE2*%
X209342000Y-113179649D03*
%TO.P,J14,6,Pin_6*%
%TO.N,/PE5*%
X214382000Y-113179649D03*
%TO.P,J14,7,Pin_7*%
%TO.N,/PE4*%
X209342000Y-110639649D03*
%TO.P,J14,8,Pin_8*%
%TO.N,GND*%
X214382000Y-110639649D03*
%TO.P,J14,9,Pin_9*%
%TO.N,+3V3_IO*%
X209342000Y-108099649D03*
%TO.P,J14,10,Pin_10*%
%TO.N,GND*%
X214382000Y-108099649D03*
%TD*%
D17*
%TO.P,C3,1*%
%TO.N,GND*%
X191095000Y-88018502D03*
%TO.P,C3,2*%
%TO.N,+3V3_MCU*%
X191095000Y-85943502D03*
%TD*%
%TO.P,C8,1*%
%TO.N,GND*%
X177673000Y-74189500D03*
%TO.P,C8,2*%
%TO.N,/~{RESET}*%
X177673000Y-72114500D03*
%TD*%
D18*
%TO.P,C1,1*%
%TO.N,GND*%
X171029000Y-94884302D03*
%TO.P,C1,2*%
%TO.N,+3V3_MCU*%
X171029000Y-96959302D03*
%TD*%
D16*
%TO.P,J10,1,Pin_1*%
%TO.N,+3V3_IO*%
X209342000Y-52413654D03*
%TO.P,J10,2,Pin_2*%
%TO.N,/PA1*%
X214382000Y-52413654D03*
%TO.P,J10,3,Pin_3*%
%TO.N,/PA0*%
X209342000Y-49873654D03*
%TO.P,J10,4,Pin_4*%
%TO.N,/PA3*%
X214382000Y-49873654D03*
%TO.P,J10,5,Pin_5*%
%TO.N,/PA2*%
X209342000Y-47333654D03*
%TO.P,J10,6,Pin_6*%
%TO.N,/PA5*%
X214382000Y-47333654D03*
%TO.P,J10,7,Pin_7*%
%TO.N,/PA4*%
X209342000Y-44793654D03*
%TO.P,J10,8,Pin_8*%
%TO.N,/PA7*%
X214382000Y-44793654D03*
%TO.P,J10,9,Pin_9*%
%TO.N,/PA6*%
X209342000Y-42253654D03*
%TO.P,J10,10,Pin_10*%
%TO.N,GND*%
X214382000Y-42253654D03*
%TD*%
D11*
%TO.P,C9,1*%
%TO.N,GND*%
X193661500Y-86854001D03*
%TO.P,C9,2*%
%TO.N,Net-(U1-TOSC1)*%
X195386500Y-86854003D03*
%TD*%
D19*
%TO.P,C11,1*%
%TO.N,GND*%
X184531002Y-75210500D03*
%TO.P,C11,2*%
%TO.N,Net-(U1-PR0)*%
X184531000Y-76935500D03*
%TD*%
D16*
%TO.P,J13,1,Pin_1*%
%TO.N,+3V3_IO*%
X209342000Y-101759649D03*
%TO.P,J13,2,Pin_2*%
%TO.N,/PD1*%
X214382000Y-101759649D03*
%TO.P,J13,3,Pin_3*%
%TO.N,/PD0*%
X209342000Y-99219649D03*
%TO.P,J13,4,Pin_4*%
%TO.N,/PD3*%
X214382000Y-99219649D03*
%TO.P,J13,5,Pin_5*%
%TO.N,/PD2*%
X209342000Y-96679649D03*
%TO.P,J13,6,Pin_6*%
%TO.N,/PD5*%
X214382000Y-96679649D03*
%TO.P,J13,7,Pin_7*%
%TO.N,/PD4*%
X209342000Y-94139649D03*
%TO.P,J13,8,Pin_8*%
%TO.N,/PD7*%
X214382000Y-94139649D03*
%TO.P,J13,9,Pin_9*%
%TO.N,/PD6*%
X209342000Y-91599649D03*
%TO.P,J13,10,Pin_10*%
%TO.N,GND*%
X214382000Y-91599649D03*
%TD*%
D20*
%TO.P,C2,1*%
%TO.N,GND*%
X184745000Y-80935801D03*
%TO.P,C2,2*%
%TO.N,+3V3_MCU*%
X182670000Y-80935801D03*
%TD*%
D21*
%TO.P,J6,1,Pin_1*%
%TO.N,Net-(J6-Pin_1)*%
X188595000Y-107315000D03*
D22*
%TO.P,J6,2,Pin_2*%
%TO.N,+3V3_IO*%
X188595000Y-109855000D03*
%TD*%
D23*
%TO.P,Q1,1*%
%TO.N,Net-(Q1-Pad1)*%
X180127400Y-110810000D03*
%TO.P,Q1,2*%
%TO.N,Net-(U2-VIN)*%
X180127400Y-112710000D03*
%TO.P,Q1,3*%
%TO.N,Net-(J8-Pin_2)*%
X182127400Y-111760000D03*
%TD*%
D24*
%TO.P,J2,1,Pin_1*%
%TO.N,GND*%
X191764000Y-54864000D03*
D25*
%TO.P,J2,2,Pin_2*%
%TO.N,/PB6*%
X194304000Y-54864000D03*
%TO.P,J2,3,Pin_3*%
%TO.N,+3V3_EXT*%
X191764000Y-57404000D03*
%TO.P,J2,4,Pin_4*%
%TO.N,/PB7*%
X194304000Y-57404000D03*
%TO.P,J2,5,Pin_5*%
%TO.N,/~{RESET}*%
X191764002Y-59944002D03*
%TO.P,J2,6,Pin_6*%
%TO.N,/PB4*%
X194304000Y-59944001D03*
%TO.P,J2,7,Pin_7*%
%TO.N,unconnected-(J2-Pin_7-Pad7)*%
X191764000Y-62484000D03*
%TO.P,J2,8,Pin_8*%
%TO.N,unconnected-(J2-Pin_8-Pad8)*%
X194304000Y-62484000D03*
%TO.P,J2,9,Pin_9*%
%TO.N,GND*%
X191764000Y-65024000D03*
%TO.P,J2,10,Pin_10*%
%TO.N,/PB5*%
X194303999Y-65024001D03*
%TD*%
D26*
%TO.P,R3,1*%
%TO.N,Net-(J4-Pin_2)*%
X195072000Y-117586001D03*
%TO.P,R3,2*%
%TO.N,Net-(D1-A)*%
X195072000Y-115585999D03*
%TD*%
D27*
%TO.P,SW1,1,1*%
%TO.N,GND*%
X172950000Y-65500000D03*
%TO.P,SW1,2,2*%
X182050000Y-65500000D03*
%TO.P,SW1,3,K*%
%TO.N,/~{RESET}*%
X172950000Y-70000000D03*
%TO.P,SW1,4,A*%
X182050000Y-70000000D03*
%TD*%
D28*
%TO.P,J1,1,VUSB*%
%TO.N,+5V_USB*%
X194026000Y-134112002D03*
%TO.P,J1,2,D-*%
%TO.N,/D-*%
X194676000Y-134112002D03*
%TO.P,J1,3,D+*%
%TO.N,/D+*%
X195326000Y-134112002D03*
%TO.P,J1,4,ID*%
%TO.N,unconnected-(J1-ID-Pad4)*%
X195976000Y-134112002D03*
%TO.P,J1,5,GND*%
%TO.N,GND*%
X196626000Y-134112002D03*
D29*
%TO.P,J1,6,SHIELD*%
%TO.N,SHIELD*%
X191526000Y-136787002D03*
D30*
X192226000Y-134237002D03*
D31*
X194126000Y-136787002D03*
X196526000Y-136787002D03*
D30*
X198426000Y-134237002D03*
D29*
X199126000Y-136787002D03*
%TD*%
D32*
%TO.P,L2,1,1*%
%TO.N,Net-(J6-Pin_1)*%
X185674000Y-107315000D03*
%TO.P,L2,2,2*%
%TO.N,+3V3_MCU*%
X185674002Y-105015004D03*
%TD*%
D33*
%TO.P,U1,1,PA3*%
%TO.N,/PA3*%
X173569000Y-84923602D03*
%TO.P,U1,2,PA4*%
%TO.N,/PA4*%
X173569000Y-85711002D03*
%TO.P,U1,3,PA5*%
%TO.N,/PA5*%
X173569000Y-86523802D03*
%TO.P,U1,4,PA6*%
%TO.N,/PA6*%
X173569000Y-87311202D03*
%TO.P,U1,5,PA7*%
%TO.N,/PA7*%
X173569000Y-88124002D03*
%TO.P,U1,6,PB0*%
%TO.N,/PB0*%
X173569000Y-88911402D03*
%TO.P,U1,7,PB1*%
%TO.N,/PB1*%
X173569000Y-89724202D03*
%TO.P,U1,8,PB2*%
%TO.N,/PB2*%
X173569000Y-90511602D03*
%TO.P,U1,9,PB3*%
%TO.N,/PB3*%
X173569000Y-91324402D03*
%TO.P,U1,10,PB4*%
%TO.N,/PB4*%
X173569000Y-92111802D03*
%TO.P,U1,11,PB5*%
%TO.N,/PB5*%
X173569000Y-92924602D03*
%TO.P,U1,12,PB6*%
%TO.N,/PB6*%
X173569000Y-93712002D03*
%TO.P,U1,13,PB7*%
%TO.N,/PB7*%
X173569000Y-94524802D03*
%TO.P,U1,14,GND_2*%
%TO.N,GND*%
X173569000Y-95312202D03*
%TO.P,U1,15,VCC_2*%
%TO.N,+3V3_MCU*%
X173569000Y-96125002D03*
%TO.P,U1,16,PC0*%
%TO.N,/PC0*%
X173569000Y-96912402D03*
D34*
%TO.P,U1,17,PC1*%
%TO.N,/PC1*%
X175194600Y-98538002D03*
%TO.P,U1,18,PC2*%
%TO.N,/PC2*%
X175982000Y-98538002D03*
%TO.P,U1,19,PC3*%
%TO.N,/PC3*%
X176794800Y-98538002D03*
%TO.P,U1,20,PC4*%
%TO.N,/PC4*%
X177582200Y-98538002D03*
%TO.P,U1,21,PC5*%
%TO.N,/PC5*%
X178395000Y-98538002D03*
%TO.P,U1,22,PC6*%
%TO.N,/PC6*%
X179182400Y-98538002D03*
%TO.P,U1,23,PC7*%
%TO.N,/PC7*%
X179995200Y-98538002D03*
%TO.P,U1,24,GND_3*%
%TO.N,GND*%
X180782600Y-98538002D03*
%TO.P,U1,25,VCC_3*%
%TO.N,+3V3_MCU*%
X181595400Y-98538002D03*
%TO.P,U1,26,PD0*%
%TO.N,/PD0*%
X182382800Y-98538002D03*
%TO.P,U1,27,PD1*%
%TO.N,/PD1*%
X183195600Y-98538002D03*
%TO.P,U1,28,PD2*%
%TO.N,/PD2*%
X183983000Y-98538002D03*
%TO.P,U1,29,PD3*%
%TO.N,/PD3*%
X184795800Y-98538002D03*
%TO.P,U1,30,PD4*%
%TO.N,/PD4*%
X185583200Y-98538002D03*
%TO.P,U1,31,PD5*%
%TO.N,/PD5*%
X186396000Y-98538002D03*
%TO.P,U1,32,PD6*%
%TO.N,Net-(JP2-C)*%
X187183400Y-98538002D03*
D33*
%TO.P,U1,33,PD7*%
%TO.N,Net-(JP1-C)*%
X188809000Y-96912402D03*
%TO.P,U1,34,GND_4*%
%TO.N,GND*%
X188809000Y-96125002D03*
%TO.P,U1,35,VCC_4*%
%TO.N,+3V3_MCU*%
X188809000Y-95312202D03*
%TO.P,U1,36,PE0*%
%TO.N,/PE0*%
X188809000Y-94524802D03*
%TO.P,U1,37,PE1*%
%TO.N,/PE1*%
X188809000Y-93712002D03*
%TO.P,U1,38,PE2*%
%TO.N,/PE2*%
X188809000Y-92924602D03*
%TO.P,U1,39,PE3*%
%TO.N,/PE3*%
X188809000Y-92111802D03*
%TO.P,U1,40,PE4*%
%TO.N,/PE4*%
X188809000Y-91324402D03*
%TO.P,U1,41,PE5*%
%TO.N,/PE5*%
X188809000Y-90511602D03*
%TO.P,U1,42,TOSC2*%
%TO.N,Net-(U1-TOSC2)*%
X188809000Y-89724202D03*
%TO.P,U1,43,TOSC1*%
%TO.N,Net-(U1-TOSC1)*%
X188809000Y-88911402D03*
%TO.P,U1,44,GND_5*%
%TO.N,GND*%
X188809000Y-88124002D03*
%TO.P,U1,45,VCC_5*%
%TO.N,+3V3_MCU*%
X188809000Y-87311202D03*
%TO.P,U1,46,PF0*%
%TO.N,/PF0*%
X188809000Y-86523802D03*
%TO.P,U1,47,PF1*%
%TO.N,/PF1*%
X188809000Y-85711002D03*
%TO.P,U1,48,PF2*%
%TO.N,/PF2*%
X188809000Y-84923602D03*
D34*
%TO.P,U1,49,PF3*%
%TO.N,/PF3*%
X187183400Y-83298002D03*
%TO.P,U1,50,PF4*%
%TO.N,/PF4*%
X186396000Y-83298002D03*
%TO.P,U1,51,VBAT*%
%TO.N,/VBAT*%
X185583200Y-83298002D03*
%TO.P,U1,52,GND_6*%
%TO.N,GND*%
X184795800Y-83298002D03*
%TO.P,U1,53,VCC*%
%TO.N,+3V3_MCU*%
X183983000Y-83298002D03*
%TO.P,U1,54,PF6*%
%TO.N,/PF6*%
X183195600Y-83298002D03*
%TO.P,U1,55,PF7*%
%TO.N,/PF7*%
X182382800Y-83298002D03*
%TO.P,U1,56,PDI*%
%TO.N,/PDI_DATA*%
X181595400Y-83298002D03*
%TO.P,U1,57,RESET/PDI*%
%TO.N,/~{RESET}*%
X180782600Y-83298002D03*
%TO.P,U1,58,PR0*%
%TO.N,Net-(U1-PR0)*%
X179995200Y-83298002D03*
%TO.P,U1,59,PR1*%
%TO.N,Net-(U1-PR1)*%
X179182400Y-83298002D03*
%TO.P,U1,60,GND*%
%TO.N,GND*%
X178395000Y-83298002D03*
%TO.P,U1,61,AVCC*%
%TO.N,/MCU_AVCC*%
X177582200Y-83298002D03*
%TO.P,U1,62,PA0*%
%TO.N,/PA0*%
X176794800Y-83298002D03*
%TO.P,U1,63,PA1*%
%TO.N,/PA1*%
X175982000Y-83298002D03*
%TO.P,U1,64,PA2*%
%TO.N,/PA2*%
X175194600Y-83298002D03*
%TD*%
D35*
%TO.P,C10,1*%
%TO.N,GND*%
X199297000Y-86854003D03*
%TO.P,C10,2*%
%TO.N,Net-(U1-TOSC2)*%
X197572000Y-86854001D03*
%TD*%
D36*
%TO.P,D1,1,K*%
%TO.N,GND*%
X195072000Y-111369999D03*
%TO.P,D1,2,A*%
%TO.N,Net-(D1-A)*%
X195072000Y-113420001D03*
%TD*%
D37*
%TO.P,L1,1,1*%
%TO.N,+3V3_MCU*%
X171010998Y-80504001D03*
%TO.P,L1,2,2*%
%TO.N,/MCU_AVCC*%
X173061000Y-80504001D03*
%TD*%
D38*
%TO.P,C16,1*%
%TO.N,GND*%
X192990002Y-101219000D03*
%TO.P,C16,2*%
%TO.N,+3V3_MCU*%
X189865000Y-101219000D03*
%TD*%
D24*
%TO.P,J3,1,Pin_1*%
%TO.N,/PDI_DATA*%
X177292000Y-52070000D03*
D25*
%TO.P,J3,2,Pin_2*%
%TO.N,+3V3_EXT*%
X179832000Y-52070000D03*
%TO.P,J3,3,Pin_3*%
%TO.N,unconnected-(J3-Pin_3-Pad3)*%
X177292000Y-54610000D03*
%TO.P,J3,4,Pin_4*%
%TO.N,unconnected-(J3-Pin_4-Pad4)*%
X179832000Y-54610000D03*
%TO.P,J3,5,Pin_5*%
%TO.N,/~{RESET}*%
X177292002Y-57150002D03*
%TO.P,J3,6,Pin_6*%
%TO.N,GND*%
X179832000Y-57150001D03*
%TD*%
D39*
%TO.P,C14,1*%
%TO.N,GND*%
X180492399Y-118275501D03*
%TO.P,C14,2*%
%TO.N,Net-(U2-VIN)*%
X180492399Y-115150499D03*
%TD*%
D12*
%TO.P,JP2,1,A*%
%TO.N,/D-*%
X194944999Y-97312000D03*
D13*
%TO.P,JP2,2,C*%
%TO.N,Net-(JP2-C)*%
X194945000Y-96012000D03*
D14*
%TO.P,JP2,3,B*%
%TO.N,/PD6*%
X194945001Y-94712000D03*
%TD*%
D38*
%TO.P,C6,1*%
%TO.N,GND*%
X177163501Y-77633803D03*
%TO.P,C6,2*%
%TO.N,/MCU_AVCC*%
X174038499Y-77633803D03*
%TD*%
D21*
%TO.P,J8,1,Pin_1*%
%TO.N,+5V_USB*%
X185928000Y-122301000D03*
D22*
%TO.P,J8,2,Pin_2*%
%TO.N,Net-(J8-Pin_2)*%
X183388000Y-122301000D03*
%TO.P,J8,3,Pin_3*%
%TO.N,Net-(J8-Pin_3)*%
X180848000Y-122301000D03*
%TD*%
D40*
%TO.P,R1,1*%
%TO.N,+3V3_MCU*%
X175641000Y-73810500D03*
%TO.P,R1,2*%
%TO.N,/~{RESET}*%
X175641000Y-71985500D03*
%TD*%
D21*
%TO.P,J4,1,Pin_1*%
%TO.N,+3V3_EXT*%
X196088000Y-122301000D03*
D22*
%TO.P,J4,2,Pin_2*%
%TO.N,Net-(J4-Pin_2)*%
X193548000Y-122301000D03*
%TO.P,J4,3,Pin_3*%
%TO.N,Net-(J4-Pin_3)*%
X191008000Y-122301000D03*
%TD*%
D16*
%TO.P,J15,1,Pin_1*%
%TO.N,+3V3_IO*%
X209342001Y-134759648D03*
%TO.P,J15,2,Pin_2*%
%TO.N,/PF1*%
X214382001Y-134759648D03*
%TO.P,J15,3,Pin_3*%
%TO.N,/PF0*%
X209342001Y-132219648D03*
%TO.P,J15,4,Pin_4*%
%TO.N,/PF3*%
X214382001Y-132219648D03*
%TO.P,J15,5,Pin_5*%
%TO.N,/PF2*%
X209342001Y-129679648D03*
%TO.P,J15,6,Pin_6*%
%TO.N,/VBAT*%
X214382001Y-129679648D03*
%TO.P,J15,7,Pin_7*%
%TO.N,/PF4*%
X209342001Y-127139648D03*
%TO.P,J15,8,Pin_8*%
%TO.N,/PF7*%
X214382001Y-127139648D03*
%TO.P,J15,9,Pin_9*%
%TO.N,/PF6*%
X209342001Y-124599648D03*
%TO.P,J15,10,Pin_10*%
%TO.N,GND*%
X214382001Y-124599648D03*
%TD*%
%TO.P,J12,1,Pin_1*%
%TO.N,+3V3_IO*%
X209342000Y-85259649D03*
%TO.P,J12,2,Pin_2*%
%TO.N,/PC1*%
X214382000Y-85259649D03*
%TO.P,J12,3,Pin_3*%
%TO.N,/PC0*%
X209342000Y-82719649D03*
%TO.P,J12,4,Pin_4*%
%TO.N,/PC3*%
X214382000Y-82719649D03*
%TO.P,J12,5,Pin_5*%
%TO.N,/PC2*%
X209342000Y-80179649D03*
%TO.P,J12,6,Pin_6*%
%TO.N,/PC5*%
X214382000Y-80179649D03*
%TO.P,J12,7,Pin_7*%
%TO.N,/PC4*%
X209342000Y-77639649D03*
%TO.P,J12,8,Pin_8*%
%TO.N,/PC7*%
X214382000Y-77639649D03*
%TO.P,J12,9,Pin_9*%
%TO.N,/PC6*%
X209342000Y-75099649D03*
%TO.P,J12,10,Pin_10*%
%TO.N,GND*%
X214382000Y-75099649D03*
%TD*%
D35*
%TO.P,C12,1*%
%TO.N,GND*%
X182827000Y-72898002D03*
%TO.P,C12,2*%
%TO.N,Net-(U1-PR1)*%
X181102000Y-72898000D03*
%TD*%
D41*
%TO.P,C15,1*%
%TO.N,GND*%
X175500899Y-107950000D03*
%TO.P,C15,2*%
%TO.N,Net-(J4-Pin_3)*%
X178625901Y-107950000D03*
%TD*%
D42*
%TO.P,U2,1,VIN*%
%TO.N,Net-(U2-VIN)*%
X177063401Y-115849401D03*
%TO.P,U2,2,GND*%
%TO.N,GND*%
X177063400Y-113538001D03*
%TO.P,U2,3,VOUT*%
%TO.N,Net-(J4-Pin_3)*%
X177063400Y-111226600D03*
D43*
%TO.P,U2,4,GND*%
%TO.N,GND*%
X170662600Y-113537999D03*
%TD*%
D44*
%TO.P,J9,1,Pin_1*%
%TO.N,GND*%
X173990000Y-127000000D03*
D45*
%TO.P,J9,2,Pin_2*%
%TO.N,Net-(J8-Pin_3)*%
X173990000Y-130500000D03*
%TD*%
D20*
%TO.P,C7,1*%
%TO.N,GND*%
X177273500Y-80554803D03*
%TO.P,C7,2*%
%TO.N,/MCU_AVCC*%
X175198500Y-80554803D03*
%TD*%
D46*
%TO.P,R2,1*%
%TO.N,GND*%
X187651500Y-134124002D03*
%TO.P,R2,2*%
%TO.N,SHIELD*%
X189476500Y-134124002D03*
%TD*%
D21*
%TO.P,J5,1,Pin_1*%
%TO.N,+3V3_IO*%
X188595000Y-115057000D03*
D22*
%TO.P,J5,2,Pin_2*%
%TO.N,Net-(J4-Pin_2)*%
X188595000Y-117597000D03*
%TD*%
D46*
%TO.P,R4,1*%
%TO.N,Net-(Q1-Pad1)*%
X180697500Y-109093000D03*
%TO.P,R4,2*%
%TO.N,GND*%
X182522500Y-109093000D03*
%TD*%
D47*
%TO.P,C5,1*%
%TO.N,GND*%
X180405501Y-101219000D03*
%TO.P,C5,2*%
%TO.N,+3V3_MCU*%
X182480501Y-101219000D03*
%TD*%
D17*
%TO.P,C4,1*%
%TO.N,GND*%
X191348999Y-96451302D03*
%TO.P,C4,2*%
%TO.N,+3V3_MCU*%
X191348999Y-94376302D03*
%TD*%
D16*
%TO.P,J11,1,Pin_1*%
%TO.N,+3V3_IO*%
X209342000Y-68759649D03*
%TO.P,J11,2,Pin_2*%
%TO.N,/PB1*%
X214382000Y-68759649D03*
%TO.P,J11,3,Pin_3*%
%TO.N,/PB0*%
X209342000Y-66219649D03*
%TO.P,J11,4,Pin_4*%
%TO.N,/PB3*%
X214382000Y-66219649D03*
%TO.P,J11,5,Pin_5*%
%TO.N,/PB2*%
X209342000Y-63679649D03*
%TO.P,J11,6,Pin_6*%
%TO.N,/PB5*%
X214382000Y-63679649D03*
%TO.P,J11,7,Pin_7*%
%TO.N,/PB4*%
X209342000Y-61139649D03*
%TO.P,J11,8,Pin_8*%
%TO.N,/PB7*%
X214382000Y-61139649D03*
%TO.P,J11,9,Pin_9*%
%TO.N,/PB6*%
X209342000Y-58599649D03*
%TO.P,J11,10,Pin_10*%
%TO.N,GND*%
X214382000Y-58599649D03*
%TD*%
D48*
%TO.P,Y2,1,1*%
%TO.N,Net-(U1-PR1)*%
X181141002Y-74719000D03*
%TO.P,Y2,2,2*%
%TO.N,GND*%
X181141000Y-76918998D03*
%TO.P,Y2,3,3*%
%TO.N,Net-(U1-PR0)*%
X182840998Y-76919000D03*
%TO.P,Y2,4,4*%
%TO.N,GND*%
X182841000Y-74719002D03*
%TD*%
D49*
%TO.N,GND*%
X169164000Y-111125000D03*
X171196000Y-111125000D03*
X212217000Y-108099649D03*
X169164000Y-113538000D03*
X171196000Y-115951000D03*
X171196000Y-110109000D03*
X212217000Y-91599649D03*
X212217000Y-58599649D03*
X171029000Y-93599000D03*
X194056000Y-80899000D03*
X192278000Y-88018502D03*
X197739000Y-131572000D03*
X169164000Y-116967000D03*
X197739000Y-132588000D03*
X199517000Y-80899000D03*
X199517000Y-75819000D03*
X196723000Y-132588000D03*
X199517000Y-78359000D03*
D50*
X195072000Y-109982000D03*
D49*
X185801000Y-80264000D03*
X194056000Y-75819000D03*
X170180000Y-111125000D03*
X212217000Y-42253654D03*
X177673000Y-75438000D03*
X179324000Y-101219000D03*
X186309000Y-135001000D03*
X169164000Y-114808001D03*
X199517000Y-77089000D03*
X182050000Y-66861000D03*
X179909400Y-75819000D03*
D50*
X199390000Y-87884000D03*
D49*
X178308000Y-77633803D03*
X212217000Y-110639649D03*
X212217000Y-124599648D03*
X171196000Y-116967000D03*
X169164000Y-110109000D03*
D50*
X193548000Y-87884000D03*
D49*
X169164000Y-112268000D03*
X170180000Y-116967000D03*
X199517000Y-79629000D03*
X170180000Y-110109000D03*
X193929000Y-98991000D03*
X169164000Y-115951000D03*
X212217000Y-75099649D03*
X196723000Y-131572000D03*
X170180000Y-115951000D03*
X194056000Y-79629000D03*
X184277000Y-73406000D03*
X194056000Y-78359000D03*
X194056000Y-77089000D03*
D50*
X183642000Y-109093000D03*
D49*
X191262000Y-97536000D03*
X198755000Y-132588000D03*
X198755000Y-131572000D03*
D50*
%TO.N,/~{RESET}*%
X182050000Y-68766000D03*
%TO.N,/PB6*%
X199263000Y-58166000D03*
X172212000Y-93712002D03*
X208788000Y-59817000D03*
%TO.N,/PB7*%
X215011000Y-59817000D03*
X175006000Y-94524802D03*
%TO.N,/PB5*%
X215011000Y-62357000D03*
X171831000Y-92924602D03*
%TO.N,/PB4*%
X208788000Y-62357000D03*
X172212000Y-92111802D03*
X199263000Y-62357000D03*
D49*
%TO.N,+3V3_EXT*%
X169545000Y-98552000D03*
X188468000Y-125349000D03*
D50*
%TO.N,/PDI_DATA*%
X178054000Y-85090000D03*
%TO.N,Net-(J4-Pin_2)*%
X195072000Y-118618000D03*
D49*
%TO.N,+3V3_IO*%
X206696003Y-119888000D03*
X198628000Y-119126000D03*
D50*
%TO.N,/PA0*%
X176794800Y-84582000D03*
X208788000Y-51181000D03*
%TO.N,/PA4*%
X208788000Y-46101000D03*
X172212000Y-85711002D03*
%TO.N,/PA1*%
X175982000Y-84963000D03*
X215011000Y-51181000D03*
%TO.N,/PA7*%
X215011000Y-43561000D03*
X171831000Y-88124002D03*
%TO.N,/PA6*%
X172212000Y-87311202D03*
X208788000Y-43561000D03*
%TO.N,/PA2*%
X175194600Y-84582000D03*
X208788000Y-48641000D03*
%TO.N,/PA3*%
X215011000Y-48641000D03*
X172085000Y-84328000D03*
%TO.N,/PA5*%
X171831000Y-86523802D03*
X215011000Y-46101000D03*
%TO.N,/PB2*%
X172212000Y-90511602D03*
X208788000Y-64897000D03*
%TO.N,/PB0*%
X208788000Y-67437000D03*
X172212000Y-88911402D03*
%TO.N,/PB3*%
X171831000Y-91324402D03*
X215011000Y-64897000D03*
%TO.N,/PB1*%
X215011000Y-67437000D03*
X171831000Y-89724202D03*
%TO.N,/PC5*%
X176657000Y-101600000D03*
X216916000Y-103251000D03*
X215011000Y-78867000D03*
X221615000Y-80708985D03*
%TO.N,/PC1*%
X215392000Y-106299000D03*
X221615000Y-83908997D03*
X215011000Y-83947000D03*
X173456600Y-101600000D03*
%TO.N,/PC0*%
X172656597Y-101219000D03*
X215900000Y-107061000D03*
X208788000Y-83947000D03*
X221615000Y-84709000D03*
%TO.N,/PC3*%
X221615000Y-82308991D03*
X215011000Y-81407000D03*
X175056800Y-101600000D03*
X214376000Y-105021000D03*
%TO.N,/PC7*%
X215011000Y-76327000D03*
X178244403Y-101600000D03*
X216027000Y-100457000D03*
X221615000Y-79108979D03*
%TO.N,/PC4*%
X175844200Y-101219000D03*
X213868000Y-104394000D03*
X208788000Y-78867000D03*
X221615000Y-81508988D03*
%TO.N,/PC2*%
X221615000Y-83108994D03*
X174244000Y-101219000D03*
X214884000Y-105664000D03*
X208788000Y-81407000D03*
%TO.N,/PC6*%
X208788000Y-76327000D03*
X221615000Y-79908982D03*
X216027000Y-102870000D03*
X177444400Y-101219000D03*
%TO.N,/PD1*%
X215011000Y-100457000D03*
X183642000Y-100330000D03*
%TO.N,/PD7*%
X215011000Y-92837000D03*
X200787000Y-88773000D03*
%TO.N,/PD3*%
X215011000Y-97917000D03*
X185242006Y-100330000D03*
%TO.N,/PD6*%
X208788000Y-92837000D03*
X198247000Y-89662000D03*
%TO.N,/PD4*%
X186042009Y-99949000D03*
X208788000Y-95377000D03*
%TO.N,/PD2*%
X184442003Y-99949000D03*
X208788000Y-97917000D03*
%TO.N,/PD5*%
X215011000Y-95377000D03*
X186842012Y-100330000D03*
%TO.N,/PD0*%
X182841997Y-99949000D03*
X208788000Y-100457000D03*
%TO.N,/PE0*%
X199471098Y-94497089D03*
X187325000Y-94107000D03*
X201930000Y-118237000D03*
X208788000Y-116967000D03*
%TO.N,/PE3*%
X215011000Y-114427000D03*
X201930000Y-115189000D03*
X190119000Y-92111802D03*
X199517001Y-92098498D03*
%TO.N,/PE1*%
X215011000Y-116967000D03*
X187221443Y-93091000D03*
X201930000Y-117221000D03*
X199518637Y-93698501D03*
%TO.N,/PE5*%
X201930000Y-113157000D03*
X215011000Y-111887000D03*
X190119000Y-90511602D03*
X199517000Y-90498493D03*
D49*
%TO.N,/VBAT*%
X188976000Y-80229000D03*
X191135000Y-79502000D03*
D50*
%TO.N,/PF3*%
X215011000Y-130937000D03*
X188087000Y-83298002D03*
%TO.N,/PF4*%
X186396000Y-84582000D03*
X208788000Y-128397000D03*
%TO.N,/PF1*%
X187579000Y-85711002D03*
X215011000Y-133477000D03*
%TO.N,/PF7*%
X184785000Y-86017003D03*
X215011000Y-125857000D03*
%TO.N,/PF2*%
X208788000Y-130937000D03*
X188809000Y-84074000D03*
%TO.N,/PF6*%
X208788000Y-125857000D03*
X185547000Y-85217000D03*
%TO.N,/PF0*%
X187071000Y-86523802D03*
X208788000Y-133477000D03*
%TO.N,Net-(JP1-C)*%
X189230000Y-97790000D03*
X196342000Y-96012000D03*
%TO.N,Net-(JP2-C)*%
X192659000Y-98891000D03*
X189442000Y-98891000D03*
%TO.N,/PE2*%
X199516945Y-92898500D03*
X208788000Y-114427000D03*
X190754000Y-92924602D03*
X201930000Y-116205000D03*
%TO.N,/PE4*%
X190754000Y-91324402D03*
X201930000Y-114173000D03*
X199517000Y-91298496D03*
X208788000Y-111887000D03*
%TD*%
D51*
%TO.N,+3V3_MCU*%
X169799000Y-92837000D02*
X169799000Y-95729302D01*
X181595400Y-98538002D02*
X181595400Y-100333899D01*
X182480501Y-101001802D02*
X182480501Y-101056501D01*
X191095000Y-85943502D02*
X191095000Y-80986000D01*
X171010998Y-80504001D02*
X171010998Y-76004002D01*
X189865000Y-102743000D02*
X189865000Y-101219000D01*
X187592996Y-105015004D02*
X189865000Y-102743000D01*
X184484801Y-79121000D02*
X182670000Y-80935801D01*
X191095000Y-80986000D02*
X189230000Y-79121000D01*
X189865000Y-101219000D02*
X189865000Y-99568000D01*
X181595400Y-100333899D02*
X182480501Y-101219000D01*
X171029000Y-101179000D02*
X172452002Y-102602002D01*
X186879202Y-95312202D02*
X186309000Y-94742000D01*
X185674002Y-105015004D02*
X187592996Y-105015004D01*
X171029000Y-96959302D02*
X171029000Y-101179000D01*
X187516798Y-87311202D02*
X188809000Y-87311202D01*
X172452002Y-102602002D02*
X181097499Y-102602002D01*
X189865000Y-99568000D02*
X190627000Y-98806000D01*
X186309000Y-88519000D02*
X187516798Y-87311202D01*
X171010998Y-80504001D02*
X171010998Y-91625002D01*
X186309000Y-94742000D02*
X186309000Y-88519000D01*
X171010998Y-76004002D02*
X173204500Y-73810500D01*
X190413099Y-95312202D02*
X191348999Y-94376302D01*
X188809000Y-87311202D02*
X189727300Y-87311202D01*
X171863300Y-96125002D02*
X171029000Y-96959302D01*
X181097499Y-102602002D02*
X182480501Y-101219000D01*
X171010998Y-91625002D02*
X169799000Y-92837000D01*
X190627000Y-98806000D02*
X191643000Y-98806000D01*
X173204500Y-73810500D02*
X175641000Y-73810500D01*
X173569000Y-96125002D02*
X171863300Y-96125002D01*
X188809000Y-95312202D02*
X190413099Y-95312202D01*
X191643000Y-98806000D02*
X192786000Y-97663000D01*
X183983000Y-82248801D02*
X182670000Y-80935801D01*
X188809000Y-95312202D02*
X186879202Y-95312202D01*
X192786000Y-97663000D02*
X192786000Y-94869000D01*
X189230000Y-101219000D02*
X182480501Y-101219000D01*
X183983000Y-83298002D02*
X183983000Y-82248801D01*
X192293302Y-94376302D02*
X191348999Y-94376302D01*
X169799000Y-95729302D02*
X171029000Y-96959302D01*
X189230000Y-79121000D02*
X184484801Y-79121000D01*
X192786000Y-94869000D02*
X192293302Y-94376302D01*
X189727300Y-87311202D02*
X191095000Y-85943502D01*
%TO.N,GND*%
X190304302Y-96451302D02*
X191348999Y-96451302D01*
X214382000Y-58599649D02*
X212217000Y-58599649D01*
X187651500Y-134124002D02*
X186677998Y-134124002D01*
X186677998Y-134124002D02*
X186309000Y-134493000D01*
X188809000Y-96125002D02*
X189978002Y-96125002D01*
X173569001Y-95312202D02*
X172476801Y-95312202D01*
X192990002Y-99998998D02*
X192990002Y-101219000D01*
X193040000Y-99949000D02*
X192990002Y-99998998D01*
X182050000Y-66861000D02*
X182050000Y-65500000D01*
X180782600Y-99604802D02*
X180782601Y-98538002D01*
X182522500Y-109093000D02*
X183642000Y-109093000D01*
X186702001Y-135902001D02*
X186309000Y-135509000D01*
X172950000Y-65500000D02*
X182050000Y-65500000D01*
D52*
X177163500Y-80444803D02*
X177273500Y-80554802D01*
D51*
X214376000Y-108093649D02*
X214382000Y-108099649D01*
X172041101Y-94884302D02*
X171028999Y-94884302D01*
X188809000Y-88124002D02*
X190989500Y-88124002D01*
X214382000Y-75099649D02*
X212217000Y-75099649D01*
X177673000Y-74189500D02*
X177673000Y-75438000D01*
X191262000Y-97536000D02*
X191262000Y-96538301D01*
X180782600Y-98538002D02*
X180782601Y-98538002D01*
X192278000Y-88018502D02*
X191095000Y-88018502D01*
X178308000Y-77633803D02*
X177163501Y-77633803D01*
X190989500Y-88124002D02*
X191095000Y-88018502D01*
X178395000Y-81676303D02*
X177273500Y-80554803D01*
X178395000Y-83298002D02*
X178395000Y-81676303D01*
X177273500Y-77743802D02*
X177163501Y-77633803D01*
X177273500Y-80554803D02*
X177273500Y-77743802D01*
X180405500Y-99981902D02*
X180782600Y-99604802D01*
X193929000Y-98991000D02*
X193813083Y-98991000D01*
X186309000Y-135509000D02*
X186309000Y-135001000D01*
X214382000Y-110639649D02*
X212217000Y-110639649D01*
D52*
X172044999Y-94880402D02*
X172041101Y-94884302D01*
D51*
X214382000Y-91599649D02*
X212217000Y-91599649D01*
X184795800Y-80986601D02*
X184745000Y-80935801D01*
X214382000Y-108099649D02*
X212217000Y-108099649D01*
X187701500Y-135902001D02*
X186702001Y-135902001D01*
X171029000Y-93599000D02*
X171029000Y-94884302D01*
X180405501Y-101219000D02*
X179324000Y-101219000D01*
X186309000Y-134493000D02*
X186309000Y-135001000D01*
X193040000Y-99764083D02*
X193040000Y-99949000D01*
X214382000Y-42253654D02*
X212217000Y-42253654D01*
X195072000Y-109982000D02*
X195072000Y-111369999D01*
X185129199Y-80935801D02*
X184745000Y-80935801D01*
X191262000Y-96538301D02*
X191348999Y-96451302D01*
X189978002Y-96125002D02*
X190304302Y-96451302D01*
X184795800Y-83298002D02*
X184795800Y-80986601D01*
X185801000Y-80264000D02*
X185129199Y-80935801D01*
X193813083Y-98991000D02*
X193040000Y-99764083D01*
X172476801Y-95312202D02*
X172044999Y-94880402D01*
X214382001Y-124599648D02*
X212217000Y-124599648D01*
X180405501Y-101001802D02*
X180405500Y-99981902D01*
D52*
%TO.N,/~{RESET}*%
X187706000Y-78359000D02*
X188976000Y-77089000D01*
X188976000Y-60833000D02*
X189864998Y-59944002D01*
X180782600Y-83298002D02*
X180782600Y-80837400D01*
D51*
X175641000Y-71985500D02*
X173839500Y-71985500D01*
X173839500Y-71985500D02*
X172950000Y-71096000D01*
X182050000Y-68766000D02*
X182050000Y-70000000D01*
D52*
X188976000Y-77089000D02*
X188976000Y-60833000D01*
D51*
X180698000Y-70000000D02*
X178712500Y-71985500D01*
D52*
X180782600Y-80837400D02*
X183261000Y-78359000D01*
X189864998Y-59944002D02*
X191764002Y-59944002D01*
D51*
X172950000Y-71096000D02*
X172950000Y-70000000D01*
X178712500Y-71985500D02*
X175641000Y-71985500D01*
D52*
X183261000Y-78359000D02*
X187706000Y-78359000D01*
D51*
X182050000Y-70000000D02*
X180698000Y-70000000D01*
D52*
%TO.N,Net-(U1-TOSC1)*%
X195540001Y-88632001D02*
X194905000Y-89267002D01*
X194905000Y-89267002D02*
X194524000Y-89267002D01*
X192364000Y-89267002D02*
X192238000Y-89267002D01*
X195540001Y-83625003D02*
X195540001Y-88632001D01*
X192688000Y-88745052D02*
X192688000Y-89051002D01*
X192472000Y-89267002D02*
X192364000Y-89267002D01*
X193552000Y-89267002D02*
X193444000Y-89267002D01*
X193768000Y-88745052D02*
X193768000Y-89051002D01*
X189850400Y-88911402D02*
X188809000Y-88911402D01*
X193228000Y-89051002D02*
X193228000Y-88745052D01*
X190206000Y-89267002D02*
X189850400Y-88911402D01*
X194092000Y-88529052D02*
X193984000Y-88529052D01*
X192238000Y-89267002D02*
X190206000Y-89267002D01*
X193012000Y-88529052D02*
X192904000Y-88529052D01*
X194308000Y-89051002D02*
X194308000Y-88745052D01*
X194524000Y-89267002D02*
G75*
G02*
X194307998Y-89051002I0J216002D01*
G01*
X192904000Y-88529052D02*
G75*
G03*
X192687952Y-88745052I0J-216048D01*
G01*
X193228000Y-88745052D02*
G75*
G03*
X193012000Y-88529100I-216000J-48D01*
G01*
X194308000Y-88745052D02*
G75*
G03*
X194092000Y-88529100I-216000J-48D01*
G01*
X193444000Y-89267002D02*
G75*
G02*
X193227998Y-89051002I0J216002D01*
G01*
X192688000Y-89051002D02*
G75*
G02*
X192472000Y-89267000I-216000J2D01*
G01*
X193768000Y-89051002D02*
G75*
G02*
X193552000Y-89267000I-216000J2D01*
G01*
X193984000Y-88529052D02*
G75*
G03*
X193767952Y-88745052I0J-216048D01*
G01*
%TO.N,Net-(U1-TOSC2)*%
X198079999Y-87997003D02*
X196352800Y-89724202D01*
X196352800Y-89724202D02*
X188809000Y-89724202D01*
X198079999Y-83625002D02*
X198079999Y-87997003D01*
%TO.N,Net-(U1-PR0)*%
X182840998Y-77636002D02*
X182840998Y-76919000D01*
X182857498Y-76935500D02*
X182840998Y-76919000D01*
X179995200Y-83298002D02*
X179995200Y-80481800D01*
X179995200Y-80481800D02*
X182840998Y-77636002D01*
X184531000Y-76935500D02*
X182857498Y-76935500D01*
%TO.N,Net-(U1-PR1)*%
X179916000Y-74719000D02*
X181141002Y-74719000D01*
X181141002Y-74719000D02*
X181141002Y-72937002D01*
X181141002Y-72937002D02*
X181102000Y-72898000D01*
X179182400Y-75452600D02*
X179916000Y-74719000D01*
X179182400Y-83298002D02*
X179182400Y-75452600D01*
D51*
%TO.N,Net-(J4-Pin_3)*%
X185166000Y-108966000D02*
X183261000Y-107061000D01*
X183261000Y-107061000D02*
X180340000Y-107061000D01*
X185166000Y-117983000D02*
X185166000Y-108966000D01*
X191516000Y-122301000D02*
X189484000Y-122301000D01*
X189484000Y-122301000D02*
X185166000Y-117983000D01*
%TO.N,Net-(J6-Pin_1)*%
X188595000Y-107315000D02*
X185674000Y-107315000D01*
D52*
%TO.N,Net-(D1-A)*%
X195072000Y-115585999D02*
X195072000Y-113420001D01*
D51*
%TO.N,+5V_USB*%
X193167000Y-132588000D02*
X188976000Y-132588000D01*
X185928000Y-129540000D02*
X185928000Y-122301000D01*
X188976000Y-132588000D02*
X185928000Y-129540000D01*
D53*
%TO.N,/D+*%
X200406000Y-118426802D02*
X200406000Y-126175198D01*
X195707000Y-99949000D02*
X195707000Y-100646802D01*
X195233501Y-131347697D02*
X195233501Y-132876501D01*
X195326000Y-132969000D02*
X195326000Y-134112002D01*
X197300000Y-110866198D02*
X197300000Y-115320802D01*
X198599000Y-103538802D02*
X198599000Y-109567198D01*
X197739001Y-97312001D02*
X197739001Y-97916999D01*
X195233501Y-132876501D02*
X195326000Y-132969000D01*
X197300000Y-115320802D02*
X200406000Y-118426802D01*
X200406000Y-126175198D02*
X195233501Y-131347697D01*
X198599000Y-109567198D02*
X197300000Y-110866198D01*
X195707000Y-100646802D02*
X198599000Y-103538802D01*
X197739001Y-97916999D02*
X195707000Y-99949000D01*
%TO.N,/D-*%
X194783499Y-131161303D02*
X194783499Y-132846501D01*
X194783499Y-132846501D02*
X194676000Y-132954000D01*
X196850000Y-115507198D02*
X199956000Y-118613198D01*
X199956000Y-118613198D02*
X199956000Y-125988802D01*
X194944999Y-100521197D02*
X198149000Y-103725198D01*
X194676000Y-132954000D02*
X194676000Y-134112002D01*
X196850000Y-110679802D02*
X196850000Y-115507198D01*
X199956000Y-125988802D02*
X194783499Y-131161303D01*
X198149000Y-109380802D02*
X196850000Y-110679802D01*
X198149000Y-103725198D02*
X198149000Y-109380802D01*
X194944999Y-97312000D02*
X194944999Y-100521197D01*
D52*
%TO.N,/PB6*%
X194304000Y-54864000D02*
X197104000Y-54864000D01*
X199263000Y-57023000D02*
X199263000Y-58166000D01*
X173569000Y-93712002D02*
X172212000Y-93712002D01*
X209342000Y-58599649D02*
X209342000Y-59263000D01*
X197104000Y-54864000D02*
X199263000Y-57023000D01*
X209342000Y-59263000D02*
X208788000Y-59817000D01*
%TO.N,/PB7*%
X214382000Y-61139649D02*
X214382000Y-60446000D01*
X214382000Y-60446000D02*
X215011000Y-59817000D01*
X175006000Y-94524802D02*
X173569000Y-94524802D01*
%TO.N,/PB5*%
X214382000Y-63679649D02*
X214382000Y-62986000D01*
X214382000Y-62986000D02*
X215011000Y-62357000D01*
X173569000Y-92924602D02*
X171831000Y-92924602D01*
%TO.N,/PB4*%
X209342000Y-61139649D02*
X209342000Y-61803000D01*
X209342000Y-61803000D02*
X208788000Y-62357000D01*
X199263000Y-62357000D02*
X199263000Y-61468000D01*
X197739001Y-59944001D02*
X194304000Y-59944001D01*
X173569000Y-92111802D02*
X172212000Y-92111802D01*
X199263000Y-61468000D02*
X197739001Y-59944001D01*
D51*
%TO.N,+3V3_EXT*%
X168656000Y-91567000D02*
X169545000Y-90678000D01*
X188468000Y-125349000D02*
X194818000Y-125349000D01*
X184251497Y-67818000D02*
X185902497Y-66167000D01*
X184404000Y-59233006D02*
X184404000Y-54102000D01*
X185902497Y-66167000D02*
X185902497Y-60731503D01*
X182372000Y-52070000D02*
X179832000Y-52070000D01*
X196088000Y-124079000D02*
X196088000Y-122301000D01*
X189294707Y-57339293D02*
X191764000Y-57339293D01*
X168656000Y-97663000D02*
X168656000Y-91567000D01*
X194818000Y-125349000D02*
X196088000Y-124079000D01*
X185902497Y-60731503D02*
X184404000Y-59233006D01*
X184404000Y-54102000D02*
X182372000Y-52070000D01*
X185902497Y-60731503D02*
X189294707Y-57339293D01*
X169545000Y-90678000D02*
X169545000Y-69850000D01*
X169545000Y-69850000D02*
X171577000Y-67818000D01*
X169545000Y-98552000D02*
X168656000Y-97663000D01*
X171577000Y-67818000D02*
X184251497Y-67818000D01*
D52*
%TO.N,/PDI_DATA*%
X180975000Y-85090000D02*
X181595400Y-84469600D01*
X181595400Y-84469600D02*
X181595400Y-83298002D01*
X178054000Y-85090000D02*
X180975000Y-85090000D01*
D51*
%TO.N,Net-(J4-Pin_2)*%
X193548000Y-122301000D02*
X193548000Y-121158000D01*
X193548000Y-121158000D02*
X189987000Y-117597000D01*
X189987000Y-117597000D02*
X188595000Y-117597000D01*
X195072000Y-117586001D02*
X195072000Y-118618000D01*
%TO.N,+3V3_IO*%
X205481000Y-101727000D02*
X205481000Y-85217000D01*
X205523649Y-85259649D02*
X205481000Y-85217000D01*
X205533649Y-68759649D02*
X205481000Y-68707000D01*
X209342001Y-134934005D02*
X207324005Y-134934005D01*
X209342000Y-68759649D02*
X205533649Y-68759649D01*
X206696003Y-116272005D02*
X205481000Y-115057002D01*
X205481000Y-108077000D02*
X205481000Y-101727000D01*
X207391000Y-52413654D02*
X209342000Y-52413654D01*
X207324005Y-134934005D02*
X206696003Y-134306003D01*
X189987000Y-115057000D02*
X188595000Y-115057000D01*
X205481000Y-85217000D02*
X205481000Y-68707000D01*
X206696003Y-134306003D02*
X206696003Y-121158000D01*
X209342000Y-85259649D02*
X205523649Y-85259649D01*
X205503649Y-108099649D02*
X205481000Y-108077000D01*
X198628000Y-119126000D02*
X198120000Y-119634000D01*
X198120000Y-119634000D02*
X194564000Y-119634000D01*
X205513649Y-101759649D02*
X205481000Y-101727000D01*
X209342000Y-118259649D02*
X206718652Y-118259649D01*
X206696003Y-121158000D02*
X206696003Y-118237000D01*
X205481000Y-68707000D02*
X205481000Y-54323654D01*
X205481000Y-54323654D02*
X207391000Y-52413654D01*
X188595000Y-115057000D02*
X188595000Y-109855000D01*
X206718652Y-118259649D02*
X206696003Y-118237000D01*
X209342000Y-101759649D02*
X205513649Y-101759649D01*
X206696003Y-118237000D02*
X206696003Y-116272005D01*
X209342000Y-108099649D02*
X205503649Y-108099649D01*
X194564000Y-119634000D02*
X189987000Y-115057000D01*
X205481000Y-115057002D02*
X205481000Y-108077000D01*
%TO.N,Net-(J8-Pin_2)*%
X183388000Y-112268000D02*
X182880000Y-111760000D01*
X182880000Y-111760000D02*
X182127401Y-111760000D01*
X183388000Y-122301000D02*
X183388000Y-112268000D01*
%TO.N,Net-(J8-Pin_3)*%
X173990000Y-130500000D02*
X178618000Y-130500000D01*
X178618000Y-130500000D02*
X180848000Y-128270000D01*
X180848000Y-128270000D02*
X180848000Y-122301000D01*
D52*
%TO.N,/PA0*%
X176794800Y-83298002D02*
X176794800Y-84582000D01*
X209342000Y-50627000D02*
X209342000Y-49873654D01*
X208788000Y-51181000D02*
X209342000Y-50627000D01*
%TO.N,/PA4*%
X209342000Y-45547000D02*
X209342000Y-44793654D01*
X173569000Y-85711002D02*
X172212000Y-85711002D01*
X208788000Y-46101000D02*
X209342000Y-45547000D01*
%TO.N,/PA1*%
X214382000Y-51810000D02*
X214382000Y-52413654D01*
X175982000Y-83298002D02*
X175982000Y-84963000D01*
X215011000Y-51181000D02*
X214382000Y-51810000D01*
%TO.N,/PA7*%
X173569000Y-88124002D02*
X171831000Y-88124002D01*
X215011000Y-43561000D02*
X214382000Y-44190000D01*
X214382000Y-44190000D02*
X214382000Y-44793654D01*
%TO.N,/PA6*%
X173569000Y-87311202D02*
X172212000Y-87311202D01*
X209342000Y-43007000D02*
X209342000Y-42253654D01*
X208788000Y-43561000D02*
X209342000Y-43007000D01*
%TO.N,/PA2*%
X209342000Y-48087000D02*
X209342000Y-47333654D01*
X208788000Y-48641000D02*
X209342000Y-48087000D01*
X175194600Y-83298002D02*
X175194600Y-84582000D01*
%TO.N,/PA3*%
X172085000Y-84328000D02*
X172680602Y-84923602D01*
X172680602Y-84923602D02*
X173569000Y-84923602D01*
X214382000Y-49270000D02*
X214382000Y-49873654D01*
X215011000Y-48641000D02*
X214382000Y-49270000D01*
%TO.N,/PA5*%
X173569000Y-86523802D02*
X171831000Y-86523802D01*
X215011000Y-46101000D02*
X214382000Y-46730000D01*
X214382000Y-46730000D02*
X214382000Y-47333654D01*
%TO.N,/PB2*%
X209342000Y-64343000D02*
X208788000Y-64897000D01*
X173569000Y-90511602D02*
X172212000Y-90511602D01*
X209342000Y-63679649D02*
X209342000Y-64343000D01*
%TO.N,/PB0*%
X209342000Y-66883000D02*
X208788000Y-67437000D01*
X209342000Y-66219649D02*
X209342000Y-66883000D01*
X173569000Y-88911402D02*
X172212000Y-88911402D01*
%TO.N,/PB3*%
X173569000Y-91324402D02*
X171831000Y-91324402D01*
X214382000Y-66219649D02*
X214382000Y-65526000D01*
X214382000Y-65526000D02*
X215011000Y-64897000D01*
%TO.N,/PB1*%
X214382000Y-68066000D02*
X215011000Y-67437000D01*
X214382000Y-68759649D02*
X214382000Y-68066000D01*
X173569000Y-89724202D02*
X171831000Y-89724202D01*
%TO.N,/PC5*%
X214382000Y-80179649D02*
X214382000Y-79496000D01*
X216916000Y-103251000D02*
X218313000Y-101854000D01*
X214382000Y-79496000D02*
X215011000Y-78867000D01*
X178395000Y-98538002D02*
X178395000Y-99380273D01*
X217932000Y-82931000D02*
X220154015Y-80708985D01*
X220154015Y-80708985D02*
X221615000Y-80708985D01*
X178395000Y-99380273D02*
X176657000Y-101118273D01*
X217932000Y-86360000D02*
X217932000Y-82931000D01*
X176657000Y-101118273D02*
X176657000Y-101600000D01*
X218313000Y-86741000D02*
X217932000Y-86360000D01*
X218313000Y-101854000D02*
X218313000Y-86741000D01*
%TO.N,/PC1*%
X174498000Y-100203000D02*
X174117000Y-100203000D01*
X220853000Y-84201000D02*
X221145003Y-83908997D01*
X221361000Y-85725000D02*
X220853000Y-85217000D01*
X174117000Y-100203000D02*
X173456600Y-100863400D01*
X175194600Y-99506400D02*
X174498000Y-100203000D01*
X221145003Y-83908997D02*
X221615000Y-83908997D01*
X221361000Y-102616000D02*
X221361000Y-85725000D01*
X175194600Y-98538002D02*
X175194600Y-99506400D01*
X220853000Y-85217000D02*
X220853000Y-84201000D01*
X214382000Y-85259649D02*
X214382000Y-84576000D01*
X215392000Y-106299000D02*
X217678000Y-106299000D01*
X214382000Y-84576000D02*
X215011000Y-83947000D01*
X217678000Y-106299000D02*
X221361000Y-102616000D01*
X173456600Y-100863400D02*
X173456600Y-101600000D01*
%TO.N,/PC0*%
X173569000Y-96912402D02*
X173569000Y-97957000D01*
X217805000Y-107061000D02*
X222123000Y-102743000D01*
X209342000Y-83393000D02*
X208788000Y-83947000D01*
X172656597Y-98869403D02*
X172656597Y-101219000D01*
X215900000Y-107061000D02*
X217805000Y-107061000D01*
X222123000Y-102743000D02*
X222123000Y-85217000D01*
X222123000Y-85217000D02*
X221615000Y-84709000D01*
X209342000Y-82719649D02*
X209342000Y-83393000D01*
X173569000Y-97957000D02*
X172656597Y-98869403D01*
%TO.N,/PC3*%
X219837000Y-102362000D02*
X219837000Y-86233000D01*
X176794800Y-98538002D02*
X176794800Y-99380273D01*
X214382000Y-82036000D02*
X215011000Y-81407000D01*
X219456000Y-85852000D02*
X219456000Y-83439000D01*
X220586009Y-82308991D02*
X221615000Y-82308991D01*
X219837000Y-86233000D02*
X219456000Y-85852000D01*
X175056800Y-101118273D02*
X175056800Y-101600000D01*
X214382000Y-82719649D02*
X214382000Y-82036000D01*
X219456000Y-83439000D02*
X220586009Y-82308991D01*
X217178000Y-105021000D02*
X219837000Y-102362000D01*
X176794800Y-99380273D02*
X175056800Y-101118273D01*
X214376000Y-105021000D02*
X217178000Y-105021000D01*
%TO.N,/PC7*%
X216408000Y-82414533D02*
X216408000Y-86868000D01*
X214382000Y-77639649D02*
X214382000Y-76956000D01*
X219713554Y-79108979D02*
X216408000Y-82414533D01*
X216789000Y-99695000D02*
X216027000Y-100457000D01*
X214382000Y-76956000D02*
X215011000Y-76327000D01*
X178244403Y-101269049D02*
X178244403Y-101600000D01*
X179995200Y-99518252D02*
X178244403Y-101269049D01*
X216789000Y-87249000D02*
X216789000Y-99695000D01*
X216408000Y-86868000D02*
X216789000Y-87249000D01*
X179995200Y-98538002D02*
X179995200Y-99518252D01*
X221615000Y-79108979D02*
X219713554Y-79108979D01*
%TO.N,/PC4*%
X209342000Y-78313000D02*
X208788000Y-78867000D01*
X213868000Y-104394000D02*
X216789000Y-104394000D01*
X218694000Y-83185000D02*
X220370012Y-81508988D01*
X209342000Y-77639649D02*
X209342000Y-78313000D01*
X220370012Y-81508988D02*
X221615000Y-81508988D01*
X177582200Y-99481000D02*
X175844200Y-101219000D01*
X218694000Y-86042500D02*
X218694000Y-83185000D01*
X219075000Y-86423500D02*
X218694000Y-86042500D01*
X177582200Y-98538002D02*
X177582200Y-99481000D01*
X219075000Y-102108000D02*
X219075000Y-86423500D01*
X216789000Y-104394000D02*
X219075000Y-102108000D01*
%TO.N,/PC2*%
X175982000Y-98538002D02*
X175982000Y-99481000D01*
X221615000Y-83108994D02*
X220802006Y-83108994D01*
X209342000Y-80179649D02*
X209342000Y-80853000D01*
X209342000Y-80853000D02*
X208788000Y-81407000D01*
X220599000Y-102489000D02*
X217424000Y-105664000D01*
X220292000Y-85672000D02*
X220599000Y-85979000D01*
X217424000Y-105664000D02*
X214884000Y-105664000D01*
X220292000Y-85663533D02*
X220292000Y-85672000D01*
X175982000Y-99481000D02*
X174244000Y-101219000D01*
X220599000Y-85979000D02*
X220599000Y-102489000D01*
X220091000Y-83820000D02*
X220091000Y-85462532D01*
X220091000Y-85462532D02*
X220292000Y-85663532D01*
X220802006Y-83108994D02*
X220091000Y-83820000D01*
X220292000Y-85663532D02*
X220292000Y-85663533D01*
%TO.N,/PC6*%
X217551000Y-101346000D02*
X217551000Y-86995000D01*
X217551000Y-86995000D02*
X217170000Y-86614000D01*
X209342000Y-75773000D02*
X208788000Y-76327000D01*
X219938018Y-79908982D02*
X221615000Y-79908982D01*
X179182400Y-98538002D02*
X179182400Y-99481000D01*
X179182400Y-99481000D02*
X177444400Y-101219000D01*
X209342000Y-75099649D02*
X209342000Y-75773000D01*
X217170000Y-86614000D02*
X217170000Y-82677000D01*
X217170000Y-82677000D02*
X219938018Y-79908982D01*
X216027000Y-102870000D02*
X217551000Y-101346000D01*
%TO.N,/PD1*%
X214382000Y-101086000D02*
X215011000Y-100457000D01*
X183195600Y-98538002D02*
X183195600Y-99414476D01*
X214382000Y-101759649D02*
X214382000Y-101086000D01*
X183642000Y-99860876D02*
X183642000Y-100330000D01*
X183195600Y-99414476D02*
X183642000Y-99860876D01*
%TO.N,/PD7*%
X200787000Y-88773000D02*
X200152000Y-88773000D01*
X214382000Y-93466000D02*
X215011000Y-92837000D01*
X214382000Y-94139649D02*
X214382000Y-93466000D01*
X197738999Y-91186001D02*
X197738999Y-94711999D01*
X200152000Y-88773000D02*
X197738999Y-91186001D01*
%TO.N,/PD3*%
X214382000Y-99219649D02*
X214382000Y-98546000D01*
X184795800Y-98538002D02*
X184795800Y-99414670D01*
X185242006Y-99860876D02*
X185242006Y-100330000D01*
X214382000Y-98546000D02*
X215011000Y-97917000D01*
X184795800Y-99414670D02*
X185242006Y-99860876D01*
%TO.N,/PD6*%
X194945001Y-92963999D02*
X194945001Y-94712000D01*
X198247000Y-89662000D02*
X194945001Y-92963999D01*
X209342000Y-92283000D02*
X208788000Y-92837000D01*
X209342000Y-91599649D02*
X209342000Y-92283000D01*
%TO.N,/PD4*%
X209342000Y-94139649D02*
X209342000Y-94823000D01*
X209342000Y-94823000D02*
X208788000Y-95377000D01*
X185583200Y-98538002D02*
X185583200Y-99490191D01*
X185583200Y-99490191D02*
X186042009Y-99949000D01*
%TO.N,/PD2*%
X209342000Y-96679649D02*
X209342000Y-97363000D01*
X183983000Y-99489997D02*
X184442003Y-99949000D01*
X209342000Y-97363000D02*
X208788000Y-97917000D01*
X183983000Y-98538002D02*
X183983000Y-99489997D01*
%TO.N,/PD5*%
X186396000Y-99414864D02*
X186842012Y-99860876D01*
X214382000Y-96006000D02*
X215011000Y-95377000D01*
X214382000Y-96679649D02*
X214382000Y-96006000D01*
X186842012Y-99860876D02*
X186842012Y-100330000D01*
X186396000Y-98538002D02*
X186396000Y-99414864D01*
%TO.N,/PD0*%
X182382800Y-99489803D02*
X182841997Y-99949000D01*
X182382800Y-98538002D02*
X182382800Y-99489803D01*
X209342000Y-99219649D02*
X209342000Y-99903000D01*
X209342000Y-99903000D02*
X208788000Y-100457000D01*
%TO.N,/PE0*%
X198120000Y-111887000D02*
X198120000Y-114427000D01*
X199471098Y-94497089D02*
X199485466Y-94497089D01*
X209342000Y-115719649D02*
X209342000Y-116413000D01*
X199517000Y-94528623D02*
X199517000Y-110490000D01*
X187742802Y-94524802D02*
X188809000Y-94524802D01*
X209342000Y-116413000D02*
X208788000Y-116967000D01*
X199517000Y-110490000D02*
X198120000Y-111887000D01*
X187325000Y-94107000D02*
X187742802Y-94524802D01*
X199485466Y-94497089D02*
X199517000Y-94528623D01*
X198120000Y-114427000D02*
X201930000Y-118237000D01*
%TO.N,/PE3*%
X214382000Y-115719649D02*
X214382000Y-115056000D01*
X214382000Y-115056000D02*
X215011000Y-114427000D01*
X201803000Y-93345000D02*
X201803000Y-111252000D01*
X200406000Y-113665000D02*
X201930000Y-115189000D01*
X199517001Y-92098498D02*
X199542908Y-92124405D01*
X201803000Y-111252000D02*
X200406000Y-112649000D01*
X199542908Y-92124405D02*
X200582405Y-92124405D01*
X200582405Y-92124405D02*
X201803000Y-93345000D01*
X200406000Y-112649000D02*
X200406000Y-113665000D01*
X188809000Y-92111802D02*
X190119000Y-92111802D01*
%TO.N,/PE1*%
X187842445Y-93712002D02*
X188809000Y-93712002D01*
X187221443Y-93091000D02*
X187842445Y-93712002D01*
X198882000Y-114173000D02*
X201930000Y-117221000D01*
X200279000Y-110744000D02*
X198882000Y-112141000D01*
X214382000Y-118259649D02*
X214382000Y-117596000D01*
X214382000Y-117596000D02*
X215011000Y-116967000D01*
X199518637Y-93698501D02*
X199997501Y-93698501D01*
X198882000Y-112141000D02*
X198882000Y-114173000D01*
X200279000Y-93980000D02*
X200279000Y-110744000D01*
X199997501Y-93698501D02*
X200279000Y-93980000D01*
%TO.N,/PE5*%
X203327000Y-111760000D02*
X201930000Y-113157000D01*
X199517000Y-90498493D02*
X199530109Y-90511602D01*
X214382000Y-113179649D02*
X214382000Y-112516000D01*
X214382000Y-112516000D02*
X215011000Y-111887000D01*
X201255602Y-90511602D02*
X203327000Y-92583000D01*
X203327000Y-92583000D02*
X203327000Y-111760000D01*
X199530109Y-90511602D02*
X201255602Y-90511602D01*
X188809000Y-90511602D02*
X190119000Y-90511602D01*
D51*
%TO.N,/VBAT*%
X202184000Y-119761000D02*
X202184000Y-131445000D01*
X217000000Y-130640000D02*
X216214005Y-129854005D01*
X204216000Y-117729000D02*
X202184000Y-119761000D01*
X216214005Y-129854005D02*
X214382001Y-129854005D01*
X185583200Y-82224800D02*
X185583200Y-83298002D01*
X187579000Y-80229000D02*
X185583200Y-82224800D01*
X191135000Y-74168000D02*
X192913000Y-72390000D01*
X191135000Y-79502000D02*
X191135000Y-74168000D01*
X216000000Y-136500000D02*
X217000000Y-135500000D01*
X188976000Y-80229000D02*
X187579000Y-80229000D01*
X192913000Y-72390000D02*
X202438000Y-72390000D01*
X202184000Y-131445000D02*
X207239000Y-136500000D01*
X202438000Y-72390000D02*
X204216000Y-74168000D01*
X217000000Y-135500000D02*
X217000000Y-130640000D01*
X204216000Y-74168000D02*
X204216000Y-117729000D01*
X207239000Y-136500000D02*
X216000000Y-136500000D01*
D52*
%TO.N,/PF3*%
X214382001Y-132219648D02*
X214382001Y-131565999D01*
X188087000Y-83298002D02*
X187183400Y-83298002D01*
X214382001Y-131565999D02*
X215011000Y-130937000D01*
%TO.N,/PF4*%
X209342001Y-127842999D02*
X208788000Y-128397000D01*
X186396000Y-83298002D02*
X186396000Y-84582000D01*
X209342001Y-127139648D02*
X209342001Y-127842999D01*
%TO.N,/PF1*%
X214382001Y-134105999D02*
X215011000Y-133477000D01*
X214382001Y-134759648D02*
X214382001Y-134105999D01*
X187579000Y-85711002D02*
X188809000Y-85711002D01*
%TO.N,/PF7*%
X183934003Y-86017003D02*
X182382800Y-84465800D01*
X214382001Y-126485999D02*
X215011000Y-125857000D01*
X214382001Y-127139648D02*
X214382001Y-126485999D01*
X182382800Y-84465800D02*
X182382800Y-83298002D01*
X184785000Y-86017003D02*
X183934003Y-86017003D01*
%TO.N,/PF2*%
X188809000Y-84074000D02*
X188809000Y-84923602D01*
X209342001Y-129679648D02*
X209342001Y-130382999D01*
X209342001Y-130382999D02*
X208788000Y-130937000D01*
%TO.N,/PF6*%
X183401000Y-83298002D02*
X183195600Y-83298002D01*
X184116000Y-85310000D02*
X183195600Y-84389600D01*
X183195600Y-84389600D02*
X183195600Y-83298002D01*
X185547000Y-85217000D02*
X185454000Y-85310000D01*
X209342001Y-124599648D02*
X209342001Y-125302999D01*
X209342001Y-125302999D02*
X208788000Y-125857000D01*
X185454000Y-85310000D02*
X184116000Y-85310000D01*
X183401000Y-83539074D02*
X183401000Y-83298002D01*
%TO.N,/PF0*%
X187071000Y-86523802D02*
X188809000Y-86523802D01*
X209342001Y-132922999D02*
X208788000Y-133477000D01*
X209342001Y-132219648D02*
X209342001Y-132922999D01*
%TO.N,Net-(JP1-C)*%
X189230000Y-97790000D02*
X188809000Y-97369000D01*
X188809000Y-97369000D02*
X188809000Y-96912402D01*
X197739000Y-96012000D02*
X196342000Y-96012000D01*
%TO.N,Net-(JP2-C)*%
X192659000Y-98891000D02*
X192659000Y-98806000D01*
X193421000Y-98044000D02*
X193421000Y-96532000D01*
X192659000Y-98806000D02*
X193421000Y-98044000D01*
X189442000Y-98891000D02*
X189089002Y-98538002D01*
X193941000Y-96012000D02*
X194945000Y-96012000D01*
X193421000Y-96532000D02*
X193941000Y-96012000D01*
X189089002Y-98538002D02*
X187183400Y-98538002D01*
%TO.N,Net-(Q1-Pad1)*%
X180697500Y-109093000D02*
X180697500Y-110239899D01*
X180697500Y-110239899D02*
X180127399Y-110810000D01*
%TO.N,/PE2*%
X200239602Y-92924602D02*
X201041000Y-93726000D01*
X199543047Y-92924602D02*
X200239602Y-92924602D01*
X209342000Y-113873000D02*
X208788000Y-114427000D01*
X201041000Y-93726000D02*
X201041000Y-110998000D01*
X188809000Y-92924602D02*
X190754000Y-92924602D01*
X209342000Y-113179649D02*
X209342000Y-113873000D01*
X199644000Y-113919000D02*
X201930000Y-116205000D01*
X201041000Y-110998000D02*
X199644000Y-112395000D01*
X199644000Y-112395000D02*
X199644000Y-113919000D01*
X199516945Y-92898500D02*
X199543047Y-92924602D01*
%TO.N,/PE4*%
X200925402Y-91324402D02*
X202565000Y-92964000D01*
X202565000Y-111506000D02*
X201168000Y-112903000D01*
X188809000Y-91324402D02*
X190754000Y-91324402D01*
X199517000Y-91298496D02*
X199542906Y-91324402D01*
X199542906Y-91324402D02*
X200925402Y-91324402D01*
X201168000Y-112903000D02*
X201168000Y-113411000D01*
X201168000Y-113411000D02*
X201930000Y-114173000D01*
X209342000Y-110639649D02*
X209342000Y-111333000D01*
X209342000Y-111333000D02*
X208788000Y-111887000D01*
X202565000Y-92964000D02*
X202565000Y-111506000D01*
D51*
%TO.N,/MCU_AVCC*%
X177302800Y-81774002D02*
X176417699Y-81774002D01*
X175147698Y-80504001D02*
X175198500Y-80554803D01*
D52*
X175147700Y-80504002D02*
X175198501Y-80554802D01*
D51*
X177582200Y-83298002D02*
X177582200Y-82053402D01*
X177582200Y-82053402D02*
X177302800Y-81774002D01*
X176417699Y-81774002D02*
X175198500Y-80554803D01*
%TD*%
%TA.AperFunction,Conductor*%
%TO.N,/~{RESET}*%
G36*
X191297402Y-59245669D02*
G01*
X191760642Y-59937492D01*
X191762397Y-59946273D01*
X191760642Y-59950512D01*
X191297402Y-60642334D01*
X191289951Y-60647301D01*
X191282629Y-60646378D01*
X190086984Y-60074183D01*
X190081001Y-60067520D01*
X190080335Y-60063629D01*
X190080335Y-59824374D01*
X190083762Y-59816101D01*
X190086984Y-59813820D01*
X191282631Y-59241624D01*
X191291571Y-59241145D01*
X191297402Y-59245669D01*
G37*
%TD.AperFunction*%
%TD*%
%TA.AperFunction,Conductor*%
%TO.N,/MCU_AVCC*%
G36*
X175330039Y-75711685D02*
G01*
X175375794Y-75764489D01*
X175387000Y-75816000D01*
X175387000Y-78708250D01*
X176239681Y-79560931D01*
X176273166Y-79622254D01*
X176276000Y-79648612D01*
X176276000Y-81664000D01*
X176256315Y-81731039D01*
X176203511Y-81776794D01*
X176152000Y-81788000D01*
X171955000Y-81788000D01*
X171887961Y-81768315D01*
X171842206Y-81715511D01*
X171831000Y-81664000D01*
X171831000Y-81008197D01*
X172286001Y-81008197D01*
X172288851Y-81038607D01*
X172333653Y-81166646D01*
X172414207Y-81275793D01*
X172523354Y-81356347D01*
X172651397Y-81401150D01*
X172681778Y-81403999D01*
X172681806Y-81404000D01*
X172810999Y-81404000D01*
X173311000Y-81404000D01*
X173440196Y-81404000D01*
X173470606Y-81401149D01*
X173598645Y-81356347D01*
X173707792Y-81275793D01*
X173788346Y-81166646D01*
X173817265Y-81083999D01*
X174411001Y-81083999D01*
X174413851Y-81114409D01*
X174458653Y-81242448D01*
X174539207Y-81351595D01*
X174648354Y-81432149D01*
X174776397Y-81476952D01*
X174806778Y-81479801D01*
X174806806Y-81479802D01*
X174948499Y-81479802D01*
X175448500Y-81479802D01*
X175590196Y-81479802D01*
X175620606Y-81476951D01*
X175748645Y-81432149D01*
X175857792Y-81351595D01*
X175938346Y-81242448D01*
X175983149Y-81114407D01*
X175983149Y-81114403D01*
X175986000Y-81084009D01*
X175986000Y-80804803D01*
X175448500Y-80804803D01*
X175448500Y-81479802D01*
X174948499Y-81479802D01*
X174948500Y-81479801D01*
X174948500Y-80804803D01*
X174411001Y-80804803D01*
X174411001Y-81083999D01*
X173817265Y-81083999D01*
X173833149Y-81038605D01*
X173833149Y-81038601D01*
X173836000Y-81008207D01*
X173836000Y-80754001D01*
X173311000Y-80754001D01*
X173311000Y-81404000D01*
X172810999Y-81404000D01*
X172811000Y-81403999D01*
X172811000Y-80754001D01*
X172286001Y-80754001D01*
X172286001Y-81008197D01*
X171831000Y-81008197D01*
X171831000Y-79999794D01*
X172286000Y-79999794D01*
X172286000Y-80254001D01*
X172811000Y-80254001D01*
X173311000Y-80254001D01*
X173835999Y-80254001D01*
X173835999Y-80025596D01*
X174411000Y-80025596D01*
X174411000Y-80304803D01*
X174948500Y-80304803D01*
X175448500Y-80304803D01*
X175985999Y-80304803D01*
X175985999Y-80025606D01*
X175983148Y-79995196D01*
X175938346Y-79867157D01*
X175857792Y-79758010D01*
X175748645Y-79677456D01*
X175620602Y-79632653D01*
X175590207Y-79629803D01*
X175448500Y-79629803D01*
X175448500Y-80304803D01*
X174948500Y-80304803D01*
X174948500Y-79629803D01*
X174806804Y-79629803D01*
X174776393Y-79632654D01*
X174648354Y-79677456D01*
X174539207Y-79758010D01*
X174458653Y-79867157D01*
X174413850Y-79995198D01*
X174413850Y-79995202D01*
X174411000Y-80025596D01*
X173835999Y-80025596D01*
X173835999Y-79999804D01*
X173833148Y-79969394D01*
X173788346Y-79841355D01*
X173707792Y-79732208D01*
X173598645Y-79651654D01*
X173470602Y-79606851D01*
X173440207Y-79604001D01*
X173311000Y-79604001D01*
X173311000Y-80254001D01*
X172811000Y-80254001D01*
X172811000Y-79604001D01*
X172681804Y-79604001D01*
X172651393Y-79606852D01*
X172523354Y-79651654D01*
X172414207Y-79732208D01*
X172333653Y-79841355D01*
X172288850Y-79969396D01*
X172288850Y-79969400D01*
X172286000Y-79999794D01*
X171831000Y-79999794D01*
X171831000Y-79372000D01*
X171850685Y-79304961D01*
X171903489Y-79259206D01*
X171955000Y-79248000D01*
X172593000Y-79248000D01*
X172593000Y-78787999D01*
X173176000Y-78787999D01*
X173178850Y-78818409D01*
X173223652Y-78946448D01*
X173304206Y-79055595D01*
X173413353Y-79136149D01*
X173541396Y-79180952D01*
X173571791Y-79183802D01*
X173788498Y-79183802D01*
X174288499Y-79183802D01*
X174505195Y-79183802D01*
X174535605Y-79180951D01*
X174663644Y-79136149D01*
X174772791Y-79055595D01*
X174853345Y-78946448D01*
X174898148Y-78818407D01*
X174898148Y-78818403D01*
X174900999Y-78788009D01*
X174900999Y-77883803D01*
X174288499Y-77883803D01*
X174288499Y-79183802D01*
X173788498Y-79183802D01*
X173788499Y-79183801D01*
X173788499Y-77883803D01*
X173176000Y-77883803D01*
X173176000Y-78787999D01*
X172593000Y-78787999D01*
X172593000Y-76479596D01*
X173175999Y-76479596D01*
X173175999Y-77383803D01*
X173788499Y-77383803D01*
X174288499Y-77383803D01*
X174900998Y-77383803D01*
X174900998Y-76479606D01*
X174898147Y-76449196D01*
X174853345Y-76321157D01*
X174772791Y-76212010D01*
X174663644Y-76131456D01*
X174535601Y-76086653D01*
X174505206Y-76083803D01*
X174288499Y-76083803D01*
X174288499Y-77383803D01*
X173788499Y-77383803D01*
X173788499Y-76083803D01*
X173571803Y-76083803D01*
X173541392Y-76086654D01*
X173413353Y-76131456D01*
X173304206Y-76212010D01*
X173223652Y-76321157D01*
X173178849Y-76449198D01*
X173178849Y-76449202D01*
X173175999Y-76479596D01*
X172593000Y-76479596D01*
X172593000Y-75816000D01*
X172612685Y-75748961D01*
X172665489Y-75703206D01*
X172717000Y-75692000D01*
X175263000Y-75692000D01*
X175330039Y-75711685D01*
G37*
%TD.AperFunction*%
%TD*%
%TA.AperFunction,Conductor*%
%TO.N,GND*%
G36*
X199968039Y-74060685D02*
G01*
X200013794Y-74113489D01*
X200025000Y-74165000D01*
X200025000Y-85809671D01*
X200005315Y-85876710D01*
X199952511Y-85922465D01*
X199883353Y-85932409D01*
X199861997Y-85927377D01*
X199747153Y-85889322D01*
X199646154Y-85879003D01*
X199547000Y-85879003D01*
X199547000Y-87829002D01*
X199646140Y-87829002D01*
X199646154Y-87829001D01*
X199747152Y-87818683D01*
X199861996Y-87780628D01*
X199931824Y-87778226D01*
X199991866Y-87813958D01*
X200023059Y-87876478D01*
X200025000Y-87898334D01*
X200025000Y-88014000D01*
X200005315Y-88081039D01*
X199952511Y-88126794D01*
X199901000Y-88138000D01*
X198531499Y-88138000D01*
X198464460Y-88118315D01*
X198418705Y-88065511D01*
X198407499Y-88014000D01*
X198407499Y-87816577D01*
X198427184Y-87749538D01*
X198479988Y-87703783D01*
X198549146Y-87693839D01*
X198596597Y-87711039D01*
X198683192Y-87764453D01*
X198683199Y-87764456D01*
X198846847Y-87818683D01*
X198947851Y-87829002D01*
X199047000Y-87829001D01*
X199047000Y-85879002D01*
X198947860Y-85879003D01*
X198947844Y-85879004D01*
X198846847Y-85889322D01*
X198683199Y-85943549D01*
X198683188Y-85943554D01*
X198596596Y-85996966D01*
X198529204Y-86015407D01*
X198462540Y-85994485D01*
X198417771Y-85940843D01*
X198407499Y-85891428D01*
X198407499Y-85199502D01*
X198427184Y-85132463D01*
X198479988Y-85086708D01*
X198531499Y-85075502D01*
X198599750Y-85075502D01*
X198599751Y-85075501D01*
X198614568Y-85072554D01*
X198658229Y-85063870D01*
X198658229Y-85063869D01*
X198658231Y-85063869D01*
X198724552Y-85019554D01*
X198768867Y-84953233D01*
X198768867Y-84953231D01*
X198768868Y-84953231D01*
X198780499Y-84894754D01*
X198780500Y-84894752D01*
X198780500Y-82355251D01*
X198780499Y-82355249D01*
X198768868Y-82296772D01*
X198768867Y-82296771D01*
X198724552Y-82230449D01*
X198658230Y-82186134D01*
X198658229Y-82186133D01*
X198599752Y-82174502D01*
X198599748Y-82174502D01*
X197560252Y-82174502D01*
X197560247Y-82174502D01*
X197501770Y-82186133D01*
X197501769Y-82186134D01*
X197435447Y-82230449D01*
X197391132Y-82296771D01*
X197391131Y-82296772D01*
X197379500Y-82355249D01*
X197379500Y-84894754D01*
X197391131Y-84953231D01*
X197391132Y-84953232D01*
X197435447Y-85019554D01*
X197501769Y-85063869D01*
X197501770Y-85063870D01*
X197560247Y-85075501D01*
X197560250Y-85075502D01*
X197560252Y-85075502D01*
X197628499Y-85075502D01*
X197695538Y-85095187D01*
X197741293Y-85147991D01*
X197752499Y-85199502D01*
X197752499Y-86054501D01*
X197732814Y-86121540D01*
X197680010Y-86167295D01*
X197628499Y-86178501D01*
X197219240Y-86178501D01*
X197189650Y-86181275D01*
X197065023Y-86224885D01*
X196958789Y-86303289D01*
X196958788Y-86303290D01*
X196880384Y-86409524D01*
X196836774Y-86534151D01*
X196834000Y-86563740D01*
X196834000Y-87144261D01*
X196836774Y-87173850D01*
X196880384Y-87298477D01*
X196958788Y-87404711D01*
X196958789Y-87404712D01*
X197065023Y-87483116D01*
X197065024Y-87483116D01*
X197065025Y-87483117D01*
X197189651Y-87526726D01*
X197189650Y-87526726D01*
X197219240Y-87529501D01*
X197219244Y-87529501D01*
X197628499Y-87529501D01*
X197637184Y-87532051D01*
X197646146Y-87530763D01*
X197670186Y-87541741D01*
X197695538Y-87549186D01*
X197701465Y-87556026D01*
X197709702Y-87559788D01*
X197723991Y-87582022D01*
X197741293Y-87601990D01*
X197743580Y-87612504D01*
X197747476Y-87618566D01*
X197752499Y-87653501D01*
X197752499Y-87809986D01*
X197732814Y-87877025D01*
X197716180Y-87897667D01*
X197512166Y-88101681D01*
X197450843Y-88135166D01*
X197424485Y-88138000D01*
X195991501Y-88138000D01*
X195924462Y-88118315D01*
X195878707Y-88065511D01*
X195867501Y-88014000D01*
X195867501Y-87564886D01*
X195887186Y-87497847D01*
X195917863Y-87465119D01*
X195999711Y-87404714D01*
X196078116Y-87298478D01*
X196121725Y-87173852D01*
X196124500Y-87144259D01*
X196124500Y-86563747D01*
X196124499Y-86563740D01*
X196121725Y-86534153D01*
X196078115Y-86409526D01*
X195999712Y-86303293D01*
X195917867Y-86242889D01*
X195875617Y-86187242D01*
X195867501Y-86143119D01*
X195867501Y-85199502D01*
X195887186Y-85132463D01*
X195939990Y-85086708D01*
X195991501Y-85075502D01*
X196059750Y-85075502D01*
X196059751Y-85075501D01*
X196074568Y-85072554D01*
X196118229Y-85063870D01*
X196118229Y-85063869D01*
X196118231Y-85063869D01*
X196184552Y-85019554D01*
X196228867Y-84953233D01*
X196228867Y-84953231D01*
X196228868Y-84953231D01*
X196240499Y-84894754D01*
X196240500Y-84894752D01*
X196240500Y-82355251D01*
X196240499Y-82355249D01*
X196228868Y-82296772D01*
X196228867Y-82296771D01*
X196184552Y-82230449D01*
X196118230Y-82186134D01*
X196118229Y-82186133D01*
X196059752Y-82174502D01*
X196059748Y-82174502D01*
X195020252Y-82174502D01*
X195020247Y-82174502D01*
X194961770Y-82186133D01*
X194961769Y-82186134D01*
X194895447Y-82230449D01*
X194851132Y-82296771D01*
X194851131Y-82296772D01*
X194839500Y-82355249D01*
X194839500Y-84894754D01*
X194851131Y-84953231D01*
X194851132Y-84953232D01*
X194895447Y-85019554D01*
X194961769Y-85063869D01*
X194961770Y-85063870D01*
X195020247Y-85075501D01*
X195020250Y-85075502D01*
X195020252Y-85075502D01*
X195088501Y-85075502D01*
X195155540Y-85095187D01*
X195201295Y-85147991D01*
X195212501Y-85199502D01*
X195212501Y-86054503D01*
X195192816Y-86121542D01*
X195140012Y-86167297D01*
X195088501Y-86178503D01*
X195033740Y-86178503D01*
X195004150Y-86181277D01*
X194879525Y-86224886D01*
X194786561Y-86293497D01*
X194720932Y-86317467D01*
X194652762Y-86302151D01*
X194607389Y-86258823D01*
X194543943Y-86155961D01*
X194422038Y-86034056D01*
X194422034Y-86034053D01*
X194275311Y-85943552D01*
X194275300Y-85943547D01*
X194111652Y-85889320D01*
X194010654Y-85879001D01*
X193911500Y-85879001D01*
X193911500Y-87829000D01*
X194010640Y-87829000D01*
X194010654Y-87828999D01*
X194111652Y-87818681D01*
X194275300Y-87764454D01*
X194275311Y-87764449D01*
X194422034Y-87673948D01*
X194422038Y-87673945D01*
X194543943Y-87552040D01*
X194607388Y-87449181D01*
X194659336Y-87402457D01*
X194728299Y-87391234D01*
X194786557Y-87414506D01*
X194879525Y-87483119D01*
X195004151Y-87526728D01*
X195004150Y-87526728D01*
X195033740Y-87529503D01*
X195033744Y-87529503D01*
X195088501Y-87529503D01*
X195155540Y-87549188D01*
X195201295Y-87601992D01*
X195212501Y-87653503D01*
X195212501Y-88014000D01*
X195192816Y-88081039D01*
X195140012Y-88126794D01*
X195088501Y-88138000D01*
X193037000Y-88138000D01*
X192969961Y-88118315D01*
X192924206Y-88065511D01*
X192913000Y-88014000D01*
X192913000Y-87891539D01*
X192932685Y-87824500D01*
X192985489Y-87778745D01*
X193054647Y-87768801D01*
X193076004Y-87773833D01*
X193211348Y-87818681D01*
X193312351Y-87829000D01*
X193411500Y-87828999D01*
X193411500Y-85879000D01*
X193312360Y-85879001D01*
X193312344Y-85879002D01*
X193211346Y-85889320D01*
X193076003Y-85934168D01*
X193006175Y-85936570D01*
X192946133Y-85900838D01*
X192914941Y-85838317D01*
X192913000Y-85816462D01*
X192913000Y-74165000D01*
X192932685Y-74097961D01*
X192985489Y-74052206D01*
X193037000Y-74041000D01*
X199901000Y-74041000D01*
X199968039Y-74060685D01*
G37*
%TD.AperFunction*%
%TD*%
%TA.AperFunction,Conductor*%
%TO.N,/PB4*%
G36*
X194785370Y-59241623D02*
G01*
X195981018Y-59813819D01*
X195987001Y-59820482D01*
X195987667Y-59824373D01*
X195987667Y-60063628D01*
X195984240Y-60071901D01*
X195981018Y-60074182D01*
X194785372Y-60646377D01*
X194776430Y-60646857D01*
X194770599Y-60642333D01*
X194388038Y-60071001D01*
X194307358Y-59950510D01*
X194305604Y-59941730D01*
X194307359Y-59937491D01*
X194383102Y-59824373D01*
X194770600Y-59245667D01*
X194778050Y-59240701D01*
X194785370Y-59241623D01*
G37*
%TD.AperFunction*%
%TD*%
%TA.AperFunction,Conductor*%
%TO.N,SHIELD*%
G36*
X190990344Y-133127687D02*
G01*
X191036099Y-133180491D01*
X191046043Y-133249649D01*
X191026408Y-133300892D01*
X190987603Y-133358968D01*
X190987602Y-133358968D01*
X190976000Y-133417299D01*
X190976000Y-133987002D01*
X192102000Y-133987002D01*
X192169039Y-134006687D01*
X192214794Y-134059491D01*
X192226000Y-134111002D01*
X192226000Y-134237002D01*
X192352000Y-134237002D01*
X192419039Y-134256687D01*
X192464794Y-134309491D01*
X192476000Y-134361002D01*
X192476000Y-135237002D01*
X193295699Y-135237002D01*
X193295702Y-135237001D01*
X193354033Y-135225399D01*
X193354034Y-135225398D01*
X193420191Y-135181193D01*
X193464396Y-135115036D01*
X193464397Y-135115035D01*
X193475999Y-135056704D01*
X193476000Y-135056701D01*
X193476000Y-135025469D01*
X193495685Y-134958430D01*
X193548489Y-134912675D01*
X193617647Y-134902731D01*
X193670032Y-134926654D01*
X193671293Y-134924769D01*
X193747769Y-134975869D01*
X193747770Y-134975870D01*
X193806247Y-134987501D01*
X193806250Y-134987502D01*
X193806252Y-134987502D01*
X194245750Y-134987502D01*
X194245751Y-134987501D01*
X194260485Y-134984570D01*
X194316210Y-134973487D01*
X194316464Y-134974764D01*
X194373009Y-134968682D01*
X194396899Y-134975696D01*
X194456247Y-134987501D01*
X194456250Y-134987502D01*
X194456252Y-134987502D01*
X194895750Y-134987502D01*
X194895751Y-134987501D01*
X194910485Y-134984570D01*
X194966210Y-134973487D01*
X194966464Y-134974764D01*
X195023009Y-134968682D01*
X195046899Y-134975696D01*
X195106247Y-134987501D01*
X195106250Y-134987502D01*
X195106252Y-134987502D01*
X195545750Y-134987502D01*
X195545751Y-134987501D01*
X195560485Y-134984570D01*
X195616210Y-134973487D01*
X195616464Y-134974764D01*
X195673009Y-134968682D01*
X195696899Y-134975696D01*
X195756247Y-134987501D01*
X195756250Y-134987502D01*
X195756252Y-134987502D01*
X196195750Y-134987502D01*
X196195751Y-134987501D01*
X196210485Y-134984570D01*
X196266210Y-134973487D01*
X196266464Y-134974764D01*
X196323009Y-134968682D01*
X196346899Y-134975696D01*
X196406247Y-134987501D01*
X196406250Y-134987502D01*
X196406252Y-134987502D01*
X196845750Y-134987502D01*
X196845751Y-134987501D01*
X196860568Y-134984554D01*
X196904229Y-134975870D01*
X196904229Y-134975869D01*
X196904231Y-134975869D01*
X196970552Y-134931554D01*
X196970551Y-134931554D01*
X196980707Y-134924769D01*
X196982699Y-134927751D01*
X197025642Y-134904303D01*
X197095334Y-134909287D01*
X197151267Y-134951159D01*
X197175684Y-135016623D01*
X197176000Y-135025469D01*
X197176000Y-135056704D01*
X197187602Y-135115035D01*
X197187603Y-135115036D01*
X197231808Y-135181193D01*
X197297965Y-135225398D01*
X197297966Y-135225399D01*
X197356297Y-135237001D01*
X197356301Y-135237002D01*
X198176000Y-135237002D01*
X198676000Y-135237002D01*
X199495699Y-135237002D01*
X199495702Y-135237001D01*
X199554033Y-135225399D01*
X199554034Y-135225398D01*
X199620191Y-135181193D01*
X199664396Y-135115036D01*
X199664397Y-135115035D01*
X199675999Y-135056704D01*
X199676000Y-135056701D01*
X199676000Y-134487002D01*
X198676000Y-134487002D01*
X198676000Y-135237002D01*
X198176000Y-135237002D01*
X198176000Y-134361002D01*
X198195685Y-134293963D01*
X198248489Y-134248208D01*
X198300000Y-134237002D01*
X198426000Y-134237002D01*
X198426000Y-134111002D01*
X198445685Y-134043963D01*
X198498489Y-133998208D01*
X198550000Y-133987002D01*
X199676000Y-133987002D01*
X199676000Y-133417303D01*
X199675999Y-133417299D01*
X199664397Y-133358968D01*
X199625592Y-133300892D01*
X199604715Y-133234215D01*
X199623200Y-133166835D01*
X199675179Y-133120145D01*
X199728695Y-133108002D01*
X200124000Y-133108002D01*
X200191039Y-133127687D01*
X200236794Y-133180491D01*
X200248000Y-133232002D01*
X200248000Y-135526147D01*
X200228315Y-135593186D01*
X200175511Y-135638941D01*
X200106353Y-135648885D01*
X200099810Y-135647765D01*
X200045697Y-135637002D01*
X199376000Y-135637002D01*
X199376000Y-137937002D01*
X200045699Y-137937002D01*
X200045701Y-137937001D01*
X200099809Y-137926239D01*
X200169400Y-137932466D01*
X200224577Y-137975329D01*
X200247822Y-138041219D01*
X200248000Y-138047856D01*
X200248000Y-138572002D01*
X200228315Y-138639041D01*
X200175511Y-138684796D01*
X200124000Y-138696002D01*
X188561000Y-138696002D01*
X188493961Y-138676317D01*
X188448206Y-138623513D01*
X188437000Y-138572002D01*
X188437000Y-137756704D01*
X190426000Y-137756704D01*
X190437602Y-137815035D01*
X190437603Y-137815036D01*
X190481808Y-137881193D01*
X190547965Y-137925398D01*
X190547966Y-137925399D01*
X190606297Y-137937001D01*
X190606301Y-137937002D01*
X191276000Y-137937002D01*
X191776000Y-137937002D01*
X192445699Y-137937002D01*
X192445702Y-137937001D01*
X192504033Y-137925399D01*
X192504034Y-137925398D01*
X192570191Y-137881193D01*
X192614396Y-137815036D01*
X192614397Y-137815035D01*
X192625999Y-137756704D01*
X192976000Y-137756704D01*
X192987602Y-137815035D01*
X192987603Y-137815036D01*
X193031808Y-137881193D01*
X193097965Y-137925398D01*
X193097966Y-137925399D01*
X193156297Y-137937001D01*
X193156301Y-137937002D01*
X193876000Y-137937002D01*
X194376000Y-137937002D01*
X195095699Y-137937002D01*
X195095702Y-137937001D01*
X195154033Y-137925399D01*
X195154034Y-137925398D01*
X195220191Y-137881194D01*
X195222896Y-137877146D01*
X195276507Y-137832339D01*
X195345832Y-137823630D01*
X195408860Y-137853783D01*
X195429104Y-137877146D01*
X195431808Y-137881194D01*
X195497965Y-137925398D01*
X195497966Y-137925399D01*
X195556297Y-137937001D01*
X195556301Y-137937002D01*
X196276000Y-137937002D01*
X196776000Y-137937002D01*
X197495699Y-137937002D01*
X197495702Y-137937001D01*
X197554033Y-137925399D01*
X197554034Y-137925398D01*
X197620191Y-137881193D01*
X197664396Y-137815036D01*
X197664397Y-137815035D01*
X197675999Y-137756704D01*
X198026000Y-137756704D01*
X198037602Y-137815035D01*
X198037603Y-137815036D01*
X198081808Y-137881193D01*
X198147965Y-137925398D01*
X198147966Y-137925399D01*
X198206297Y-137937001D01*
X198206301Y-137937002D01*
X198876000Y-137937002D01*
X198876000Y-137037002D01*
X198026000Y-137037002D01*
X198026000Y-137756704D01*
X197675999Y-137756704D01*
X197676000Y-137756701D01*
X197676000Y-137037002D01*
X196776000Y-137037002D01*
X196776000Y-137937002D01*
X196276000Y-137937002D01*
X196276000Y-137037002D01*
X194376000Y-137037002D01*
X194376000Y-137937002D01*
X193876000Y-137937002D01*
X193876000Y-137037002D01*
X192976000Y-137037002D01*
X192976000Y-137756704D01*
X192625999Y-137756704D01*
X192626000Y-137756701D01*
X192626000Y-137037002D01*
X191776000Y-137037002D01*
X191776000Y-137937002D01*
X191276000Y-137937002D01*
X191276000Y-137037002D01*
X190426000Y-137037002D01*
X190426000Y-137756704D01*
X188437000Y-137756704D01*
X188437000Y-136224714D01*
X188437025Y-136222216D01*
X188437116Y-136217675D01*
X188439500Y-136192257D01*
X188439500Y-136192211D01*
X188689000Y-136192211D01*
X188691770Y-136221753D01*
X188691772Y-136221765D01*
X188735329Y-136346240D01*
X188813646Y-136452356D01*
X188919762Y-136530673D01*
X189044237Y-136574230D01*
X189044249Y-136574232D01*
X189073792Y-136577003D01*
X189176500Y-136577003D01*
X189676500Y-136577003D01*
X189779208Y-136577003D01*
X189808750Y-136574232D01*
X189808762Y-136574230D01*
X189933237Y-136530673D01*
X190039353Y-136452356D01*
X190117670Y-136346240D01*
X190161227Y-136221765D01*
X190161229Y-136221753D01*
X190164000Y-136192211D01*
X190164000Y-136152003D01*
X189676500Y-136152003D01*
X189676500Y-136577003D01*
X189176500Y-136577003D01*
X189176500Y-136152003D01*
X188689000Y-136152003D01*
X188689000Y-136192211D01*
X188439500Y-136192211D01*
X188439500Y-135817299D01*
X190426000Y-135817299D01*
X190426000Y-136537002D01*
X191276000Y-136537002D01*
X191776000Y-136537002D01*
X192626000Y-136537002D01*
X192626000Y-135817303D01*
X192625999Y-135817299D01*
X192976000Y-135817299D01*
X192976000Y-136537002D01*
X193876000Y-136537002D01*
X194376000Y-136537002D01*
X196276000Y-136537002D01*
X196776000Y-136537002D01*
X197676000Y-136537002D01*
X197676000Y-135817303D01*
X197675999Y-135817299D01*
X198026000Y-135817299D01*
X198026000Y-136537002D01*
X198876000Y-136537002D01*
X198876000Y-135637002D01*
X198206297Y-135637002D01*
X198147966Y-135648604D01*
X198147965Y-135648605D01*
X198081808Y-135692810D01*
X198037603Y-135758967D01*
X198037602Y-135758968D01*
X198026000Y-135817299D01*
X197675999Y-135817299D01*
X197664397Y-135758968D01*
X197664396Y-135758967D01*
X197620191Y-135692810D01*
X197554034Y-135648605D01*
X197554033Y-135648604D01*
X197495702Y-135637002D01*
X196776000Y-135637002D01*
X196776000Y-136537002D01*
X196276000Y-136537002D01*
X196276000Y-135637002D01*
X195556297Y-135637002D01*
X195497966Y-135648604D01*
X195497965Y-135648605D01*
X195431809Y-135692809D01*
X195429102Y-135696861D01*
X195375489Y-135741665D01*
X195306164Y-135750372D01*
X195243137Y-135720217D01*
X195222898Y-135696861D01*
X195220190Y-135692809D01*
X195154034Y-135648605D01*
X195154033Y-135648604D01*
X195095702Y-135637002D01*
X194376000Y-135637002D01*
X194376000Y-136537002D01*
X193876000Y-136537002D01*
X193876000Y-135637002D01*
X193156297Y-135637002D01*
X193097966Y-135648604D01*
X193097965Y-135648605D01*
X193031808Y-135692810D01*
X192987603Y-135758967D01*
X192987602Y-135758968D01*
X192976000Y-135817299D01*
X192625999Y-135817299D01*
X192614397Y-135758968D01*
X192614396Y-135758967D01*
X192570191Y-135692810D01*
X192504034Y-135648605D01*
X192504033Y-135648604D01*
X192445702Y-135637002D01*
X191776000Y-135637002D01*
X191776000Y-136537002D01*
X191276000Y-136537002D01*
X191276000Y-135637002D01*
X190606297Y-135637002D01*
X190547966Y-135648604D01*
X190547965Y-135648605D01*
X190481808Y-135692810D01*
X190437603Y-135758967D01*
X190437602Y-135758968D01*
X190426000Y-135817299D01*
X188439500Y-135817299D01*
X188439500Y-135611794D01*
X188689000Y-135611794D01*
X188689000Y-135652003D01*
X189176500Y-135652003D01*
X189676500Y-135652003D01*
X190164000Y-135652003D01*
X190164000Y-135611794D01*
X190161229Y-135582252D01*
X190161227Y-135582240D01*
X190117670Y-135457765D01*
X190039353Y-135351649D01*
X189933237Y-135273332D01*
X189808762Y-135229775D01*
X189808750Y-135229773D01*
X189779208Y-135227003D01*
X189676500Y-135227003D01*
X189676500Y-135652003D01*
X189176500Y-135652003D01*
X189176500Y-135227003D01*
X189073792Y-135227003D01*
X189044249Y-135229773D01*
X189044237Y-135229775D01*
X188919762Y-135273332D01*
X188813646Y-135351649D01*
X188735329Y-135457765D01*
X188691772Y-135582240D01*
X188691770Y-135582252D01*
X188689000Y-135611794D01*
X188439500Y-135611794D01*
X188439500Y-135611745D01*
X188437542Y-135590864D01*
X188437000Y-135579286D01*
X188437000Y-135056704D01*
X190976000Y-135056704D01*
X190987602Y-135115035D01*
X190987603Y-135115036D01*
X191031808Y-135181193D01*
X191097965Y-135225398D01*
X191097966Y-135225399D01*
X191156297Y-135237001D01*
X191156301Y-135237002D01*
X191976000Y-135237002D01*
X191976000Y-134487002D01*
X190976000Y-134487002D01*
X190976000Y-135056704D01*
X188437000Y-135056704D01*
X188437000Y-134414210D01*
X188789000Y-134414210D01*
X188791770Y-134443752D01*
X188791772Y-134443764D01*
X188835329Y-134568239D01*
X188913646Y-134674355D01*
X189019762Y-134752672D01*
X189144237Y-134796229D01*
X189144249Y-134796231D01*
X189173792Y-134799002D01*
X189226500Y-134799002D01*
X189726500Y-134799002D01*
X189779208Y-134799002D01*
X189808750Y-134796231D01*
X189808762Y-134796229D01*
X189933237Y-134752672D01*
X190039353Y-134674355D01*
X190117670Y-134568239D01*
X190161227Y-134443764D01*
X190161229Y-134443752D01*
X190163076Y-134424064D01*
X190163076Y-134424063D01*
X190164000Y-134414209D01*
X190164000Y-134374002D01*
X189726500Y-134374002D01*
X189726500Y-134799002D01*
X189226500Y-134799002D01*
X189226500Y-134374002D01*
X188789000Y-134374002D01*
X188789000Y-134414210D01*
X188437000Y-134414210D01*
X188437000Y-133833793D01*
X188789000Y-133833793D01*
X188789000Y-133874002D01*
X189226500Y-133874002D01*
X189726500Y-133874002D01*
X190164000Y-133874002D01*
X190164000Y-133833793D01*
X190161229Y-133804251D01*
X190161227Y-133804239D01*
X190117670Y-133679764D01*
X190039353Y-133573648D01*
X189933237Y-133495331D01*
X189808762Y-133451774D01*
X189808750Y-133451772D01*
X189779208Y-133449002D01*
X189726500Y-133449002D01*
X189726500Y-133874002D01*
X189226500Y-133874002D01*
X189226500Y-133449002D01*
X189173792Y-133449002D01*
X189144249Y-133451772D01*
X189144237Y-133451774D01*
X189019762Y-133495331D01*
X188913646Y-133573648D01*
X188835329Y-133679764D01*
X188791772Y-133804239D01*
X188791770Y-133804251D01*
X188789000Y-133833793D01*
X188437000Y-133833793D01*
X188437000Y-133232002D01*
X188456685Y-133164963D01*
X188509489Y-133119208D01*
X188561000Y-133108002D01*
X190923305Y-133108002D01*
X190990344Y-133127687D01*
G37*
%TD.AperFunction*%
%TD*%
%TA.AperFunction,Conductor*%
%TO.N,GND*%
G36*
X199206039Y-130829685D02*
G01*
X199251794Y-130882489D01*
X199263000Y-130934000D01*
X199263000Y-132972000D01*
X199243315Y-133039039D01*
X199190511Y-133084794D01*
X199139000Y-133096000D01*
X197104000Y-133096000D01*
X197104000Y-133150230D01*
X197084315Y-133217269D01*
X197031511Y-133263024D01*
X196962353Y-133272968D01*
X196911111Y-133253333D01*
X196904036Y-133248606D01*
X196904033Y-133248604D01*
X196845702Y-133237002D01*
X196826000Y-133237002D01*
X196826000Y-133988002D01*
X196823449Y-133996687D01*
X196824738Y-134005649D01*
X196813759Y-134029689D01*
X196806315Y-134055041D01*
X196799474Y-134060968D01*
X196795713Y-134069205D01*
X196773478Y-134083494D01*
X196753511Y-134100796D01*
X196742996Y-134103083D01*
X196736935Y-134106979D01*
X196702000Y-134112002D01*
X196550000Y-134112002D01*
X196482961Y-134092317D01*
X196437206Y-134039513D01*
X196426000Y-133988002D01*
X196426000Y-133237002D01*
X196406302Y-133237002D01*
X196363189Y-133245577D01*
X196293598Y-133239348D01*
X196238421Y-133196484D01*
X196215178Y-133130594D01*
X196215000Y-133123959D01*
X196215000Y-130934000D01*
X196234685Y-130866961D01*
X196287489Y-130821206D01*
X196339000Y-130810000D01*
X199139000Y-130810000D01*
X199206039Y-130829685D01*
G37*
%TD.AperFunction*%
%TD*%
%TA.AperFunction,Conductor*%
%TO.N,+5V_USB*%
G36*
X194380039Y-131845685D02*
G01*
X194425794Y-131898489D01*
X194437000Y-131950000D01*
X194437000Y-132733734D01*
X194420388Y-132795733D01*
X194395979Y-132838010D01*
X194375500Y-132914439D01*
X194375500Y-133113002D01*
X194355815Y-133180041D01*
X194303011Y-133225796D01*
X194251500Y-133237002D01*
X194226000Y-133237002D01*
X194226000Y-133988002D01*
X194223449Y-133996687D01*
X194224738Y-134005649D01*
X194213759Y-134029689D01*
X194206315Y-134055041D01*
X194199474Y-134060968D01*
X194195713Y-134069205D01*
X194173478Y-134083494D01*
X194153511Y-134100796D01*
X194142996Y-134103083D01*
X194136935Y-134106979D01*
X194102000Y-134112002D01*
X193950000Y-134112002D01*
X193882961Y-134092317D01*
X193837206Y-134039513D01*
X193826000Y-133988002D01*
X193826000Y-133237002D01*
X193806297Y-133237002D01*
X193747966Y-133248604D01*
X193747963Y-133248606D01*
X193740889Y-133253333D01*
X193674211Y-133274210D01*
X193606832Y-133255724D01*
X193560142Y-133203745D01*
X193548000Y-133150230D01*
X193548000Y-133096000D01*
X192783000Y-133096000D01*
X192715961Y-133076315D01*
X192670206Y-133023511D01*
X192659000Y-132972000D01*
X192659000Y-131950000D01*
X192678685Y-131882961D01*
X192731489Y-131837206D01*
X192783000Y-131826000D01*
X194313000Y-131826000D01*
X194380039Y-131845685D01*
G37*
%TD.AperFunction*%
%TD*%
%TA.AperFunction,Conductor*%
%TO.N,Net-(J8-Pin_3)*%
G36*
X174745305Y-129504369D02*
G01*
X176222836Y-130242767D01*
X176228705Y-130249530D01*
X176229306Y-130253232D01*
X176229306Y-130746767D01*
X176225879Y-130755040D01*
X176222836Y-130757233D01*
X174745308Y-131495629D01*
X174736376Y-131496262D01*
X174730707Y-131492168D01*
X173994235Y-130507003D01*
X173992027Y-130498327D01*
X173994235Y-130492997D01*
X174730708Y-129507830D01*
X174738405Y-129503256D01*
X174745305Y-129504369D01*
G37*
%TD.AperFunction*%
%TD*%
%TA.AperFunction,Conductor*%
%TO.N,/PB6*%
G36*
X194785370Y-54161622D02*
G01*
X195981018Y-54733818D01*
X195987001Y-54740481D01*
X195987667Y-54744372D01*
X195987667Y-54983627D01*
X195984240Y-54991900D01*
X195981018Y-54994181D01*
X194785372Y-55566376D01*
X194776430Y-55566856D01*
X194770599Y-55562332D01*
X194388038Y-54991000D01*
X194307358Y-54870509D01*
X194305604Y-54861729D01*
X194307359Y-54857490D01*
X194383102Y-54744372D01*
X194770600Y-54165666D01*
X194778050Y-54160700D01*
X194785370Y-54161622D01*
G37*
%TD.AperFunction*%
%TD*%
%TA.AperFunction,Conductor*%
%TO.N,GND*%
G36*
X177006438Y-106064686D02*
G01*
X177052193Y-106117490D01*
X177063399Y-106169001D01*
X177063399Y-109731000D01*
X177043714Y-109798039D01*
X176990910Y-109843794D01*
X176939399Y-109855000D01*
X175539399Y-109855000D01*
X175539399Y-112522000D01*
X178209399Y-112522000D01*
X178276438Y-112541685D01*
X178322193Y-112594489D01*
X178333399Y-112646000D01*
X178333399Y-114430000D01*
X178313714Y-114497039D01*
X178260910Y-114542794D01*
X178209399Y-114554000D01*
X175412399Y-114554000D01*
X175412399Y-117094000D01*
X178714399Y-117094000D01*
X182273399Y-117094000D01*
X182340438Y-117113685D01*
X182386193Y-117166489D01*
X182397399Y-117218000D01*
X182397399Y-119636999D01*
X182377714Y-119704038D01*
X182324910Y-119749793D01*
X182273399Y-119760999D01*
X169913614Y-119761000D01*
X169846575Y-119741315D01*
X169825972Y-119724721D01*
X168842562Y-118742197D01*
X178942400Y-118742197D01*
X178945250Y-118772607D01*
X178990052Y-118900646D01*
X179070606Y-119009793D01*
X179179753Y-119090347D01*
X179307796Y-119135150D01*
X179338191Y-119138000D01*
X180242398Y-119138000D01*
X180742399Y-119138000D01*
X181646595Y-119138000D01*
X181677005Y-119135149D01*
X181805044Y-119090347D01*
X181914191Y-119009793D01*
X181994745Y-118900646D01*
X182039548Y-118772605D01*
X182039548Y-118772601D01*
X182042399Y-118742207D01*
X182042399Y-118525501D01*
X180742399Y-118525501D01*
X180742399Y-119138000D01*
X180242398Y-119138000D01*
X180242399Y-119137999D01*
X180242399Y-118525501D01*
X178942400Y-118525501D01*
X178942400Y-118742197D01*
X168842562Y-118742197D01*
X168662062Y-118561860D01*
X168350299Y-118250377D01*
X168316788Y-118189071D01*
X168313942Y-118162777D01*
X168313623Y-117808794D01*
X178942399Y-117808794D01*
X178942399Y-118025501D01*
X180242399Y-118025501D01*
X180742399Y-118025501D01*
X182042398Y-118025501D01*
X182042398Y-117808804D01*
X182039547Y-117778394D01*
X181994745Y-117650355D01*
X181914191Y-117541208D01*
X181805044Y-117460654D01*
X181677001Y-117415851D01*
X181646606Y-117413001D01*
X180742399Y-117413001D01*
X180742399Y-118025501D01*
X180242399Y-118025501D01*
X180242399Y-117413001D01*
X179338202Y-117413001D01*
X179307792Y-117415852D01*
X179179753Y-117460654D01*
X179070606Y-117541208D01*
X178990052Y-117650355D01*
X178945249Y-117778396D01*
X178945249Y-117778400D01*
X178942399Y-117808794D01*
X168313623Y-117808794D01*
X168311225Y-115145201D01*
X169649800Y-115145201D01*
X169661402Y-115203532D01*
X169661403Y-115203533D01*
X169705608Y-115269690D01*
X169771765Y-115313895D01*
X169771766Y-115313896D01*
X169830097Y-115325498D01*
X169830101Y-115325499D01*
X170412600Y-115325499D01*
X170912600Y-115325499D01*
X171495099Y-115325499D01*
X171495102Y-115325498D01*
X171553433Y-115313896D01*
X171553434Y-115313895D01*
X171619591Y-115269690D01*
X171663796Y-115203533D01*
X171663797Y-115203532D01*
X171675399Y-115145201D01*
X171675400Y-115145198D01*
X171675400Y-114002203D01*
X176050600Y-114002203D01*
X176062202Y-114060534D01*
X176062203Y-114060535D01*
X176106408Y-114126692D01*
X176172565Y-114170897D01*
X176172566Y-114170898D01*
X176230897Y-114182500D01*
X176230901Y-114182501D01*
X176813400Y-114182501D01*
X177313400Y-114182501D01*
X177895899Y-114182501D01*
X177895902Y-114182500D01*
X177954233Y-114170898D01*
X177954234Y-114170897D01*
X178020391Y-114126692D01*
X178064596Y-114060535D01*
X178064597Y-114060534D01*
X178076199Y-114002203D01*
X178076200Y-114002200D01*
X178076200Y-113788001D01*
X177313400Y-113788001D01*
X177313400Y-114182501D01*
X176813400Y-114182501D01*
X176813400Y-113788001D01*
X176050600Y-113788001D01*
X176050600Y-114002203D01*
X171675400Y-114002203D01*
X171675400Y-113787999D01*
X170912600Y-113787999D01*
X170912600Y-115325499D01*
X170412600Y-115325499D01*
X170412600Y-113787999D01*
X169649800Y-113787999D01*
X169649800Y-115145201D01*
X168311225Y-115145201D01*
X168309810Y-113573394D01*
X168306259Y-111930796D01*
X169649800Y-111930796D01*
X169649800Y-113287999D01*
X170412600Y-113287999D01*
X170912600Y-113287999D01*
X171675400Y-113287999D01*
X171675400Y-113073798D01*
X176050600Y-113073798D01*
X176050600Y-113288001D01*
X176813400Y-113288001D01*
X177313400Y-113288001D01*
X178076200Y-113288001D01*
X178076200Y-113073802D01*
X178076199Y-113073798D01*
X178064597Y-113015467D01*
X178064596Y-113015466D01*
X178020391Y-112949309D01*
X177954234Y-112905104D01*
X177954233Y-112905103D01*
X177895902Y-112893501D01*
X177313400Y-112893501D01*
X177313400Y-113288001D01*
X176813400Y-113288001D01*
X176813400Y-112893501D01*
X176230897Y-112893501D01*
X176172566Y-112905103D01*
X176172565Y-112905104D01*
X176106408Y-112949309D01*
X176062203Y-113015466D01*
X176062202Y-113015467D01*
X176050600Y-113073798D01*
X171675400Y-113073798D01*
X171675400Y-111930800D01*
X171675399Y-111930796D01*
X171663797Y-111872465D01*
X171663796Y-111872464D01*
X171619591Y-111806307D01*
X171553434Y-111762102D01*
X171553433Y-111762101D01*
X171495102Y-111750499D01*
X170912600Y-111750499D01*
X170912600Y-113287999D01*
X170412600Y-113287999D01*
X170412600Y-111750499D01*
X169830097Y-111750499D01*
X169771766Y-111762101D01*
X169771765Y-111762102D01*
X169705608Y-111806307D01*
X169661403Y-111872464D01*
X169661402Y-111872465D01*
X169649800Y-111930796D01*
X168306259Y-111930796D01*
X168302863Y-110359786D01*
X168322403Y-110292705D01*
X168339087Y-110271933D01*
X169237285Y-109371792D01*
X169352415Y-109256413D01*
X169413701Y-109222862D01*
X169440180Y-109220000D01*
X172745399Y-109220000D01*
X172745399Y-109104196D01*
X174638400Y-109104196D01*
X174641250Y-109134606D01*
X174686052Y-109262645D01*
X174766606Y-109371792D01*
X174875753Y-109452346D01*
X175003796Y-109497149D01*
X175034191Y-109499999D01*
X175250898Y-109499999D01*
X175750899Y-109499999D01*
X175967595Y-109499999D01*
X175998005Y-109497148D01*
X176126044Y-109452346D01*
X176235191Y-109371792D01*
X176315745Y-109262645D01*
X176360548Y-109134604D01*
X176360548Y-109134600D01*
X176363399Y-109104206D01*
X176363399Y-108200000D01*
X175750899Y-108200000D01*
X175750899Y-109499999D01*
X175250898Y-109499999D01*
X175250899Y-109499998D01*
X175250899Y-108200000D01*
X174638400Y-108200000D01*
X174638400Y-109104196D01*
X172745399Y-109104196D01*
X172745398Y-107700000D01*
X172745398Y-106890112D01*
X172754042Y-106860671D01*
X172760566Y-106830685D01*
X172764320Y-106825669D01*
X172765083Y-106823073D01*
X172781717Y-106802431D01*
X172788355Y-106795793D01*
X174638399Y-106795793D01*
X174638399Y-107700000D01*
X175250899Y-107700000D01*
X175750899Y-107700000D01*
X176363398Y-107700000D01*
X176363398Y-106795803D01*
X176360547Y-106765393D01*
X176315745Y-106637354D01*
X176235191Y-106528207D01*
X176126044Y-106447653D01*
X175998001Y-106402850D01*
X175967606Y-106400000D01*
X175750899Y-106400000D01*
X175750899Y-107700000D01*
X175250899Y-107700000D01*
X175250899Y-106400000D01*
X175034203Y-106400000D01*
X175003792Y-106402851D01*
X174875753Y-106447653D01*
X174766606Y-106528207D01*
X174686052Y-106637354D01*
X174641249Y-106765395D01*
X174641249Y-106765399D01*
X174638399Y-106795793D01*
X172788355Y-106795793D01*
X172818755Y-106765393D01*
X173502831Y-106081320D01*
X173564154Y-106047835D01*
X173590512Y-106045001D01*
X176939399Y-106045001D01*
X177006438Y-106064686D01*
G37*
%TD.AperFunction*%
%TD*%
%TA.AperFunction,Conductor*%
%TO.N,Net-(U2-VIN)*%
G36*
X181070439Y-111779685D02*
G01*
X181116194Y-111832489D01*
X181127400Y-111884000D01*
X181127402Y-113791999D01*
X182273402Y-113791999D01*
X182340438Y-113811684D01*
X182386193Y-113864488D01*
X182397399Y-113915999D01*
X182397399Y-116716000D01*
X182377714Y-116783039D01*
X182324910Y-116828794D01*
X182273399Y-116840000D01*
X175790399Y-116840000D01*
X175723360Y-116820315D01*
X175677605Y-116767511D01*
X175666399Y-116716000D01*
X175666399Y-116313603D01*
X176050601Y-116313603D01*
X176062203Y-116371934D01*
X176062204Y-116371935D01*
X176106409Y-116438092D01*
X176172566Y-116482297D01*
X176172567Y-116482298D01*
X176230898Y-116493900D01*
X176230902Y-116493901D01*
X176813401Y-116493901D01*
X177313401Y-116493901D01*
X177895900Y-116493901D01*
X177895903Y-116493900D01*
X177954234Y-116482298D01*
X177954235Y-116482297D01*
X178020392Y-116438092D01*
X178064597Y-116371935D01*
X178064598Y-116371934D01*
X178076200Y-116313603D01*
X178076201Y-116313600D01*
X178076201Y-116099401D01*
X177313401Y-116099401D01*
X177313401Y-116493901D01*
X176813401Y-116493901D01*
X176813401Y-116099401D01*
X176050601Y-116099401D01*
X176050601Y-116313603D01*
X175666399Y-116313603D01*
X175666399Y-115617195D01*
X178942400Y-115617195D01*
X178945250Y-115647605D01*
X178990052Y-115775644D01*
X179070606Y-115884791D01*
X179179753Y-115965345D01*
X179307796Y-116010148D01*
X179338191Y-116012998D01*
X180242398Y-116012998D01*
X180742399Y-116012998D01*
X181646595Y-116012998D01*
X181677005Y-116010147D01*
X181805044Y-115965345D01*
X181914191Y-115884791D01*
X181994745Y-115775644D01*
X182039548Y-115647603D01*
X182039548Y-115647599D01*
X182042399Y-115617205D01*
X182042399Y-115400499D01*
X180742399Y-115400499D01*
X180742399Y-116012998D01*
X180242398Y-116012998D01*
X180242399Y-116012997D01*
X180242399Y-115400499D01*
X178942400Y-115400499D01*
X178942400Y-115617195D01*
X175666399Y-115617195D01*
X175666399Y-115385198D01*
X176050601Y-115385198D01*
X176050601Y-115599401D01*
X176813401Y-115599401D01*
X177313401Y-115599401D01*
X178076201Y-115599401D01*
X178076201Y-115385204D01*
X178073839Y-115373331D01*
X178073839Y-115373330D01*
X178073838Y-115373327D01*
X178064596Y-115326864D01*
X178020392Y-115260709D01*
X177954235Y-115216504D01*
X177954234Y-115216503D01*
X177895903Y-115204901D01*
X177313401Y-115204901D01*
X177313401Y-115599401D01*
X176813401Y-115599401D01*
X176813401Y-115204901D01*
X176230898Y-115204901D01*
X176172567Y-115216503D01*
X176172566Y-115216504D01*
X176106409Y-115260709D01*
X176062204Y-115326866D01*
X176062203Y-115326867D01*
X176050601Y-115385198D01*
X175666399Y-115385198D01*
X175666399Y-115059000D01*
X175686084Y-114991961D01*
X175738888Y-114946206D01*
X175790394Y-114935000D01*
X178587399Y-114934999D01*
X178587399Y-114683792D01*
X178942399Y-114683792D01*
X178942399Y-114900499D01*
X180242399Y-114900499D01*
X180742399Y-114900499D01*
X182042398Y-114900499D01*
X182042398Y-114683802D01*
X182039547Y-114653392D01*
X181994745Y-114525353D01*
X181914191Y-114416206D01*
X181805044Y-114335652D01*
X181677001Y-114290849D01*
X181646606Y-114287999D01*
X180742399Y-114287999D01*
X180742399Y-114900499D01*
X180242399Y-114900499D01*
X180242399Y-114287999D01*
X179338202Y-114287999D01*
X179307792Y-114290850D01*
X179179753Y-114335652D01*
X179070606Y-114416206D01*
X178990052Y-114525353D01*
X178945249Y-114653394D01*
X178945249Y-114653398D01*
X178942399Y-114683792D01*
X178587399Y-114683792D01*
X178587399Y-113129702D01*
X179477400Y-113129702D01*
X179489002Y-113188033D01*
X179489003Y-113188034D01*
X179533208Y-113254191D01*
X179599365Y-113298396D01*
X179599366Y-113298397D01*
X179657697Y-113309999D01*
X179657701Y-113310000D01*
X179877400Y-113310000D01*
X180377400Y-113310000D01*
X180597099Y-113310000D01*
X180597102Y-113309999D01*
X180655433Y-113298397D01*
X180655434Y-113298396D01*
X180721591Y-113254191D01*
X180765796Y-113188034D01*
X180765797Y-113188033D01*
X180777399Y-113129702D01*
X180777400Y-113129699D01*
X180777400Y-112960000D01*
X180377400Y-112960000D01*
X180377400Y-113310000D01*
X179877400Y-113310000D01*
X179877400Y-112960000D01*
X179477400Y-112960000D01*
X179477400Y-113129702D01*
X178587399Y-113129702D01*
X178587399Y-112646000D01*
X178607084Y-112578961D01*
X178659888Y-112533206D01*
X178711399Y-112522000D01*
X179095397Y-112522000D01*
X179095398Y-112522000D01*
X179095398Y-112290297D01*
X179477400Y-112290297D01*
X179477400Y-112460000D01*
X179877400Y-112460000D01*
X180377400Y-112460000D01*
X180777400Y-112460000D01*
X180777400Y-112290301D01*
X180777399Y-112290297D01*
X180765797Y-112231966D01*
X180765796Y-112231965D01*
X180721591Y-112165808D01*
X180655434Y-112121603D01*
X180655433Y-112121602D01*
X180597102Y-112110000D01*
X180377400Y-112110000D01*
X180377400Y-112460000D01*
X179877400Y-112460000D01*
X179877400Y-112110000D01*
X179657697Y-112110000D01*
X179599366Y-112121602D01*
X179599365Y-112121603D01*
X179533208Y-112165808D01*
X179489003Y-112231965D01*
X179489002Y-112231966D01*
X179477400Y-112290297D01*
X179095398Y-112290297D01*
X179095398Y-111883997D01*
X179115083Y-111816961D01*
X179167887Y-111771206D01*
X179219393Y-111760000D01*
X181003400Y-111760000D01*
X181070439Y-111779685D01*
G37*
%TD.AperFunction*%
%TD*%
%TA.AperFunction,Conductor*%
%TO.N,GND*%
G36*
X180283541Y-75066185D02*
G01*
X180329296Y-75118989D01*
X180340502Y-75170500D01*
X180340502Y-75438752D01*
X180352133Y-75497229D01*
X180352134Y-75497230D01*
X180403235Y-75573707D01*
X180399513Y-75576193D01*
X180421478Y-75616419D01*
X180416494Y-75686111D01*
X180374622Y-75742044D01*
X180343647Y-75758958D01*
X180298916Y-75775642D01*
X180298906Y-75775647D01*
X180183812Y-75861807D01*
X180183809Y-75861810D01*
X180097649Y-75976904D01*
X180097645Y-75976911D01*
X180047403Y-76111618D01*
X180047401Y-76111625D01*
X180041000Y-76171153D01*
X180041000Y-76668998D01*
X181017000Y-76668998D01*
X181084039Y-76688683D01*
X181129794Y-76741487D01*
X181141000Y-76792998D01*
X181141000Y-76918998D01*
X181267000Y-76918998D01*
X181334039Y-76938683D01*
X181379794Y-76991487D01*
X181391000Y-77042998D01*
X181391000Y-78118998D01*
X181595483Y-78118998D01*
X181662522Y-78138683D01*
X181708277Y-78191487D01*
X181718221Y-78260645D01*
X181689196Y-78324201D01*
X181683164Y-78330679D01*
X181056163Y-78957681D01*
X180994840Y-78991166D01*
X180968482Y-78994000D01*
X179633900Y-78994000D01*
X179566861Y-78974315D01*
X179521106Y-78921511D01*
X179509900Y-78870000D01*
X179509900Y-77666842D01*
X180041000Y-77666842D01*
X180047401Y-77726370D01*
X180047403Y-77726377D01*
X180097645Y-77861084D01*
X180097649Y-77861091D01*
X180183809Y-77976185D01*
X180183812Y-77976188D01*
X180298906Y-78062348D01*
X180298913Y-78062352D01*
X180433620Y-78112594D01*
X180433627Y-78112596D01*
X180493155Y-78118997D01*
X180493172Y-78118998D01*
X180891000Y-78118998D01*
X180891000Y-77168998D01*
X180041000Y-77168998D01*
X180041000Y-77666842D01*
X179509900Y-77666842D01*
X179509900Y-75639617D01*
X179529585Y-75572578D01*
X179546219Y-75551936D01*
X180015336Y-75082819D01*
X180042263Y-75068115D01*
X180068082Y-75051523D01*
X180074282Y-75050631D01*
X180076659Y-75049334D01*
X180103017Y-75046500D01*
X180216502Y-75046500D01*
X180283541Y-75066185D01*
G37*
%TD.AperFunction*%
%TA.AperFunction,Conductor*%
G36*
X186760039Y-71520685D02*
G01*
X186805794Y-71573489D01*
X186817000Y-71625000D01*
X186817000Y-77907500D01*
X186797315Y-77974539D01*
X186744511Y-78020294D01*
X186693000Y-78031500D01*
X183593312Y-78031500D01*
X183526273Y-78011815D01*
X183480518Y-77959011D01*
X183470574Y-77889853D01*
X183499599Y-77826297D01*
X183524421Y-77804398D01*
X183585550Y-77763552D01*
X183610390Y-77726377D01*
X183629865Y-77697231D01*
X183629865Y-77697229D01*
X183629866Y-77697229D01*
X183641497Y-77638752D01*
X183641498Y-77638750D01*
X183641498Y-77428147D01*
X183661183Y-77361108D01*
X183713987Y-77315353D01*
X183783145Y-77305409D01*
X183846701Y-77334434D01*
X183882539Y-77387192D01*
X183901883Y-77442475D01*
X183901884Y-77442476D01*
X183980288Y-77548710D01*
X183980289Y-77548711D01*
X184086523Y-77627115D01*
X184086524Y-77627115D01*
X184086525Y-77627116D01*
X184211151Y-77670725D01*
X184211150Y-77670725D01*
X184240740Y-77673500D01*
X184240744Y-77673500D01*
X184821260Y-77673500D01*
X184850849Y-77670725D01*
X184861946Y-77666842D01*
X184975475Y-77627116D01*
X185081711Y-77548711D01*
X185160116Y-77442475D01*
X185203725Y-77317849D01*
X185206500Y-77288256D01*
X185206500Y-76582744D01*
X185203725Y-76553151D01*
X185160116Y-76428525D01*
X185091505Y-76335559D01*
X185067535Y-76269933D01*
X185082850Y-76201762D01*
X185126180Y-76156389D01*
X185229039Y-76092945D01*
X185350946Y-75971038D01*
X185350949Y-75971034D01*
X185441450Y-75824311D01*
X185441455Y-75824300D01*
X185495682Y-75660652D01*
X185506001Y-75559654D01*
X185506002Y-75559641D01*
X185506002Y-75460500D01*
X184655002Y-75460500D01*
X184587963Y-75440815D01*
X184542208Y-75388011D01*
X184531002Y-75336500D01*
X184531002Y-75210500D01*
X184405002Y-75210500D01*
X184337963Y-75190815D01*
X184292208Y-75138011D01*
X184281002Y-75086500D01*
X184281002Y-74960500D01*
X184781002Y-74960500D01*
X185506001Y-74960500D01*
X185506001Y-74861360D01*
X185506000Y-74861345D01*
X185495682Y-74760347D01*
X185441455Y-74596699D01*
X185441450Y-74596688D01*
X185350949Y-74449965D01*
X185350946Y-74449961D01*
X185229040Y-74328055D01*
X185229036Y-74328052D01*
X185082313Y-74237551D01*
X185082302Y-74237546D01*
X184918654Y-74183319D01*
X184817656Y-74173000D01*
X184781002Y-74173000D01*
X184781002Y-74960500D01*
X184281002Y-74960500D01*
X184281002Y-74173000D01*
X184244363Y-74173000D01*
X184244345Y-74173001D01*
X184143350Y-74183319D01*
X184104002Y-74196357D01*
X184034173Y-74198757D01*
X183974132Y-74163024D01*
X183942941Y-74100503D01*
X183941000Y-74078650D01*
X183941000Y-73971174D01*
X183940999Y-73971157D01*
X183934598Y-73911629D01*
X183934596Y-73911622D01*
X183884354Y-73776915D01*
X183884350Y-73776908D01*
X183798191Y-73661816D01*
X183791915Y-73655539D01*
X183793383Y-73654070D01*
X183758570Y-73607561D01*
X183753589Y-73537870D01*
X183769217Y-73499133D01*
X183799951Y-73449306D01*
X183854180Y-73285654D01*
X183864499Y-73184656D01*
X183864500Y-73184643D01*
X183864500Y-73148002D01*
X183077000Y-73148002D01*
X183077000Y-73407557D01*
X183088166Y-73428006D01*
X183091000Y-73454364D01*
X183091000Y-74595002D01*
X183071315Y-74662041D01*
X183018511Y-74707796D01*
X182967000Y-74719002D01*
X182715000Y-74719002D01*
X182647961Y-74699317D01*
X182602206Y-74646513D01*
X182591000Y-74595002D01*
X182591000Y-73984446D01*
X182579834Y-73963998D01*
X182577000Y-73937640D01*
X182577000Y-72648002D01*
X183077000Y-72648002D01*
X183864499Y-72648002D01*
X183864499Y-72611362D01*
X183864498Y-72611347D01*
X183854180Y-72510349D01*
X183799953Y-72346701D01*
X183799948Y-72346690D01*
X183709447Y-72199967D01*
X183709444Y-72199963D01*
X183587538Y-72078057D01*
X183587534Y-72078054D01*
X183440811Y-71987553D01*
X183440800Y-71987548D01*
X183277152Y-71933321D01*
X183176154Y-71923002D01*
X183077000Y-71923002D01*
X183077000Y-72648002D01*
X182577000Y-72648002D01*
X182577000Y-71923001D01*
X182477860Y-71923002D01*
X182477844Y-71923003D01*
X182376847Y-71933321D01*
X182213199Y-71987548D01*
X182213188Y-71987553D01*
X182066465Y-72078054D01*
X182066461Y-72078057D01*
X181944554Y-72199964D01*
X181881110Y-72302822D01*
X181829161Y-72349546D01*
X181760199Y-72360767D01*
X181701940Y-72337494D01*
X181608975Y-72268884D01*
X181565365Y-72253624D01*
X181484348Y-72225274D01*
X181484349Y-72225274D01*
X181454760Y-72222500D01*
X181454756Y-72222500D01*
X180749244Y-72222500D01*
X180749240Y-72222500D01*
X180719650Y-72225274D01*
X180595023Y-72268884D01*
X180488789Y-72347288D01*
X180488788Y-72347289D01*
X180410384Y-72453523D01*
X180366774Y-72578150D01*
X180364000Y-72607739D01*
X180364000Y-73188260D01*
X180366774Y-73217849D01*
X180410384Y-73342476D01*
X180488788Y-73448710D01*
X180488789Y-73448711D01*
X180595023Y-73527115D01*
X180595024Y-73527115D01*
X180595025Y-73527116D01*
X180625758Y-73537870D01*
X180726774Y-73573218D01*
X180726004Y-73575418D01*
X180742823Y-73584617D01*
X180770705Y-73597350D01*
X180773198Y-73601229D01*
X180777242Y-73603441D01*
X180791909Y-73630345D01*
X180808479Y-73656128D01*
X180809379Y-73662389D01*
X180810686Y-73664786D01*
X180813502Y-73691063D01*
X180813502Y-73694500D01*
X180793817Y-73761539D01*
X180741013Y-73807294D01*
X180689502Y-73818500D01*
X180521249Y-73818500D01*
X180462772Y-73830131D01*
X180462771Y-73830132D01*
X180396449Y-73874447D01*
X180352134Y-73940769D01*
X180352133Y-73940770D01*
X180340502Y-73999247D01*
X180340502Y-74267500D01*
X180320817Y-74334539D01*
X180268013Y-74380294D01*
X180216502Y-74391500D01*
X179959116Y-74391500D01*
X179872884Y-74391500D01*
X179817354Y-74406379D01*
X179789589Y-74413819D01*
X179714911Y-74456934D01*
X179714908Y-74456936D01*
X179281681Y-74890164D01*
X179220358Y-74923649D01*
X179150666Y-74918665D01*
X179094733Y-74876793D01*
X179070316Y-74811329D01*
X179070000Y-74802483D01*
X179070000Y-73076362D01*
X179089685Y-73009323D01*
X179106319Y-72988681D01*
X180557681Y-71537319D01*
X180619004Y-71503834D01*
X180645362Y-71501000D01*
X186693000Y-71501000D01*
X186760039Y-71520685D01*
G37*
%TD.AperFunction*%
%TD*%
%TA.AperFunction,Conductor*%
%TO.N,Net-(J4-Pin_3)*%
G36*
X180664039Y-106064685D02*
G01*
X180709794Y-106117489D01*
X180721000Y-106169000D01*
X180721000Y-107826000D01*
X180701315Y-107893039D01*
X180648511Y-107938794D01*
X180597000Y-107950000D01*
X179857399Y-107950000D01*
X179857399Y-109730999D01*
X179837714Y-109798038D01*
X179784910Y-109843793D01*
X179733399Y-109854999D01*
X178841399Y-109854999D01*
X178841399Y-112144000D01*
X178821714Y-112211039D01*
X178768910Y-112256794D01*
X178717399Y-112268000D01*
X178206399Y-112268000D01*
X175917399Y-112267999D01*
X175850359Y-112248314D01*
X175804605Y-112195510D01*
X175793399Y-112143999D01*
X175793399Y-111690802D01*
X176050600Y-111690802D01*
X176062202Y-111749133D01*
X176062203Y-111749134D01*
X176106408Y-111815291D01*
X176172565Y-111859496D01*
X176172566Y-111859497D01*
X176230897Y-111871099D01*
X176230901Y-111871100D01*
X176813400Y-111871100D01*
X177313400Y-111871100D01*
X177895899Y-111871100D01*
X177895902Y-111871099D01*
X177954233Y-111859497D01*
X177954234Y-111859496D01*
X178020391Y-111815291D01*
X178064596Y-111749134D01*
X178064597Y-111749133D01*
X178076199Y-111690802D01*
X178076200Y-111690799D01*
X178076200Y-111476600D01*
X177313400Y-111476600D01*
X177313400Y-111871100D01*
X176813400Y-111871100D01*
X176813400Y-111476600D01*
X176050600Y-111476600D01*
X176050600Y-111690802D01*
X175793399Y-111690802D01*
X175793399Y-110762397D01*
X176050600Y-110762397D01*
X176050600Y-110976600D01*
X176813400Y-110976600D01*
X177313400Y-110976600D01*
X178076200Y-110976600D01*
X178076200Y-110762401D01*
X178076199Y-110762397D01*
X178064597Y-110704066D01*
X178064596Y-110704065D01*
X178020391Y-110637908D01*
X177954234Y-110593703D01*
X177954233Y-110593702D01*
X177895902Y-110582100D01*
X177313400Y-110582100D01*
X177313400Y-110976600D01*
X176813400Y-110976600D01*
X176813400Y-110582100D01*
X176230897Y-110582100D01*
X176172566Y-110593702D01*
X176172565Y-110593703D01*
X176106408Y-110637908D01*
X176062203Y-110704065D01*
X176062202Y-110704066D01*
X176050600Y-110762397D01*
X175793399Y-110762397D01*
X175793399Y-110232999D01*
X175813084Y-110165960D01*
X175865888Y-110120205D01*
X175917398Y-110108999D01*
X177317399Y-110109001D01*
X177317399Y-110109000D01*
X177317399Y-109104196D01*
X177763402Y-109104196D01*
X177766252Y-109134606D01*
X177811054Y-109262645D01*
X177891608Y-109371792D01*
X178000755Y-109452346D01*
X178128798Y-109497149D01*
X178159193Y-109499999D01*
X178375900Y-109499999D01*
X178875901Y-109499999D01*
X179092597Y-109499999D01*
X179123007Y-109497148D01*
X179251046Y-109452346D01*
X179360193Y-109371792D01*
X179440747Y-109262645D01*
X179485550Y-109134604D01*
X179485550Y-109134600D01*
X179488401Y-109104206D01*
X179488401Y-108200000D01*
X178875901Y-108200000D01*
X178875901Y-109499999D01*
X178375900Y-109499999D01*
X178375901Y-109499998D01*
X178375901Y-108200000D01*
X177763402Y-108200000D01*
X177763402Y-109104196D01*
X177317399Y-109104196D01*
X177317399Y-106795793D01*
X177763401Y-106795793D01*
X177763401Y-107700000D01*
X178375901Y-107700000D01*
X178875901Y-107700000D01*
X179488400Y-107700000D01*
X179488400Y-106795803D01*
X179485549Y-106765393D01*
X179440747Y-106637354D01*
X179360193Y-106528207D01*
X179251046Y-106447653D01*
X179123003Y-106402850D01*
X179092608Y-106400000D01*
X178875901Y-106400000D01*
X178875901Y-107700000D01*
X178375901Y-107700000D01*
X178375901Y-106400000D01*
X178159205Y-106400000D01*
X178128794Y-106402851D01*
X178000755Y-106447653D01*
X177891608Y-106528207D01*
X177811054Y-106637354D01*
X177766251Y-106765395D01*
X177766251Y-106765399D01*
X177763401Y-106795793D01*
X177317399Y-106795793D01*
X177317399Y-106169000D01*
X177337084Y-106101961D01*
X177389888Y-106056206D01*
X177441399Y-106045000D01*
X180597000Y-106045000D01*
X180664039Y-106064685D01*
G37*
%TD.AperFunction*%
%TD*%
M02*
