%TF.GenerationSoftware,KiCad,Pcbnew,9.0.0*%
%TF.CreationDate,2025-07-29T16:04:19+02:00*%
%TF.ProjectId,ATXMEGA256_Miniboard,4154584d-4547-4413-9235-365f4d696e69,1.0*%
%TF.SameCoordinates,Original*%
%TF.FileFunction,Paste,Top*%
%TF.FilePolarity,Positive*%
%FSLAX46Y46*%
G04 Gerber Fmt 4.6, Leading zero omitted, Abs format (unit mm)*
G04 Created by KiCad (PCBNEW 9.0.0) date 2025-07-29 16:04:19*
%MOMM*%
%LPD*%
G01*
G04 APERTURE LIST*
G04 Aperture macros list*
%AMRoundRect*
0 Rectangle with rounded corners*
0 $1 Rounding radius*
0 $2 $3 $4 $5 $6 $7 $8 $9 X,Y pos of 4 corners*
0 Add a 4 corners polygon primitive as box body*
4,1,4,$2,$3,$4,$5,$6,$7,$8,$9,$2,$3,0*
0 Add four circle primitives for the rounded corners*
1,1,$1+$1,$2,$3*
1,1,$1+$1,$4,$5*
1,1,$1+$1,$6,$7*
1,1,$1+$1,$8,$9*
0 Add four rect primitives between the rounded corners*
20,1,$1+$1,$2,$3,$4,$5,0*
20,1,$1+$1,$4,$5,$6,$7,0*
20,1,$1+$1,$6,$7,$8,$9,0*
20,1,$1+$1,$8,$9,$2,$3,0*%
G04 Aperture macros list end*
%ADD10RoundRect,0.237500X-0.300000X-0.237500X0.300000X-0.237500X0.300000X0.237500X-0.300000X0.237500X0*%
%ADD11R,1.000000X2.500000*%
%ADD12R,3.000000X1.000000*%
%ADD13RoundRect,0.250000X0.475000X-0.337500X0.475000X0.337500X-0.475000X0.337500X-0.475000X-0.337500X0*%
%ADD14RoundRect,0.250000X-0.475000X0.337500X-0.475000X-0.337500X0.475000X-0.337500X0.475000X0.337500X0*%
%ADD15RoundRect,0.237500X-0.237500X0.300000X-0.237500X-0.300000X0.237500X-0.300000X0.237500X0.300000X0*%
%ADD16RoundRect,0.250000X0.337500X0.475000X-0.337500X0.475000X-0.337500X-0.475000X0.337500X-0.475000X0*%
%ADD17R,0.900000X0.800000*%
%ADD18RoundRect,0.250000X0.450000X-0.350000X0.450000X0.350000X-0.450000X0.350000X-0.450000X-0.350000X0*%
%ADD19R,2.100000X1.400000*%
%ADD20R,0.400000X1.350000*%
%ADD21R,1.800000X1.900000*%
%ADD22R,2.100000X1.600000*%
%ADD23R,1.900000X1.900000*%
%ADD24RoundRect,0.250000X0.350000X-0.275000X0.350000X0.275000X-0.350000X0.275000X-0.350000X-0.275000X0*%
%ADD25R,1.473200X0.508000*%
%ADD26R,0.508000X1.473200*%
%ADD27RoundRect,0.237500X0.300000X0.237500X-0.300000X0.237500X-0.300000X-0.237500X0.300000X-0.237500X0*%
%ADD28RoundRect,0.250000X-0.450000X0.325000X-0.450000X-0.325000X0.450000X-0.325000X0.450000X0.325000X0*%
%ADD29RoundRect,0.250000X-0.325000X-0.450000X0.325000X-0.450000X0.325000X0.450000X-0.325000X0.450000X0*%
%ADD30RoundRect,0.250000X0.412500X1.100000X-0.412500X1.100000X-0.412500X-1.100000X0.412500X-1.100000X0*%
%ADD31RoundRect,0.250000X1.100000X-0.412500X1.100000X0.412500X-1.100000X0.412500X-1.100000X-0.412500X0*%
%ADD32RoundRect,0.237500X0.237500X-0.250000X0.237500X0.250000X-0.237500X0.250000X-0.237500X-0.250000X0*%
%ADD33RoundRect,0.250000X-0.412500X-1.100000X0.412500X-1.100000X0.412500X1.100000X-0.412500X1.100000X0*%
%ADD34R,1.625600X0.889000*%
%ADD35R,1.625600X3.175000*%
%ADD36RoundRect,0.237500X-0.250000X-0.237500X0.250000X-0.237500X0.250000X0.237500X-0.250000X0.237500X0*%
%ADD37RoundRect,0.250000X-0.337500X-0.475000X0.337500X-0.475000X0.337500X0.475000X-0.337500X0.475000X0*%
%ADD38R,1.200000X1.400000*%
G04 APERTURE END LIST*
D10*
%TO.C,C13*%
X187701500Y-135902001D03*
X189426500Y-135902003D03*
%TD*%
D11*
%TO.C,Y1*%
X195540000Y-83625002D03*
X198080000Y-83625002D03*
%TD*%
D12*
%TO.C,J14*%
X209342000Y-118259649D03*
X214382000Y-118259649D03*
X209342000Y-115719649D03*
X214382000Y-115719649D03*
X209342000Y-113179649D03*
X214382000Y-113179649D03*
X209342000Y-110639649D03*
X214382000Y-110639649D03*
X209342000Y-108099649D03*
X214382000Y-108099649D03*
%TD*%
D13*
%TO.C,C3*%
X191095000Y-88018502D03*
X191095000Y-85943502D03*
%TD*%
%TO.C,C8*%
X177673000Y-74189500D03*
X177673000Y-72114500D03*
%TD*%
D14*
%TO.C,C1*%
X171029000Y-94884302D03*
X171029000Y-96959302D03*
%TD*%
D12*
%TO.C,J10*%
X209342000Y-52413654D03*
X214382000Y-52413654D03*
X209342000Y-49873654D03*
X214382000Y-49873654D03*
X209342000Y-47333654D03*
X214382000Y-47333654D03*
X209342000Y-44793654D03*
X214382000Y-44793654D03*
X209342000Y-42253654D03*
X214382000Y-42253654D03*
%TD*%
D10*
%TO.C,C9*%
X193661500Y-86854001D03*
X195386500Y-86854003D03*
%TD*%
D15*
%TO.C,C11*%
X184531002Y-75210500D03*
X184531000Y-76935500D03*
%TD*%
D12*
%TO.C,J13*%
X209342000Y-101759649D03*
X214382000Y-101759649D03*
X209342000Y-99219649D03*
X214382000Y-99219649D03*
X209342000Y-96679649D03*
X214382000Y-96679649D03*
X209342000Y-94139649D03*
X214382000Y-94139649D03*
X209342000Y-91599649D03*
X214382000Y-91599649D03*
%TD*%
D16*
%TO.C,C2*%
X184745000Y-80935801D03*
X182670000Y-80935801D03*
%TD*%
D17*
%TO.C,Q1*%
X180127400Y-110810000D03*
X180127400Y-112710000D03*
X182127400Y-111760000D03*
%TD*%
D18*
%TO.C,R3*%
X195072000Y-117586001D03*
X195072000Y-115585999D03*
%TD*%
D19*
%TO.C,SW1*%
X172950000Y-65500000D03*
X182050000Y-65500000D03*
X172950000Y-70000000D03*
X182050000Y-70000000D03*
%TD*%
D20*
%TO.C,J1*%
X194026000Y-134112002D03*
X194676000Y-134112002D03*
X195326000Y-134112002D03*
X195976000Y-134112002D03*
X196626000Y-134112002D03*
D21*
X191526000Y-136787002D03*
D22*
X192226000Y-134237002D03*
D23*
X194126000Y-136787002D03*
X196526000Y-136787002D03*
D22*
X198426000Y-134237002D03*
D21*
X199126000Y-136787002D03*
%TD*%
D24*
%TO.C,L2*%
X185674000Y-107315000D03*
X185674002Y-105015004D03*
%TD*%
D25*
%TO.C,U1*%
X173569000Y-84923602D03*
X173569000Y-85711002D03*
X173569000Y-86523802D03*
X173569000Y-87311202D03*
X173569000Y-88124002D03*
X173569000Y-88911402D03*
X173569000Y-89724202D03*
X173569000Y-90511602D03*
X173569000Y-91324402D03*
X173569000Y-92111802D03*
X173569000Y-92924602D03*
X173569000Y-93712002D03*
X173569000Y-94524802D03*
X173569000Y-95312202D03*
X173569000Y-96125002D03*
X173569000Y-96912402D03*
D26*
X175194600Y-98538002D03*
X175982000Y-98538002D03*
X176794800Y-98538002D03*
X177582200Y-98538002D03*
X178395000Y-98538002D03*
X179182400Y-98538002D03*
X179995200Y-98538002D03*
X180782600Y-98538002D03*
X181595400Y-98538002D03*
X182382800Y-98538002D03*
X183195600Y-98538002D03*
X183983000Y-98538002D03*
X184795800Y-98538002D03*
X185583200Y-98538002D03*
X186396000Y-98538002D03*
X187183400Y-98538002D03*
D25*
X188809000Y-96912402D03*
X188809000Y-96125002D03*
X188809000Y-95312202D03*
X188809000Y-94524802D03*
X188809000Y-93712002D03*
X188809000Y-92924602D03*
X188809000Y-92111802D03*
X188809000Y-91324402D03*
X188809000Y-90511602D03*
X188809000Y-89724202D03*
X188809000Y-88911402D03*
X188809000Y-88124002D03*
X188809000Y-87311202D03*
X188809000Y-86523802D03*
X188809000Y-85711002D03*
X188809000Y-84923602D03*
D26*
X187183400Y-83298002D03*
X186396000Y-83298002D03*
X185583200Y-83298002D03*
X184795800Y-83298002D03*
X183983000Y-83298002D03*
X183195600Y-83298002D03*
X182382800Y-83298002D03*
X181595400Y-83298002D03*
X180782600Y-83298002D03*
X179995200Y-83298002D03*
X179182400Y-83298002D03*
X178395000Y-83298002D03*
X177582200Y-83298002D03*
X176794800Y-83298002D03*
X175982000Y-83298002D03*
X175194600Y-83298002D03*
%TD*%
D27*
%TO.C,C10*%
X199297000Y-86854003D03*
X197572000Y-86854001D03*
%TD*%
D28*
%TO.C,D1*%
X195072000Y-111369999D03*
X195072000Y-113420001D03*
%TD*%
D29*
%TO.C,L1*%
X171010998Y-80504001D03*
X173061000Y-80504001D03*
%TD*%
D30*
%TO.C,C16*%
X192990002Y-101219000D03*
X189865000Y-101219000D03*
%TD*%
D31*
%TO.C,C14*%
X180492399Y-118275501D03*
X180492399Y-115150499D03*
%TD*%
D30*
%TO.C,C6*%
X177163501Y-77633803D03*
X174038499Y-77633803D03*
%TD*%
D32*
%TO.C,R1*%
X175641000Y-73810500D03*
X175641000Y-71985500D03*
%TD*%
D12*
%TO.C,J15*%
X209342001Y-134759648D03*
X214382001Y-134759648D03*
X209342001Y-132219648D03*
X214382001Y-132219648D03*
X209342001Y-129679648D03*
X214382001Y-129679648D03*
X209342001Y-127139648D03*
X214382001Y-127139648D03*
X209342001Y-124599648D03*
X214382001Y-124599648D03*
%TD*%
%TO.C,J12*%
X209342000Y-85259649D03*
X214382000Y-85259649D03*
X209342000Y-82719649D03*
X214382000Y-82719649D03*
X209342000Y-80179649D03*
X214382000Y-80179649D03*
X209342000Y-77639649D03*
X214382000Y-77639649D03*
X209342000Y-75099649D03*
X214382000Y-75099649D03*
%TD*%
D27*
%TO.C,C12*%
X182827000Y-72898002D03*
X181102000Y-72898000D03*
%TD*%
D33*
%TO.C,C15*%
X175500899Y-107950000D03*
X178625901Y-107950000D03*
%TD*%
D34*
%TO.C,U2*%
X177063401Y-115849401D03*
X177063400Y-113538001D03*
X177063400Y-111226600D03*
D35*
X170662600Y-113537999D03*
%TD*%
D16*
%TO.C,C7*%
X177273500Y-80554803D03*
X175198500Y-80554803D03*
%TD*%
D36*
%TO.C,R2*%
X187651500Y-134124002D03*
X189476500Y-134124002D03*
%TD*%
%TO.C,R4*%
X180697500Y-109093000D03*
X182522500Y-109093000D03*
%TD*%
D37*
%TO.C,C5*%
X180405501Y-101219000D03*
X182480501Y-101219000D03*
%TD*%
D13*
%TO.C,C4*%
X191348999Y-96451302D03*
X191348999Y-94376302D03*
%TD*%
D12*
%TO.C,J11*%
X209342000Y-68759649D03*
X214382000Y-68759649D03*
X209342000Y-66219649D03*
X214382000Y-66219649D03*
X209342000Y-63679649D03*
X214382000Y-63679649D03*
X209342000Y-61139649D03*
X214382000Y-61139649D03*
X209342000Y-58599649D03*
X214382000Y-58599649D03*
%TD*%
D38*
%TO.C,Y2*%
X181141002Y-74719000D03*
X181141000Y-76918998D03*
X182840998Y-76919000D03*
X182841000Y-74719002D03*
%TD*%
M02*
