M48
;Layer_Color=9474304
;FILE_FORMAT=4:4
METRIC,LZ
;TYPE=PLATED
T01F00S00C0.7620
T02F00S00C0.8968
%
T01
X0085979Y0062738
X0088138Y0071501
X0090043Y0069977
X0092202Y0071501
X0094996Y0071628
X0093853Y0069977
X00936582Y00771568
X0091948Y0084836
X009144Y0090932
X0095377Y0089662
X0100076Y0089154
X0098298Y0093091
X0099568Y0100203
X0107188Y0096139
X01064372Y0105486
X0085217Y0103124
X00849486Y0085344
X00825356Y00857394
X0080645Y0084836
X00835025Y00835795
X0085852Y0082423
X0108585Y0080645
X0109601Y0084455
T02
X0113538Y0058039
Y0060579
Y0063119
Y0065659
Y0068199
Y0070739
Y0073279
Y0075819
Y0078359
X0075311Y0078105
Y0075565
Y0073025
Y0070485
Y0067945
Y0065405
Y0062865
Y0060325
Y0057785
Y0080645
Y0083185
Y0085725
Y0088265
Y0090805
Y0093345
Y0095885
Y0098425
Y0100965
Y0103505
Y0106045
X0113538Y0106299
Y0103759
Y0101219
Y0098679
Y0096139
Y0093599
Y0091059
Y0088519
Y0085979
Y0083439
Y0080899
M30
