G04*
G04 #@! TF.GenerationSoftware,Altium Limited,Altium Designer,24.3.1 (35)*
G04*
G04 Layer_Color=65535*
%FSLAX25Y25*%
%MOIN*%
G70*
G04*
G04 #@! TF.SameCoordinates,2C43556E-CA56-414C-B847-F3BA9A1E951D*
G04*
G04*
G04 #@! TF.FilePolarity,Positive*
G04*
G01*
G75*
%ADD10C,0.00984*%
%ADD11C,0.02362*%
%ADD12C,0.00800*%
%ADD13C,0.00787*%
%ADD14C,0.00600*%
%ADD15C,0.01000*%
D10*
X414579Y406634D02*
G03*
X414579Y406634I-492J0D01*
G01*
X351677Y382469D02*
G03*
X351677Y382469I-492J0D01*
G01*
X377114Y272230D02*
G03*
X377114Y272230I-492J0D01*
G01*
X371989Y402925D02*
G03*
X371989Y402925I-492J0D01*
G01*
D11*
X362012Y376169D02*
G03*
X362012Y376169I-1181J0D01*
G01*
D12*
X383000Y410500D02*
X390000D01*
X383000D02*
Y423500D01*
X390000D01*
Y410500D02*
Y423500D01*
X411000Y395000D02*
X418000D01*
Y382000D02*
Y395000D01*
X411000Y382000D02*
X418000D01*
X411000D02*
Y395000D01*
X392500Y425000D02*
X399500D01*
Y412000D02*
Y425000D01*
X392500Y412000D02*
X399500D01*
X392500D02*
Y425000D01*
X418000Y382000D02*
X425000D01*
X418000D02*
Y395000D01*
X425000D01*
Y382000D02*
Y395000D01*
X392500Y412500D02*
X399500D01*
Y399500D02*
Y412500D01*
X392500Y399500D02*
X399500D01*
X392500D02*
Y412500D01*
X357000Y397000D02*
X364000D01*
X357000D02*
Y410000D01*
X364000D01*
Y397000D02*
Y410000D01*
X368500Y424500D02*
X375500D01*
Y411500D02*
Y424500D01*
X368500Y411500D02*
X375500D01*
X368500D02*
Y424500D01*
X400500Y411500D02*
Y418500D01*
X413500D01*
Y411500D02*
Y418500D01*
X400500Y411500D02*
X413500D01*
X388500Y299500D02*
Y306500D01*
X375500Y299500D02*
X388500D01*
X375500D02*
Y306500D01*
X388500D01*
X420500Y338500D02*
X427500D01*
Y325500D02*
Y338500D01*
X420500Y325500D02*
X427500D01*
X420500D02*
Y338500D01*
X416500Y368500D02*
Y375500D01*
X429500D01*
Y368500D02*
Y375500D01*
X416500Y368500D02*
X429500D01*
X338000Y327000D02*
X345000D01*
X338000D02*
Y340000D01*
X345000D01*
Y327000D02*
Y340000D01*
X421500Y398000D02*
X428500D01*
X421500D02*
Y411000D01*
X428500D01*
Y398000D02*
Y411000D01*
X400500Y418500D02*
Y425500D01*
X413500D01*
Y418500D02*
Y425500D01*
X400500Y418500D02*
X413500D01*
X349500Y397000D02*
X356500D01*
X349500D02*
Y410000D01*
X356500D01*
Y397000D02*
Y410000D01*
X342500Y397000D02*
X349500D01*
X342500D02*
Y410000D01*
X349500D01*
Y397000D02*
Y410000D01*
D13*
X413102Y398957D02*
Y400925D01*
X409756Y398957D02*
X413102D01*
X400898D02*
Y400925D01*
Y398957D02*
X404244D01*
X356894Y330894D02*
Y380106D01*
X406106Y330894D02*
Y380106D01*
X356894D02*
X406106D01*
X356894Y330894D02*
X406106D01*
X380559Y246921D02*
Y262933D01*
X341189D02*
X341642D01*
X348610D02*
X349516D01*
X356484D02*
X357390D01*
X364358D02*
X365264D01*
X372232D02*
X373138D01*
X380106D02*
X380559D01*
X341189Y246921D02*
Y262933D01*
Y246921D02*
X341642D01*
X348610D02*
X349516D01*
X356484D02*
X357390D01*
X364358D02*
X365264D01*
X372232D02*
X373138D01*
X380106D02*
X380559D01*
X441705Y424090D02*
X452295D01*
X441705Y222909D02*
Y424090D01*
Y222909D02*
X452295D01*
Y424090D01*
X291205Y221909D02*
X301795D01*
Y423091D01*
X291205D02*
X301795D01*
X291205Y221909D02*
Y423091D01*
X382562Y395756D02*
X389244Y402438D01*
X369756Y408562D02*
X376438Y415244D01*
D14*
X440307Y316020D02*
Y317353D01*
Y316686D01*
X436308D01*
X436975Y316020D01*
Y319352D02*
X436308Y320018D01*
Y321351D01*
X436975Y322018D01*
X439641D01*
X440307Y321351D01*
Y320018D01*
X439641Y319352D01*
X436975D01*
X440307Y228028D02*
Y229361D01*
Y228694D01*
X436308D01*
X436975Y228028D01*
X440307Y418685D02*
Y416020D01*
X437641Y418685D01*
X436975D01*
X436308Y418019D01*
Y416686D01*
X436975Y416020D01*
Y420018D02*
X436308Y420685D01*
Y422018D01*
X436975Y422684D01*
X439641D01*
X440307Y422018D01*
Y420685D01*
X439641Y420018D01*
X436975D01*
X303193Y329980D02*
Y328647D01*
Y329314D01*
X307192D01*
X306525Y329980D01*
Y326648D02*
X307192Y325982D01*
Y324649D01*
X306525Y323982D01*
X303859D01*
X303193Y324649D01*
Y325982D01*
X303859Y326648D01*
X306525D01*
X303193Y417972D02*
Y416640D01*
Y417306D01*
X307192D01*
X306525Y417972D01*
X303193Y227314D02*
Y229980D01*
X305859Y227314D01*
X306525D01*
X307192Y227981D01*
Y229314D01*
X306525Y229980D01*
Y225982D02*
X307192Y225315D01*
Y223982D01*
X306525Y223316D01*
X303859D01*
X303193Y223982D01*
Y225315D01*
X303859Y225982D01*
X306525D01*
D15*
X398800Y419198D02*
Y414200D01*
X399800Y413200D01*
X401799D01*
X402799Y414200D01*
Y419198D01*
X408797Y413200D02*
X404798D01*
X408797Y417199D01*
Y418198D01*
X407797Y419198D01*
X405798D01*
X404798Y418198D01*
X343100Y419398D02*
Y413400D01*
X347099D01*
X353097D02*
X349098D01*
X353097Y417399D01*
Y418398D01*
X352097Y419398D01*
X350098D01*
X349098Y418398D01*
X354099D02*
X353099Y419398D01*
X351100D01*
X350100Y418398D01*
Y414400D01*
X351100Y413400D01*
X353099D01*
X354099Y414400D01*
X356098Y413400D02*
X358097D01*
X357098D01*
Y419398D01*
X356098Y418398D01*
X361096D02*
X362096Y419398D01*
X364095D01*
X365095Y418398D01*
Y414400D01*
X364095Y413400D01*
X362096D01*
X361096Y414400D01*
Y418398D01*
X345399Y282198D02*
X343399D01*
X344399D01*
Y277200D01*
X343399Y276200D01*
X342400D01*
X341400Y277200D01*
X347398Y276200D02*
X349397D01*
X348398D01*
Y282198D01*
X347398Y281198D01*
X361599Y418398D02*
X360599Y419398D01*
X358600D01*
X357600Y418398D01*
Y414400D01*
X358600Y413400D01*
X360599D01*
X361599Y414400D01*
X363598Y413400D02*
X365597D01*
X364598D01*
Y419398D01*
X363598Y418398D01*
X368596Y413400D02*
X370596D01*
X369596D01*
Y419398D01*
X368596Y418398D01*
X345200Y398298D02*
Y393300D01*
X346200Y392300D01*
X348199D01*
X349199Y393300D01*
Y398298D01*
X351198Y392300D02*
X353197D01*
X352198D01*
Y398298D01*
X351198Y397298D01*
X436700Y428000D02*
Y433998D01*
X439699D01*
X440699Y432998D01*
Y430999D01*
X439699Y429999D01*
X436700D01*
X442698Y432998D02*
X443698Y433998D01*
X445697D01*
X446697Y432998D01*
Y431999D01*
X445697Y430999D01*
X444697D01*
X445697D01*
X446697Y429999D01*
Y429000D01*
X445697Y428000D01*
X443698D01*
X442698Y429000D01*
X291300Y427000D02*
Y432998D01*
X294299D01*
X295299Y431998D01*
Y429999D01*
X294299Y428999D01*
X291300D01*
X301297Y427000D02*
X297298D01*
X301297Y430999D01*
Y431998D01*
X300297Y432998D01*
X298298D01*
X297298Y431998D01*
X411400Y394100D02*
Y400098D01*
X414399D01*
X415399Y399098D01*
Y397099D01*
X414399Y396099D01*
X411400D01*
X413399D02*
X415399Y394100D01*
X421397D02*
X417398D01*
X421397Y398099D01*
Y399098D01*
X420397Y400098D01*
X418398D01*
X417398Y399098D01*
X418400Y400149D02*
Y394151D01*
X421399D01*
X422399Y395151D01*
Y399150D01*
X421399Y400149D01*
X418400D01*
X428397Y394151D02*
X424398D01*
X428397Y398150D01*
Y399150D01*
X427397Y400149D01*
X425398D01*
X424398Y399150D01*
X399100Y394402D02*
Y400400D01*
X396101D01*
X395101Y399400D01*
Y395402D01*
X396101Y394402D01*
X399100D01*
X393102Y400400D02*
X391103D01*
X392102D01*
Y394402D01*
X393102Y395402D01*
X372899Y428598D02*
X371899Y429598D01*
X369900D01*
X368900Y428598D01*
Y424600D01*
X369900Y423600D01*
X371899D01*
X372899Y424600D01*
X374898D02*
X375898Y423600D01*
X377897D01*
X378897Y424600D01*
Y428598D01*
X377897Y429598D01*
X375898D01*
X374898Y428598D01*
Y427599D01*
X375898Y426599D01*
X378897D01*
X385601Y406402D02*
X386601Y405402D01*
X388600D01*
X389600Y406402D01*
Y410400D01*
X388600Y411400D01*
X386601D01*
X385601Y410400D01*
X383602Y406402D02*
X382602Y405402D01*
X380603D01*
X379603Y406402D01*
Y407401D01*
X380603Y408401D01*
X379603Y409401D01*
Y410400D01*
X380603Y411400D01*
X382602D01*
X383602Y410400D01*
Y409401D01*
X382602Y408401D01*
X383602Y407401D01*
Y406402D01*
X382602Y408401D02*
X380603D01*
X434799Y430798D02*
X433799Y431798D01*
X431800D01*
X430800Y430798D01*
Y426800D01*
X431800Y425800D01*
X433799D01*
X434799Y426800D01*
X436798Y425800D02*
Y431798D01*
X439797D01*
X440797Y430798D01*
Y428799D01*
X439797Y427799D01*
X436798D01*
X442796Y425800D02*
X444796D01*
X443796D01*
Y431798D01*
X442796Y430798D01*
X399100Y412900D02*
Y406902D01*
X396101D01*
X395101Y407902D01*
Y409901D01*
X396101Y410901D01*
X399100D01*
X397101D02*
X395101Y412900D01*
X393102D02*
X391103D01*
X392102D01*
Y406902D01*
X393102Y407902D01*
X405899Y423598D02*
X404899Y424598D01*
X402900D01*
X401900Y423598D01*
Y419600D01*
X402900Y418600D01*
X404899D01*
X405899Y419600D01*
X407898Y424598D02*
X411897D01*
Y423598D01*
X407898Y419600D01*
Y418600D01*
X380899Y311598D02*
X379899Y312598D01*
X377900D01*
X376900Y311598D01*
Y307600D01*
X377900Y306600D01*
X379899D01*
X380899Y307600D01*
X386897Y312598D02*
X384897Y311598D01*
X382898Y309599D01*
Y307600D01*
X383898Y306600D01*
X385897D01*
X386897Y307600D01*
Y308599D01*
X385897Y309599D01*
X382898D01*
X424899Y342598D02*
X423899Y343598D01*
X421900D01*
X420900Y342598D01*
Y338600D01*
X421900Y337600D01*
X423899D01*
X424899Y338600D01*
X430897Y343598D02*
X426898D01*
Y340599D01*
X428897Y341599D01*
X429897D01*
X430897Y340599D01*
Y338600D01*
X429897Y337600D01*
X427898D01*
X426898Y338600D01*
X421899Y380598D02*
X420899Y381598D01*
X418900D01*
X417900Y380598D01*
Y376600D01*
X418900Y375600D01*
X420899D01*
X421899Y376600D01*
X426897Y375600D02*
Y381598D01*
X423898Y378599D01*
X427897D01*
X350098Y334601D02*
X351098Y335601D01*
Y337600D01*
X350098Y338600D01*
X346100D01*
X345100Y337600D01*
Y335601D01*
X346100Y334601D01*
X350098Y332602D02*
X351098Y331602D01*
Y329603D01*
X350098Y328603D01*
X349099D01*
X348099Y329603D01*
Y330603D01*
Y329603D01*
X347099Y328603D01*
X346100D01*
X345100Y329603D01*
Y331602D01*
X346100Y332602D01*
X425899Y415098D02*
X424899Y416098D01*
X422900D01*
X421900Y415098D01*
Y411100D01*
X422900Y410100D01*
X424899D01*
X425899Y411100D01*
X431897Y410100D02*
X427898D01*
X431897Y414099D01*
Y415098D01*
X430897Y416098D01*
X428898D01*
X427898Y415098D01*
X405899Y430598D02*
X404899Y431598D01*
X402900D01*
X401900Y430598D01*
Y426600D01*
X402900Y425600D01*
X404899D01*
X405899Y426600D01*
X407898Y425600D02*
X409897D01*
X408898D01*
Y431598D01*
X407898Y430598D01*
X381832Y421126D02*
X381125Y420419D01*
Y417591D01*
X383953Y417591D01*
X384660Y418298D01*
X381125Y417591D02*
X379005Y415471D01*
X381832Y412643D02*
X383246Y411229D01*
X382539Y411936D01*
X386780Y416178D01*
X385367D01*
M02*
