G04*
G04 #@! TF.GenerationSoftware,Altium Limited,Altium Designer,24.3.1 (35)*
G04*
G04 Layer_Physical_Order=1*
G04 Layer_Color=255*
%FSLAX25Y25*%
%MOIN*%
G70*
G04*
G04 #@! TF.SameCoordinates,2C43556E-CA56-414C-B847-F3BA9A1E951D*
G04*
G04*
G04 #@! TF.FilePolarity,Positive*
G04*
G01*
G75*
%ADD21R,0.04016X0.12658*%
G04:AMPARAMS|DCode=22|XSize=55.12mil|YSize=45.28mil|CornerRadius=0mil|HoleSize=0mil|Usage=FLASHONLY|Rotation=315.000|XOffset=0mil|YOffset=0mil|HoleType=Round|Shape=Rectangle|*
%AMROTATEDRECTD22*
4,1,4,-0.03550,0.00348,-0.00348,0.03550,0.03550,-0.00348,0.00348,-0.03550,-0.03550,0.00348,0.0*
%
%ADD22ROTATEDRECTD22*%

%ADD29R,0.06000X0.04000*%
%ADD30R,0.02362X0.08268*%
%ADD31O,0.08071X0.02362*%
%ADD32O,0.02362X0.08071*%
%ADD33R,0.04000X0.06000*%
%ADD34C,0.03000*%
%ADD35C,0.01500*%
%ADD36C,0.05000*%
%ADD37C,0.04000*%
%ADD38C,0.02000*%
%ADD39C,0.01600*%
%ADD40C,0.01400*%
%ADD41R,0.06500X0.06500*%
%ADD42C,0.06299*%
G04:AMPARAMS|DCode=43|XSize=62.99mil|YSize=62.99mil|CornerRadius=15.75mil|HoleSize=0mil|Usage=FLASHONLY|Rotation=90.000|XOffset=0mil|YOffset=0mil|HoleType=Round|Shape=RoundedRectangle|*
%AMROUNDEDRECTD43*
21,1,0.06299,0.03150,0,0,90.0*
21,1,0.03150,0.06299,0,0,90.0*
1,1,0.03150,0.01575,0.01575*
1,1,0.03150,0.01575,-0.01575*
1,1,0.03150,-0.01575,-0.01575*
1,1,0.03150,-0.01575,0.01575*
%
%ADD43ROUNDEDRECTD43*%
%ADD44C,0.06000*%
%ADD45C,0.05000*%
G36*
X456000Y219500D02*
X287854D01*
X287500Y219854D01*
X287512Y427450D01*
X287632Y427500D01*
X456000D01*
Y219500D01*
D02*
G37*
%LPC*%
G36*
X395000Y425500D02*
X392000D01*
Y423500D01*
X395000D01*
Y425500D01*
D02*
G37*
G36*
X414000Y426000D02*
X412000D01*
Y423000D01*
X414000D01*
Y426000D01*
D02*
G37*
G36*
X376000Y425000D02*
X373000D01*
Y423000D01*
X376000D01*
Y425000D01*
D02*
G37*
G36*
X371000D02*
X368000D01*
Y423000D01*
X371000D01*
Y425000D01*
D02*
G37*
G36*
X390500Y424000D02*
X387500D01*
Y422000D01*
X390500D01*
Y424000D01*
D02*
G37*
G36*
X385500D02*
X382500D01*
Y422000D01*
X385500D01*
Y424000D01*
D02*
G37*
G36*
X376000Y421000D02*
X373000D01*
Y419000D01*
X376000D01*
Y421000D01*
D02*
G37*
G36*
X371000D02*
X368000D01*
Y419000D01*
X371000D01*
Y421000D01*
D02*
G37*
G36*
X390500Y420000D02*
X387500D01*
Y418000D01*
X390500D01*
Y420000D01*
D02*
G37*
G36*
X385500D02*
X382500D01*
Y418000D01*
X385500D01*
Y420000D01*
D02*
G37*
G36*
X420044Y419172D02*
Y416299D01*
X422917D01*
X422771Y416843D01*
X422245Y417755D01*
X421500Y418500D01*
X420588Y419027D01*
X420044Y419172D01*
D02*
G37*
G36*
X418044D02*
X417500Y419027D01*
X416588Y418500D01*
X415843Y417755D01*
X415316Y416843D01*
X415171Y416299D01*
X418044D01*
Y419172D01*
D02*
G37*
G36*
Y414299D02*
X415171D01*
X415316Y413755D01*
X415843Y412843D01*
X416588Y412098D01*
X417500Y411572D01*
X418044Y411426D01*
Y414299D01*
D02*
G37*
G36*
X429000Y411500D02*
X426000D01*
Y409500D01*
X429000D01*
Y411500D01*
D02*
G37*
G36*
X422917Y414299D02*
X420044D01*
Y411426D01*
X420522Y411554D01*
X420758Y411432D01*
X421000Y411232D01*
Y409500D01*
X424000D01*
Y411500D01*
X421464D01*
X421330Y412000D01*
X421500Y412098D01*
X422245Y412843D01*
X422771Y413755D01*
X422917Y414299D01*
D02*
G37*
G36*
X364500Y410500D02*
X361500D01*
Y408500D01*
X364500D01*
Y410500D01*
D02*
G37*
G36*
X429000Y407500D02*
X426000D01*
Y405500D01*
X429000D01*
Y407500D01*
D02*
G37*
G36*
X424000D02*
X421000D01*
Y405500D01*
X424000D01*
Y407500D01*
D02*
G37*
G36*
X364500Y406500D02*
X361500D01*
Y404500D01*
X364500D01*
Y406500D01*
D02*
G37*
G36*
X359500Y410500D02*
X354000D01*
Y407500D01*
Y404500D01*
X359500D01*
Y407500D01*
Y410500D01*
D02*
G37*
G36*
X346000Y410526D02*
X337541D01*
X336758Y410423D01*
X336028Y410120D01*
X335871Y410000D01*
X334973D01*
X333956Y409727D01*
X333044Y409201D01*
X332299Y408456D01*
X331773Y407544D01*
X331500Y406527D01*
Y405473D01*
X331773Y404456D01*
X332299Y403544D01*
X333044Y402799D01*
X333956Y402273D01*
X334973Y402000D01*
X336027D01*
X337044Y402273D01*
X337956Y402799D01*
X338701Y403544D01*
X339227Y404456D01*
X339232Y404474D01*
X346000D01*
X346197Y404500D01*
X352000D01*
Y407500D01*
Y410500D01*
X346197D01*
X346000Y410526D01*
D02*
G37*
G36*
X437250Y426270D02*
X430750D01*
X430360Y426192D01*
X430029Y425971D01*
X429808Y425640D01*
X429730Y425250D01*
Y418750D01*
X429808Y418360D01*
X430029Y418029D01*
X430360Y417808D01*
X430470Y417786D01*
Y412500D01*
Y405941D01*
X428558Y404030D01*
X421500D01*
X420586Y403910D01*
X419735Y403557D01*
X419004Y402996D01*
X417904Y401896D01*
X412921D01*
Y405634D01*
X410740D01*
Y407634D01*
X412921D01*
Y411000D01*
X414000D01*
Y414000D01*
X411000D01*
Y416000D01*
X414000D01*
Y416828D01*
X414034Y417000D01*
X414000Y417172D01*
Y418000D01*
Y421000D01*
X411000D01*
Y422000D01*
X410000D01*
Y426000D01*
X400000D01*
Y425500D01*
X397000D01*
Y422500D01*
X396000D01*
Y421500D01*
X392000D01*
Y419500D01*
Y417500D01*
X390500Y416000D01*
X382500D01*
Y412223D01*
X382038Y412032D01*
X381680Y412390D01*
X379372Y410082D01*
X377958Y411496D01*
X380266Y413804D01*
X378317Y415753D01*
X376462Y413898D01*
X376000Y414089D01*
Y417000D01*
X368000D01*
Y411000D01*
X371581D01*
Y410413D01*
X371717Y409730D01*
X371948Y409384D01*
X369247Y406683D01*
X372120Y403810D01*
X371977Y403596D01*
X371842Y402914D01*
Y390911D01*
X371401Y390675D01*
X371327Y390724D01*
X370476Y390893D01*
X370039Y390806D01*
X369539Y391216D01*
Y395500D01*
X369384Y396280D01*
X368942Y396942D01*
X365942Y399942D01*
X365280Y400384D01*
X364500Y400539D01*
Y402500D01*
X342000D01*
Y396500D01*
X341793Y396086D01*
X319010D01*
X305705Y409390D01*
X300620Y415528D01*
X300672Y415925D01*
Y419075D01*
X300583Y419747D01*
X300324Y420373D01*
X299911Y420911D01*
X299373Y421324D01*
X298747Y421583D01*
X298075Y421672D01*
X294925D01*
X294253Y421583D01*
X293627Y421324D01*
X293089Y420911D01*
X292676Y420373D01*
X292417Y419747D01*
X292328Y419075D01*
Y415925D01*
X292417Y415253D01*
X292676Y414627D01*
X293089Y414089D01*
X293627Y413676D01*
X294253Y413417D01*
X294925Y413328D01*
X296000D01*
Y411650D01*
X295954D01*
X294898Y411367D01*
X293952Y410820D01*
X293179Y410048D01*
X292633Y409102D01*
X292350Y408046D01*
Y406954D01*
X292633Y405898D01*
X293179Y404952D01*
X293952Y404179D01*
X294898Y403633D01*
X295954Y403350D01*
X296000D01*
Y401650D01*
X295954D01*
X294898Y401367D01*
X293952Y400820D01*
X293179Y400048D01*
X292633Y399102D01*
X292350Y398046D01*
Y396954D01*
X292633Y395898D01*
X293179Y394952D01*
X293952Y394180D01*
X294898Y393633D01*
X295954Y393350D01*
X296000D01*
Y391650D01*
X295954D01*
X294898Y391367D01*
X293952Y390821D01*
X293179Y390048D01*
X292633Y389102D01*
X292350Y388046D01*
Y386954D01*
X292633Y385898D01*
X293179Y384952D01*
X293952Y384179D01*
X294898Y383633D01*
X295954Y383350D01*
X296000D01*
Y381650D01*
X295954D01*
X294898Y381367D01*
X293952Y380820D01*
X293179Y380048D01*
X292633Y379102D01*
X292350Y378046D01*
Y376954D01*
X292633Y375898D01*
X293179Y374952D01*
X293952Y374180D01*
X294898Y373633D01*
X295954Y373350D01*
X296000D01*
Y371650D01*
X295954D01*
X294898Y371367D01*
X293952Y370820D01*
X293179Y370048D01*
X292633Y369102D01*
X292350Y368046D01*
Y366954D01*
X292633Y365898D01*
X293179Y364952D01*
X293952Y364179D01*
X294898Y363633D01*
X295954Y363350D01*
X296000D01*
Y361650D01*
X295954D01*
X294898Y361367D01*
X293952Y360821D01*
X293179Y360048D01*
X292633Y359102D01*
X292350Y358046D01*
Y356954D01*
X292633Y355898D01*
X293179Y354952D01*
X293952Y354180D01*
X294898Y353633D01*
X295954Y353350D01*
X296000D01*
Y351650D01*
X295954D01*
X294898Y351367D01*
X293952Y350820D01*
X293179Y350048D01*
X292633Y349102D01*
X292350Y348046D01*
Y346954D01*
X292633Y345898D01*
X293179Y344952D01*
X293952Y344180D01*
X294898Y343633D01*
X295954Y343350D01*
X296000D01*
Y342045D01*
X295704Y341601D01*
X295700Y341582D01*
X294898Y341367D01*
X293952Y340821D01*
X293179Y340048D01*
X292633Y339102D01*
X292350Y338046D01*
Y336954D01*
X292633Y335898D01*
X293179Y334952D01*
X293952Y334179D01*
X294898Y333633D01*
X295954Y333350D01*
X296313D01*
X296505Y332889D01*
X296101Y332485D01*
X295704Y331890D01*
X295639Y331565D01*
X294898Y331367D01*
X293952Y330820D01*
X293179Y330048D01*
X292633Y329102D01*
X292350Y328046D01*
Y326954D01*
X292633Y325898D01*
X293179Y324952D01*
X293952Y324180D01*
X294898Y323633D01*
X295000Y323606D01*
Y321394D01*
X294898Y321367D01*
X293952Y320820D01*
X293179Y320048D01*
X292633Y319102D01*
X292350Y318046D01*
Y316954D01*
X292633Y315898D01*
X293179Y314952D01*
X293952Y314179D01*
X294898Y313633D01*
X295954Y313350D01*
X296057D01*
X296406Y312993D01*
X296379Y311650D01*
X295954D01*
X294898Y311367D01*
X293952Y310821D01*
X293179Y310048D01*
X292633Y309102D01*
X292350Y308046D01*
Y306954D01*
X292633Y305898D01*
X293179Y304952D01*
X293952Y304180D01*
X294898Y303633D01*
X295954Y303350D01*
X296202Y303097D01*
X296172Y301650D01*
X295954D01*
X294898Y301367D01*
X293952Y300820D01*
X293179Y300048D01*
X292633Y299102D01*
X292350Y298046D01*
Y296954D01*
X292633Y295898D01*
X293179Y294952D01*
X293952Y294180D01*
X294898Y293633D01*
X295954Y293350D01*
X295999Y293304D01*
X295965Y291650D01*
X295954D01*
X294898Y291367D01*
X293952Y290821D01*
X293179Y290048D01*
X292633Y289102D01*
X292350Y288046D01*
Y286954D01*
X292633Y285898D01*
X293179Y284952D01*
X293952Y284179D01*
X294898Y283633D01*
X295794Y283393D01*
X295757Y281597D01*
X294898Y281367D01*
X293952Y280820D01*
X293179Y280048D01*
X292633Y279102D01*
X292350Y278046D01*
Y276954D01*
X292633Y275898D01*
X293179Y274952D01*
X293952Y274180D01*
X294898Y273633D01*
X295588Y273448D01*
X295549Y271541D01*
X294898Y271367D01*
X293952Y270820D01*
X293179Y270048D01*
X292633Y269102D01*
X292350Y268046D01*
Y266954D01*
X292633Y265898D01*
X293179Y264952D01*
X293952Y264179D01*
X294898Y263633D01*
X295382Y263504D01*
X295341Y261485D01*
X294898Y261367D01*
X293952Y260821D01*
X293179Y260048D01*
X292633Y259102D01*
X292350Y258046D01*
Y256954D01*
X292633Y255898D01*
X293179Y254952D01*
X293952Y254180D01*
X294898Y253633D01*
X295177Y253559D01*
X295133Y251430D01*
X294898Y251367D01*
X293952Y250820D01*
X293179Y250048D01*
X292633Y249102D01*
X292350Y248046D01*
Y246954D01*
X292633Y245898D01*
X293179Y244952D01*
X293952Y244180D01*
X294898Y243633D01*
X295954Y243350D01*
X297046D01*
X298102Y243633D01*
X299048Y244180D01*
X299820Y244952D01*
X300367Y245898D01*
X300650Y246954D01*
Y248046D01*
X300367Y249102D01*
X299939Y249843D01*
X349310Y299215D01*
X359935D01*
X360637Y299354D01*
X361232Y299752D01*
X364764Y303284D01*
X365288Y303101D01*
X365472Y302416D01*
X365932Y301618D01*
X366584Y300966D01*
X367382Y300506D01*
X368272Y300267D01*
X369194D01*
X369316Y300300D01*
X373058Y296558D01*
X373720Y296116D01*
X374500Y295961D01*
X382000D01*
X382780Y296116D01*
X383442Y296558D01*
X385884Y299000D01*
X389000D01*
Y305751D01*
X389462Y305943D01*
X430165Y265240D01*
Y243500D01*
X430304Y242798D01*
X430702Y242202D01*
X442828Y230076D01*
X442828Y230075D01*
Y226925D01*
X442917Y226253D01*
X443176Y225627D01*
X443589Y225089D01*
X444127Y224676D01*
X444753Y224417D01*
X445425Y224328D01*
X448575D01*
X449247Y224417D01*
X449873Y224676D01*
X450411Y225089D01*
X450824Y225627D01*
X451083Y226253D01*
X451172Y226925D01*
Y230075D01*
X451083Y230747D01*
X450824Y231373D01*
X450411Y231911D01*
X449873Y232324D01*
X449247Y232583D01*
X448575Y232672D01*
X446500D01*
Y234350D01*
X447546D01*
X448602Y234633D01*
X449548Y235179D01*
X450320Y235952D01*
X450867Y236898D01*
X451150Y237954D01*
Y239046D01*
X450867Y240102D01*
X450320Y241048D01*
X449548Y241821D01*
X448602Y242367D01*
X447546Y242650D01*
X446500D01*
Y244350D01*
X447546D01*
X448602Y244633D01*
X449548Y245180D01*
X450320Y245952D01*
X450867Y246898D01*
X451150Y247954D01*
Y249046D01*
X450867Y250102D01*
X450320Y251048D01*
X449548Y251820D01*
X448602Y252367D01*
X447546Y252650D01*
X446500D01*
Y254350D01*
X447546D01*
X448602Y254633D01*
X449548Y255180D01*
X450320Y255952D01*
X450867Y256898D01*
X451150Y257954D01*
Y259046D01*
X450867Y260102D01*
X450320Y261048D01*
X449548Y261821D01*
X448602Y262367D01*
X447546Y262650D01*
X446500D01*
Y264350D01*
X447546D01*
X448602Y264633D01*
X449548Y265179D01*
X450320Y265952D01*
X450867Y266898D01*
X451150Y267954D01*
Y269046D01*
X450867Y270102D01*
X450320Y271048D01*
X449548Y271820D01*
X448602Y272367D01*
X447546Y272650D01*
X446872D01*
X446724Y272872D01*
X446500Y273095D01*
Y274350D01*
X447546D01*
X448602Y274633D01*
X449548Y275180D01*
X450320Y275952D01*
X450867Y276898D01*
X451150Y277954D01*
Y279046D01*
X450867Y280102D01*
X450320Y281048D01*
X449548Y281821D01*
X448602Y282367D01*
X447546Y282650D01*
X446500D01*
Y284350D01*
X447546D01*
X448602Y284633D01*
X449548Y285179D01*
X450320Y285952D01*
X450867Y286898D01*
X451150Y287954D01*
Y289046D01*
X450867Y290102D01*
X450320Y291048D01*
X449548Y291821D01*
X448602Y292367D01*
X447546Y292650D01*
X446500D01*
Y294350D01*
X447546D01*
X448602Y294633D01*
X449548Y295180D01*
X450320Y295952D01*
X450867Y296898D01*
X451150Y297954D01*
Y299046D01*
X450867Y300102D01*
X450320Y301048D01*
X449548Y301820D01*
X448602Y302367D01*
X447546Y302650D01*
X446454D01*
X445398Y302367D01*
X444452Y301820D01*
X443680Y301048D01*
X443133Y300102D01*
X443092Y299948D01*
X435648D01*
X417557Y318038D01*
X417749Y318500D01*
X418000D01*
Y321000D01*
X419000Y322000D01*
X413650Y327350D01*
Y329654D01*
X414669D01*
X415520Y329823D01*
X416242Y330306D01*
X416703Y330995D01*
X416790Y331071D01*
X417207Y331197D01*
X419405Y329000D01*
X424000D01*
X428000D01*
Y329636D01*
X428500Y329843D01*
X429044Y329299D01*
X429956Y328773D01*
X430973Y328500D01*
X432027D01*
X433044Y328773D01*
X433956Y329299D01*
X434701Y330044D01*
X435227Y330956D01*
X435500Y331973D01*
Y332251D01*
X435962Y332443D01*
X438012Y330392D01*
Y325653D01*
X438152Y324950D01*
X438550Y324355D01*
X443063Y319841D01*
X442850Y319046D01*
Y317954D01*
X443133Y316898D01*
X443680Y315952D01*
X444452Y315179D01*
X445398Y314633D01*
X446454Y314350D01*
X447546D01*
X448602Y314633D01*
X449548Y315179D01*
X450320Y315952D01*
X450867Y316898D01*
X451150Y317954D01*
Y319046D01*
X450867Y320102D01*
X450320Y321048D01*
X449548Y321820D01*
X448602Y322367D01*
X447546Y322650D01*
X446454D01*
X445659Y322437D01*
X441683Y326413D01*
Y329664D01*
X442145Y329855D01*
X442872Y329128D01*
X442850Y329046D01*
Y327954D01*
X443133Y326898D01*
X443680Y325952D01*
X444452Y325180D01*
X445398Y324633D01*
X446454Y324350D01*
X447546D01*
X448602Y324633D01*
X449548Y325180D01*
X450320Y325952D01*
X450867Y326898D01*
X451150Y327954D01*
Y329046D01*
X450867Y330102D01*
X450320Y331048D01*
X449548Y331821D01*
X448602Y332367D01*
X447546Y332650D01*
X447500D01*
Y334350D01*
X447546D01*
X448602Y334633D01*
X449548Y335179D01*
X450320Y335952D01*
X450867Y336898D01*
X451150Y337954D01*
Y339046D01*
X450867Y340102D01*
X450320Y341048D01*
X449548Y341821D01*
X448602Y342367D01*
X447546Y342650D01*
X447500D01*
Y344350D01*
X447546D01*
X448602Y344633D01*
X449548Y345180D01*
X450320Y345952D01*
X450867Y346898D01*
X451150Y347954D01*
Y349046D01*
X450867Y350102D01*
X450320Y351048D01*
X449548Y351820D01*
X448602Y352367D01*
X447546Y352650D01*
X447500D01*
Y354350D01*
X447546D01*
X448602Y354633D01*
X449548Y355180D01*
X450320Y355952D01*
X450867Y356898D01*
X451150Y357954D01*
Y359046D01*
X450867Y360102D01*
X450320Y361048D01*
X449548Y361821D01*
X448602Y362367D01*
X447546Y362650D01*
X447500D01*
Y364350D01*
X447546D01*
X448602Y364633D01*
X449548Y365179D01*
X450320Y365952D01*
X450867Y366898D01*
X451150Y367954D01*
Y369046D01*
X450867Y370102D01*
X450320Y371048D01*
X449548Y371820D01*
X448602Y372367D01*
X447546Y372650D01*
X447500D01*
Y374350D01*
X447546D01*
X448602Y374633D01*
X449548Y375180D01*
X450320Y375952D01*
X450867Y376898D01*
X451150Y377954D01*
Y379046D01*
X450867Y380102D01*
X450320Y381048D01*
X449548Y381821D01*
X448602Y382367D01*
X447824Y382575D01*
X447638Y383128D01*
X448602Y384633D01*
X449548Y385179D01*
X450320Y385952D01*
X450867Y386898D01*
X451150Y387954D01*
Y389046D01*
X450867Y390102D01*
X450320Y391048D01*
X449548Y391821D01*
X448602Y392367D01*
X447546Y392650D01*
X446454D01*
X445398Y392367D01*
X444452Y391821D01*
X443680Y391048D01*
X443133Y390102D01*
X442850Y389046D01*
Y387954D01*
X443063Y387159D01*
X438202Y382298D01*
X437804Y381702D01*
X437665Y381000D01*
Y377260D01*
X430462Y370057D01*
X430000Y370249D01*
Y371000D01*
X427000D01*
Y372000D01*
X426000D01*
Y376000D01*
X425753D01*
X425464Y376500D01*
X425727Y376956D01*
X426000Y377973D01*
Y379027D01*
X425727Y380044D01*
X425201Y380956D01*
X425119Y381038D01*
X425310Y381500D01*
X425500D01*
Y383500D01*
X421500D01*
Y385500D01*
X425500D01*
Y387500D01*
Y389500D01*
Y395500D01*
X422176D01*
X421992Y396000D01*
X422962Y396970D01*
X430021D01*
X430934Y397090D01*
X431786Y397443D01*
X432517Y398004D01*
X436496Y401983D01*
X437057Y402714D01*
X437410Y403566D01*
X437530Y404479D01*
Y409970D01*
X442687D01*
X442992Y409573D01*
X442850Y409046D01*
Y407954D01*
X443133Y406898D01*
X443680Y405952D01*
X444452Y405180D01*
X445398Y404633D01*
X446454Y404350D01*
X447546D01*
X448602Y404633D01*
X449548Y405180D01*
X450320Y405952D01*
X450867Y406898D01*
X451150Y407954D01*
Y409046D01*
X450867Y410102D01*
X450530Y410685D01*
Y413500D01*
Y416315D01*
X450867Y416898D01*
X451150Y417954D01*
Y419046D01*
X450867Y420102D01*
X450320Y421048D01*
X449548Y421820D01*
X448602Y422367D01*
X447546Y422650D01*
X446454D01*
X445398Y422367D01*
X444452Y421820D01*
X443680Y421048D01*
X443133Y420102D01*
X442850Y419046D01*
Y417954D01*
X442992Y417427D01*
X442687Y417030D01*
X437530D01*
Y417786D01*
X437640Y417808D01*
X437971Y418029D01*
X438192Y418360D01*
X438270Y418750D01*
Y425250D01*
X438192Y425640D01*
X437971Y425971D01*
X437640Y426192D01*
X437250Y426270D01*
D02*
G37*
G36*
X448000Y402528D02*
Y399500D01*
X451028D01*
X450867Y400102D01*
X450320Y401048D01*
X449548Y401821D01*
X448602Y402367D01*
X448000Y402528D01*
D02*
G37*
G36*
X446000D02*
X445398Y402367D01*
X444452Y401821D01*
X443680Y401048D01*
X443133Y400102D01*
X442972Y399500D01*
X446000D01*
Y402528D01*
D02*
G37*
G36*
X451028Y397500D02*
X448000D01*
Y394472D01*
X448602Y394633D01*
X449548Y395180D01*
X450320Y395952D01*
X450867Y396898D01*
X451028Y397500D01*
D02*
G37*
G36*
X446000D02*
X442972D01*
X443133Y396898D01*
X443680Y395952D01*
X444452Y395180D01*
X445398Y394633D01*
X446000Y394472D01*
Y397500D01*
D02*
G37*
G36*
X430000Y376000D02*
X428000D01*
Y373000D01*
X430000D01*
Y376000D01*
D02*
G37*
G36*
X428000Y327000D02*
X425000D01*
Y325000D01*
X428000D01*
Y327000D01*
D02*
G37*
G36*
X423000D02*
X420000D01*
Y325000D01*
X423000D01*
Y327000D01*
D02*
G37*
G36*
X428500Y321373D02*
Y318500D01*
X431373D01*
X431227Y319044D01*
X430701Y319956D01*
X429956Y320701D01*
X429044Y321227D01*
X428500Y321373D01*
D02*
G37*
G36*
X426500D02*
X425956Y321227D01*
X425044Y320701D01*
X424299Y319956D01*
X423773Y319044D01*
X423627Y318500D01*
X426500D01*
Y321373D01*
D02*
G37*
G36*
X431373Y316500D02*
X428500D01*
Y313627D01*
X429044Y313773D01*
X429956Y314299D01*
X430701Y315044D01*
X431227Y315956D01*
X431373Y316500D01*
D02*
G37*
G36*
X426500D02*
X423627D01*
X423773Y315956D01*
X424299Y315044D01*
X425044Y314299D01*
X425956Y313773D01*
X426500Y313627D01*
Y316500D01*
D02*
G37*
G36*
X448000Y312528D02*
Y309500D01*
X451028D01*
X450867Y310102D01*
X450320Y311048D01*
X449548Y311821D01*
X448602Y312367D01*
X448000Y312528D01*
D02*
G37*
G36*
X446000D02*
X445398Y312367D01*
X444452Y311821D01*
X443680Y311048D01*
X443133Y310102D01*
X442972Y309500D01*
X446000D01*
Y312528D01*
D02*
G37*
G36*
X451028Y307500D02*
X448000D01*
Y304472D01*
X448602Y304633D01*
X449548Y305180D01*
X450320Y305952D01*
X450867Y306898D01*
X451028Y307500D01*
D02*
G37*
G36*
X446000D02*
X442972D01*
X443133Y306898D01*
X443680Y305952D01*
X444452Y305180D01*
X445398Y304633D01*
X446000Y304472D01*
Y307500D01*
D02*
G37*
G36*
X374461Y285500D02*
X373539D01*
X372649Y285262D01*
X371851Y284801D01*
X371199Y284149D01*
X370739Y283351D01*
X370500Y282461D01*
Y281539D01*
X370739Y280649D01*
X371199Y279851D01*
X371521Y279529D01*
X371214Y279129D01*
X371044Y279227D01*
X370027Y279500D01*
X368973D01*
X367956Y279227D01*
X367044Y278701D01*
X366299Y277956D01*
X365773Y277044D01*
X365500Y276027D01*
Y274973D01*
X365773Y273956D01*
X366299Y273044D01*
X366964Y272379D01*
Y270964D01*
X363013Y270943D01*
X362658Y271295D01*
Y277500D01*
X363527D01*
X364544Y277773D01*
X365456Y278299D01*
X366201Y279044D01*
X366727Y279956D01*
X367000Y280973D01*
Y282027D01*
X366727Y283044D01*
X366201Y283956D01*
X365456Y284701D01*
X364544Y285227D01*
X363527Y285500D01*
X362473D01*
X361456Y285227D01*
X360544Y284701D01*
X359799Y283956D01*
X359273Y283044D01*
X359000Y282027D01*
Y280973D01*
X359273Y279956D01*
X359530Y279510D01*
X359226Y279054D01*
X359090Y278371D01*
Y270921D01*
X355462Y270902D01*
X355141Y271400D01*
X355198Y271546D01*
X356044Y271773D01*
X356956Y272299D01*
X357701Y273044D01*
X358227Y273956D01*
X358500Y274973D01*
Y276027D01*
X358227Y277044D01*
X357701Y277956D01*
X356956Y278701D01*
X356044Y279227D01*
X355027Y279500D01*
X353973D01*
X352956Y279227D01*
X352044Y278701D01*
X351299Y277956D01*
X350773Y277044D01*
X350500Y276027D01*
Y274973D01*
X350773Y273956D01*
X351276Y273084D01*
X351216Y272782D01*
Y270878D01*
X347265Y270857D01*
X346910Y271209D01*
Y277500D01*
X347527D01*
X348544Y277773D01*
X349456Y278299D01*
X350201Y279044D01*
X350727Y279956D01*
X351000Y280973D01*
Y282027D01*
X350727Y283044D01*
X350201Y283956D01*
X349456Y284701D01*
X348544Y285227D01*
X347527Y285500D01*
X346473D01*
X345456Y285227D01*
X344544Y284701D01*
X343799Y283956D01*
X343273Y283044D01*
X343000Y282027D01*
Y280973D01*
X343273Y279956D01*
X343636Y279328D01*
X343478Y279091D01*
X343342Y278408D01*
Y270835D01*
X342118Y270829D01*
Y256171D01*
Y250026D01*
X341131D01*
X340956Y250201D01*
X340044Y250727D01*
X339027Y251000D01*
X337973D01*
X336956Y250727D01*
X336044Y250201D01*
X335299Y249456D01*
X334773Y248544D01*
X334500Y247527D01*
Y246473D01*
X334773Y245456D01*
X335299Y244544D01*
X336044Y243799D01*
X336956Y243273D01*
X337973Y243000D01*
X339027D01*
X340044Y243273D01*
X340956Y243799D01*
X341131Y243974D01*
X342118D01*
Y239026D01*
X373614D01*
X373614Y239026D01*
Y239026D01*
X379630D01*
Y253683D01*
X374290D01*
Y256171D01*
X375622D01*
Y263500D01*
X376622D01*
Y264500D01*
X379630D01*
Y270829D01*
X376316D01*
X376125Y271291D01*
X376762Y271928D01*
X377149Y272507D01*
X377284Y273189D01*
X377284Y273189D01*
Y279553D01*
X377149Y280236D01*
X377081Y280337D01*
X377261Y280649D01*
X377500Y281539D01*
Y282461D01*
X377261Y283351D01*
X376801Y284149D01*
X376149Y284801D01*
X375351Y285262D01*
X374461Y285500D01*
D02*
G37*
G36*
X379630Y262500D02*
X377622D01*
Y256171D01*
X379630D01*
Y262500D01*
D02*
G37*
G36*
X297500Y241528D02*
Y238500D01*
X300528D01*
X300367Y239102D01*
X299820Y240048D01*
X299048Y240821D01*
X298102Y241367D01*
X297500Y241528D01*
D02*
G37*
G36*
X295500D02*
X294898Y241367D01*
X293952Y240821D01*
X293179Y240048D01*
X292633Y239102D01*
X292472Y238500D01*
X295500D01*
Y241528D01*
D02*
G37*
G36*
X300528Y236500D02*
X297500D01*
Y233472D01*
X298102Y233633D01*
X299048Y234179D01*
X299820Y234952D01*
X300367Y235898D01*
X300528Y236500D01*
D02*
G37*
G36*
X295500D02*
X292472D01*
X292633Y235898D01*
X293179Y234952D01*
X293952Y234179D01*
X294898Y233633D01*
X295500Y233472D01*
Y236500D01*
D02*
G37*
G36*
X297046Y231650D02*
X295954D01*
X294898Y231367D01*
X293952Y230820D01*
X293179Y230048D01*
X292633Y229102D01*
X292350Y228046D01*
Y226954D01*
X292633Y225898D01*
X293179Y224952D01*
X293952Y224180D01*
X294898Y223633D01*
X295954Y223350D01*
X297046D01*
X298102Y223633D01*
X299048Y224180D01*
X299820Y224952D01*
X300367Y225898D01*
X300650Y226954D01*
Y228046D01*
X300367Y229102D01*
X299820Y230048D01*
X299048Y230820D01*
X298102Y231367D01*
X297046Y231650D01*
D02*
G37*
%LPD*%
G36*
X396599Y382961D02*
X396673Y382587D01*
Y381006D01*
X397246Y381388D01*
X397250D01*
X397972Y380906D01*
X398823Y380737D01*
X399674Y380906D01*
X399983Y381113D01*
X400398Y381387D01*
X400812Y381113D01*
X401121Y380906D01*
X401972Y380737D01*
X402823Y380906D01*
X403545Y381388D01*
X403550D01*
X404271Y380906D01*
X405122Y380737D01*
X405973Y380906D01*
X406695Y381388D01*
X407177Y382110D01*
X407287Y382665D01*
X410500D01*
Y381500D01*
X410064Y381346D01*
X408961D01*
X408110Y381177D01*
X407388Y380695D01*
X406906Y379973D01*
X406737Y379122D01*
X406906Y378271D01*
X407388Y377550D01*
Y377545D01*
X406906Y376823D01*
X406737Y375972D01*
X406906Y375121D01*
X407388Y374400D01*
Y374395D01*
X406906Y373674D01*
X406737Y372823D01*
X406906Y371972D01*
X407388Y371250D01*
Y371246D01*
X406906Y370524D01*
X406737Y369673D01*
X406906Y368822D01*
X407388Y368101D01*
Y368096D01*
X407006Y367524D01*
X408587D01*
X408961Y367449D01*
X411815D01*
Y365598D01*
X408961D01*
X408586Y365524D01*
X407006D01*
X407388Y364951D01*
Y364947D01*
X406906Y364225D01*
X406737Y363374D01*
X406906Y362523D01*
X407388Y361802D01*
Y361797D01*
X406906Y361075D01*
X406737Y360224D01*
X406906Y359373D01*
X407388Y358652D01*
Y358647D01*
X406906Y357926D01*
X406737Y357075D01*
X406906Y356224D01*
X407388Y355502D01*
Y355498D01*
X406906Y354776D01*
X406737Y353925D01*
X406906Y353074D01*
X407388Y352353D01*
Y352348D01*
X406906Y351627D01*
X406737Y350776D01*
X406906Y349925D01*
X407388Y349203D01*
Y349199D01*
X406906Y348477D01*
X406737Y347626D01*
X406906Y346775D01*
X407388Y346054D01*
Y346049D01*
X406906Y345327D01*
X406737Y344476D01*
X406906Y343625D01*
X407388Y342904D01*
Y342899D01*
X406906Y342178D01*
X406737Y341327D01*
X406906Y340476D01*
X407388Y339754D01*
Y339750D01*
X406906Y339028D01*
X406737Y338177D01*
X406906Y337326D01*
X407113Y337017D01*
X407387Y336602D01*
X407113Y336188D01*
X407006Y336028D01*
X408586D01*
X408961Y335953D01*
X411815D01*
Y334102D01*
X408961D01*
X408587Y334028D01*
X407006D01*
X407388Y333455D01*
Y333450D01*
X406906Y332729D01*
X406737Y331878D01*
X405122Y330263D01*
X404271Y330094D01*
X403550Y329612D01*
X403545D01*
X402823Y330094D01*
X401972Y330263D01*
X401121Y330094D01*
X400400Y329612D01*
X400395D01*
X399674Y330094D01*
X398823Y330263D01*
X397972Y330094D01*
X397250Y329612D01*
X397246D01*
X396524Y330094D01*
X395673Y330263D01*
X394822Y330094D01*
X394101Y329612D01*
X394096D01*
X393375Y330094D01*
X392524Y330263D01*
X391673Y330094D01*
X390951Y329612D01*
X390947D01*
X390225Y330094D01*
X389374Y330263D01*
X388523Y330094D01*
X387802Y329612D01*
X387797D01*
X387075Y330094D01*
X386224Y330263D01*
X385373Y330094D01*
X385029Y329864D01*
X384505Y329936D01*
X384443Y330028D01*
X384118Y330515D01*
X383539Y330902D01*
X382856Y331038D01*
X382173Y330902D01*
X381595Y330515D01*
X381208Y329936D01*
X380925Y330038D01*
Y328414D01*
X380851Y328039D01*
Y325185D01*
X379000D01*
Y328039D01*
X378925Y328414D01*
Y329994D01*
X378353Y329612D01*
X378348D01*
X377627Y330094D01*
X376776Y330263D01*
X375925Y330094D01*
X375203Y329612D01*
X375199D01*
X374477Y330094D01*
X373626Y330263D01*
X372775Y330094D01*
X372054Y329612D01*
X372049D01*
X371327Y330094D01*
X370476Y330263D01*
X370329Y330234D01*
X369531Y331031D01*
Y333531D01*
X365506D01*
X365500Y333539D01*
Y334461D01*
X365391Y334868D01*
X367262Y336738D01*
X367262Y336738D01*
X367649Y337317D01*
X367784Y338000D01*
Y367301D01*
X380968Y380485D01*
X380968Y380485D01*
X381294Y380972D01*
X381355Y381064D01*
X381879Y381136D01*
X381915Y381113D01*
X382224Y380906D01*
X383075Y380737D01*
X383926Y380906D01*
X384647Y381388D01*
X384652D01*
X385373Y380906D01*
X386224Y380737D01*
X387075Y380906D01*
X387797Y381388D01*
X387802D01*
X388523Y380906D01*
X389374Y380737D01*
X390225Y380906D01*
X390534Y381113D01*
X390949Y381387D01*
X391364Y381113D01*
X391673Y380906D01*
X392524Y380737D01*
X393375Y380906D01*
X394096Y381388D01*
X394101D01*
X394673Y381006D01*
Y382587D01*
X394748Y382961D01*
Y385815D01*
X396599D01*
Y382961D01*
D02*
G37*
G36*
X371402D02*
X371476Y382586D01*
Y381006D01*
X371636Y381113D01*
X372051Y381387D01*
X372466Y381113D01*
X372775Y380906D01*
X373626Y380737D01*
X374477Y380906D01*
X375199Y381388D01*
X375203D01*
X375751Y381022D01*
X375881Y380444D01*
X364738Y369302D01*
X364352Y368723D01*
X364216Y368040D01*
Y359653D01*
X363727Y359544D01*
X363201Y360456D01*
X362456Y361201D01*
X361544Y361727D01*
X361000Y361873D01*
Y358000D01*
Y354127D01*
X361544Y354273D01*
X362456Y354799D01*
X363201Y355544D01*
X363727Y356456D01*
X364216Y356347D01*
Y338739D01*
X362868Y337391D01*
X362461Y337500D01*
X361539D01*
X360649Y337262D01*
X359851Y336801D01*
X359199Y336149D01*
X358738Y335351D01*
X358500Y334461D01*
Y333607D01*
X358000Y333563D01*
X356196Y335367D01*
X356094Y335879D01*
X355888Y336188D01*
X355613Y336602D01*
X355888Y337017D01*
X355994Y337177D01*
X354414D01*
X354039Y337252D01*
X351185D01*
Y339103D01*
X354039D01*
X354414Y339177D01*
X355994D01*
X355612Y339750D01*
Y339754D01*
X356094Y340476D01*
X356263Y341327D01*
X356094Y342178D01*
X355612Y342899D01*
Y342904D01*
X356094Y343625D01*
X356263Y344476D01*
X356094Y345327D01*
X355612Y346049D01*
Y346054D01*
X356094Y346775D01*
X356263Y347626D01*
X356094Y348477D01*
X355612Y349199D01*
Y349203D01*
X356094Y349925D01*
X356263Y350776D01*
X356094Y351627D01*
X355612Y352348D01*
Y352353D01*
X356094Y353074D01*
X356263Y353925D01*
X356094Y354776D01*
X355612Y355498D01*
Y355502D01*
X355952Y356011D01*
X356524Y356020D01*
X356799Y355544D01*
X357544Y354799D01*
X358456Y354273D01*
X359000Y354127D01*
Y358000D01*
Y361873D01*
X358456Y361727D01*
X357544Y361201D01*
X356799Y360456D01*
X356745Y360363D01*
X356218Y360450D01*
X356094Y361075D01*
X355612Y361797D01*
Y361802D01*
X356094Y362523D01*
X356263Y363374D01*
X356094Y364225D01*
X355612Y364947D01*
Y364951D01*
X356094Y365673D01*
X356263Y366524D01*
X356094Y367375D01*
X355612Y368096D01*
Y368101D01*
X356094Y368822D01*
X356263Y369673D01*
X356094Y370524D01*
X355612Y371246D01*
Y371250D01*
X356094Y371972D01*
X356263Y372823D01*
X356094Y373674D01*
X355612Y374395D01*
Y374400D01*
X356094Y375121D01*
X356263Y375972D01*
X356094Y376823D01*
X355612Y377545D01*
Y377550D01*
X356094Y378271D01*
X356263Y379122D01*
X356094Y379973D01*
X355612Y380695D01*
X354908Y381165D01*
X354900Y381202D01*
X354998Y381665D01*
X356121D01*
X356306Y381388D01*
X357027Y380906D01*
X357878Y380737D01*
X358729Y380906D01*
X359450Y381388D01*
X359455D01*
X360176Y380906D01*
X361028Y380737D01*
X361879Y380906D01*
X362600Y381388D01*
X362605D01*
X363326Y380906D01*
X364177Y380737D01*
X365028Y380906D01*
X365337Y381113D01*
X365752Y381387D01*
X366167Y381113D01*
X366476Y380906D01*
X367327Y380737D01*
X368178Y380906D01*
X368899Y381388D01*
X368904D01*
X369476Y381006D01*
Y382587D01*
X369551Y382961D01*
Y385815D01*
X371402D01*
Y382961D01*
D02*
G37*
%LPC*%
G36*
X388000Y370373D02*
Y367500D01*
X390873D01*
X390727Y368044D01*
X390201Y368956D01*
X389456Y369701D01*
X388544Y370227D01*
X388000Y370373D01*
D02*
G37*
G36*
X386000D02*
X385456Y370227D01*
X384544Y369701D01*
X383799Y368956D01*
X383273Y368044D01*
X383127Y367500D01*
X386000D01*
Y370373D01*
D02*
G37*
G36*
X390873Y365500D02*
X388000D01*
Y362627D01*
X388544Y362773D01*
X389456Y363299D01*
X390201Y364044D01*
X390727Y364956D01*
X390873Y365500D01*
D02*
G37*
G36*
X386000D02*
X383127D01*
X383273Y364956D01*
X383799Y364044D01*
X384544Y363299D01*
X385456Y362773D01*
X386000Y362627D01*
Y365500D01*
D02*
G37*
G36*
X376500Y356873D02*
Y354000D01*
X379373D01*
X379227Y354544D01*
X378701Y355456D01*
X377956Y356201D01*
X377044Y356727D01*
X376500Y356873D01*
D02*
G37*
G36*
X374500D02*
X373956Y356727D01*
X373044Y356201D01*
X372299Y355456D01*
X371773Y354544D01*
X371627Y354000D01*
X374500D01*
Y356873D01*
D02*
G37*
G36*
X395000Y354873D02*
Y352000D01*
X397873D01*
X397727Y352544D01*
X397201Y353456D01*
X396456Y354201D01*
X395544Y354727D01*
X395000Y354873D01*
D02*
G37*
G36*
X393000D02*
X392456Y354727D01*
X391544Y354201D01*
X390799Y353456D01*
X390273Y352544D01*
X390127Y352000D01*
X393000D01*
Y354873D01*
D02*
G37*
G36*
X379373Y352000D02*
X376500D01*
Y349127D01*
X377044Y349273D01*
X377956Y349799D01*
X378701Y350544D01*
X379227Y351456D01*
X379373Y352000D01*
D02*
G37*
G36*
X374500D02*
X371627D01*
X371773Y351456D01*
X372299Y350544D01*
X373044Y349799D01*
X373956Y349273D01*
X374500Y349127D01*
Y352000D01*
D02*
G37*
G36*
X397873Y350000D02*
X395000D01*
Y347127D01*
X395544Y347273D01*
X396456Y347799D01*
X397201Y348544D01*
X397727Y349456D01*
X397873Y350000D01*
D02*
G37*
G36*
X393000D02*
X390127D01*
X390273Y349456D01*
X390799Y348544D01*
X391544Y347799D01*
X392456Y347273D01*
X393000Y347127D01*
Y350000D01*
D02*
G37*
%LPD*%
D21*
X345126Y246354D02*
D03*
X353000D02*
D03*
X360874D02*
D03*
X368748D02*
D03*
X376622D02*
D03*
X345126Y263500D02*
D03*
X353000D02*
D03*
X360874D02*
D03*
X368748D02*
D03*
X376622D02*
D03*
D22*
X374211Y406335D02*
D03*
X380335Y400211D02*
D03*
X384789Y404665D02*
D03*
X378665Y410789D02*
D03*
D29*
X386500Y421000D02*
D03*
Y413000D02*
D03*
X414500Y384500D02*
D03*
Y392500D02*
D03*
X396000Y414500D02*
D03*
Y422500D02*
D03*
X421500Y392500D02*
D03*
Y384500D02*
D03*
X396000Y402000D02*
D03*
Y410000D02*
D03*
X360500Y407500D02*
D03*
Y399500D02*
D03*
X372000Y414000D02*
D03*
Y422000D02*
D03*
X424000Y328000D02*
D03*
Y336000D02*
D03*
X341500Y337500D02*
D03*
Y329500D02*
D03*
X425000Y408500D02*
D03*
Y400500D02*
D03*
X353000Y407500D02*
D03*
Y399500D02*
D03*
X346000Y407500D02*
D03*
Y399500D02*
D03*
D30*
X410740Y406634D02*
D03*
X403260D02*
D03*
X407000Y398366D02*
D03*
D31*
X351185Y379122D02*
D03*
Y375972D02*
D03*
Y372823D02*
D03*
Y369673D02*
D03*
Y366524D02*
D03*
Y363374D02*
D03*
Y360224D02*
D03*
Y357075D02*
D03*
Y353925D02*
D03*
Y350776D02*
D03*
Y347626D02*
D03*
Y344476D02*
D03*
Y341327D02*
D03*
Y338177D02*
D03*
Y335028D02*
D03*
Y331878D02*
D03*
X411815D02*
D03*
Y335028D02*
D03*
Y338177D02*
D03*
Y341327D02*
D03*
Y344476D02*
D03*
Y347626D02*
D03*
Y350776D02*
D03*
Y353925D02*
D03*
Y357075D02*
D03*
Y360224D02*
D03*
Y363374D02*
D03*
Y366524D02*
D03*
Y369673D02*
D03*
Y372823D02*
D03*
Y375972D02*
D03*
Y379122D02*
D03*
D32*
X357878Y325185D02*
D03*
X361028D02*
D03*
X364177D02*
D03*
X367327D02*
D03*
X370476D02*
D03*
X373626D02*
D03*
X376776D02*
D03*
X379925D02*
D03*
X383075D02*
D03*
X386224D02*
D03*
X389374D02*
D03*
X392524D02*
D03*
X395673D02*
D03*
X398823D02*
D03*
X401972D02*
D03*
X405122D02*
D03*
Y385815D02*
D03*
X401972D02*
D03*
X398823D02*
D03*
X395673D02*
D03*
X392524D02*
D03*
X389374D02*
D03*
X386224D02*
D03*
X383075D02*
D03*
X379925D02*
D03*
X376776D02*
D03*
X373626D02*
D03*
X370476D02*
D03*
X367327D02*
D03*
X364177D02*
D03*
X361028D02*
D03*
X357878D02*
D03*
D33*
X411000Y415000D02*
D03*
X403000D02*
D03*
X378000Y303000D02*
D03*
X386000D02*
D03*
X427000Y372000D02*
D03*
X419000D02*
D03*
X411000Y422000D02*
D03*
X403000D02*
D03*
D34*
X434000D02*
D03*
D35*
X385635Y398524D02*
Y401679D01*
X384789Y402524D02*
X385635Y401679D01*
X376994Y389883D02*
X385635Y398524D01*
X384789Y402524D02*
Y404665D01*
X376994Y389121D02*
Y389883D01*
X376776Y385815D02*
Y388903D01*
X376994Y389121D01*
X396000Y410000D02*
Y414500D01*
Y402000D02*
X402319D01*
X411000Y415750D02*
X412250Y417000D01*
X411000Y415000D02*
Y415750D01*
X385051Y303000D02*
X386551Y304500D01*
Y306500D01*
X430639Y333361D02*
X431500Y332500D01*
X427639Y333361D02*
X430639D01*
X425000Y336000D02*
X427639Y333361D01*
X423051Y336000D02*
X425000D01*
X335361Y339129D02*
Y339336D01*
X335304Y339072D02*
X335361Y339129D01*
X334443Y336000D02*
X335304Y336861D01*
Y339072D01*
X329693Y332182D02*
Y338411D01*
X329611Y332100D02*
X329693Y332182D01*
X329611Y329914D02*
Y332100D01*
X328750Y329053D02*
X329611Y329914D01*
X335361Y339336D02*
X337352Y341327D01*
X351185D01*
X342500Y329500D02*
X343750Y330750D01*
X340500Y329500D02*
X342500D01*
X343750Y331750D02*
X346863Y334863D01*
X351020D02*
X351185Y335028D01*
X346863Y334863D02*
X351020D01*
X343750Y330750D02*
Y331750D01*
X341500Y337500D02*
X342012Y338012D01*
X351020D01*
X351185Y338177D01*
X338000Y325534D02*
X339250Y326784D01*
X338000Y324500D02*
Y325534D01*
X336033Y344750D02*
X346760D01*
X329693Y338411D02*
X336033Y344750D01*
X346760D02*
X346869Y344641D01*
X351020D01*
X351185Y344476D01*
X339250Y326784D02*
Y328250D01*
X340500Y329500D01*
X384441Y411750D02*
X385691Y413000D01*
X373863Y406683D02*
X374211Y406335D01*
X373863Y406683D02*
X374559Y405987D01*
Y403846D02*
Y405987D01*
X373626Y402914D02*
X374559Y403846D01*
X373626Y385815D02*
Y402914D01*
X392000Y394500D02*
X392524Y393976D01*
Y385815D02*
Y393976D01*
X385691Y413000D02*
X386500D01*
X373863Y406683D02*
Y409915D01*
X373365Y410413D02*
X373863Y409915D01*
X373365Y410413D02*
Y412750D01*
X372115Y414000D02*
X373365Y412750D01*
X372000Y414000D02*
X372115D01*
X384441Y405013D02*
Y411750D01*
X374000Y281053D02*
Y282000D01*
Y281053D02*
X375500Y279553D01*
Y273189D02*
Y279553D01*
X372506Y270195D02*
X375500Y273189D01*
X372506Y252514D02*
Y270195D01*
Y252514D02*
X373385Y251636D01*
X375364D01*
X376622Y250378D01*
Y246354D02*
Y250378D01*
X368748Y263500D02*
Y274748D01*
X369500Y275500D01*
X360874Y263500D02*
Y278371D01*
X363000Y280497D01*
Y281500D01*
X353000Y272782D02*
X354500Y274282D01*
Y275500D01*
X353000Y263500D02*
Y272782D01*
X345126Y278408D02*
X347000Y280282D01*
Y281500D01*
X345126Y263500D02*
Y278408D01*
X318361Y337079D02*
X318547Y337264D01*
X318361Y334861D02*
Y337079D01*
X317500Y334000D02*
X318361Y334861D01*
X420250Y375532D02*
X422000Y377282D01*
X419000Y372000D02*
X420250Y373250D01*
Y375532D01*
X422000Y377282D02*
Y378500D01*
X418750Y371750D02*
X419000Y372000D01*
X418750Y370552D02*
Y371750D01*
X417871Y369673D02*
X418750Y370552D01*
X411815Y369673D02*
X417871D01*
X422524Y366524D02*
X427000Y371000D01*
Y372000D01*
X411815Y366524D02*
X422524D01*
X318547Y337264D02*
Y337878D01*
X362000Y334000D02*
X366000Y338000D01*
Y368040D01*
X379707Y381747D01*
Y382133D01*
X379760Y382186D01*
Y385650D01*
X379925Y385815D01*
Y314270D02*
Y325185D01*
X332626Y347626D02*
X351185D01*
X325980Y340980D02*
X332626Y347626D01*
X346915Y351085D02*
X347059Y350941D01*
X411815Y338177D02*
X411889Y338103D01*
X318547Y337878D02*
X331754Y351085D01*
X378000Y303000D02*
Y312345D01*
X382856Y328868D02*
Y329254D01*
X347059Y350941D02*
X351020D01*
X382856Y328868D02*
X382910Y328814D01*
X325980Y340685D02*
Y340980D01*
X378000Y312345D02*
X379925Y314270D01*
X383075Y309976D02*
Y325185D01*
X382910Y325350D02*
X383075Y325185D01*
X351020Y350941D02*
X351185Y350776D01*
X382910Y325350D02*
Y328814D01*
X383075Y309976D02*
X386551Y306500D01*
X331754Y351085D02*
X346915D01*
D36*
X434000Y412500D02*
Y422000D01*
X447000Y413500D02*
Y418500D01*
Y408500D02*
Y413500D01*
X425000Y400500D02*
X430021D01*
X421500D02*
X425000D01*
X402319Y402000D02*
Y405000D01*
Y397369D02*
Y402000D01*
X399450Y394500D02*
X402319Y397369D01*
X403000Y406894D02*
Y415000D01*
X392000Y394500D02*
X399450D01*
X403000Y415000D02*
Y422000D01*
Y406894D02*
X403260Y406634D01*
X434000Y404479D02*
Y412500D01*
X435000Y413500D02*
X444990D01*
X434000Y412500D02*
X435000Y413500D01*
X408319Y398366D02*
X419366D01*
X421500Y400500D01*
X430021D02*
X434000Y404479D01*
D37*
X403000Y422000D02*
Y422500D01*
X337541Y407500D02*
X346000D01*
X345126Y246354D02*
Y246992D01*
X345118Y247000D02*
X345126Y246992D01*
X338500Y247000D02*
X345118D01*
D38*
X385051Y301051D02*
Y303000D01*
X360500Y399500D02*
X360750Y399250D01*
X361750D01*
X359500Y399500D02*
X360500D01*
X367500Y390000D02*
Y395500D01*
X364500Y398500D02*
X367500Y395500D01*
X362500Y398500D02*
X364500D01*
X361750Y399250D02*
X362500Y398500D01*
X353000Y399500D02*
X359500D01*
X352000D02*
X353000Y398500D01*
X346000Y399500D02*
X352000D01*
X353000Y398500D02*
X353750Y399250D01*
X359500D01*
X368733Y303767D02*
X374500Y298000D01*
X382000D01*
X385051Y301051D01*
D39*
X297399Y340899D02*
X313575Y357075D01*
X351185D01*
X416118Y334882D02*
X423000Y328000D01*
X411961Y334882D02*
X416118D01*
X423000Y328000D02*
X424000D01*
X411815Y335028D02*
X411961Y334882D01*
X418948Y338103D02*
X421551Y335500D01*
X411889Y338103D02*
X418948D01*
X429673Y341327D02*
X439848Y331153D01*
X411815Y341327D02*
X429673D01*
X439848Y325653D02*
Y331153D01*
Y325653D02*
X447000Y318500D01*
X411815Y344476D02*
X431024D01*
X296500Y247500D02*
Y248772D01*
X298074Y250346D02*
Y250574D01*
X296500Y248772D02*
X298074Y250346D01*
X348550Y301050D02*
X359935D01*
X298074Y250574D02*
X348550Y301050D01*
X341378Y303650D02*
X358858D01*
X296500Y258772D02*
X341378Y303650D01*
X296500Y267500D02*
X297399Y268399D01*
Y270899D02*
X332750Y306250D01*
X357781D01*
X297399Y268399D02*
Y270899D01*
X324850Y308850D02*
X356704D01*
X298074Y282074D02*
X324850Y308850D01*
X298074Y280346D02*
Y282074D01*
X296500Y288500D02*
X319450Y311450D01*
X296500Y287500D02*
Y288500D01*
X319450Y311450D02*
X355627D01*
X304150Y316650D02*
X347327D01*
X354323Y317500D02*
X357732Y320909D01*
X298074Y310574D02*
X304150Y316650D01*
X348177Y317500D02*
X354323D01*
X347327Y316650D02*
X348177Y317500D01*
X296500Y297500D02*
X312900Y313900D01*
X316723D01*
X316873Y314050D01*
X354550D01*
X303073Y319250D02*
X346250D01*
X318250Y394250D02*
X360250D01*
X364031Y390469D01*
Y385961D02*
Y390469D01*
X311173Y369673D02*
X351185D01*
X296500Y357500D02*
X297399Y358399D01*
X299899D01*
X311173Y369673D01*
X315524Y366524D02*
X351185D01*
X296500Y347500D02*
X315524Y366524D01*
X296500Y337500D02*
X297399Y338399D01*
Y340899D01*
X296500Y327500D02*
X297399Y328399D01*
Y331187D01*
X320137Y353925D01*
X351185D01*
X414500Y392500D02*
X421500D01*
X405423Y384500D02*
X414500D01*
X405122Y384801D02*
Y385815D01*
Y384801D02*
X405423Y384500D01*
X411815Y347626D02*
X437874D01*
X304878Y379122D02*
X351185D01*
X411815Y357075D02*
X436575D01*
X405122Y322124D02*
Y325185D01*
X395838Y316162D02*
Y325020D01*
X405503Y321497D02*
Y321743D01*
X395838Y316162D02*
X441000Y271000D01*
X405122Y322124D02*
X405503Y321743D01*
X298371Y414129D02*
X318250Y394250D01*
X298371Y414129D02*
Y415629D01*
X432000Y243500D02*
Y266000D01*
X386393Y311607D02*
Y321623D01*
X438000Y257500D02*
Y269500D01*
X389081Y308919D02*
X389087D01*
X390024Y307976D02*
Y307982D01*
X296500Y397500D02*
X310500Y383500D01*
X438000Y257500D02*
X447000Y248500D01*
X386393Y311607D02*
X389081Y308919D01*
X390024Y307976D02*
X432000Y266000D01*
X389087Y308919D02*
X390024Y307982D01*
X360997Y325154D02*
X361028Y325185D01*
X360997Y320497D02*
Y325154D01*
X415377Y350944D02*
X443545D01*
X445989Y348500D01*
X355627Y311450D02*
X364009Y319832D01*
X392742Y314758D02*
X438000Y269500D01*
X357732Y325039D02*
X357878Y325185D01*
X357732Y320909D02*
Y325039D01*
X298074Y310346D02*
Y310574D01*
X296500Y308772D02*
X298074Y310346D01*
X296500Y307500D02*
Y308772D01*
X359935Y301050D02*
X376607Y317722D01*
X367158Y319304D02*
Y321623D01*
X398823Y325185D02*
X398988Y325020D01*
X364031Y385961D02*
X364177Y385815D01*
X435000Y250000D02*
X445680Y239320D01*
X296500Y417500D02*
X298371Y415629D01*
X411815Y321185D02*
Y331878D01*
Y321185D02*
X434888Y298112D01*
X429724Y360224D02*
X447000Y377500D01*
X445426Y271346D02*
Y271574D01*
X310500Y383500D02*
X357526D01*
X431024Y344476D02*
X447000Y328500D01*
X398988Y318012D02*
Y325020D01*
X373480Y325039D02*
X373626Y325185D01*
X301823Y372823D02*
X351185D01*
X356704Y308850D02*
X367158Y319304D01*
X373480Y321646D02*
Y325039D01*
X296500Y367500D02*
X301823Y372823D01*
X373457Y321623D02*
X373480Y321646D01*
X299272Y376000D02*
X351157D01*
X296500Y278772D02*
X298074Y280346D01*
X373457Y318250D02*
Y321623D01*
X297523Y377748D02*
X299272Y376000D01*
X296500Y277500D02*
Y278772D01*
X358858Y303650D02*
X373457Y318250D01*
X364031Y325039D02*
X364177Y325185D01*
X296252Y377748D02*
X297523D01*
X364031Y321646D02*
Y325039D01*
X351157Y376000D02*
X351185Y375972D01*
X376630Y325039D02*
X376776Y325185D01*
X370308Y321623D02*
X370331Y321646D01*
X426374Y363374D02*
X439500Y376500D01*
X297772Y317500D02*
X299272Y319000D01*
X300324Y406676D02*
X315350Y391650D01*
X392742Y314758D02*
Y321502D01*
X392689Y321556D02*
X392742Y321502D01*
X398988Y318012D02*
X445426Y271574D01*
X386224Y325185D02*
X386370Y325039D01*
X442926Y279074D02*
X446426D01*
X370308Y318777D02*
Y321623D01*
X445989Y348500D02*
X447000D01*
X392524Y325185D02*
X392689Y325020D01*
X299272Y319000D02*
X302823D01*
X357878Y383852D02*
Y385815D01*
X432000Y243500D02*
X447000Y228500D01*
X411961Y350921D02*
X415354D01*
X446426Y279074D02*
X447000Y278500D01*
X402137Y319863D02*
Y325020D01*
X370331Y321646D02*
Y325039D01*
X411815Y353925D02*
X442425D01*
X352000Y325000D02*
Y331526D01*
X386370Y321646D02*
X386393Y321623D01*
X357781Y306250D02*
X370308Y318777D01*
X392689Y321556D02*
Y325020D01*
X445426Y271346D02*
X447000Y269772D01*
X296500Y257500D02*
Y258772D01*
X447000Y268500D02*
Y269772D01*
X411815Y360224D02*
X429724D01*
X359113Y391650D02*
X360859Y389904D01*
X435000Y250000D02*
Y267620D01*
X370331Y325039D02*
X370476Y325185D01*
X411815Y363374D02*
X426374D01*
X360882Y385961D02*
Y389354D01*
X364009Y319832D02*
Y321623D01*
X357526Y383500D02*
X357878Y383852D01*
X411815Y350776D02*
X411961Y350921D01*
X386370Y321646D02*
Y325039D01*
X402137Y319863D02*
X442926Y279074D01*
X442425Y353925D02*
X447000Y358500D01*
X395673Y325185D02*
X395838Y325020D01*
X445225Y298112D02*
X445837Y297500D01*
X376607Y317722D02*
Y321623D01*
X367158Y321623D02*
X367181Y321646D01*
X296500Y317500D02*
X297772D01*
X360859Y389377D02*
Y389904D01*
X376607Y321623D02*
X376630Y321646D01*
X367181Y325039D02*
X367327Y325185D01*
X296500Y407500D02*
X297324Y406676D01*
X389374Y313246D02*
X435000Y267620D01*
X415354Y350921D02*
X415377Y350944D01*
X401972Y325185D02*
X402137Y325020D01*
X439500Y376500D02*
Y381000D01*
X360882Y385961D02*
X361028Y385815D01*
X364009Y321623D02*
X364031Y321646D01*
X376630D02*
Y325039D01*
X439500Y381000D02*
X447000Y388500D01*
X315350Y391650D02*
X359113D01*
X389374Y313246D02*
Y325185D01*
X346250Y319250D02*
X352000Y325000D01*
X447000Y377500D02*
Y378500D01*
X351648Y331878D02*
X352000Y331526D01*
X360859Y389377D02*
X360882Y389354D01*
X367181Y321646D02*
Y325039D01*
X302823Y319000D02*
X303073Y319250D01*
X351185Y331878D02*
X351648D01*
X434888Y298112D02*
X445225D01*
X297324Y406676D02*
X300324D01*
X354550Y314050D02*
X360997Y320497D01*
X437874Y347626D02*
X447000Y338500D01*
X296500Y387500D02*
X304878Y379122D01*
X405503Y321497D02*
X436926Y290074D01*
X444154D01*
X445728Y288500D01*
X446900D01*
X441000Y264967D02*
X447467Y258500D01*
X441000Y264967D02*
Y271000D01*
X447000Y367500D02*
Y368500D01*
X436575Y357075D02*
X447000Y367500D01*
D40*
X379553Y403205D02*
X380335Y402422D01*
X379553Y403205D02*
Y404296D01*
X379540Y404309D02*
X379553Y404296D01*
X380335Y400211D02*
Y402422D01*
X379540Y404309D02*
Y407703D01*
X378665Y408578D02*
Y410789D01*
Y408578D02*
X379540Y407703D01*
D41*
X434000Y422000D02*
D03*
D42*
X447000Y408500D02*
D03*
Y368500D02*
D03*
Y338500D02*
D03*
Y328500D02*
D03*
Y318500D02*
D03*
Y298500D02*
D03*
Y288500D02*
D03*
Y268500D02*
D03*
Y248500D02*
D03*
Y238500D02*
D03*
Y258500D02*
D03*
Y278500D02*
D03*
Y308500D02*
D03*
Y348500D02*
D03*
Y358500D02*
D03*
Y378500D02*
D03*
Y388500D02*
D03*
Y398500D02*
D03*
Y418500D02*
D03*
X296500Y277500D02*
D03*
Y307500D02*
D03*
Y317500D02*
D03*
Y327500D02*
D03*
Y347500D02*
D03*
Y357500D02*
D03*
Y377500D02*
D03*
Y397500D02*
D03*
Y407500D02*
D03*
Y387500D02*
D03*
Y367500D02*
D03*
Y337500D02*
D03*
Y297500D02*
D03*
Y287500D02*
D03*
Y267500D02*
D03*
Y257500D02*
D03*
Y247500D02*
D03*
Y237500D02*
D03*
Y227500D02*
D03*
D43*
X447000Y228500D02*
D03*
X296500Y417500D02*
D03*
D44*
X387000Y366500D02*
D03*
X394000Y351000D02*
D03*
X375500Y353000D02*
D03*
X360000Y358000D02*
D03*
X419044Y415299D02*
D03*
X431500Y332500D02*
D03*
X334443Y336000D02*
D03*
X328750Y329053D02*
D03*
X338000Y324500D02*
D03*
X324943Y337557D02*
D03*
X335500Y406000D02*
D03*
X392000Y394500D02*
D03*
X369500Y275500D02*
D03*
X363000Y281500D02*
D03*
X354500Y275500D02*
D03*
X347000Y281500D02*
D03*
X338500Y247000D02*
D03*
X317500Y334000D02*
D03*
X422000Y378500D02*
D03*
X427500Y317500D02*
D03*
D45*
X374000Y282000D02*
D03*
X368733Y303767D02*
D03*
X362000Y334000D02*
D03*
M02*
