G04*
G04 #@! TF.GenerationSoftware,Altium Limited,Altium Designer,24.3.1 (35)*
G04*
G04 Layer_Color=8388736*
%FSLAX25Y25*%
%MOIN*%
G70*
G04*
G04 #@! TF.SameCoordinates,2C43556E-CA56-414C-B847-F3BA9A1E951D*
G04*
G04*
G04 #@! TF.FilePolarity,Negative*
G04*
G01*
G75*
%ADD16R,0.06800X0.04800*%
%ADD17R,0.03162X0.09068*%
%ADD18O,0.08871X0.03162*%
%ADD19O,0.03162X0.08871*%
%ADD20R,0.04800X0.06800*%
%ADD21R,0.04016X0.12658*%
G04:AMPARAMS|DCode=22|XSize=55.12mil|YSize=45.28mil|CornerRadius=0mil|HoleSize=0mil|Usage=FLASHONLY|Rotation=315.000|XOffset=0mil|YOffset=0mil|HoleType=Round|Shape=Rectangle|*
%AMROTATEDRECTD22*
4,1,4,-0.03550,0.00348,-0.00348,0.03550,0.03550,-0.00348,0.00348,-0.03550,-0.03550,0.00348,0.0*
%
%ADD22ROTATEDRECTD22*%

%ADD23C,0.03800*%
%ADD24R,0.07100X0.07100*%
%ADD25C,0.07099*%
G04:AMPARAMS|DCode=26|XSize=70.99mil|YSize=70.99mil|CornerRadius=19.75mil|HoleSize=0mil|Usage=FLASHONLY|Rotation=90.000|XOffset=0mil|YOffset=0mil|HoleType=Round|Shape=RoundedRectangle|*
%AMROUNDEDRECTD26*
21,1,0.07099,0.03150,0,0,90.0*
21,1,0.03150,0.07099,0,0,90.0*
1,1,0.03950,0.01575,0.01575*
1,1,0.03950,0.01575,-0.01575*
1,1,0.03950,-0.01575,-0.01575*
1,1,0.03950,-0.01575,0.01575*
%
%ADD26ROUNDEDRECTD26*%
%ADD27C,0.06800*%
%ADD28C,0.05800*%
D16*
X386500Y421000D02*
D03*
Y413000D02*
D03*
X414500Y384500D02*
D03*
Y392500D02*
D03*
X396000Y414500D02*
D03*
Y422500D02*
D03*
X421500Y392500D02*
D03*
Y384500D02*
D03*
X396000Y402000D02*
D03*
Y410000D02*
D03*
X360500Y407500D02*
D03*
Y399500D02*
D03*
X372000Y414000D02*
D03*
Y422000D02*
D03*
X424000Y328000D02*
D03*
Y336000D02*
D03*
X341500Y337500D02*
D03*
Y329500D02*
D03*
X425000Y408500D02*
D03*
Y400500D02*
D03*
X353000Y407500D02*
D03*
Y399500D02*
D03*
X346000Y407500D02*
D03*
Y399500D02*
D03*
D17*
X410740Y406634D02*
D03*
X403260D02*
D03*
X407000Y398366D02*
D03*
D18*
X351185Y379122D02*
D03*
Y375972D02*
D03*
Y372823D02*
D03*
Y369673D02*
D03*
Y366524D02*
D03*
Y363374D02*
D03*
Y360224D02*
D03*
Y357075D02*
D03*
Y353925D02*
D03*
Y350776D02*
D03*
Y347626D02*
D03*
Y344476D02*
D03*
Y341327D02*
D03*
Y338177D02*
D03*
Y335028D02*
D03*
Y331878D02*
D03*
X411815D02*
D03*
Y335028D02*
D03*
Y338177D02*
D03*
Y341327D02*
D03*
Y344476D02*
D03*
Y347626D02*
D03*
Y350776D02*
D03*
Y353925D02*
D03*
Y357075D02*
D03*
Y360224D02*
D03*
Y363374D02*
D03*
Y366524D02*
D03*
Y369673D02*
D03*
Y372823D02*
D03*
Y375972D02*
D03*
Y379122D02*
D03*
D19*
X357878Y325185D02*
D03*
X361028D02*
D03*
X364177D02*
D03*
X367327D02*
D03*
X370476D02*
D03*
X373626D02*
D03*
X376776D02*
D03*
X379925D02*
D03*
X383075D02*
D03*
X386224D02*
D03*
X389374D02*
D03*
X392524D02*
D03*
X395673D02*
D03*
X398823D02*
D03*
X401972D02*
D03*
X405122D02*
D03*
Y385815D02*
D03*
X401972D02*
D03*
X398823D02*
D03*
X395673D02*
D03*
X392524D02*
D03*
X389374D02*
D03*
X386224D02*
D03*
X383075D02*
D03*
X379925D02*
D03*
X376776D02*
D03*
X373626D02*
D03*
X370476D02*
D03*
X367327D02*
D03*
X364177D02*
D03*
X361028D02*
D03*
X357878D02*
D03*
D20*
X411000Y415000D02*
D03*
X403000D02*
D03*
X378000Y303000D02*
D03*
X386000D02*
D03*
X427000Y372000D02*
D03*
X419000D02*
D03*
X411000Y422000D02*
D03*
X403000D02*
D03*
D21*
X345126Y246354D02*
D03*
X353000D02*
D03*
X360874D02*
D03*
X368748D02*
D03*
X376622D02*
D03*
X345126Y263500D02*
D03*
X353000D02*
D03*
X360874D02*
D03*
X368748D02*
D03*
X376622D02*
D03*
D22*
X374211Y406335D02*
D03*
X380335Y400211D02*
D03*
X384789Y404665D02*
D03*
X378665Y410789D02*
D03*
D23*
X434000Y422000D02*
D03*
D24*
D03*
D25*
X447000Y408500D02*
D03*
Y368500D02*
D03*
Y338500D02*
D03*
Y328500D02*
D03*
Y318500D02*
D03*
Y298500D02*
D03*
Y288500D02*
D03*
Y268500D02*
D03*
Y248500D02*
D03*
Y238500D02*
D03*
Y258500D02*
D03*
Y278500D02*
D03*
Y308500D02*
D03*
Y348500D02*
D03*
Y358500D02*
D03*
Y378500D02*
D03*
Y388500D02*
D03*
Y398500D02*
D03*
Y418500D02*
D03*
X296500Y277500D02*
D03*
Y307500D02*
D03*
Y317500D02*
D03*
Y327500D02*
D03*
Y347500D02*
D03*
Y357500D02*
D03*
Y377500D02*
D03*
Y397500D02*
D03*
Y407500D02*
D03*
Y387500D02*
D03*
Y367500D02*
D03*
Y337500D02*
D03*
Y297500D02*
D03*
Y287500D02*
D03*
Y267500D02*
D03*
Y257500D02*
D03*
Y247500D02*
D03*
Y237500D02*
D03*
Y227500D02*
D03*
D26*
X447000Y228500D02*
D03*
X296500Y417500D02*
D03*
D27*
X387000Y366500D02*
D03*
X394000Y351000D02*
D03*
X375500Y353000D02*
D03*
X360000Y358000D02*
D03*
X419044Y415299D02*
D03*
X431500Y332500D02*
D03*
X334443Y336000D02*
D03*
X328750Y329053D02*
D03*
X338000Y324500D02*
D03*
X324943Y337557D02*
D03*
X335500Y406000D02*
D03*
X392000Y394500D02*
D03*
X369500Y275500D02*
D03*
X363000Y281500D02*
D03*
X354500Y275500D02*
D03*
X347000Y281500D02*
D03*
X338500Y247000D02*
D03*
X317500Y334000D02*
D03*
X422000Y378500D02*
D03*
X427500Y317500D02*
D03*
D28*
X374000Y282000D02*
D03*
X368733Y303767D02*
D03*
X362000Y334000D02*
D03*
M02*
