ISO-10303-21;
HEADER;

/* File generated by Shapr3D Version 3.0 */

FILE_DESCRIPTION(('HOOPS Exchange Step'),'2;1');

FILE_NAME('C:\\Users\\30abd\\AppData\\Local\\Packages\\Shapr3D.Shapr3D_j403pzjkqtqbj\\TempState\\export\\temp_export',
'2023-01-28T17:11:16+08:00',
('30abd'),
('Shapr3D Limited'),
'HOOPS Exchange 2022.2',
'Shapr3D',
'Authorized');

FILE_SCHEMA( ('AUTOMOTIVE_DESIGN { 1 0 10303 214 1 1 1 1 }') );

ENDSEC;

DATA;
#3=(NAMED_UNIT(*)PLANE_ANGLE_UNIT()SI_UNIT($,.RADIAN.));
#4=PLANE_ANGLE_MEASURE_WITH_UNIT(PLANE_ANGLE_MEASURE(0.0174532925),#3);
#5=(CONVERSION_BASED_UNIT('DEGREE',#4)NAMED_UNIT(#6)PLANE_ANGLE_UNIT());
#6=DIMENSIONAL_EXPONENTS(0.,0.,0.,0.,0.,0.,0.);
#7=(NAMED_UNIT(*)SI_UNIT($,.STERADIAN.)SOLID_ANGLE_UNIT());
#8=(LENGTH_UNIT()NAMED_UNIT(*)SI_UNIT(.MILLI.,.METRE.));
#9=UNCERTAINTY_MEASURE_WITH_UNIT(LENGTH_MEASURE(1.000000E-03),#8,'DISTANCE_ACCURACY_VALUE','Maximum Tolerance applied to model');
#10=(GEOMETRIC_REPRESENTATION_CONTEXT(3)GLOBAL_UNCERTAINTY_ASSIGNED_CONTEXT((#9))GLOBAL_UNIT_ASSIGNED_CONTEXT((#8,#5,#7))REPRESENTATION_CONTEXT('','root'));
#12=CARTESIAN_POINT('',(0.,0.,0.));
#13=DIRECTION('',(0.,0.,1.));
#14=DIRECTION('',(1.,0.,0.));
#15=AXIS2_PLACEMENT_3D('',#12,#13,#14);
#26=(NAMED_UNIT(*)PLANE_ANGLE_UNIT()SI_UNIT($,.RADIAN.));
#27=PLANE_ANGLE_MEASURE_WITH_UNIT(PLANE_ANGLE_MEASURE(0.0174532925),#26);
#28=(CONVERSION_BASED_UNIT('DEGREE',#27)NAMED_UNIT(#29)PLANE_ANGLE_UNIT());
#29=DIMENSIONAL_EXPONENTS(0.,0.,0.,0.,0.,0.,0.);
#30=(NAMED_UNIT(*)SI_UNIT($,.STERADIAN.)SOLID_ANGLE_UNIT());
#31=(LENGTH_UNIT()NAMED_UNIT(*)SI_UNIT(.MILLI.,.METRE.));
#32=UNCERTAINTY_MEASURE_WITH_UNIT(LENGTH_MEASURE(1.000000E-05),#31,'DISTANCE_ACCURACY_VALUE','Maximum Tolerance applied to model');
#33=(GEOMETRIC_REPRESENTATION_CONTEXT(3)GLOBAL_UNCERTAINTY_ASSIGNED_CONTEXT((#32))GLOBAL_UNIT_ASSIGNED_CONTEXT((#31,#28,#30))REPRESENTATION_CONTEXT('','Circular Pattern 01'));
#45=CARTESIAN_POINT('',(0.,0.,0.));
#46=DIRECTION('',(0.,0.,1.));
#47=DIRECTION('',(1.,0.,-0.));
#48=AXIS2_PLACEMENT_3D('',#45,#46,#47);
#49=ITEM_DEFINED_TRANSFORMATION('','',#48,#15);
#50=(REPRESENTATION_RELATIONSHIP('','',#35,#16)REPRESENTATION_RELATIONSHIP_WITH_TRANSFORMATION(#49)SHAPE_REPRESENTATION_RELATIONSHIP());
#51=NEXT_ASSEMBLY_USAGE_OCCURRENCE('Circular Pattern 01_1','Circular Pattern 01','Circular Pattern 01',#25,#44,$);
#52=PRODUCT_DEFINITION_SHAPE('','',#51);
#53=CONTEXT_DEPENDENT_SHAPE_REPRESENTATION(#50,#52);
#55=CARTESIAN_POINT('',(0.06,0.502703557,-0.003387025));
#56=DIRECTION('',(-1.,0.,0.));
#57=DIRECTION('',(0.,0.707106781,-0.707106781));
#58=AXIS2_PLACEMENT_3D('',#55,#56,#57);
#59=CYLINDRICAL_SURFACE('',#58,0.125);
#60=CARTESIAN_POINT('',(-1.165,0.591091905,-0.091775373));
#61=VERTEX_POINT('',#60);
#62=CARTESIAN_POINT('',(0.06,0.591091905,-0.091775373));
#63=VERTEX_POINT('',#62);
#64=CARTESIAN_POINT('',(-1.165,0.591091905,-0.091775373));
#65=DIRECTION('',(1.,-0.,-0.));
#66=VECTOR('',#65,1.225);
#67=LINE('',#64,#66);
#68=EDGE_CURVE('',#61,#63,#67,.T.);
#69=ORIENTED_EDGE('',*,*,#68,.T.);
#70=CARTESIAN_POINT('',(0.06,0.502703557,-0.128387025));
#71=VERTEX_POINT('',#70);
#72=CARTESIAN_POINT('',(0.06,0.502703557,-0.003387025));
#73=DIRECTION('',(-1.,-0.,-0.));
#74=DIRECTION('',(0.,0.,-1.));
#75=AXIS2_PLACEMENT_3D('',#72,#73,#74);
#76=CIRCLE('',#75,0.125);
#77=EDGE_CURVE('',#63,#71,#76,.T.);
#78=ORIENTED_EDGE('',*,*,#77,.T.);
#79=CARTESIAN_POINT('',(0.06,0.502703557,-0.003387025));
#80=DIRECTION('',(-1.,-0.,-0.));
#81=DIRECTION('',(0.,0.,-1.));
#82=AXIS2_PLACEMENT_3D('',#79,#80,#81);
#83=CIRCLE('',#82,0.125);
#84=EDGE_CURVE('',#71,#63,#83,.T.);
#85=ORIENTED_EDGE('',*,*,#84,.T.);
#86=ORIENTED_EDGE('',*,*,#68,.F.);
#87=CARTESIAN_POINT('',(-1.165,0.41431521,0.085001323));
#88=VERTEX_POINT('',#87);
#89=CARTESIAN_POINT('',(-1.165,0.502703557,-0.003387025));
#90=DIRECTION('',(0.469612973,-0.624285053,-0.624285053));
#91=DIRECTION('',(-0.882872389,-0.332066518,-0.332066518));
#92=AXIS2_PLACEMENT_3D('',#89,#90,#91);
#93=ELLIPSE('',#92,0.266176633,0.125);
#94=EDGE_CURVE('',#61,#88,#93,.T.);
#95=ORIENTED_EDGE('',*,*,#94,.T.);
#96=CARTESIAN_POINT('',(-1.18,0.41431521,-0.091775373));
#97=VERTEX_POINT('',#96);
#98=CARTESIAN_POINT('',(-1.165,0.502703557,-0.003387025));
#99=DIRECTION('',(0.992876838,-0.084248393,-0.084248393));
#100=DIRECTION('',(-0.119145221,-0.702069945,-0.702069945));
#101=AXIS2_PLACEMENT_3D('',#98,#99,#100);
#102=ELLIPSE('',#101,0.125896783,0.125);
#103=EDGE_CURVE('',#88,#97,#102,.T.);
#104=ORIENTED_EDGE('',*,*,#103,.T.);
#105=CARTESIAN_POINT('',(-1.165,0.502703557,-0.003387025));
#106=DIRECTION('',(0.992876838,-0.084248393,-0.084248393));
#107=DIRECTION('',(-0.119145221,-0.702069945,-0.702069945));
#108=AXIS2_PLACEMENT_3D('',#105,#106,#107);
#109=ELLIPSE('',#108,0.125896783,0.125);
#110=EDGE_CURVE('',#97,#61,#109,.T.);
#111=ORIENTED_EDGE('',*,*,#110,.T.);
#112=EDGE_LOOP('',(#69,#78,#85,#86,#95,#104,#111));
#113=FACE_BOUND('',#112,.T.);
#114=ADVANCED_FACE('',(#113),#59,.T.);
#115=CARTESIAN_POINT('',(-2.95,0.605234041,0.099143458));
#116=DIRECTION('',(-1.,0.,0.));
#117=DIRECTION('',(0.,0.707106781,0.707106781));
#118=AXIS2_PLACEMENT_3D('',#115,#116,#117);
#119=PLANE('',#118);
#120=CARTESIAN_POINT('',(-2.95,1.047175779,0.364308501));
#121=VERTEX_POINT('',#120);
#122=CARTESIAN_POINT('',(-2.95,0.958787431,0.452696849));
#123=DIRECTION('',(-1.,0.,0.));
#124=DIRECTION('',(0.,0.707106781,-0.707106781));
#125=AXIS2_PLACEMENT_3D('',#122,#123,#124);
#126=CIRCLE('',#125,0.125);
#127=EDGE_CURVE('',#121,#121,#126,.T.);
#128=ORIENTED_EDGE('',*,*,#127,.T.);
#129=EDGE_LOOP('',(#128));
#130=FACE_BOUND('',#129,.T.);
#131=ADVANCED_FACE('',(#130),#119,.T.);
#132=CARTESIAN_POINT('',(-0.8025,0.958787431,0.452696849));
#133=DIRECTION('',(-1.,0.,0.));
#134=DIRECTION('',(0.,0.707106781,-0.707106781));
#135=AXIS2_PLACEMENT_3D('',#132,#133,#134);
#136=CYLINDRICAL_SURFACE('',#135,0.125);
#137=CARTESIAN_POINT('',(-1.165,1.047175779,0.364308501));
#138=VERTEX_POINT('',#137);
#139=CARTESIAN_POINT('',(-2.95,1.047175779,0.364308501));
#140=DIRECTION('',(1.,-0.,-0.));
#141=VECTOR('',#140,1.785);
#142=LINE('',#139,#141);
#143=EDGE_CURVE('',#121,#138,#142,.T.);
#144=ORIENTED_EDGE('',*,*,#143,.T.);
#145=CARTESIAN_POINT('',(-1.165,0.870399084,0.541085197));
#146=VERTEX_POINT('',#145);
#147=CARTESIAN_POINT('',(-1.165,0.958787431,0.452696849));
#148=DIRECTION('',(-0.454470342,0.629863758,0.629863758));
#149=DIRECTION('',(0.89076187,0.32135906,0.32135906));
#150=AXIS2_PLACEMENT_3D('',#147,#148,#149);
#151=ELLIPSE('',#150,0.275045451,0.125);
#152=EDGE_CURVE('',#138,#146,#151,.T.);
#153=ORIENTED_EDGE('',*,*,#152,.T.);
#154=CARTESIAN_POINT('',(-1.16,1.047175779,0.541085197));
#155=VERTEX_POINT('',#154);
#156=CARTESIAN_POINT('',(-1.165,0.958787431,0.452696849));
#157=DIRECTION('',(-0.999200959,0.028261671,0.028261671));
#158=DIRECTION('',(0.039968038,0.706541774,0.706541774));
#159=AXIS2_PLACEMENT_3D('',#156,#157,#158);
#160=ELLIPSE('',#159,0.12509996,0.125);
#161=EDGE_CURVE('',#146,#155,#160,.T.);
#162=ORIENTED_EDGE('',*,*,#161,.T.);
#163=CARTESIAN_POINT('',(-1.165,0.958787431,0.452696849));
#164=DIRECTION('',(-0.999200959,0.028261671,0.028261671));
#165=DIRECTION('',(0.039968038,0.706541774,0.706541774));
#166=AXIS2_PLACEMENT_3D('',#163,#164,#165);
#167=ELLIPSE('',#166,0.12509996,0.125);
#168=EDGE_CURVE('',#155,#138,#167,.T.);
#169=ORIENTED_EDGE('',*,*,#168,.T.);
#170=ORIENTED_EDGE('',*,*,#143,.F.);
#171=ORIENTED_EDGE('',*,*,#127,.F.);
#172=EDGE_LOOP('',(#144,#153,#162,#169,#170,#171));
#173=FACE_BOUND('',#172,.T.);
#174=ADVANCED_FACE('',(#173),#136,.T.);
#175=CARTESIAN_POINT('',(-1.165,0.22869968,-0.277390903));
#176=DIRECTION('',(0.,0.707106781,0.707106781));
#177=DIRECTION('',(-0.,-0.707106781,0.707106781));
#178=AXIS2_PLACEMENT_3D('',#175,#176,#177);
#179=CYLINDRICAL_SURFACE('',#178,0.125);
#180=CARTESIAN_POINT('',(-1.165,0.870399084,0.541085197));
#181=DIRECTION('',(-0.,-0.707106781,-0.707106781));
#182=VECTOR('',#181,0.645);
#183=LINE('',#180,#182);
#184=EDGE_CURVE('',#146,#88,#183,.T.);
#185=ORIENTED_EDGE('',*,*,#184,.T.);
#186=CARTESIAN_POINT('',(-1.165,0.502703557,-0.003387025));
#187=DIRECTION('',(-0.882872389,0.332066518,0.332066518));
#188=DIRECTION('',(-0.469612973,-0.624285053,-0.624285053));
#189=AXIS2_PLACEMENT_3D('',#186,#187,#188);
#190=ELLIPSE('',#189,0.266176633,0.125);
#191=EDGE_CURVE('',#88,#61,#190,.T.);
#192=ORIENTED_EDGE('',*,*,#191,.T.);
#193=CARTESIAN_POINT('',(-1.29,0.492096956,-0.013993627));
#194=VERTEX_POINT('',#193);
#195=CARTESIAN_POINT('',(-1.165,0.502703557,-0.003387025));
#196=DIRECTION('',(-0.119145221,0.702069945,0.702069945));
#197=DIRECTION('',(-0.992876838,-0.084248393,-0.084248393));
#198=AXIS2_PLACEMENT_3D('',#195,#196,#197);
#199=ELLIPSE('',#198,0.125896783,0.125);
#200=EDGE_CURVE('',#61,#194,#199,.T.);
#201=ORIENTED_EDGE('',*,*,#200,.T.);
#202=CARTESIAN_POINT('',(-1.165,0.502703557,-0.003387025));
#203=DIRECTION('',(-0.119145221,0.702069945,0.702069945));
#204=DIRECTION('',(-0.992876838,-0.084248393,-0.084248393));
#205=AXIS2_PLACEMENT_3D('',#202,#203,#204);
#206=ELLIPSE('',#205,0.125896783,0.125);
#207=EDGE_CURVE('',#194,#88,#206,.T.);
#208=ORIENTED_EDGE('',*,*,#207,.T.);
#209=ORIENTED_EDGE('',*,*,#184,.F.);
#210=CARTESIAN_POINT('',(-1.165,0.958787431,0.452696849));
#211=DIRECTION('',(0.89076187,-0.32135906,-0.32135906));
#212=DIRECTION('',(0.454470342,0.629863758,0.629863758));
#213=AXIS2_PLACEMENT_3D('',#210,#211,#212);
#214=ELLIPSE('',#213,0.275045451,0.125);
#215=EDGE_CURVE('',#146,#138,#214,.T.);
#216=ORIENTED_EDGE('',*,*,#215,.T.);
#217=CARTESIAN_POINT('',(-1.04,0.962322965,0.456232383));
#218=VERTEX_POINT('',#217);
#219=CARTESIAN_POINT('',(-1.165,0.958787431,0.452696849));
#220=DIRECTION('',(0.039968038,-0.706541774,-0.706541774));
#221=DIRECTION('',(0.999200959,0.028261671,0.028261671));
#222=AXIS2_PLACEMENT_3D('',#219,#220,#221);
#223=ELLIPSE('',#222,0.12509996,0.125);
#224=EDGE_CURVE('',#138,#218,#223,.T.);
#225=ORIENTED_EDGE('',*,*,#224,.T.);
#226=CARTESIAN_POINT('',(-1.165,0.958787431,0.452696849));
#227=DIRECTION('',(0.039968038,-0.706541774,-0.706541774));
#228=DIRECTION('',(0.999200959,0.028261671,0.028261671));
#229=AXIS2_PLACEMENT_3D('',#226,#227,#228);
#230=ELLIPSE('',#229,0.12509996,0.125);
#231=EDGE_CURVE('',#218,#146,#230,.T.);
#232=ORIENTED_EDGE('',*,*,#231,.T.);
#233=EDGE_LOOP('',(#185,#192,#201,#208,#209,#216,#225,#232));
#234=FACE_BOUND('',#233,.T.);
#235=ADVANCED_FACE('',(#234),#179,.T.);
#236=CARTESIAN_POINT('',(-1.165,0.41431521,0.085001322));
#237=CARTESIAN_POINT('',(-1.165,0.41431521,0.085001322));
#238=CARTESIAN_POINT('',(-1.165,0.41431521,0.085001323));
#239=CARTESIAN_POINT('',(-1.165,0.41431521,0.085001323));
#240=CARTESIAN_POINT('',(-1.165,0.41431521,0.085001323));
#241=CARTESIAN_POINT('',(-1.165,0.41431521,0.085001323));
#242=CARTESIAN_POINT('',(-1.165,0.41431521,0.085001323));
#243=CARTESIAN_POINT('',(-1.165,0.41431521,0.085001323));
#244=CARTESIAN_POINT('',(-1.165,0.41431521,0.085001323));
#245=CARTESIAN_POINT('',(-1.165,0.41431521,0.085001323));
#246=CARTESIAN_POINT('',(-1.165,0.41431521,0.085001323));
#247=CARTESIAN_POINT('',(-1.165,0.41431521,0.085001323));
#248=CARTESIAN_POINT('',(-1.165,0.41431521,0.085001323));
#249=CARTESIAN_POINT('',(-1.165,0.41431521,0.085001323));
#250=CARTESIAN_POINT('',(-1.165,0.41431521,0.085001323));
#251=CARTESIAN_POINT('',(-1.165,0.41431521,0.085001323));
#252=CARTESIAN_POINT('',(-1.165,0.41431521,0.085001323));
#253=CARTESIAN_POINT('',(-1.165,0.41431521,0.085001323));
#254=CARTESIAN_POINT('',(-1.132275077,0.457818439,0.128504552));
#255=CARTESIAN_POINT('',(-1.132275077,0.457818439,0.128504552));
#256=CARTESIAN_POINT('',(-1.11787611,0.447636832,0.118322945));
#257=CARTESIAN_POINT('',(-1.11787611,0.447636832,0.118322945));
#258=CARTESIAN_POINT('',(-1.103477144,0.437455225,0.108141338));
#259=CARTESIAN_POINT('',(-1.103477144,0.437455225,0.108141338));
#260=CARTESIAN_POINT('',(-1.099751668,0.510579668,0.162214009));
#261=CARTESIAN_POINT('',(-1.090756555,0.507121033,0.151838105));
#262=CARTESIAN_POINT('',(-1.081221411,0.501931854,0.143178409));
#263=CARTESIAN_POINT('',(-1.061908265,0.488275396,0.129521952));
#264=CARTESIAN_POINT('',(-1.052115631,0.479797774,0.124514846));
#265=CARTESIAN_POINT('',(-1.042333135,0.469978634,0.121612975));
#266=CARTESIAN_POINT('',(-1.053471637,0.604827447,0.191011941));
#267=CARTESIAN_POINT('',(-1.046791141,0.597201752,0.168134856));
#268=CARTESIAN_POINT('',(-1.033403977,0.586182413,0.148720574));
#269=CARTESIAN_POINT('',(-0.998415221,0.561441626,0.123979787));
#270=CARTESIAN_POINT('',(-0.9768954,0.547778,0.118711104));
#271=CARTESIAN_POINT('',(-0.955326678,0.535428481,0.121612975));
#272=CARTESIAN_POINT('',(-1.04,0.645733636,0.185923084));
#273=CARTESIAN_POINT('',(-1.04,0.630701499,0.160228794));
#274=CARTESIAN_POINT('',(-1.028144959,0.613567321,0.136887331));
#275=CARTESIAN_POINT('',(-0.987418532,0.584769389,0.108089398));
#276=CARTESIAN_POINT('',(-0.958797933,0.573282967,0.102810261));
#277=CARTESIAN_POINT('',(-0.93,0.56795189,0.108141338));
#278=CARTESIAN_POINT('',(-1.04,0.692013666,0.139643053));
#279=CARTESIAN_POINT('',(-1.04,0.666319376,0.124610917));
#280=CARTESIAN_POINT('',(-1.028144959,0.642977913,0.107476739));
#281=CARTESIAN_POINT('',(-0.987418532,0.614179981,0.078678806));
#282=CARTESIAN_POINT('',(-0.958797933,0.608900844,0.067192384));
#283=CARTESIAN_POINT('',(-0.93,0.61423192,0.061861307));
#284=CARTESIAN_POINT('',(-1.053471637,0.697102524,0.098736865));
#285=CARTESIAN_POINT('',(-1.046791141,0.674225439,0.09111117));
#286=CARTESIAN_POINT('',(-1.033403977,0.654811156,0.08009183));
#287=CARTESIAN_POINT('',(-0.998415221,0.63007037,0.055351044));
#288=CARTESIAN_POINT('',(-0.9768954,0.624801687,0.041687418));
#289=CARTESIAN_POINT('',(-0.955326678,0.627703557,0.029337899));
#290=CARTESIAN_POINT('',(-1.099751668,0.668304591,0.004489085));
#291=CARTESIAN_POINT('',(-1.090756555,0.657928688,0.001030451));
#292=CARTESIAN_POINT('',(-1.081221411,0.649268992,-0.004158729));
#293=CARTESIAN_POINT('',(-1.061908265,0.635612534,-0.017815186));
#294=CARTESIAN_POINT('',(-1.052115631,0.630605428,-0.026292809));
#295=CARTESIAN_POINT('',(-1.042333135,0.627703557,-0.036111948));
#296=CARTESIAN_POINT('',(-1.132275077,0.634595134,-0.048272144));
#297=CARTESIAN_POINT('',(-1.132275077,0.634595134,-0.048272144));
#298=CARTESIAN_POINT('',(-1.11787611,0.624413527,-0.058453751));
#299=CARTESIAN_POINT('',(-1.11787611,0.624413527,-0.058453751));
#300=CARTESIAN_POINT('',(-1.103477144,0.61423192,-0.068635357));
#301=CARTESIAN_POINT('',(-1.103477144,0.61423192,-0.068635357));
#302=CARTESIAN_POINT('',(-1.165,0.591091905,-0.091775373));
#303=CARTESIAN_POINT('',(-1.165,0.591091905,-0.091775373));
#304=CARTESIAN_POINT('',(-1.165,0.591091905,-0.091775373));
#305=CARTESIAN_POINT('',(-1.165,0.591091905,-0.091775373));
#306=CARTESIAN_POINT('',(-1.165,0.591091905,-0.091775373));
#307=CARTESIAN_POINT('',(-1.165,0.591091905,-0.091775373));
#308=CARTESIAN_POINT('',(-1.165,0.591091905,-0.091775373));
#309=CARTESIAN_POINT('',(-1.165,0.591091905,-0.091775373));
#310=CARTESIAN_POINT('',(-1.165,0.591091905,-0.091775373));
#311=CARTESIAN_POINT('',(-1.165,0.591091905,-0.091775373));
#312=CARTESIAN_POINT('',(-1.165,0.591091905,-0.091775373));
#313=CARTESIAN_POINT('',(-1.165,0.591091905,-0.091775373));
#314=CARTESIAN_POINT('',(-1.165,0.591091905,-0.091775373));
#315=CARTESIAN_POINT('',(-1.165,0.591091905,-0.091775373));
#316=CARTESIAN_POINT('',(-1.165,0.591091905,-0.091775373));
#317=CARTESIAN_POINT('',(-1.165,0.591091905,-0.091775373));
#318=CARTESIAN_POINT('',(-1.165,0.591091905,-0.091775373));
#319=CARTESIAN_POINT('',(-1.165,0.591091905,-0.091775373));
#320=B_SPLINE_SURFACE_WITH_KNOTS('',3,3,((#236,#237,#238,#239,#240,#241),(#242,#243,#244,#245,#246,#247),(#248,#249,#250,#251,#252,#253),(#254,#255,#256,#257,#258,#259),(#260,#261,#262,#263,#264,#265),(#266,#267,#268,#269,#270,#271),(#272,#273,#274,#275,#276,#277),(#278,#279,#280,#281,#282,#283),(#284,#285,#286,#287,#288,#289),(#290,#291,#292,#293,#294,#295),(#296,#297,#298,#299,#300,#301),(#302,#303,#304,#305,#306,#307),(#308,#309,#310,#311,#312,#313),(#314,#315,#316,#317,#318,#319)),.UNSPECIFIED.,.F.,.F.,.U.,(4,2,2,2,2,2,4),(4,2,4),(1.570796325295,1.570796326795,2.35619449,3.141592654,3.926990817,4.712388980385,4.712388981885),(0.,0.5,1.),.UNSPECIFIED.);
#321=ORIENTED_EDGE('',*,*,#94,.F.);
#322=ORIENTED_EDGE('',*,*,#191,.F.);
#323=EDGE_LOOP('',(#321,#322));
#324=FACE_BOUND('',#323,.T.);
#325=ADVANCED_FACE('',(#324),#320,.F.);
#326=CARTESIAN_POINT('',(-1.18,0.414314914,-0.091775077));
#327=CARTESIAN_POINT('',(-1.208797933,0.414314846,-0.091775009));
#328=CARTESIAN_POINT('',(-1.237418532,0.422697586,-0.083392189));
#329=CARTESIAN_POINT('',(-1.278144959,0.451495518,-0.054594257));
#330=CARTESIAN_POINT('',(-1.29,0.471733378,-0.034356476));
#331=CARTESIAN_POINT('',(-1.29,0.49209666,-0.013993331));
#332=CARTESIAN_POINT('',(-1.179999986,0.39117508,-0.06863508));
#333=CARTESIAN_POINT('',(-1.208797857,0.385844024,-0.063303944));
#334=CARTESIAN_POINT('',(-1.237418397,0.391123161,-0.051817503));
#335=CARTESIAN_POINT('',(-1.278144775,0.419921059,-0.023019605));
#336=CARTESIAN_POINT('',(-1.289999828,0.443262488,-0.005885479));
#337=CARTESIAN_POINT('',(-1.289999885,0.468956754,0.009146594));
#338=CARTESIAN_POINT('',(-1.178383392,0.377703557,-0.036111809));
#339=CARTESIAN_POINT('',(-1.199952089,0.374801699,-0.023762295));
#340=CARTESIAN_POINT('',(-1.221471885,0.380070382,-0.01009868));
#341=CARTESIAN_POINT('',(-1.256460607,0.404811144,0.014642083));
#342=CARTESIAN_POINT('',(-1.269847763,0.424225404,0.02566141));
#343=CARTESIAN_POINT('',(-1.276528264,0.447102462,0.033287096));
#344=CARTESIAN_POINT('',(-1.1728298,0.377703557,0.029337899));
#345=CARTESIAN_POINT('',(-1.182612295,0.380605428,0.039157038));
#346=CARTESIAN_POINT('',(-1.192404929,0.385612534,0.047634661));
#347=CARTESIAN_POINT('',(-1.211718076,0.399268992,0.061291118));
#348=CARTESIAN_POINT('',(-1.22125322,0.407928688,0.066480298));
#349=CARTESIAN_POINT('',(-1.230248332,0.418304591,0.069938932));
#350=CARTESIAN_POINT('',(-1.168926991,0.391175194,0.061861307));
#351=CARTESIAN_POINT('',(-1.168926991,0.391175194,0.061861307));
#352=CARTESIAN_POINT('',(-1.183325957,0.401356801,0.072042914));
#353=CARTESIAN_POINT('',(-1.183325957,0.401356801,0.072042914));
#354=CARTESIAN_POINT('',(-1.197724923,0.411538408,0.082224521));
#355=CARTESIAN_POINT('',(-1.197724923,0.411538408,0.082224521));
#356=CARTESIAN_POINT('',(-1.164999983,0.414315311,0.085001424));
#357=CARTESIAN_POINT('',(-1.164999983,0.414315311,0.085001424));
#358=CARTESIAN_POINT('',(-1.16499992,0.414315266,0.085001379));
#359=CARTESIAN_POINT('',(-1.16499992,0.414315266,0.085001379));
#360=CARTESIAN_POINT('',(-1.164999857,0.414315222,0.085001335));
#361=CARTESIAN_POINT('',(-1.164999857,0.414315222,0.085001335));
#362=CARTESIAN_POINT('',(-1.164999966,0.414315412,0.085001525));
#363=CARTESIAN_POINT('',(-1.164999966,0.414315412,0.085001525));
#364=CARTESIAN_POINT('',(-1.16499984,0.414315323,0.085001436));
#365=CARTESIAN_POINT('',(-1.16499984,0.414315323,0.085001436));
#366=CARTESIAN_POINT('',(-1.164999714,0.414315234,0.085001347));
#367=CARTESIAN_POINT('',(-1.164999714,0.414315234,0.085001347));
#368=CARTESIAN_POINT('',(-1.164999949,0.414315513,0.085001626));
#369=CARTESIAN_POINT('',(-1.164999949,0.414315513,0.085001626));
#370=CARTESIAN_POINT('',(-1.16499976,0.414315379,0.085001492));
#371=CARTESIAN_POINT('',(-1.16499976,0.414315379,0.085001492));
#372=CARTESIAN_POINT('',(-1.164999571,0.414315246,0.085001359));
#373=CARTESIAN_POINT('',(-1.164999571,0.414315246,0.085001359));
#374=B_SPLINE_SURFACE_WITH_KNOTS('',3,3,((#326,#327,#328,#329,#330,#331),(#332,#333,#334,#335,#336,#337),(#338,#339,#340,#341,#342,#343),(#344,#345,#346,#347,#348,#349),(#350,#351,#352,#353,#354,#355),(#356,#357,#358,#359,#360,#361),(#362,#363,#364,#365,#366,#367),(#368,#369,#370,#371,#372,#373)),.UNSPECIFIED.,.F.,.F.,.U.,(4,2,2,4),(4,2,4),(0.000003346,0.785398163,1.570796327,1.570799755),(0.,0.5,1.),.UNSPECIFIED.);
#375=CARTESIAN_POINT('',(-1.29,0.492096956,-0.013993627));
#376=CARTESIAN_POINT('',(-1.29,0.471733742,-0.03435684));
#377=CARTESIAN_POINT('',(-1.278144959,0.451495922,-0.05459466));
#378=CARTESIAN_POINT('',(-1.237418532,0.422697989,-0.083392593));
#379=CARTESIAN_POINT('',(-1.208797933,0.41431521,-0.091775373));
#380=CARTESIAN_POINT('',(-1.18,0.41431521,-0.091775373));
#381=B_SPLINE_CURVE_WITH_KNOTS('',3,(#375,#376,#377,#378,#379,#380),.UNSPECIFIED.,.F.,.F.,(4,2,4),(0.,0.5,1.),.UNSPECIFIED.);
#382=EDGE_CURVE('',#194,#97,#381,.T.);
#383=ORIENTED_EDGE('',*,*,#382,.T.);
#384=ORIENTED_EDGE('',*,*,#103,.F.);
#385=ORIENTED_EDGE('',*,*,#207,.F.);
#386=EDGE_LOOP('',(#383,#384,#385));
#387=FACE_BOUND('',#386,.T.);
#388=ADVANCED_FACE('',(#387),#374,.T.);
#389=CARTESIAN_POINT('',(-1.165,1.047175779,0.364308501));
#390=CARTESIAN_POINT('',(-1.165,1.047175779,0.364308501));
#391=CARTESIAN_POINT('',(-1.165,1.047175779,0.364308501));
#392=CARTESIAN_POINT('',(-1.165,1.047175779,0.364308501));
#393=CARTESIAN_POINT('',(-1.165,1.047175779,0.364308502));
#394=CARTESIAN_POINT('',(-1.165,1.047175779,0.364308502));
#395=CARTESIAN_POINT('',(-1.165,1.047175779,0.364308501));
#396=CARTESIAN_POINT('',(-1.165,1.047175779,0.364308501));
#397=CARTESIAN_POINT('',(-1.165,1.047175779,0.364308501));
#398=CARTESIAN_POINT('',(-1.165,1.047175779,0.364308501));
#399=CARTESIAN_POINT('',(-1.165,1.047175779,0.364308501));
#400=CARTESIAN_POINT('',(-1.165,1.047175779,0.364308501));
#401=CARTESIAN_POINT('',(-1.165,1.047175779,0.364308501));
#402=CARTESIAN_POINT('',(-1.165,1.047175779,0.364308501));
#403=CARTESIAN_POINT('',(-1.165,1.047175779,0.364308501));
#404=CARTESIAN_POINT('',(-1.165,1.047175779,0.364308501));
#405=CARTESIAN_POINT('',(-1.165,1.047175779,0.364308501));
#406=CARTESIAN_POINT('',(-1.165,1.047175779,0.364308501));
#407=CARTESIAN_POINT('',(-1.22914085,1.024035764,0.341168486));
#408=CARTESIAN_POINT('',(-1.22914085,1.024035764,0.341168486));
#409=CARTESIAN_POINT('',(-1.213432887,1.012928556,0.330061279));
#410=CARTESIAN_POINT('',(-1.213432887,1.012928556,0.330061279));
#411=CARTESIAN_POINT('',(-1.197724923,1.001821349,0.318954071));
#412=CARTESIAN_POINT('',(-1.197724923,1.001821349,0.318954071));
#413=CARTESIAN_POINT('',(-1.292886731,0.991512355,0.327696849));
#414=CARTESIAN_POINT('',(-1.282214918,0.980800566,0.324531172));
#415=CARTESIAN_POINT('',(-1.271532045,0.97155225,0.319068874));
#416=CARTESIAN_POINT('',(-1.250463157,0.956654297,0.304170921));
#417=CARTESIAN_POINT('',(-1.240061182,0.950993374,0.29472398));
#418=CARTESIAN_POINT('',(-1.230248332,0.947220318,0.283404812));
#419=CARTESIAN_POINT('',(-1.360918376,0.94242497,0.327696849));
#420=CARTESIAN_POINT('',(-1.340603286,0.92964287,0.329279687));
#421=CARTESIAN_POINT('',(-1.320325442,0.916151461,0.323603372));
#422=CARTESIAN_POINT('',(-1.286431056,0.892184511,0.299636422));
#423=CARTESIAN_POINT('',(-1.272877429,0.881753457,0.281390274));
#424=CARTESIAN_POINT('',(-1.264958355,0.874570988,0.259842867));
#425=CARTESIAN_POINT('',(-1.379077665,0.926068946,0.330950264));
#426=CARTESIAN_POINT('',(-1.355303528,0.914182173,0.334431906));
#427=CARTESIAN_POINT('',(-1.331599879,0.900124932,0.328961631));
#428=CARTESIAN_POINT('',(-1.293974663,0.873519887,0.302356585));
#429=CARTESIAN_POINT('',(-1.280166623,0.861052358,0.281302091));
#430=CARTESIAN_POINT('',(-1.274223299,0.851925712,0.256807031));
#431=CARTESIAN_POINT('',(-1.403623306,0.895835059,0.34347355));
#432=CARTESIAN_POINT('',(-1.374206399,0.888915957,0.347781557));
#433=CARTESIAN_POINT('',(-1.344941281,0.876176597,0.341527883));
#434=CARTESIAN_POINT('',(-1.302023011,0.845828797,0.311180083));
#435=CARTESIAN_POINT('',(-1.288592908,0.828378077,0.287243676));
#436=CARTESIAN_POINT('',(-1.286746585,0.813190737,0.260829228));
#437=CARTESIAN_POINT('',(-1.41,0.881969091,0.352738494));
#438=CARTESIAN_POINT('',(-1.378584073,0.879061231,0.355646354));
#439=CARTESIAN_POINT('',(-1.347361601,0.868223485,0.348194399));
#440=CARTESIAN_POINT('',(-1.302932772,0.836807558,0.316778473));
#441=CARTESIAN_POINT('',(-1.29,0.816422832,0.293007955));
#442=CARTESIAN_POINT('',(-1.29,0.797116278,0.26788568));
#443=CARTESIAN_POINT('',(-1.41,0.858829076,0.375878509));
#444=CARTESIAN_POINT('',(-1.378584073,0.861736936,0.372970649));
#445=CARTESIAN_POINT('',(-1.347361601,0.854284981,0.362132903));
#446=CARTESIAN_POINT('',(-1.302932772,0.822869055,0.330716976));
#447=CARTESIAN_POINT('',(-1.29,0.799098537,0.31033225));
#448=CARTESIAN_POINT('',(-1.29,0.773976262,0.291025695));
#449=CARTESIAN_POINT('',(-1.403623306,0.849564133,0.389744476));
#450=CARTESIAN_POINT('',(-1.374206399,0.853872139,0.382825375));
#451=CARTESIAN_POINT('',(-1.344941281,0.847618465,0.370086015));
#452=CARTESIAN_POINT('',(-1.302023011,0.817270665,0.339738215));
#453=CARTESIAN_POINT('',(-1.288592908,0.793334259,0.322287495));
#454=CARTESIAN_POINT('',(-1.286746585,0.766919811,0.307100154));
#455=CARTESIAN_POINT('',(-1.379077665,0.837040847,0.419978363));
#456=CARTESIAN_POINT('',(-1.355303528,0.840522488,0.408091591));
#457=CARTESIAN_POINT('',(-1.331599879,0.835052213,0.39403435));
#458=CARTESIAN_POINT('',(-1.293974663,0.808447168,0.367429305));
#459=CARTESIAN_POINT('',(-1.280166623,0.787392673,0.354961776));
#460=CARTESIAN_POINT('',(-1.274223299,0.762897613,0.34583513));
#461=CARTESIAN_POINT('',(-1.360918376,0.833787431,0.436334387));
#462=CARTESIAN_POINT('',(-1.340603286,0.83537027,0.423552288));
#463=CARTESIAN_POINT('',(-1.320325442,0.829693955,0.410060879));
#464=CARTESIAN_POINT('',(-1.286431056,0.805727005,0.386093929));
#465=CARTESIAN_POINT('',(-1.272877429,0.787480856,0.375662875));
#466=CARTESIAN_POINT('',(-1.264958355,0.76593345,0.368480406));
#467=CARTESIAN_POINT('',(-1.292886731,0.833787431,0.485421772));
#468=CARTESIAN_POINT('',(-1.282214918,0.830621754,0.474709984));
#469=CARTESIAN_POINT('',(-1.271532045,0.825159456,0.465461668));
#470=CARTESIAN_POINT('',(-1.250463157,0.810261503,0.450563715));
#471=CARTESIAN_POINT('',(-1.240061182,0.800814562,0.444902791));
#472=CARTESIAN_POINT('',(-1.230248332,0.789495395,0.441129736));
#473=CARTESIAN_POINT('',(-1.22914085,0.847259068,0.517945181));
#474=CARTESIAN_POINT('',(-1.22914085,0.847259068,0.517945181));
#475=CARTESIAN_POINT('',(-1.213432887,0.836151861,0.506837974));
#476=CARTESIAN_POINT('',(-1.213432887,0.836151861,0.506837974));
#477=CARTESIAN_POINT('',(-1.197724923,0.825044654,0.495730767));
#478=CARTESIAN_POINT('',(-1.197724923,0.825044654,0.495730767));
#479=CARTESIAN_POINT('',(-1.165,0.870399084,0.541085197));
#480=CARTESIAN_POINT('',(-1.165,0.870399084,0.541085197));
#481=CARTESIAN_POINT('',(-1.165,0.870399084,0.541085197));
#482=CARTESIAN_POINT('',(-1.165,0.870399084,0.541085197));
#483=CARTESIAN_POINT('',(-1.165,0.870399084,0.541085197));
#484=CARTESIAN_POINT('',(-1.165,0.870399084,0.541085197));
#485=CARTESIAN_POINT('',(-1.165,0.870399084,0.541085197));
#486=CARTESIAN_POINT('',(-1.165,0.870399084,0.541085197));
#487=CARTESIAN_POINT('',(-1.165,0.870399084,0.541085197));
#488=CARTESIAN_POINT('',(-1.165,0.870399084,0.541085197));
#489=CARTESIAN_POINT('',(-1.165,0.870399084,0.541085197));
#490=CARTESIAN_POINT('',(-1.165,0.870399084,0.541085197));
#491=CARTESIAN_POINT('',(-1.165,0.870399084,0.541085197));
#492=CARTESIAN_POINT('',(-1.165,0.870399084,0.541085197));
#493=CARTESIAN_POINT('',(-1.165,0.870399084,0.541085197));
#494=CARTESIAN_POINT('',(-1.165,0.870399084,0.541085197));
#495=CARTESIAN_POINT('',(-1.165,0.870399084,0.541085197));
#496=CARTESIAN_POINT('',(-1.165,0.870399084,0.541085197));
#497=B_SPLINE_SURFACE_WITH_KNOTS('',3,3,((#389,#390,#391,#392,#393,#394),(#395,#396,#397,#398,#399,#400),(#401,#402,#403,#404,#405,#406),(#407,#408,#409,#410,#411,#412),(#413,#414,#415,#416,#417,#418),(#419,#420,#421,#422,#423,#424),(#425,#426,#427,#428,#429,#430),(#431,#432,#433,#434,#435,#436),(#437,#438,#439,#440,#441,#442),(#443,#444,#445,#446,#447,#448),(#449,#450,#451,#452,#453,#454),(#455,#456,#457,#458,#459,#460),(#461,#462,#463,#464,#465,#466),(#467,#468,#469,#470,#471,#472),(#473,#474,#475,#476,#477,#478),(#479,#480,#481,#482,#483,#484),(#485,#486,#487,#488,#489,#490),(#491,#492,#493,#494,#495,#496)),.UNSPECIFIED.,.F.,.F.,.U.,(4,2,2,2,2,2,2,2,4),(4,2,4),(1.570796325295,1.570796326795,2.35619449,2.748893572,3.141592654,3.534291735,3.926990817,4.712388980385,4.712388981885),(0.,0.5,1.),.UNSPECIFIED.);
#498=ORIENTED_EDGE('',*,*,#215,.F.);
#499=ORIENTED_EDGE('',*,*,#152,.F.);
#500=EDGE_LOOP('',(#498,#499));
#501=FACE_BOUND('',#500,.T.);
#502=ADVANCED_FACE('',(#501),#497,.F.);
#503=CARTESIAN_POINT('',(-1.04,0.962323288,0.45623206));
#504=CARTESIAN_POINT('',(-1.04,0.984537784,0.478446394));
#505=CARTESIAN_POINT('',(-1.052932772,1.006615453,0.500523968));
#506=CARTESIAN_POINT('',(-1.097361601,1.03803138,0.531939895));
#507=CARTESIAN_POINT('',(-1.128584073,1.047176183,0.541084793));
#508=CARTESIAN_POINT('',(-1.16,1.047176102,0.541084874));
#509=CARTESIAN_POINT('',(-1.040000125,0.985463191,0.43309215));
#510=CARTESIAN_POINT('',(-1.040000193,1.013493297,0.44949077));
#511=CARTESIAN_POINT('',(-1.05293298,1.038956671,0.468182538));
#512=CARTESIAN_POINT('',(-1.097361751,1.070372556,0.499598423));
#513=CARTESIAN_POINT('',(-1.128584152,1.076131615,0.512129087));
#514=CARTESIAN_POINT('',(-1.160000005,1.07031592,0.517944879));
#515=CARTESIAN_POINT('',(-1.053471745,1.008079541,0.40971373));
#516=CARTESIAN_POINT('',(-1.060759565,1.033036329,0.418032659));
#517=CARTESIAN_POINT('',(-1.075363734,1.054215519,0.430053742));
#518=CARTESIAN_POINT('',(-1.113533246,1.08120544,0.457043663));
#519=CARTESIAN_POINT('',(-1.137009384,1.086953094,0.471949424));
#520=CARTESIAN_POINT('',(-1.16053887,1.083787431,0.48542162));
#521=CARTESIAN_POINT('',(-1.099751668,1.039495395,0.375679889));
#522=CARTESIAN_POINT('',(-1.109564518,1.050814562,0.379452945));
#523=CARTESIAN_POINT('',(-1.119966493,1.060261503,0.385113868));
#524=CARTESIAN_POINT('',(-1.14103538,1.075159456,0.400011821));
#525=CARTESIAN_POINT('',(-1.151718253,1.080621754,0.409260137));
#526=CARTESIAN_POINT('',(-1.162390067,1.083787431,0.419971925));
#527=CARTESIAN_POINT('',(-1.132275077,1.04810138,0.365234102));
#528=CARTESIAN_POINT('',(-1.132275077,1.04810138,0.365234102));
#529=CARTESIAN_POINT('',(-1.14798304,1.059208587,0.376341309));
#530=CARTESIAN_POINT('',(-1.14798304,1.059208587,0.376341309));
#531=CARTESIAN_POINT('',(-1.163691003,1.070315794,0.387448517));
#532=CARTESIAN_POINT('',(-1.163691003,1.070315794,0.387448517));
#533=CARTESIAN_POINT('',(-1.165000156,1.047175775,0.364308497));
#534=CARTESIAN_POINT('',(-1.165000156,1.047175775,0.364308497));
#535=CARTESIAN_POINT('',(-1.165000081,1.047175722,0.364308444));
#536=CARTESIAN_POINT('',(-1.165000081,1.047175722,0.364308444));
#537=CARTESIAN_POINT('',(-1.165000006,1.047175669,0.364308391));
#538=CARTESIAN_POINT('',(-1.165000006,1.047175669,0.364308391));
#539=CARTESIAN_POINT('',(-1.165000312,1.04717577,0.364308492));
#540=CARTESIAN_POINT('',(-1.165000312,1.04717577,0.364308492));
#541=CARTESIAN_POINT('',(-1.165000162,1.047175664,0.364308387));
#542=CARTESIAN_POINT('',(-1.165000162,1.047175664,0.364308387));
#543=CARTESIAN_POINT('',(-1.165000012,1.047175558,0.364308281));
#544=CARTESIAN_POINT('',(-1.165000012,1.047175558,0.364308281));
#545=CARTESIAN_POINT('',(-1.165000468,1.047175766,0.364308488));
#546=CARTESIAN_POINT('',(-1.165000468,1.047175766,0.364308488));
#547=CARTESIAN_POINT('',(-1.165000243,1.047175607,0.364308329));
#548=CARTESIAN_POINT('',(-1.165000243,1.047175607,0.364308329));
#549=CARTESIAN_POINT('',(-1.165000019,1.047175448,0.364308171));
#550=CARTESIAN_POINT('',(-1.165000019,1.047175448,0.364308171));
#551=B_SPLINE_SURFACE_WITH_KNOTS('',3,3,((#503,#504,#505,#506,#507,#508),(#509,#510,#511,#512,#513,#514),(#515,#516,#517,#518,#519,#520),(#521,#522,#523,#524,#525,#526),(#527,#528,#529,#530,#531,#532),(#533,#534,#535,#536,#537,#538),(#539,#540,#541,#542,#543,#544),(#545,#546,#547,#548,#549,#550)),.UNSPECIFIED.,.F.,.F.,.U.,(4,2,2,4),(4,2,4),(0.000003652,0.785398163,1.570796327,1.570800069),(0.,0.5,1.),.UNSPECIFIED.);
#552=CARTESIAN_POINT('',(-1.16,1.047175779,0.541085197));
#553=CARTESIAN_POINT('',(-1.128584073,1.047175779,0.541085197));
#554=CARTESIAN_POINT('',(-1.097361601,1.038030928,0.531940346));
#555=CARTESIAN_POINT('',(-1.052932772,1.006615002,0.50052442));
#556=CARTESIAN_POINT('',(-1.04,0.98453738,0.478446798));
#557=CARTESIAN_POINT('',(-1.04,0.962322965,0.456232383));
#558=B_SPLINE_CURVE_WITH_KNOTS('',3,(#552,#553,#554,#555,#556,#557),.UNSPECIFIED.,.F.,.F.,(4,2,4),(0.,0.5,1.),.UNSPECIFIED.);
#559=EDGE_CURVE('',#155,#218,#558,.T.);
#560=ORIENTED_EDGE('',*,*,#559,.T.);
#561=ORIENTED_EDGE('',*,*,#224,.F.);
#562=ORIENTED_EDGE('',*,*,#168,.F.);
#563=EDGE_LOOP('',(#560,#561,#562));
#564=FACE_BOUND('',#563,.T.);
#565=ADVANCED_FACE('',(#564),#551,.T.);
#566=CARTESIAN_POINT('',(6.,0.,0.));
#567=DIRECTION('',(-1.,0.,0.));
#568=DIRECTION('',(0.,0.,1.));
#569=AXIS2_PLACEMENT_3D('',#566,#567,#568);
#570=CYLINDRICAL_SURFACE('',#569,0.9);
#571=CARTESIAN_POINT('',(0.793431458,0.,0.9));
#572=VERTEX_POINT('',#571);
#573=CARTESIAN_POINT('',(5.9,0.,0.9));
#574=VERTEX_POINT('',#573);
#575=CARTESIAN_POINT('',(0.793431458,0.,0.9));
#576=DIRECTION('',(1.,-0.,-0.));
#577=VECTOR('',#576,5.106568542);
#578=LINE('',#575,#577);
#579=EDGE_CURVE('',#572,#574,#578,.T.);
#580=ORIENTED_EDGE('',*,*,#579,.T.);
#581=CARTESIAN_POINT('',(5.9,-0.,-0.9));
#582=VERTEX_POINT('',#581);
#583=CARTESIAN_POINT('',(5.9,0.,0.));
#584=DIRECTION('',(-1.,-0.,-0.));
#585=DIRECTION('',(0.,0.,-1.));
#586=AXIS2_PLACEMENT_3D('',#583,#584,#585);
#587=CIRCLE('',#586,0.9);
#588=EDGE_CURVE('',#574,#582,#587,.T.);
#589=ORIENTED_EDGE('',*,*,#588,.T.);
#590=CARTESIAN_POINT('',(5.9,0.,0.));
#591=DIRECTION('',(-1.,-0.,-0.));
#592=DIRECTION('',(0.,0.,-1.));
#593=AXIS2_PLACEMENT_3D('',#590,#591,#592);
#594=CIRCLE('',#593,0.9);
#595=EDGE_CURVE('',#582,#574,#594,.T.);
#596=ORIENTED_EDGE('',*,*,#595,.T.);
#597=ORIENTED_EDGE('',*,*,#579,.F.);
#598=CARTESIAN_POINT('',(0.793431458,-0.,-0.9));
#599=VERTEX_POINT('',#598);
#600=CARTESIAN_POINT('',(0.793431458,0.,0.));
#601=DIRECTION('',(1.,0.,0.));
#602=DIRECTION('',(0.,0.,-1.));
#603=AXIS2_PLACEMENT_3D('',#600,#601,#602);
#604=CIRCLE('',#603,0.9);
#605=EDGE_CURVE('',#572,#599,#604,.T.);
#606=ORIENTED_EDGE('',*,*,#605,.T.);
#607=CARTESIAN_POINT('',(0.793431458,0.,0.));
#608=DIRECTION('',(1.,0.,0.));
#609=DIRECTION('',(0.,0.,-1.));
#610=AXIS2_PLACEMENT_3D('',#607,#608,#609);
#611=CIRCLE('',#610,0.9);
#612=EDGE_CURVE('',#599,#572,#611,.T.);
#613=ORIENTED_EDGE('',*,*,#612,.T.);
#614=EDGE_LOOP('',(#580,#589,#596,#597,#606,#613));
#615=FACE_BOUND('',#614,.T.);
#616=ADVANCED_FACE('',(#615),#570,.T.);
#617=CARTESIAN_POINT('',(6.,0.,0.));
#618=DIRECTION('',(1.,0.,0.));
#619=DIRECTION('',(0.,1.,0.));
#620=AXIS2_PLACEMENT_3D('',#617,#618,#619);
#621=PLANE('',#620);
#622=CARTESIAN_POINT('',(6.,-0.,-0.8));
#623=VERTEX_POINT('',#622);
#624=CARTESIAN_POINT('',(6.,0.,0.));
#625=DIRECTION('',(1.,0.,0.));
#626=DIRECTION('',(0.,0.,-1.));
#627=AXIS2_PLACEMENT_3D('',#624,#625,#626);
#628=CIRCLE('',#627,0.8);
#629=EDGE_CURVE('',#623,#623,#628,.T.);
#630=ORIENTED_EDGE('',*,*,#629,.T.);
#631=EDGE_LOOP('',(#630));
#632=FACE_BOUND('',#631,.T.);
#633=ADVANCED_FACE('',(#632),#621,.T.);
#634=CARTESIAN_POINT('',(0.6,0.,0.));
#635=DIRECTION('',(-1.,0.,0.));
#636=DIRECTION('',(0.,0.,1.));
#637=AXIS2_PLACEMENT_3D('',#634,#635,#636);
#638=CYLINDRICAL_SURFACE('',#637,1.);
#639=CARTESIAN_POINT('',(0.1,0.,1.));
#640=VERTEX_POINT('',#639);
#641=CARTESIAN_POINT('',(0.480401649,0.,1.));
#642=VERTEX_POINT('',#641);
#643=CARTESIAN_POINT('',(0.1,0.,1.));
#644=DIRECTION('',(1.,-0.,-0.));
#645=VECTOR('',#644,0.380401649);
#646=LINE('',#643,#645);
#647=EDGE_CURVE('',#640,#642,#646,.T.);
#648=ORIENTED_EDGE('',*,*,#647,.T.);
#649=CARTESIAN_POINT('',(0.480401649,-0.,-1.));
#650=VERTEX_POINT('',#649);
#651=CARTESIAN_POINT('',(0.480401649,0.,0.));
#652=DIRECTION('',(-1.,-0.,-0.));
#653=DIRECTION('',(0.,0.,-1.));
#654=AXIS2_PLACEMENT_3D('',#651,#652,#653);
#655=CIRCLE('',#654,1.);
#656=EDGE_CURVE('',#642,#650,#655,.T.);
#657=ORIENTED_EDGE('',*,*,#656,.T.);
#658=CARTESIAN_POINT('',(0.480401649,0.,0.));
#659=DIRECTION('',(-1.,-0.,-0.));
#660=DIRECTION('',(0.,0.,-1.));
#661=AXIS2_PLACEMENT_3D('',#658,#659,#660);
#662=CIRCLE('',#661,1.);
#663=EDGE_CURVE('',#650,#642,#662,.T.);
#664=ORIENTED_EDGE('',*,*,#663,.T.);
#665=ORIENTED_EDGE('',*,*,#647,.F.);
#666=CARTESIAN_POINT('',(0.1,-0.,-1.));
#667=VERTEX_POINT('',#666);
#668=CARTESIAN_POINT('',(0.1,0.,0.));
#669=DIRECTION('',(1.,0.,0.));
#670=DIRECTION('',(0.,0.,-1.));
#671=AXIS2_PLACEMENT_3D('',#668,#669,#670);
#672=CIRCLE('',#671,1.);
#673=EDGE_CURVE('',#640,#667,#672,.T.);
#674=ORIENTED_EDGE('',*,*,#673,.T.);
#675=CARTESIAN_POINT('',(0.1,0.,0.));
#676=DIRECTION('',(1.,0.,0.));
#677=DIRECTION('',(0.,0.,-1.));
#678=AXIS2_PLACEMENT_3D('',#675,#676,#677);
#679=CIRCLE('',#678,1.);
#680=EDGE_CURVE('',#667,#640,#679,.T.);
#681=ORIENTED_EDGE('',*,*,#680,.T.);
#682=EDGE_LOOP('',(#648,#657,#664,#665,#674,#681));
#683=FACE_BOUND('',#682,.T.);
#684=ADVANCED_FACE('',(#683),#638,.T.);
#685=CARTESIAN_POINT('',(0.,0.,0.));
#686=DIRECTION('',(1.,0.,0.));
#687=DIRECTION('',(0.,1.,0.));
#688=AXIS2_PLACEMENT_3D('',#685,#686,#687);
#689=PLANE('',#688);
#690=CARTESIAN_POINT('',(-0.,-0.,-0.9));
#691=VERTEX_POINT('',#690);
#692=CARTESIAN_POINT('',(0.,0.,0.));
#693=DIRECTION('',(-1.,-0.,-0.));
#694=DIRECTION('',(0.,0.,-1.));
#695=AXIS2_PLACEMENT_3D('',#692,#693,#694);
#696=CIRCLE('',#695,0.9);
#697=EDGE_CURVE('',#691,#691,#696,.T.);
#698=ORIENTED_EDGE('',*,*,#697,.T.);
#699=EDGE_LOOP('',(#698));
#700=FACE_BOUND('',#699,.T.);
#701=CARTESIAN_POINT('',(0.,-0.,-0.76));
#702=VERTEX_POINT('',#701);
#703=CARTESIAN_POINT('',(0.,0.,0.76));
#704=VERTEX_POINT('',#703);
#705=CARTESIAN_POINT('',(0.,0.,0.));
#706=DIRECTION('',(1.,0.,0.));
#707=DIRECTION('',(0.,0.,-1.));
#708=AXIS2_PLACEMENT_3D('',#705,#706,#707);
#709=CIRCLE('',#708,0.76);
#710=EDGE_CURVE('',#702,#704,#709,.T.);
#711=ORIENTED_EDGE('',*,*,#710,.T.);
#712=CARTESIAN_POINT('',(0.,0.,0.));
#713=DIRECTION('',(1.,0.,0.));
#714=DIRECTION('',(0.,0.,-1.));
#715=AXIS2_PLACEMENT_3D('',#712,#713,#714);
#716=CIRCLE('',#715,0.76);
#717=EDGE_CURVE('',#704,#702,#716,.T.);
#718=ORIENTED_EDGE('',*,*,#717,.T.);
#719=EDGE_LOOP('',(#711,#718));
#720=FACE_BOUND('',#719,.T.);
#721=ADVANCED_FACE('',(#700,#720),#689,.F.);
#722=CARTESIAN_POINT('',(0.793431458,0.,0.));
#723=DIRECTION('',(-1.,0.,0.));
#724=DIRECTION('',(0.,0.,1.));
#725=AXIS2_PLACEMENT_3D('',#722,#723,#724);
#726=CONICAL_SURFACE('',#725,0.9,22.5);
#727=CARTESIAN_POINT('',(0.618167685,0.,0.972596632));
#728=VERTEX_POINT('',#727);
#729=CARTESIAN_POINT('',(0.618167685,0.,0.972596632));
#730=DIRECTION('',(0.923879533,-0.,-0.382683432));
#731=VECTOR('',#730,0.189704141);
#732=LINE('',#729,#731);
#733=EDGE_CURVE('',#728,#572,#732,.T.);
#734=ORIENTED_EDGE('',*,*,#733,.T.);
#735=ORIENTED_EDGE('',*,*,#612,.F.);
#736=ORIENTED_EDGE('',*,*,#605,.F.);
#737=ORIENTED_EDGE('',*,*,#733,.F.);
#738=CARTESIAN_POINT('',(0.618167685,-0.,-0.972596632));
#739=VERTEX_POINT('',#738);
#740=CARTESIAN_POINT('',(0.618167685,0.,0.));
#741=DIRECTION('',(1.,0.,0.));
#742=DIRECTION('',(0.,0.,-1.));
#743=AXIS2_PLACEMENT_3D('',#740,#741,#742);
#744=CIRCLE('',#743,0.972596632);
#745=EDGE_CURVE('',#728,#739,#744,.T.);
#746=ORIENTED_EDGE('',*,*,#745,.T.);
#747=CARTESIAN_POINT('',(0.618167685,0.,0.));
#748=DIRECTION('',(1.,0.,0.));
#749=DIRECTION('',(0.,0.,-1.));
#750=AXIS2_PLACEMENT_3D('',#747,#748,#749);
#751=CIRCLE('',#750,0.972596632);
#752=EDGE_CURVE('',#739,#728,#751,.T.);
#753=ORIENTED_EDGE('',*,*,#752,.T.);
#754=EDGE_LOOP('',(#734,#735,#736,#737,#746,#753));
#755=FACE_BOUND('',#754,.T.);
#756=ADVANCED_FACE('',(#755),#726,.T.);
#757=CARTESIAN_POINT('',(0.480401649,0.,0.));
#758=DIRECTION('',(1.,0.,0.));
#759=DIRECTION('',(0.,0.,-1.));
#760=AXIS2_PLACEMENT_3D('',#757,#758,#759);
#761=TOROIDAL_SURFACE('',#760,0.64,0.36);
#762=CARTESIAN_POINT('',(0.480401649,0.,-0.64));
#763=DIRECTION('',(-0.,1.,-0.));
#764=DIRECTION('',(0.,0.,-1.));
#765=AXIS2_PLACEMENT_3D('',#762,#763,#764);
#766=CIRCLE('',#765,0.36);
#767=EDGE_CURVE('',#739,#650,#766,.T.);
#768=ORIENTED_EDGE('',*,*,#767,.T.);
#769=ORIENTED_EDGE('',*,*,#656,.F.);
#770=ORIENTED_EDGE('',*,*,#663,.F.);
#771=ORIENTED_EDGE('',*,*,#767,.F.);
#772=ORIENTED_EDGE('',*,*,#745,.F.);
#773=ORIENTED_EDGE('',*,*,#752,.F.);
#774=EDGE_LOOP('',(#768,#769,#770,#771,#772,#773));
#775=FACE_BOUND('',#774,.T.);
#776=ADVANCED_FACE('',(#775),#761,.T.);
#777=CARTESIAN_POINT('',(5.9,0.,0.));
#778=DIRECTION('',(1.,0.,0.));
#779=DIRECTION('',(0.,0.,-1.));
#780=AXIS2_PLACEMENT_3D('',#777,#778,#779);
#781=TOROIDAL_SURFACE('',#780,0.8,0.1);
#782=CARTESIAN_POINT('',(5.9,0.,-0.8));
#783=DIRECTION('',(-0.,1.,-0.));
#784=DIRECTION('',(0.,0.,-1.));
#785=AXIS2_PLACEMENT_3D('',#782,#783,#784);
#786=CIRCLE('',#785,0.1);
#787=EDGE_CURVE('',#623,#582,#786,.T.);
#788=ORIENTED_EDGE('',*,*,#787,.T.);
#789=ORIENTED_EDGE('',*,*,#588,.F.);
#790=ORIENTED_EDGE('',*,*,#595,.F.);
#791=ORIENTED_EDGE('',*,*,#787,.F.);
#792=ORIENTED_EDGE('',*,*,#629,.F.);
#793=EDGE_LOOP('',(#788,#789,#790,#791,#792));
#794=FACE_BOUND('',#793,.T.);
#795=ADVANCED_FACE('',(#794),#781,.T.);
#796=CARTESIAN_POINT('',(0.06,0.,0.));
#797=DIRECTION('',(-1.,0.,0.));
#798=DIRECTION('',(0.,0.,1.));
#799=AXIS2_PLACEMENT_3D('',#796,#797,#798);
#800=CYLINDRICAL_SURFACE('',#799,0.76);
#801=CARTESIAN_POINT('',(0.06,0.,0.76));
#802=VERTEX_POINT('',#801);
#803=CARTESIAN_POINT('',(0.,0.,0.76));
#804=DIRECTION('',(1.,-0.,-0.));
#805=VECTOR('',#804,0.06);
#806=LINE('',#803,#805);
#807=EDGE_CURVE('',#704,#802,#806,.T.);
#808=ORIENTED_EDGE('',*,*,#807,.F.);
#809=ORIENTED_EDGE('',*,*,#710,.F.);
#810=ORIENTED_EDGE('',*,*,#717,.F.);
#811=ORIENTED_EDGE('',*,*,#807,.T.);
#812=CARTESIAN_POINT('',(0.06,-0.,-0.76));
#813=VERTEX_POINT('',#812);
#814=CARTESIAN_POINT('',(0.06,0.,0.));
#815=DIRECTION('',(1.,0.,0.));
#816=DIRECTION('',(0.,0.,-1.));
#817=AXIS2_PLACEMENT_3D('',#814,#815,#816);
#818=CIRCLE('',#817,0.76);
#819=EDGE_CURVE('',#802,#813,#818,.T.);
#820=ORIENTED_EDGE('',*,*,#819,.T.);
#821=CARTESIAN_POINT('',(0.06,0.,0.));
#822=DIRECTION('',(1.,0.,0.));
#823=DIRECTION('',(0.,0.,-1.));
#824=AXIS2_PLACEMENT_3D('',#821,#822,#823);
#825=CIRCLE('',#824,0.76);
#826=EDGE_CURVE('',#813,#802,#825,.T.);
#827=ORIENTED_EDGE('',*,*,#826,.T.);
#828=EDGE_LOOP('',(#808,#809,#810,#811,#820,#827));
#829=FACE_BOUND('',#828,.T.);
#830=ADVANCED_FACE('',(#829),#800,.F.);
#831=CARTESIAN_POINT('',(0.06,0.,0.));
#832=DIRECTION('',(1.,0.,0.));
#833=DIRECTION('',(0.,1.,0.));
#834=AXIS2_PLACEMENT_3D('',#831,#832,#833);
#835=PLANE('',#834);
#836=ORIENTED_EDGE('',*,*,#77,.F.);
#837=ORIENTED_EDGE('',*,*,#84,.F.);
#838=EDGE_LOOP('',(#836,#837));
#839=FACE_BOUND('',#838,.T.);
#840=CARTESIAN_POINT('',(0.06,-0.5,-0.125));
#841=VERTEX_POINT('',#840);
#842=CARTESIAN_POINT('',(0.06,-0.5,0.125));
#843=VERTEX_POINT('',#842);
#844=CARTESIAN_POINT('',(0.06,-0.5,0.));
#845=DIRECTION('',(1.,0.,0.));
#846=DIRECTION('',(0.,0.,-1.));
#847=AXIS2_PLACEMENT_3D('',#844,#845,#846);
#848=CIRCLE('',#847,0.125);
#849=EDGE_CURVE('',#841,#843,#848,.T.);
#850=ORIENTED_EDGE('',*,*,#849,.T.);
#851=CARTESIAN_POINT('',(0.06,-0.5,0.));
#852=DIRECTION('',(1.,0.,0.));
#853=DIRECTION('',(0.,0.,-1.));
#854=AXIS2_PLACEMENT_3D('',#851,#852,#853);
#855=CIRCLE('',#854,0.125);
#856=EDGE_CURVE('',#843,#841,#855,.T.);
#857=ORIENTED_EDGE('',*,*,#856,.T.);
#858=EDGE_LOOP('',(#850,#857));
#859=FACE_BOUND('',#858,.T.);
#860=ORIENTED_EDGE('',*,*,#819,.F.);
#861=ORIENTED_EDGE('',*,*,#826,.F.);
#862=EDGE_LOOP('',(#860,#861));
#863=FACE_BOUND('',#862,.T.);
#864=ADVANCED_FACE('',(#839,#859,#863),#835,.F.);
#865=COLOUR_RGB('',0.188235298,0.180392161,0.180392161);
#866=FILL_AREA_STYLE_COLOUR('',#865);
#867=FILL_AREA_STYLE('',(#866));
#868=SURFACE_STYLE_FILL_AREA(#867);
#869=SURFACE_SIDE_STYLE('',(#868));
#870=SURFACE_STYLE_USAGE(.BOTH.,#869);
#871=PRESENTATION_STYLE_ASSIGNMENT((#870));
#872=OVER_RIDING_STYLED_ITEM('',(#871),#864,#54);
#873=CARTESIAN_POINT('',(0.06,-0.5,0.));
#874=DIRECTION('',(-1.,0.,0.));
#875=DIRECTION('',(0.,0.,1.));
#876=AXIS2_PLACEMENT_3D('',#873,#874,#875);
#877=CYLINDRICAL_SURFACE('',#876,0.125);
#878=CARTESIAN_POINT('',(-1.165,-0.5,0.125));
#879=VERTEX_POINT('',#878);
#880=CARTESIAN_POINT('',(-1.165,-0.5,0.125));
#881=DIRECTION('',(1.,-0.,-0.));
#882=VECTOR('',#881,1.225);
#883=LINE('',#880,#882);
#884=EDGE_CURVE('',#879,#843,#883,.T.);
#885=ORIENTED_EDGE('',*,*,#884,.T.);
#886=ORIENTED_EDGE('',*,*,#849,.F.);
#887=ORIENTED_EDGE('',*,*,#856,.F.);
#888=ORIENTED_EDGE('',*,*,#884,.F.);
#889=CARTESIAN_POINT('',(-1.165,-0.5,-0.125));
#890=VERTEX_POINT('',#889);
#891=CARTESIAN_POINT('',(-1.165,-0.5,0.));
#892=DIRECTION('',(0.469612973,0.882872389,0.));
#893=DIRECTION('',(-0.882872389,0.469612973,0.));
#894=AXIS2_PLACEMENT_3D('',#891,#892,#893);
#895=ELLIPSE('',#894,0.266176633,0.125);
#896=EDGE_CURVE('',#879,#890,#895,.T.);
#897=ORIENTED_EDGE('',*,*,#896,.T.);
#898=CARTESIAN_POINT('',(-1.18,-0.375,0.));
#899=VERTEX_POINT('',#898);
#900=CARTESIAN_POINT('',(-1.165,-0.5,0.));
#901=DIRECTION('',(0.992876838,0.119145221,0.));
#902=DIRECTION('',(-0.119145221,0.992876838,0.));
#903=AXIS2_PLACEMENT_3D('',#900,#901,#902);
#904=ELLIPSE('',#903,0.125896783,0.125);
#905=EDGE_CURVE('',#890,#899,#904,.T.);
#906=ORIENTED_EDGE('',*,*,#905,.T.);
#907=CARTESIAN_POINT('',(-1.165,-0.5,0.));
#908=DIRECTION('',(0.992876838,0.119145221,0.));
#909=DIRECTION('',(-0.119145221,0.992876838,0.));
#910=AXIS2_PLACEMENT_3D('',#907,#908,#909);
#911=ELLIPSE('',#910,0.125896783,0.125);
#912=EDGE_CURVE('',#899,#879,#911,.T.);
#913=ORIENTED_EDGE('',*,*,#912,.T.);
#914=EDGE_LOOP('',(#885,#886,#887,#888,#897,#906,#913));
#915=FACE_BOUND('',#914,.T.);
#916=ADVANCED_FACE('',(#915),#877,.T.);
#917=CARTESIAN_POINT('',(-2.95,-0.645,0.));
#918=DIRECTION('',(-1.,0.,0.));
#919=DIRECTION('',(0.,-1.,0.));
#920=AXIS2_PLACEMENT_3D('',#917,#918,#919);
#921=PLANE('',#920);
#922=CARTESIAN_POINT('',(-2.95,-1.145,0.125));
#923=VERTEX_POINT('',#922);
#924=CARTESIAN_POINT('',(-2.95,-1.145,0.));
#925=DIRECTION('',(-1.,0.,0.));
#926=DIRECTION('',(0.,0.,1.));
#927=AXIS2_PLACEMENT_3D('',#924,#925,#926);
#928=CIRCLE('',#927,0.125);
#929=EDGE_CURVE('',#923,#923,#928,.T.);
#930=ORIENTED_EDGE('',*,*,#929,.T.);
#931=EDGE_LOOP('',(#930));
#932=FACE_BOUND('',#931,.T.);
#933=ADVANCED_FACE('',(#932),#921,.T.);
#934=CARTESIAN_POINT('',(-0.8025,-1.145,0.));
#935=DIRECTION('',(-1.,0.,0.));
#936=DIRECTION('',(0.,0.,1.));
#937=AXIS2_PLACEMENT_3D('',#934,#935,#936);
#938=CYLINDRICAL_SURFACE('',#937,0.125);
#939=CARTESIAN_POINT('',(-1.165,-1.145,0.125));
#940=VERTEX_POINT('',#939);
#941=CARTESIAN_POINT('',(-2.95,-1.145,0.125));
#942=DIRECTION('',(1.,-0.,-0.));
#943=VECTOR('',#942,1.785);
#944=LINE('',#941,#943);
#945=EDGE_CURVE('',#923,#940,#944,.T.);
#946=ORIENTED_EDGE('',*,*,#945,.T.);
#947=CARTESIAN_POINT('',(-1.165,-1.145,-0.125));
#948=VERTEX_POINT('',#947);
#949=CARTESIAN_POINT('',(-1.165,-1.145,0.));
#950=DIRECTION('',(-0.454470342,-0.89076187,-0.));
#951=DIRECTION('',(0.89076187,-0.454470342,0.));
#952=AXIS2_PLACEMENT_3D('',#949,#950,#951);
#953=ELLIPSE('',#952,0.275045451,0.125);
#954=EDGE_CURVE('',#940,#948,#953,.T.);
#955=ORIENTED_EDGE('',*,*,#954,.T.);
#956=CARTESIAN_POINT('',(-1.16,-1.27,0.));
#957=VERTEX_POINT('',#956);
#958=CARTESIAN_POINT('',(-1.165,-1.145,0.));
#959=DIRECTION('',(-0.999200959,-0.039968038,-0.));
#960=DIRECTION('',(0.039968038,-0.999200959,0.));
#961=AXIS2_PLACEMENT_3D('',#958,#959,#960);
#962=ELLIPSE('',#961,0.12509996,0.125);
#963=EDGE_CURVE('',#948,#957,#962,.T.);
#964=ORIENTED_EDGE('',*,*,#963,.T.);
#965=CARTESIAN_POINT('',(-1.165,-1.145,0.));
#966=DIRECTION('',(-0.999200959,-0.039968038,-0.));
#967=DIRECTION('',(0.039968038,-0.999200959,0.));
#968=AXIS2_PLACEMENT_3D('',#965,#966,#967);
#969=ELLIPSE('',#968,0.12509996,0.125);
#970=EDGE_CURVE('',#957,#940,#969,.T.);
#971=ORIENTED_EDGE('',*,*,#970,.T.);
#972=ORIENTED_EDGE('',*,*,#945,.F.);
#973=ORIENTED_EDGE('',*,*,#929,.F.);
#974=EDGE_LOOP('',(#946,#955,#964,#971,#972,#973));
#975=FACE_BOUND('',#974,.T.);
#976=ADVANCED_FACE('',(#975),#938,.T.);
#977=CARTESIAN_POINT('',(-1.165,-0.1125,0.));
#978=DIRECTION('',(0.,-1.,0.));
#979=DIRECTION('',(0.,0.,-1.));
#980=AXIS2_PLACEMENT_3D('',#977,#978,#979);
#981=CYLINDRICAL_SURFACE('',#980,0.125);
#982=CARTESIAN_POINT('',(-1.165,-1.145,-0.125));
#983=DIRECTION('',(-0.,1.,-0.));
#984=VECTOR('',#983,0.645);
#985=LINE('',#982,#984);
#986=EDGE_CURVE('',#948,#890,#985,.T.);
#987=ORIENTED_EDGE('',*,*,#986,.T.);
#988=CARTESIAN_POINT('',(-1.165,-0.5,0.));
#989=DIRECTION('',(-0.882872389,-0.469612973,-0.));
#990=DIRECTION('',(-0.469612973,0.882872389,0.));
#991=AXIS2_PLACEMENT_3D('',#988,#989,#990);
#992=ELLIPSE('',#991,0.266176633,0.125);
#993=EDGE_CURVE('',#890,#879,#992,.T.);
#994=ORIENTED_EDGE('',*,*,#993,.T.);
#995=CARTESIAN_POINT('',(-1.29,-0.485,0.));
#996=VERTEX_POINT('',#995);
#997=CARTESIAN_POINT('',(-1.165,-0.5,0.));
#998=DIRECTION('',(-0.119145221,-0.992876838,-0.));
#999=DIRECTION('',(-0.992876838,0.119145221,0.));
#1000=AXIS2_PLACEMENT_3D('',#997,#998,#999);
#1001=ELLIPSE('',#1000,0.125896783,0.125);
#1002=EDGE_CURVE('',#879,#996,#1001,.T.);
#1003=ORIENTED_EDGE('',*,*,#1002,.T.);
#1004=CARTESIAN_POINT('',(-1.165,-0.5,0.));
#1005=DIRECTION('',(-0.119145221,-0.992876838,-0.));
#1006=DIRECTION('',(-0.992876838,0.119145221,0.));
#1007=AXIS2_PLACEMENT_3D('',#1004,#1005,#1006);
#1008=ELLIPSE('',#1007,0.125896783,0.125);
#1009=EDGE_CURVE('',#996,#890,#1008,.T.);
#1010=ORIENTED_EDGE('',*,*,#1009,.T.);
#1011=ORIENTED_EDGE('',*,*,#986,.F.);
#1012=CARTESIAN_POINT('',(-1.165,-1.145,0.));
#1013=DIRECTION('',(0.89076187,0.454470342,0.));
#1014=DIRECTION('',(0.454470342,-0.89076187,0.));
#1015=AXIS2_PLACEMENT_3D('',#1012,#1013,#1014);
#1016=ELLIPSE('',#1015,0.275045451,0.125);
#1017=EDGE_CURVE('',#948,#940,#1016,.T.);
#1018=ORIENTED_EDGE('',*,*,#1017,.T.);
#1019=CARTESIAN_POINT('',(-1.04,-1.15,0.));
#1020=VERTEX_POINT('',#1019);
#1021=CARTESIAN_POINT('',(-1.165,-1.145,0.));
#1022=DIRECTION('',(0.039968038,0.999200959,0.));
#1023=DIRECTION('',(0.999200959,-0.039968038,0.));
#1024=AXIS2_PLACEMENT_3D('',#1021,#1022,#1023);
#1025=ELLIPSE('',#1024,0.12509996,0.125);
#1026=EDGE_CURVE('',#940,#1020,#1025,.T.);
#1027=ORIENTED_EDGE('',*,*,#1026,.T.);
#1028=CARTESIAN_POINT('',(-1.165,-1.145,0.));
#1029=DIRECTION('',(0.039968038,0.999200959,0.));
#1030=DIRECTION('',(0.999200959,-0.039968038,0.));
#1031=AXIS2_PLACEMENT_3D('',#1028,#1029,#1030);
#1032=ELLIPSE('',#1031,0.12509996,0.125);
#1033=EDGE_CURVE('',#1020,#948,#1032,.T.);
#1034=ORIENTED_EDGE('',*,*,#1033,.T.);
#1035=EDGE_LOOP('',(#987,#994,#1003,#1010,#1011,#1018,#1027,#1034));
#1036=FACE_BOUND('',#1035,.T.);
#1037=ADVANCED_FACE('',(#1036),#981,.T.);
#1038=CARTESIAN_POINT('',(-1.165,-0.5,-0.125));
#1039=CARTESIAN_POINT('',(-1.165,-0.5,-0.125));
#1040=CARTESIAN_POINT('',(-1.165,-0.5,-0.125));
#1041=CARTESIAN_POINT('',(-1.165,-0.5,-0.125));
#1042=CARTESIAN_POINT('',(-1.165,-0.5,-0.125));
#1043=CARTESIAN_POINT('',(-1.165,-0.5,-0.125));
#1044=CARTESIAN_POINT('',(-1.165,-0.5,-0.125));
#1045=CARTESIAN_POINT('',(-1.165,-0.5,-0.125));
#1046=CARTESIAN_POINT('',(-1.165,-0.5,-0.125));
#1047=CARTESIAN_POINT('',(-1.165,-0.5,-0.125));
#1048=CARTESIAN_POINT('',(-1.165,-0.5,-0.125));
#1049=CARTESIAN_POINT('',(-1.165,-0.5,-0.125));
#1050=CARTESIAN_POINT('',(-1.165,-0.5,-0.125));
#1051=CARTESIAN_POINT('',(-1.165,-0.5,-0.125));
#1052=CARTESIAN_POINT('',(-1.165,-0.5,-0.125));
#1053=CARTESIAN_POINT('',(-1.165,-0.5,-0.125));
#1054=CARTESIAN_POINT('',(-1.165,-0.5,-0.125));
#1055=CARTESIAN_POINT('',(-1.165,-0.5,-0.125));
#1056=CARTESIAN_POINT('',(-1.132275077,-0.561522856,-0.125));
#1057=CARTESIAN_POINT('',(-1.132275077,-0.561522856,-0.125));
#1058=CARTESIAN_POINT('',(-1.11787611,-0.54712389,-0.125));
#1059=CARTESIAN_POINT('',(-1.11787611,-0.54712389,-0.125));
#1060=CARTESIAN_POINT('',(-1.103477144,-0.532724923,-0.125));
#1061=CARTESIAN_POINT('',(-1.103477144,-0.532724923,-0.125));
#1062=CARTESIAN_POINT('',(-1.099751668,-0.622666865,-0.111528363));
#1063=CARTESIAN_POINT('',(-1.090756555,-0.612884369,-0.106637115));
#1064=CARTESIAN_POINT('',(-1.081221411,-0.603091735,-0.104183089));
#1065=CARTESIAN_POINT('',(-1.061908265,-0.583778589,-0.104183089));
#1066=CARTESIAN_POINT('',(-1.052115631,-0.574243445,-0.106637115));
#1067=CARTESIAN_POINT('',(-1.042333135,-0.565248332,-0.111528363));
#1068=CARTESIAN_POINT('',(-1.053471637,-0.709673322,-0.065248332));
#1069=CARTESIAN_POINT('',(-1.046791141,-0.6881046,-0.054463971));
#1070=CARTESIAN_POINT('',(-1.033403977,-0.666584779,-0.04852785));
#1071=CARTESIAN_POINT('',(-0.998415221,-0.631596023,-0.04852785));
#1072=CARTESIAN_POINT('',(-0.9768954,-0.618208859,-0.054463971));
#1073=CARTESIAN_POINT('',(-0.955326678,-0.611528363,-0.065248332));
#1074=CARTESIAN_POINT('',(-1.04,-0.735,-0.032724923));
#1075=CARTESIAN_POINT('',(-1.04,-0.706202067,-0.025185642));
#1076=CARTESIAN_POINT('',(-1.028144959,-0.677581468,-0.020796429));
#1077=CARTESIAN_POINT('',(-0.987418532,-0.636855041,-0.020796429));
#1078=CARTESIAN_POINT('',(-0.958797933,-0.625,-0.025185642));
#1079=CARTESIAN_POINT('',(-0.93,-0.625,-0.032724923));
#1080=CARTESIAN_POINT('',(-1.04,-0.735,0.032724923));
#1081=CARTESIAN_POINT('',(-1.04,-0.706202067,0.025185642));
#1082=CARTESIAN_POINT('',(-1.028144959,-0.677581468,0.020796429));
#1083=CARTESIAN_POINT('',(-0.987418532,-0.636855041,0.020796429));
#1084=CARTESIAN_POINT('',(-0.958797933,-0.625,0.025185642));
#1085=CARTESIAN_POINT('',(-0.93,-0.625,0.032724923));
#1086=CARTESIAN_POINT('',(-1.053471637,-0.709673322,0.065248332));
#1087=CARTESIAN_POINT('',(-1.046791141,-0.6881046,0.054463971));
#1088=CARTESIAN_POINT('',(-1.033403977,-0.666584779,0.04852785));
#1089=CARTESIAN_POINT('',(-0.998415221,-0.631596023,0.04852785));
#1090=CARTESIAN_POINT('',(-0.9768954,-0.618208859,0.054463971));
#1091=CARTESIAN_POINT('',(-0.955326678,-0.611528363,0.065248332));
#1092=CARTESIAN_POINT('',(-1.099751668,-0.622666865,0.111528363));
#1093=CARTESIAN_POINT('',(-1.090756555,-0.612884369,0.106637115));
#1094=CARTESIAN_POINT('',(-1.081221411,-0.603091735,0.104183089));
#1095=CARTESIAN_POINT('',(-1.061908265,-0.583778589,0.104183089));
#1096=CARTESIAN_POINT('',(-1.052115631,-0.574243445,0.106637115));
#1097=CARTESIAN_POINT('',(-1.042333135,-0.565248332,0.111528363));
#1098=CARTESIAN_POINT('',(-1.132275077,-0.561522856,0.125));
#1099=CARTESIAN_POINT('',(-1.132275077,-0.561522856,0.125));
#1100=CARTESIAN_POINT('',(-1.11787611,-0.54712389,0.125));
#1101=CARTESIAN_POINT('',(-1.11787611,-0.54712389,0.125));
#1102=CARTESIAN_POINT('',(-1.103477144,-0.532724923,0.125));
#1103=CARTESIAN_POINT('',(-1.103477144,-0.532724923,0.125));
#1104=CARTESIAN_POINT('',(-1.165,-0.5,0.125));
#1105=CARTESIAN_POINT('',(-1.165,-0.5,0.125));
#1106=CARTESIAN_POINT('',(-1.165,-0.5,0.125));
#1107=CARTESIAN_POINT('',(-1.165,-0.5,0.125));
#1108=CARTESIAN_POINT('',(-1.165,-0.5,0.125));
#1109=CARTESIAN_POINT('',(-1.165,-0.5,0.125));
#1110=CARTESIAN_POINT('',(-1.165,-0.5,0.125));
#1111=CARTESIAN_POINT('',(-1.165,-0.5,0.125));
#1112=CARTESIAN_POINT('',(-1.165,-0.5,0.125));
#1113=CARTESIAN_POINT('',(-1.165,-0.5,0.125));
#1114=CARTESIAN_POINT('',(-1.165,-0.5,0.125));
#1115=CARTESIAN_POINT('',(-1.165,-0.5,0.125));
#1116=CARTESIAN_POINT('',(-1.165,-0.5,0.125));
#1117=CARTESIAN_POINT('',(-1.165,-0.5,0.125));
#1118=CARTESIAN_POINT('',(-1.165,-0.5,0.125));
#1119=CARTESIAN_POINT('',(-1.165,-0.5,0.125));
#1120=CARTESIAN_POINT('',(-1.165,-0.5,0.125));
#1121=CARTESIAN_POINT('',(-1.165,-0.5,0.125));
#1122=B_SPLINE_SURFACE_WITH_KNOTS('',3,3,((#1038,#1039,#1040,#1041,#1042,#1043),(#1044,#1045,#1046,#1047,#1048,#1049),(#1050,#1051,#1052,#1053,#1054,#1055),(#1056,#1057,#1058,#1059,#1060,#1061),(#1062,#1063,#1064,#1065,#1066,#1067),(#1068,#1069,#1070,#1071,#1072,#1073),(#1074,#1075,#1076,#1077,#1078,#1079),(#1080,#1081,#1082,#1083,#1084,#1085),(#1086,#1087,#1088,#1089,#1090,#1091),(#1092,#1093,#1094,#1095,#1096,#1097),(#1098,#1099,#1100,#1101,#1102,#1103),(#1104,#1105,#1106,#1107,#1108,#1109),(#1110,#1111,#1112,#1113,#1114,#1115),(#1116,#1117,#1118,#1119,#1120,#1121)),.UNSPECIFIED.,.F.,.F.,.U.,(4,2,2,2,2,2,4),(4,2,4),(1.570796325295,1.570796326795,2.35619449,3.141592654,3.926990817,4.712388980385,4.712388981885),(0.,0.5,1.),.UNSPECIFIED.);
#1123=ORIENTED_EDGE('',*,*,#896,.F.);
#1124=ORIENTED_EDGE('',*,*,#993,.F.);
#1125=EDGE_LOOP('',(#1123,#1124));
#1126=FACE_BOUND('',#1125,.T.);
#1127=ADVANCED_FACE('',(#1126),#1122,.F.);
#1128=CARTESIAN_POINT('',(-1.18,-0.375,-0.000000418));
#1129=CARTESIAN_POINT('',(-1.208797933,-0.375,-0.000000515));
#1130=CARTESIAN_POINT('',(-1.237418532,-0.386855041,-0.000000571));
#1131=CARTESIAN_POINT('',(-1.278144959,-0.427581468,-0.000000571));
#1132=CARTESIAN_POINT('',(-1.29,-0.456202067,-0.000000515));
#1133=CARTESIAN_POINT('',(-1.29,-0.485,-0.000000418));
#1134=CARTESIAN_POINT('',(-1.179999986,-0.375000115,-0.032725201));
#1135=CARTESIAN_POINT('',(-1.208797857,-0.375000172,-0.040264509));
#1136=CARTESIAN_POINT('',(-1.237418397,-0.386855225,-0.044653736));
#1137=CARTESIAN_POINT('',(-1.278144775,-0.427581603,-0.044653736));
#1138=CARTESIAN_POINT('',(-1.289999828,-0.456202143,-0.040264509));
#1139=CARTESIAN_POINT('',(-1.289999885,-0.485000014,-0.032725201));
#1140=CARTESIAN_POINT('',(-1.178383392,-0.388471736,-0.065248431));
#1141=CARTESIAN_POINT('',(-1.199952089,-0.395152237,-0.07603278));
#1142=CARTESIAN_POINT('',(-1.221471885,-0.408539393,-0.081968893));
#1143=CARTESIAN_POINT('',(-1.256460607,-0.443528115,-0.081968893));
#1144=CARTESIAN_POINT('',(-1.269847763,-0.465047911,-0.07603278));
#1145=CARTESIAN_POINT('',(-1.276528264,-0.486616608,-0.065248431));
#1146=CARTESIAN_POINT('',(-1.1728298,-0.434751668,-0.111528363));
#1147=CARTESIAN_POINT('',(-1.182612295,-0.44374678,-0.116419611));
#1148=CARTESIAN_POINT('',(-1.192404929,-0.453281924,-0.118873636));
#1149=CARTESIAN_POINT('',(-1.211718076,-0.472595071,-0.118873636));
#1150=CARTESIAN_POINT('',(-1.22125322,-0.482387705,-0.116419611));
#1151=CARTESIAN_POINT('',(-1.230248332,-0.4921702,-0.111528363));
#1152=CARTESIAN_POINT('',(-1.168926991,-0.467275077,-0.125));
#1153=CARTESIAN_POINT('',(-1.168926991,-0.467275077,-0.125));
#1154=CARTESIAN_POINT('',(-1.183325957,-0.481674043,-0.125));
#1155=CARTESIAN_POINT('',(-1.183325957,-0.481674043,-0.125));
#1156=CARTESIAN_POINT('',(-1.197724923,-0.496073009,-0.125));
#1157=CARTESIAN_POINT('',(-1.197724923,-0.496073009,-0.125));
#1158=CARTESIAN_POINT('',(-1.164999983,-0.500000143,-0.125));
#1159=CARTESIAN_POINT('',(-1.164999983,-0.500000143,-0.125));
#1160=CARTESIAN_POINT('',(-1.16499992,-0.50000008,-0.125));
#1161=CARTESIAN_POINT('',(-1.16499992,-0.50000008,-0.125));
#1162=CARTESIAN_POINT('',(-1.164999857,-0.500000017,-0.125));
#1163=CARTESIAN_POINT('',(-1.164999857,-0.500000017,-0.125));
#1164=CARTESIAN_POINT('',(-1.164999966,-0.500000286,-0.125));
#1165=CARTESIAN_POINT('',(-1.164999966,-0.500000286,-0.125));
#1166=CARTESIAN_POINT('',(-1.16499984,-0.50000016,-0.125));
#1167=CARTESIAN_POINT('',(-1.16499984,-0.50000016,-0.125));
#1168=CARTESIAN_POINT('',(-1.164999714,-0.500000034,-0.125));
#1169=CARTESIAN_POINT('',(-1.164999714,-0.500000034,-0.125));
#1170=CARTESIAN_POINT('',(-1.164999949,-0.500000429,-0.125));
#1171=CARTESIAN_POINT('',(-1.164999949,-0.500000429,-0.125));
#1172=CARTESIAN_POINT('',(-1.16499976,-0.50000024,-0.125));
#1173=CARTESIAN_POINT('',(-1.16499976,-0.50000024,-0.125));
#1174=CARTESIAN_POINT('',(-1.164999571,-0.500000051,-0.125));
#1175=CARTESIAN_POINT('',(-1.164999571,-0.500000051,-0.125));
#1176=B_SPLINE_SURFACE_WITH_KNOTS('',3,3,((#1128,#1129,#1130,#1131,#1132,#1133),(#1134,#1135,#1136,#1137,#1138,#1139),(#1140,#1141,#1142,#1143,#1144,#1145),(#1146,#1147,#1148,#1149,#1150,#1151),(#1152,#1153,#1154,#1155,#1156,#1157),(#1158,#1159,#1160,#1161,#1162,#1163),(#1164,#1165,#1166,#1167,#1168,#1169),(#1170,#1171,#1172,#1173,#1174,#1175)),.UNSPECIFIED.,.F.,.F.,.U.,(4,2,2,4),(4,2,4),(0.000003346,0.785398163,1.570796327,1.570799755),(0.,0.5,1.),.UNSPECIFIED.);
#1177=CARTESIAN_POINT('',(-1.29,-0.485,0.));
#1178=CARTESIAN_POINT('',(-1.29,-0.456202067,0.));
#1179=CARTESIAN_POINT('',(-1.278144959,-0.427581468,0.));
#1180=CARTESIAN_POINT('',(-1.237418532,-0.386855041,0.));
#1181=CARTESIAN_POINT('',(-1.208797933,-0.375,0.));
#1182=CARTESIAN_POINT('',(-1.18,-0.375,0.));
#1183=B_SPLINE_CURVE_WITH_KNOTS('',3,(#1177,#1178,#1179,#1180,#1181,#1182),.UNSPECIFIED.,.F.,.F.,(4,2,4),(0.,0.5,1.),.UNSPECIFIED.);
#1184=EDGE_CURVE('',#996,#899,#1183,.T.);
#1185=ORIENTED_EDGE('',*,*,#1184,.T.);
#1186=ORIENTED_EDGE('',*,*,#905,.F.);
#1187=ORIENTED_EDGE('',*,*,#1009,.F.);
#1188=EDGE_LOOP('',(#1185,#1186,#1187));
#1189=FACE_BOUND('',#1188,.T.);
#1190=ADVANCED_FACE('',(#1189),#1176,.T.);
#1191=CARTESIAN_POINT('',(-1.165,-1.145,0.125));
#1192=CARTESIAN_POINT('',(-1.165,-1.145,0.125));
#1193=CARTESIAN_POINT('',(-1.165,-1.145,0.125));
#1194=CARTESIAN_POINT('',(-1.165,-1.145,0.125));
#1195=CARTESIAN_POINT('',(-1.165,-1.145,0.125));
#1196=CARTESIAN_POINT('',(-1.165,-1.145,0.125));
#1197=CARTESIAN_POINT('',(-1.165,-1.145,0.125));
#1198=CARTESIAN_POINT('',(-1.165,-1.145,0.125));
#1199=CARTESIAN_POINT('',(-1.165,-1.145,0.125));
#1200=CARTESIAN_POINT('',(-1.165,-1.145,0.125));
#1201=CARTESIAN_POINT('',(-1.165,-1.145,0.125));
#1202=CARTESIAN_POINT('',(-1.165,-1.145,0.125));
#1203=CARTESIAN_POINT('',(-1.165,-1.145,0.125));
#1204=CARTESIAN_POINT('',(-1.165,-1.145,0.125));
#1205=CARTESIAN_POINT('',(-1.165,-1.145,0.125));
#1206=CARTESIAN_POINT('',(-1.165,-1.145,0.125));
#1207=CARTESIAN_POINT('',(-1.165,-1.145,0.125));
#1208=CARTESIAN_POINT('',(-1.165,-1.145,0.125));
#1209=CARTESIAN_POINT('',(-1.22914085,-1.112275077,0.125));
#1210=CARTESIAN_POINT('',(-1.22914085,-1.112275077,0.125));
#1211=CARTESIAN_POINT('',(-1.213432887,-1.096567113,0.125));
#1212=CARTESIAN_POINT('',(-1.213432887,-1.096567113,0.125));
#1213=CARTESIAN_POINT('',(-1.197724923,-1.08085915,0.125));
#1214=CARTESIAN_POINT('',(-1.197724923,-1.08085915,0.125));
#1215=CARTESIAN_POINT('',(-1.292886731,-1.079751668,0.111528363));
#1216=CARTESIAN_POINT('',(-1.282214918,-1.069938818,0.106192456));
#1217=CARTESIAN_POINT('',(-1.271532045,-1.059536843,0.103515337));
#1218=CARTESIAN_POINT('',(-1.250463157,-1.038467955,0.103515337));
#1219=CARTESIAN_POINT('',(-1.240061182,-1.027785082,0.106192456));
#1220=CARTESIAN_POINT('',(-1.230248332,-1.017113269,0.111528363));
#1221=CARTESIAN_POINT('',(-1.360918376,-1.045041645,0.07681834));
#1222=CARTESIAN_POINT('',(-1.340603286,-1.037122571,0.066660795));
#1223=CARTESIAN_POINT('',(-1.320325442,-1.023568944,0.061134689));
#1224=CARTESIAN_POINT('',(-1.286431056,-0.989674558,0.061134689));
#1225=CARTESIAN_POINT('',(-1.272877429,-0.969396714,0.066660795));
#1226=CARTESIAN_POINT('',(-1.264958355,-0.949081624,0.07681834));
#1227=CARTESIAN_POINT('',(-1.379077665,-1.035776701,0.062952373));
#1228=CARTESIAN_POINT('',(-1.355303528,-1.029833377,0.052085263));
#1229=CARTESIAN_POINT('',(-1.331599879,-1.016025337,0.046013361));
#1230=CARTESIAN_POINT('',(-1.293974663,-0.978400121,0.046013361));
#1231=CARTESIAN_POINT('',(-1.280166623,-0.954696472,0.052085263));
#1232=CARTESIAN_POINT('',(-1.274223299,-0.930922335,0.062952373));
#1233=CARTESIAN_POINT('',(-1.403623306,-1.023253415,0.032718486));
#1234=CARTESIAN_POINT('',(-1.374206399,-1.021407092,0.024779722));
#1235=CARTESIAN_POINT('',(-1.344941281,-1.007976989,0.020193649));
#1236=CARTESIAN_POINT('',(-1.302023011,-0.965058719,0.020193649));
#1237=CARTESIAN_POINT('',(-1.288592908,-0.935793601,0.024779722));
#1238=CARTESIAN_POINT('',(-1.286746585,-0.906376694,0.032718486));
#1239=CARTESIAN_POINT('',(-1.41,-1.02,0.016362462));
#1240=CARTESIAN_POINT('',(-1.378584073,-1.02,0.012250127));
#1241=CARTESIAN_POINT('',(-1.347361601,-1.007067228,0.00985601));
#1242=CARTESIAN_POINT('',(-1.302932772,-0.962638399,0.00985601));
#1243=CARTESIAN_POINT('',(-1.29,-0.931415927,0.012250127));
#1244=CARTESIAN_POINT('',(-1.29,-0.9,0.016362462));
#1245=CARTESIAN_POINT('',(-1.41,-1.02,-0.016362462));
#1246=CARTESIAN_POINT('',(-1.378584073,-1.02,-0.012250127));
#1247=CARTESIAN_POINT('',(-1.347361601,-1.007067228,-0.00985601));
#1248=CARTESIAN_POINT('',(-1.302932772,-0.962638399,-0.00985601));
#1249=CARTESIAN_POINT('',(-1.29,-0.931415927,-0.012250127));
#1250=CARTESIAN_POINT('',(-1.29,-0.9,-0.016362462));
#1251=CARTESIAN_POINT('',(-1.403623306,-1.023253415,-0.032718486));
#1252=CARTESIAN_POINT('',(-1.374206399,-1.021407092,-0.024779722));
#1253=CARTESIAN_POINT('',(-1.344941281,-1.007976989,-0.020193649));
#1254=CARTESIAN_POINT('',(-1.302023011,-0.965058719,-0.020193649));
#1255=CARTESIAN_POINT('',(-1.288592908,-0.935793601,-0.024779722));
#1256=CARTESIAN_POINT('',(-1.286746585,-0.906376694,-0.032718486));
#1257=CARTESIAN_POINT('',(-1.379077665,-1.035776701,-0.062952373));
#1258=CARTESIAN_POINT('',(-1.355303528,-1.029833377,-0.052085263));
#1259=CARTESIAN_POINT('',(-1.331599879,-1.016025337,-0.046013361));
#1260=CARTESIAN_POINT('',(-1.293974663,-0.978400121,-0.046013361));
#1261=CARTESIAN_POINT('',(-1.280166623,-0.954696472,-0.052085263));
#1262=CARTESIAN_POINT('',(-1.274223299,-0.930922335,-0.062952373));
#1263=CARTESIAN_POINT('',(-1.360918376,-1.045041645,-0.07681834));
#1264=CARTESIAN_POINT('',(-1.340603286,-1.037122571,-0.066660795));
#1265=CARTESIAN_POINT('',(-1.320325442,-1.023568944,-0.061134689));
#1266=CARTESIAN_POINT('',(-1.286431056,-0.989674558,-0.061134689));
#1267=CARTESIAN_POINT('',(-1.272877429,-0.969396714,-0.066660795));
#1268=CARTESIAN_POINT('',(-1.264958355,-0.949081624,-0.07681834));
#1269=CARTESIAN_POINT('',(-1.292886731,-1.079751668,-0.111528363));
#1270=CARTESIAN_POINT('',(-1.282214918,-1.069938818,-0.106192456));
#1271=CARTESIAN_POINT('',(-1.271532045,-1.059536843,-0.103515337));
#1272=CARTESIAN_POINT('',(-1.250463157,-1.038467955,-0.103515337));
#1273=CARTESIAN_POINT('',(-1.240061182,-1.027785082,-0.106192456));
#1274=CARTESIAN_POINT('',(-1.230248332,-1.017113269,-0.111528363));
#1275=CARTESIAN_POINT('',(-1.22914085,-1.112275077,-0.125));
#1276=CARTESIAN_POINT('',(-1.22914085,-1.112275077,-0.125));
#1277=CARTESIAN_POINT('',(-1.213432887,-1.096567113,-0.125));
#1278=CARTESIAN_POINT('',(-1.213432887,-1.096567113,-0.125));
#1279=CARTESIAN_POINT('',(-1.197724923,-1.08085915,-0.125));
#1280=CARTESIAN_POINT('',(-1.197724923,-1.08085915,-0.125));
#1281=CARTESIAN_POINT('',(-1.165,-1.145,-0.125));
#1282=CARTESIAN_POINT('',(-1.165,-1.145,-0.125));
#1283=CARTESIAN_POINT('',(-1.165,-1.145,-0.125));
#1284=CARTESIAN_POINT('',(-1.165,-1.145,-0.125));
#1285=CARTESIAN_POINT('',(-1.165,-1.145,-0.125));
#1286=CARTESIAN_POINT('',(-1.165,-1.145,-0.125));
#1287=CARTESIAN_POINT('',(-1.165,-1.145,-0.125));
#1288=CARTESIAN_POINT('',(-1.165,-1.145,-0.125));
#1289=CARTESIAN_POINT('',(-1.165,-1.145,-0.125));
#1290=CARTESIAN_POINT('',(-1.165,-1.145,-0.125));
#1291=CARTESIAN_POINT('',(-1.165,-1.145,-0.125));
#1292=CARTESIAN_POINT('',(-1.165,-1.145,-0.125));
#1293=CARTESIAN_POINT('',(-1.165,-1.145,-0.125));
#1294=CARTESIAN_POINT('',(-1.165,-1.145,-0.125));
#1295=CARTESIAN_POINT('',(-1.165,-1.145,-0.125));
#1296=CARTESIAN_POINT('',(-1.165,-1.145,-0.125));
#1297=CARTESIAN_POINT('',(-1.165,-1.145,-0.125));
#1298=CARTESIAN_POINT('',(-1.165,-1.145,-0.125));
#1299=B_SPLINE_SURFACE_WITH_KNOTS('',3,3,((#1191,#1192,#1193,#1194,#1195,#1196),(#1197,#1198,#1199,#1200,#1201,#1202),(#1203,#1204,#1205,#1206,#1207,#1208),(#1209,#1210,#1211,#1212,#1213,#1214),(#1215,#1216,#1217,#1218,#1219,#1220),(#1221,#1222,#1223,#1224,#1225,#1226),(#1227,#1228,#1229,#1230,#1231,#1232),(#1233,#1234,#1235,#1236,#1237,#1238),(#1239,#1240,#1241,#1242,#1243,#1244),(#1245,#1246,#1247,#1248,#1249,#1250),(#1251,#1252,#1253,#1254,#1255,#1256),(#1257,#1258,#1259,#1260,#1261,#1262),(#1263,#1264,#1265,#1266,#1267,#1268),(#1269,#1270,#1271,#1272,#1273,#1274),(#1275,#1276,#1277,#1278,#1279,#1280),(#1281,#1282,#1283,#1284,#1285,#1286),(#1287,#1288,#1289,#1290,#1291,#1292),(#1293,#1294,#1295,#1296,#1297,#1298)),.UNSPECIFIED.,.F.,.F.,.U.,(4,2,2,2,2,2,2,2,4),(4,2,4),(1.570796325295,1.570796326795,2.35619449,2.748893572,3.141592654,3.534291735,3.926990817,4.712388980385,4.712388981885),(0.,0.5,1.),.UNSPECIFIED.);
#1300=ORIENTED_EDGE('',*,*,#1017,.F.);
#1301=ORIENTED_EDGE('',*,*,#954,.F.);
#1302=EDGE_LOOP('',(#1300,#1301));
#1303=FACE_BOUND('',#1302,.T.);
#1304=ADVANCED_FACE('',(#1303),#1299,.F.);
#1305=CARTESIAN_POINT('',(-1.04,-1.15,0.000000456));
#1306=CARTESIAN_POINT('',(-1.04,-1.181415927,0.000000571));
#1307=CARTESIAN_POINT('',(-1.052932772,-1.212638399,0.000000638));
#1308=CARTESIAN_POINT('',(-1.097361601,-1.257067228,0.000000638));
#1309=CARTESIAN_POINT('',(-1.128584073,-1.27,0.000000571));
#1310=CARTESIAN_POINT('',(-1.16,-1.27,0.000000456));
#1311=CARTESIAN_POINT('',(-1.040000125,-1.149999995,0.032725226));
#1312=CARTESIAN_POINT('',(-1.040000193,-1.181415848,0.040949929));
#1313=CARTESIAN_POINT('',(-1.05293298,-1.212638249,0.045738177));
#1314=CARTESIAN_POINT('',(-1.097361751,-1.25706702,0.045738177));
#1315=CARTESIAN_POINT('',(-1.128584152,-1.269999807,0.040949929));
#1316=CARTESIAN_POINT('',(-1.160000005,-1.269999875,0.032725226));
#1317=CARTESIAN_POINT('',(-1.053471745,-1.14946113,0.06524844));
#1318=CARTESIAN_POINT('',(-1.060759565,-1.172990616,0.077013183));
#1319=CARTESIAN_POINT('',(-1.075363734,-1.196466754,0.083488942));
#1320=CARTESIAN_POINT('',(-1.113533246,-1.234636266,0.083488942));
#1321=CARTESIAN_POINT('',(-1.137009384,-1.249240435,0.077013183));
#1322=CARTESIAN_POINT('',(-1.16053887,-1.256528255,0.06524844));
#1323=CARTESIAN_POINT('',(-1.099751668,-1.147609933,0.111528363));
#1324=CARTESIAN_POINT('',(-1.109564518,-1.158281747,0.11686427));
#1325=CARTESIAN_POINT('',(-1.119966493,-1.16896462,0.119541389));
#1326=CARTESIAN_POINT('',(-1.14103538,-1.190033507,0.119541389));
#1327=CARTESIAN_POINT('',(-1.151718253,-1.200435482,0.11686427));
#1328=CARTESIAN_POINT('',(-1.162390067,-1.210248332,0.111528363));
#1329=CARTESIAN_POINT('',(-1.132275077,-1.146308997,0.125));
#1330=CARTESIAN_POINT('',(-1.132275077,-1.146308997,0.125));
#1331=CARTESIAN_POINT('',(-1.14798304,-1.16201696,0.125));
#1332=CARTESIAN_POINT('',(-1.14798304,-1.16201696,0.125));
#1333=CARTESIAN_POINT('',(-1.163691003,-1.177724923,0.125));
#1334=CARTESIAN_POINT('',(-1.163691003,-1.177724923,0.125));
#1335=CARTESIAN_POINT('',(-1.165000156,-1.144999994,0.125));
#1336=CARTESIAN_POINT('',(-1.165000156,-1.144999994,0.125));
#1337=CARTESIAN_POINT('',(-1.165000081,-1.144999919,0.125));
#1338=CARTESIAN_POINT('',(-1.165000081,-1.144999919,0.125));
#1339=CARTESIAN_POINT('',(-1.165000006,-1.144999844,0.125));
#1340=CARTESIAN_POINT('',(-1.165000006,-1.144999844,0.125));
#1341=CARTESIAN_POINT('',(-1.165000312,-1.144999988,0.125));
#1342=CARTESIAN_POINT('',(-1.165000312,-1.144999988,0.125));
#1343=CARTESIAN_POINT('',(-1.165000162,-1.144999838,0.125));
#1344=CARTESIAN_POINT('',(-1.165000162,-1.144999838,0.125));
#1345=CARTESIAN_POINT('',(-1.165000012,-1.144999688,0.125));
#1346=CARTESIAN_POINT('',(-1.165000012,-1.144999688,0.125));
#1347=CARTESIAN_POINT('',(-1.165000468,-1.144999981,0.125));
#1348=CARTESIAN_POINT('',(-1.165000468,-1.144999981,0.125));
#1349=CARTESIAN_POINT('',(-1.165000243,-1.144999757,0.125));
#1350=CARTESIAN_POINT('',(-1.165000243,-1.144999757,0.125));
#1351=CARTESIAN_POINT('',(-1.165000019,-1.144999532,0.125));
#1352=CARTESIAN_POINT('',(-1.165000019,-1.144999532,0.125));
#1353=B_SPLINE_SURFACE_WITH_KNOTS('',3,3,((#1305,#1306,#1307,#1308,#1309,#1310),(#1311,#1312,#1313,#1314,#1315,#1316),(#1317,#1318,#1319,#1320,#1321,#1322),(#1323,#1324,#1325,#1326,#1327,#1328),(#1329,#1330,#1331,#1332,#1333,#1334),(#1335,#1336,#1337,#1338,#1339,#1340),(#1341,#1342,#1343,#1344,#1345,#1346),(#1347,#1348,#1349,#1350,#1351,#1352)),.UNSPECIFIED.,.F.,.F.,.U.,(4,2,2,4),(4,2,4),(0.000003652,0.785398163,1.570796327,1.570800069),(0.,0.5,1.),.UNSPECIFIED.);
#1354=CARTESIAN_POINT('',(-1.16,-1.27,0.));
#1355=CARTESIAN_POINT('',(-1.128584073,-1.27,0.));
#1356=CARTESIAN_POINT('',(-1.097361601,-1.257067228,0.));
#1357=CARTESIAN_POINT('',(-1.052932772,-1.212638399,0.));
#1358=CARTESIAN_POINT('',(-1.04,-1.181415927,0.));
#1359=CARTESIAN_POINT('',(-1.04,-1.15,0.));
#1360=B_SPLINE_CURVE_WITH_KNOTS('',3,(#1354,#1355,#1356,#1357,#1358,#1359),.UNSPECIFIED.,.F.,.F.,(4,2,4),(0.,0.5,1.),.UNSPECIFIED.);
#1361=EDGE_CURVE('',#957,#1020,#1360,.T.);
#1362=ORIENTED_EDGE('',*,*,#1361,.T.);
#1363=ORIENTED_EDGE('',*,*,#1026,.F.);
#1364=ORIENTED_EDGE('',*,*,#970,.F.);
#1365=EDGE_LOOP('',(#1362,#1363,#1364));
#1366=FACE_BOUND('',#1365,.T.);
#1367=ADVANCED_FACE('',(#1366),#1353,.T.);
#1368=CARTESIAN_POINT('',(0.1,0.,0.));
#1369=DIRECTION('',(1.,0.,0.));
#1370=DIRECTION('',(0.,0.,-1.));
#1371=AXIS2_PLACEMENT_3D('',#1368,#1369,#1370);
#1372=CONICAL_SURFACE('',#1371,1.,45.);
#1373=CARTESIAN_POINT('',(0.1,0.,-1.));
#1374=DIRECTION('',(-0.707106781,-0.,0.707106781));
#1375=VECTOR('',#1374,0.141421356);
#1376=LINE('',#1373,#1375);
#1377=EDGE_CURVE('',#667,#691,#1376,.T.);
#1378=ORIENTED_EDGE('',*,*,#1377,.T.);
#1379=ORIENTED_EDGE('',*,*,#697,.F.);
#1380=ORIENTED_EDGE('',*,*,#1377,.F.);
#1381=ORIENTED_EDGE('',*,*,#673,.F.);
#1382=ORIENTED_EDGE('',*,*,#680,.F.);
#1383=EDGE_LOOP('',(#1378,#1379,#1380,#1381,#1382));
#1384=FACE_BOUND('',#1383,.T.);
#1385=ADVANCED_FACE('',(#1384),#1372,.T.);
#1386=CARTESIAN_POINT('',(-1.164999949,0.591092208,-0.09177507));
#1387=CARTESIAN_POINT('',(-1.164999949,0.591092208,-0.09177507));
#1388=CARTESIAN_POINT('',(-1.16499976,0.591092075,-0.091775203));
#1389=CARTESIAN_POINT('',(-1.16499976,0.591092075,-0.091775203));
#1390=CARTESIAN_POINT('',(-1.164999571,0.591091941,-0.091775336));
#1391=CARTESIAN_POINT('',(-1.164999571,0.591091941,-0.091775336));
#1392=CARTESIAN_POINT('',(-1.164999966,0.591092107,-0.091775171));
#1393=CARTESIAN_POINT('',(-1.164999966,0.591092107,-0.091775171));
#1394=CARTESIAN_POINT('',(-1.16499984,0.591092018,-0.091775259));
#1395=CARTESIAN_POINT('',(-1.16499984,0.591092018,-0.091775259));
#1396=CARTESIAN_POINT('',(-1.164999714,0.591091929,-0.091775348));
#1397=CARTESIAN_POINT('',(-1.164999714,0.591091929,-0.091775348));
#1398=CARTESIAN_POINT('',(-1.164999983,0.591092006,-0.091775272));
#1399=CARTESIAN_POINT('',(-1.164999983,0.591092006,-0.091775272));
#1400=CARTESIAN_POINT('',(-1.16499992,0.591091962,-0.091775316));
#1401=CARTESIAN_POINT('',(-1.16499992,0.591091962,-0.091775316));
#1402=CARTESIAN_POINT('',(-1.164999857,0.591091917,-0.09177536));
#1403=CARTESIAN_POINT('',(-1.164999857,0.591091917,-0.09177536));
#1404=CARTESIAN_POINT('',(-1.168926991,0.56795189,-0.114915388));
#1405=CARTESIAN_POINT('',(-1.168926991,0.56795189,-0.114915388));
#1406=CARTESIAN_POINT('',(-1.183325957,0.578133497,-0.104733781));
#1407=CARTESIAN_POINT('',(-1.183325957,0.578133497,-0.104733781));
#1408=CARTESIAN_POINT('',(-1.197724923,0.588315103,-0.094552174));
#1409=CARTESIAN_POINT('',(-1.197724923,0.588315103,-0.094552174));
#1410=CARTESIAN_POINT('',(-1.1728298,0.535428481,-0.128387025));
#1411=CARTESIAN_POINT('',(-1.182612295,0.545247621,-0.125485154));
#1412=CARTESIAN_POINT('',(-1.192404929,0.553725243,-0.120478048));
#1413=CARTESIAN_POINT('',(-1.211718076,0.5673817,-0.106821591));
#1414=CARTESIAN_POINT('',(-1.22125322,0.57257088,-0.098161895));
#1415=CARTESIAN_POINT('',(-1.230248332,0.576029515,-0.087785991));
#1416=CARTESIAN_POINT('',(-1.178383392,0.469978773,-0.128387025));
#1417=CARTESIAN_POINT('',(-1.199952089,0.482328287,-0.131288883));
#1418=CARTESIAN_POINT('',(-1.221471885,0.495991902,-0.126020201));
#1419=CARTESIAN_POINT('',(-1.256460607,0.520732665,-0.101279438));
#1420=CARTESIAN_POINT('',(-1.269847763,0.531751992,-0.081865178));
#1421=CARTESIAN_POINT('',(-1.276528264,0.539377678,-0.05898812));
#1422=CARTESIAN_POINT('',(-1.179999986,0.437455502,-0.114915503));
#1423=CARTESIAN_POINT('',(-1.208797857,0.442786639,-0.120246559));
#1424=CARTESIAN_POINT('',(-1.237418397,0.454273079,-0.114967422));
#1425=CARTESIAN_POINT('',(-1.278144775,0.483070977,-0.086169524));
#1426=CARTESIAN_POINT('',(-1.289999828,0.500205103,-0.062828094));
#1427=CARTESIAN_POINT('',(-1.289999885,0.515237177,-0.037133828));
#1428=CARTESIAN_POINT('',(-1.18,0.414315506,-0.091775668));
#1429=CARTESIAN_POINT('',(-1.208797933,0.414315574,-0.091775736));
#1430=CARTESIAN_POINT('',(-1.237418532,0.422698393,-0.083392997));
#1431=CARTESIAN_POINT('',(-1.278144959,0.451496326,-0.054595064));
#1432=CARTESIAN_POINT('',(-1.29,0.471734106,-0.034357204));
#1433=CARTESIAN_POINT('',(-1.29,0.492097251,-0.013993922));
#1434=B_SPLINE_SURFACE_WITH_KNOTS('',3,3,((#1386,#1387,#1388,#1389,#1390,#1391),(#1392,#1393,#1394,#1395,#1396,#1397),(#1398,#1399,#1400,#1401,#1402,#1403),(#1404,#1405,#1406,#1407,#1408,#1409),(#1410,#1411,#1412,#1413,#1414,#1415),(#1416,#1417,#1418,#1419,#1420,#1421),(#1422,#1423,#1424,#1425,#1426,#1427),(#1428,#1429,#1430,#1431,#1432,#1433)),.UNSPECIFIED.,.F.,.F.,.U.,(4,2,2,4),(4,2,4),(4.712385552,4.71238898,5.497787144,6.283181961),(0.,0.5,1.),.UNSPECIFIED.);
#1435=ORIENTED_EDGE('',*,*,#382,.F.);
#1436=ORIENTED_EDGE('',*,*,#200,.F.);
#1437=ORIENTED_EDGE('',*,*,#110,.F.);
#1438=EDGE_LOOP('',(#1435,#1436,#1437));
#1439=FACE_BOUND('',#1438,.T.);
#1440=ADVANCED_FACE('',(#1439),#1434,.T.);
#1441=CARTESIAN_POINT('',(-1.165000468,0.87039907,0.541085183));
#1442=CARTESIAN_POINT('',(-1.165000468,0.87039907,0.541085183));
#1443=CARTESIAN_POINT('',(-1.165000243,0.870398912,0.541085025));
#1444=CARTESIAN_POINT('',(-1.165000243,0.870398912,0.541085025));
#1445=CARTESIAN_POINT('',(-1.165000019,0.870398753,0.541084866));
#1446=CARTESIAN_POINT('',(-1.165000019,0.870398753,0.541084866));
#1447=CARTESIAN_POINT('',(-1.165000312,0.870399075,0.541085188));
#1448=CARTESIAN_POINT('',(-1.165000312,0.870399075,0.541085188));
#1449=CARTESIAN_POINT('',(-1.165000162,0.870398969,0.541085082));
#1450=CARTESIAN_POINT('',(-1.165000162,0.870398969,0.541085082));
#1451=CARTESIAN_POINT('',(-1.165000012,0.870398863,0.541084976));
#1452=CARTESIAN_POINT('',(-1.165000012,0.870398863,0.541084976));
#1453=CARTESIAN_POINT('',(-1.165000156,0.870399079,0.541085192));
#1454=CARTESIAN_POINT('',(-1.165000156,0.870399079,0.541085192));
#1455=CARTESIAN_POINT('',(-1.165000081,0.870399026,0.541085139));
#1456=CARTESIAN_POINT('',(-1.165000081,0.870399026,0.541085139));
#1457=CARTESIAN_POINT('',(-1.165000006,0.870398973,0.541085086));
#1458=CARTESIAN_POINT('',(-1.165000006,0.870398973,0.541085086));
#1459=CARTESIAN_POINT('',(-1.132275077,0.871324684,0.542010797));
#1460=CARTESIAN_POINT('',(-1.132275077,0.871324684,0.542010797));
#1461=CARTESIAN_POINT('',(-1.14798304,0.882431892,0.553118005));
#1462=CARTESIAN_POINT('',(-1.14798304,0.882431892,0.553118005));
#1463=CARTESIAN_POINT('',(-1.163691003,0.893539099,0.564225212));
#1464=CARTESIAN_POINT('',(-1.163691003,0.893539099,0.564225212));
#1465=CARTESIAN_POINT('',(-1.099751668,0.881770471,0.533404812));
#1466=CARTESIAN_POINT('',(-1.109564518,0.885543527,0.54472398));
#1467=CARTESIAN_POINT('',(-1.119966493,0.89120445,0.554170921));
#1468=CARTESIAN_POINT('',(-1.14103538,0.906102403,0.569068874));
#1469=CARTESIAN_POINT('',(-1.151718253,0.915350719,0.574531172));
#1470=CARTESIAN_POINT('',(-1.162390067,0.926062508,0.577696849));
#1471=CARTESIAN_POINT('',(-1.053471745,0.915804312,0.501988959));
#1472=CARTESIAN_POINT('',(-1.060759565,0.924123242,0.526945747));
#1473=CARTESIAN_POINT('',(-1.075363734,0.936144325,0.548124937));
#1474=CARTESIAN_POINT('',(-1.113533246,0.963134245,0.575114858));
#1475=CARTESIAN_POINT('',(-1.137009384,0.978040006,0.580862511));
#1476=CARTESIAN_POINT('',(-1.16053887,0.991512203,0.577696849));
#1477=CARTESIAN_POINT('',(-1.040000125,0.939182732,0.479372608));
#1478=CARTESIAN_POINT('',(-1.040000193,0.955581352,0.507402715));
#1479=CARTESIAN_POINT('',(-1.05293298,0.97427312,0.532866089));
#1480=CARTESIAN_POINT('',(-1.097361751,1.005689006,0.564281974));
#1481=CARTESIAN_POINT('',(-1.128584152,1.01821967,0.570041033));
#1482=CARTESIAN_POINT('',(-1.160000005,1.024035461,0.564225337));
#1483=CARTESIAN_POINT('',(-1.04,0.962322642,0.456232706));
#1484=CARTESIAN_POINT('',(-1.04,0.984536976,0.478447201));
#1485=CARTESIAN_POINT('',(-1.052932772,1.006614551,0.500524871));
#1486=CARTESIAN_POINT('',(-1.097361601,1.038030477,0.531940797));
#1487=CARTESIAN_POINT('',(-1.128584073,1.047175375,0.541085601));
#1488=CARTESIAN_POINT('',(-1.16,1.047175456,0.541085519));
#1489=B_SPLINE_SURFACE_WITH_KNOTS('',3,3,((#1441,#1442,#1443,#1444,#1445,#1446),(#1447,#1448,#1449,#1450,#1451,#1452),(#1453,#1454,#1455,#1456,#1457,#1458),(#1459,#1460,#1461,#1462,#1463,#1464),(#1465,#1466,#1467,#1468,#1469,#1470),(#1471,#1472,#1473,#1474,#1475,#1476),(#1477,#1478,#1479,#1480,#1481,#1482),(#1483,#1484,#1485,#1486,#1487,#1488)),.UNSPECIFIED.,.F.,.F.,.U.,(4,2,2,4),(4,2,4),(4.712385238,4.71238898,5.497787144,6.283181655),(0.,0.5,1.),.UNSPECIFIED.);
#1490=ORIENTED_EDGE('',*,*,#559,.F.);
#1491=ORIENTED_EDGE('',*,*,#161,.F.);
#1492=ORIENTED_EDGE('',*,*,#231,.F.);
#1493=EDGE_LOOP('',(#1490,#1491,#1492));
#1494=FACE_BOUND('',#1493,.T.);
#1495=ADVANCED_FACE('',(#1494),#1489,.T.);
#1496=CARTESIAN_POINT('',(-1.164999949,-0.500000429,0.125));
#1497=CARTESIAN_POINT('',(-1.164999949,-0.500000429,0.125));
#1498=CARTESIAN_POINT('',(-1.16499976,-0.50000024,0.125));
#1499=CARTESIAN_POINT('',(-1.16499976,-0.50000024,0.125));
#1500=CARTESIAN_POINT('',(-1.164999571,-0.500000051,0.125));
#1501=CARTESIAN_POINT('',(-1.164999571,-0.500000051,0.125));
#1502=CARTESIAN_POINT('',(-1.164999966,-0.500000286,0.125));
#1503=CARTESIAN_POINT('',(-1.164999966,-0.500000286,0.125));
#1504=CARTESIAN_POINT('',(-1.16499984,-0.50000016,0.125));
#1505=CARTESIAN_POINT('',(-1.16499984,-0.50000016,0.125));
#1506=CARTESIAN_POINT('',(-1.164999714,-0.500000034,0.125));
#1507=CARTESIAN_POINT('',(-1.164999714,-0.500000034,0.125));
#1508=CARTESIAN_POINT('',(-1.164999983,-0.500000143,0.125));
#1509=CARTESIAN_POINT('',(-1.164999983,-0.500000143,0.125));
#1510=CARTESIAN_POINT('',(-1.16499992,-0.50000008,0.125));
#1511=CARTESIAN_POINT('',(-1.16499992,-0.50000008,0.125));
#1512=CARTESIAN_POINT('',(-1.164999857,-0.500000017,0.125));
#1513=CARTESIAN_POINT('',(-1.164999857,-0.500000017,0.125));
#1514=CARTESIAN_POINT('',(-1.168926991,-0.467275077,0.125));
#1515=CARTESIAN_POINT('',(-1.168926991,-0.467275077,0.125));
#1516=CARTESIAN_POINT('',(-1.183325957,-0.481674043,0.125));
#1517=CARTESIAN_POINT('',(-1.183325957,-0.481674043,0.125));
#1518=CARTESIAN_POINT('',(-1.197724923,-0.496073009,0.125));
#1519=CARTESIAN_POINT('',(-1.197724923,-0.496073009,0.125));
#1520=CARTESIAN_POINT('',(-1.1728298,-0.434751668,0.111528363));
#1521=CARTESIAN_POINT('',(-1.182612295,-0.44374678,0.116419611));
#1522=CARTESIAN_POINT('',(-1.192404929,-0.453281924,0.118873636));
#1523=CARTESIAN_POINT('',(-1.211718076,-0.472595071,0.118873636));
#1524=CARTESIAN_POINT('',(-1.22125322,-0.482387705,0.116419611));
#1525=CARTESIAN_POINT('',(-1.230248332,-0.4921702,0.111528363));
#1526=CARTESIAN_POINT('',(-1.178383392,-0.388471736,0.065248431));
#1527=CARTESIAN_POINT('',(-1.199952089,-0.395152237,0.07603278));
#1528=CARTESIAN_POINT('',(-1.221471885,-0.408539393,0.081968893));
#1529=CARTESIAN_POINT('',(-1.256460607,-0.443528115,0.081968893));
#1530=CARTESIAN_POINT('',(-1.269847763,-0.465047911,0.07603278));
#1531=CARTESIAN_POINT('',(-1.276528264,-0.486616608,0.065248431));
#1532=CARTESIAN_POINT('',(-1.179999986,-0.375000115,0.032725201));
#1533=CARTESIAN_POINT('',(-1.208797857,-0.375000172,0.040264509));
#1534=CARTESIAN_POINT('',(-1.237418397,-0.386855225,0.044653736));
#1535=CARTESIAN_POINT('',(-1.278144775,-0.427581603,0.044653736));
#1536=CARTESIAN_POINT('',(-1.289999828,-0.456202143,0.040264509));
#1537=CARTESIAN_POINT('',(-1.289999885,-0.485000014,0.032725201));
#1538=CARTESIAN_POINT('',(-1.18,-0.375,0.000000418));
#1539=CARTESIAN_POINT('',(-1.208797933,-0.375,0.000000515));
#1540=CARTESIAN_POINT('',(-1.237418532,-0.386855041,0.000000571));
#1541=CARTESIAN_POINT('',(-1.278144959,-0.427581468,0.000000571));
#1542=CARTESIAN_POINT('',(-1.29,-0.456202067,0.000000515));
#1543=CARTESIAN_POINT('',(-1.29,-0.485,0.000000418));
#1544=B_SPLINE_SURFACE_WITH_KNOTS('',3,3,((#1496,#1497,#1498,#1499,#1500,#1501),(#1502,#1503,#1504,#1505,#1506,#1507),(#1508,#1509,#1510,#1511,#1512,#1513),(#1514,#1515,#1516,#1517,#1518,#1519),(#1520,#1521,#1522,#1523,#1524,#1525),(#1526,#1527,#1528,#1529,#1530,#1531),(#1532,#1533,#1534,#1535,#1536,#1537),(#1538,#1539,#1540,#1541,#1542,#1543)),.UNSPECIFIED.,.F.,.F.,.U.,(4,2,2,4),(4,2,4),(4.712385552,4.71238898,5.497787144,6.283181961),(0.,0.5,1.),.UNSPECIFIED.);
#1545=ORIENTED_EDGE('',*,*,#1184,.F.);
#1546=ORIENTED_EDGE('',*,*,#1002,.F.);
#1547=ORIENTED_EDGE('',*,*,#912,.F.);
#1548=EDGE_LOOP('',(#1545,#1546,#1547));
#1549=FACE_BOUND('',#1548,.T.);
#1550=ADVANCED_FACE('',(#1549),#1544,.T.);
#1551=CARTESIAN_POINT('',(-1.165000468,-1.144999981,-0.125));
#1552=CARTESIAN_POINT('',(-1.165000468,-1.144999981,-0.125));
#1553=CARTESIAN_POINT('',(-1.165000243,-1.144999757,-0.125));
#1554=CARTESIAN_POINT('',(-1.165000243,-1.144999757,-0.125));
#1555=CARTESIAN_POINT('',(-1.165000019,-1.144999532,-0.125));
#1556=CARTESIAN_POINT('',(-1.165000019,-1.144999532,-0.125));
#1557=CARTESIAN_POINT('',(-1.165000312,-1.144999988,-0.125));
#1558=CARTESIAN_POINT('',(-1.165000312,-1.144999988,-0.125));
#1559=CARTESIAN_POINT('',(-1.165000162,-1.144999838,-0.125));
#1560=CARTESIAN_POINT('',(-1.165000162,-1.144999838,-0.125));
#1561=CARTESIAN_POINT('',(-1.165000012,-1.144999688,-0.125));
#1562=CARTESIAN_POINT('',(-1.165000012,-1.144999688,-0.125));
#1563=CARTESIAN_POINT('',(-1.165000156,-1.144999994,-0.125));
#1564=CARTESIAN_POINT('',(-1.165000156,-1.144999994,-0.125));
#1565=CARTESIAN_POINT('',(-1.165000081,-1.144999919,-0.125));
#1566=CARTESIAN_POINT('',(-1.165000081,-1.144999919,-0.125));
#1567=CARTESIAN_POINT('',(-1.165000006,-1.144999844,-0.125));
#1568=CARTESIAN_POINT('',(-1.165000006,-1.144999844,-0.125));
#1569=CARTESIAN_POINT('',(-1.132275077,-1.146308997,-0.125));
#1570=CARTESIAN_POINT('',(-1.132275077,-1.146308997,-0.125));
#1571=CARTESIAN_POINT('',(-1.14798304,-1.16201696,-0.125));
#1572=CARTESIAN_POINT('',(-1.14798304,-1.16201696,-0.125));
#1573=CARTESIAN_POINT('',(-1.163691003,-1.177724923,-0.125));
#1574=CARTESIAN_POINT('',(-1.163691003,-1.177724923,-0.125));
#1575=CARTESIAN_POINT('',(-1.099751668,-1.147609933,-0.111528363));
#1576=CARTESIAN_POINT('',(-1.109564518,-1.158281747,-0.11686427));
#1577=CARTESIAN_POINT('',(-1.119966493,-1.16896462,-0.119541389));
#1578=CARTESIAN_POINT('',(-1.14103538,-1.190033507,-0.119541389));
#1579=CARTESIAN_POINT('',(-1.151718253,-1.200435482,-0.11686427));
#1580=CARTESIAN_POINT('',(-1.162390067,-1.210248332,-0.111528363));
#1581=CARTESIAN_POINT('',(-1.053471745,-1.14946113,-0.06524844));
#1582=CARTESIAN_POINT('',(-1.060759565,-1.172990616,-0.077013183));
#1583=CARTESIAN_POINT('',(-1.075363734,-1.196466754,-0.083488942));
#1584=CARTESIAN_POINT('',(-1.113533246,-1.234636266,-0.083488942));
#1585=CARTESIAN_POINT('',(-1.137009384,-1.249240435,-0.077013183));
#1586=CARTESIAN_POINT('',(-1.16053887,-1.256528255,-0.06524844));
#1587=CARTESIAN_POINT('',(-1.040000125,-1.149999995,-0.032725226));
#1588=CARTESIAN_POINT('',(-1.040000193,-1.181415848,-0.040949929));
#1589=CARTESIAN_POINT('',(-1.05293298,-1.212638249,-0.045738177));
#1590=CARTESIAN_POINT('',(-1.097361751,-1.25706702,-0.045738177));
#1591=CARTESIAN_POINT('',(-1.128584152,-1.269999807,-0.040949929));
#1592=CARTESIAN_POINT('',(-1.160000005,-1.269999875,-0.032725226));
#1593=CARTESIAN_POINT('',(-1.04,-1.15,-0.000000456));
#1594=CARTESIAN_POINT('',(-1.04,-1.181415927,-0.000000571));
#1595=CARTESIAN_POINT('',(-1.052932772,-1.212638399,-0.000000638));
#1596=CARTESIAN_POINT('',(-1.097361601,-1.257067228,-0.000000638));
#1597=CARTESIAN_POINT('',(-1.128584073,-1.27,-0.000000571));
#1598=CARTESIAN_POINT('',(-1.16,-1.27,-0.000000456));
#1599=B_SPLINE_SURFACE_WITH_KNOTS('',3,3,((#1551,#1552,#1553,#1554,#1555,#1556),(#1557,#1558,#1559,#1560,#1561,#1562),(#1563,#1564,#1565,#1566,#1567,#1568),(#1569,#1570,#1571,#1572,#1573,#1574),(#1575,#1576,#1577,#1578,#1579,#1580),(#1581,#1582,#1583,#1584,#1585,#1586),(#1587,#1588,#1589,#1590,#1591,#1592),(#1593,#1594,#1595,#1596,#1597,#1598)),.UNSPECIFIED.,.F.,.F.,.U.,(4,2,2,4),(4,2,4),(4.712385238,4.71238898,5.497787144,6.283181655),(0.,0.5,1.),.UNSPECIFIED.);
#1600=ORIENTED_EDGE('',*,*,#1361,.F.);
#1601=ORIENTED_EDGE('',*,*,#963,.F.);
#1602=ORIENTED_EDGE('',*,*,#1033,.F.);
#1603=EDGE_LOOP('',(#1600,#1601,#1602));
#1604=FACE_BOUND('',#1603,.T.);
#1605=ADVANCED_FACE('',(#1604),#1599,.T.);
#1606=CLOSED_SHELL('',(#114,#131,#174,#235,#325,#388,#502,#565,#616,#633,#684,#721,#756,#776,#795,#830,#864,#916,#933,#976,#1037,#1127,#1190,#1304,#1367,#1385,
#1440,#1495,#1550,#1605));
#1607=MANIFOLD_SOLID_BREP('Body 02',#1606);
#1608=COLOUR_RGB('',0.796078444,0.796078444,0.815686285);
#1609=FILL_AREA_STYLE_COLOUR('',#1608);
#1610=FILL_AREA_STYLE('',(#1609));
#1611=SURFACE_STYLE_FILL_AREA(#1610);
#1612=SURFACE_SIDE_STYLE('',(#1611));
#1613=SURFACE_STYLE_USAGE(.BOTH.,#1612);
#1614=PRESENTATION_STYLE_ASSIGNMENT((#1613));
#54=STYLED_ITEM('',(#1614),#1607);
#35=SHAPE_REPRESENTATION('Circular Pattern 01',(#15),#33);
#36=ADVANCED_BREP_SHAPE_REPRESENTATION('Circular Pattern 01',(#1607),#33);
#1622=SHAPE_REPRESENTATION_RELATIONSHIP('','',#35,#36);
#1623=APPLICATION_CONTEXT('data for automotive mechanical design processes');
#1624=APPLICATION_PROTOCOL_DEFINITION('international standard','automotive_design',1994,#1623);
#1625=PRODUCT_CONTEXT('',#1623,'mechanical');
#1626=PRODUCT_DEFINITION_CONTEXT('part definition',#1623,'design');
#43=PRODUCT('Circular Pattern 01','Circular Pattern 01','',(#1625));
#1627=PRODUCT_RELATED_PRODUCT_CATEGORY('part','',(#43));
#1628=PRODUCT_DEFINITION_FORMATION_WITH_SPECIFIED_SOURCE('','',#43,.NOT_KNOWN.);
#44=PRODUCT_DEFINITION('design','',#1628,#1626);
#42=PRODUCT_DEFINITION_SHAPE('','',#44);
#1629=SHAPE_DEFINITION_REPRESENTATION(#42,#35);
#34=DRAUGHTING_MODEL('',(),#33);
#16=SHAPE_REPRESENTATION('root',(#15,#48),#10);
#24=PRODUCT('root','root','',(#1625));
#1630=PRODUCT_RELATED_PRODUCT_CATEGORY('part','',(#24));
#1631=PRODUCT_DEFINITION_FORMATION_WITH_SPECIFIED_SOURCE('','',#24,.NOT_KNOWN.);
#25=PRODUCT_DEFINITION('design','',#1631,#1626);
#23=PRODUCT_DEFINITION_SHAPE('','',#25);
#1632=SHAPE_DEFINITION_REPRESENTATION(#23,#16);
#11=DRAUGHTING_MODEL('',(),#10);
#1=MECHANICAL_DESIGN_GEOMETRIC_PRESENTATION_REPRESENTATION('',(#872,#54),#10);
ENDSEC;
END-ISO-10303-21;
